<?xml version="1.0" encoding="utf-8" standalone="no"?>
<!DOCTYPE svg PUBLIC "-//W3C//DTD SVG 1.1//EN"
  "http://www.w3.org/Graphics/SVG/1.1/DTD/svg11.dtd">
<!-- Created with matplotlib (http://matplotlib.org/) -->
<svg height="345.6pt" version="1.1" viewBox="0 0 460.8 345.6" width="460.8pt" xmlns="http://www.w3.org/2000/svg" xmlns:xlink="http://www.w3.org/1999/xlink">
 <defs>
  <style type="text/css">
*{stroke-linecap:butt;stroke-linejoin:round;}
  </style>
 </defs>
 <g id="figure_1">
  <g id="patch_1">
   <path d="M 0 345.6 
L 460.8 345.6 
L 460.8 0 
L 0 0 
z
" style="fill:#ffffff;"/>
  </g>
  <g id="axes_1">
   <g id="patch_2">
    <path d="M 57.6 307.584 
L 414.72 307.584 
L 414.72 41.472 
L 57.6 41.472 
z
" style="fill:#ffffff;"/>
   </g>
   <g id="matplotlib.axis_1">
    <g id="xtick_1">
     <g id="line2d_1">
      <defs>
       <path d="M 0 0 
L 0 3.5 
" id="m0f99633d12" style="stroke:#000000;stroke-width:0.8;"/>
      </defs>
      <g>
       <use style="stroke:#000000;stroke-width:0.8;" x="93.312" xlink:href="#m0f99633d12" y="307.584"/>
      </g>
     </g>
     <g id="text_1">
      <!-- −4 -->
      <defs>
       <path d="M 10.59375 35.5 
L 73.1875 35.5 
L 73.1875 27.203125 
L 10.59375 27.203125 
z
" id="DejaVuSans-2212"/>
       <path d="M 37.796875 64.3125 
L 12.890625 25.390625 
L 37.796875 25.390625 
z
M 35.203125 72.90625 
L 47.609375 72.90625 
L 47.609375 25.390625 
L 58.015625 25.390625 
L 58.015625 17.1875 
L 47.609375 17.1875 
L 47.609375 0 
L 37.796875 0 
L 37.796875 17.1875 
L 4.890625 17.1875 
L 4.890625 26.703125 
z
" id="DejaVuSans-34"/>
      </defs>
      <g transform="translate(85.940906 322.182437)scale(0.1 -0.1)">
       <use xlink:href="#DejaVuSans-2212"/>
       <use x="83.789062" xlink:href="#DejaVuSans-34"/>
      </g>
     </g>
    </g>
    <g id="xtick_2">
     <g id="line2d_2">
      <g>
       <use style="stroke:#000000;stroke-width:0.8;" x="164.736" xlink:href="#m0f99633d12" y="307.584"/>
      </g>
     </g>
     <g id="text_2">
      <!-- −2 -->
      <defs>
       <path d="M 19.1875 8.296875 
L 53.609375 8.296875 
L 53.609375 0 
L 7.328125 0 
L 7.328125 8.296875 
Q 12.9375 14.109375 22.625 23.890625 
Q 32.328125 33.6875 34.8125 36.53125 
Q 39.546875 41.84375 41.421875 45.53125 
Q 43.3125 49.21875 43.3125 52.78125 
Q 43.3125 58.59375 39.234375 62.25 
Q 35.15625 65.921875 28.609375 65.921875 
Q 23.96875 65.921875 18.8125 64.3125 
Q 13.671875 62.703125 7.8125 59.421875 
L 7.8125 69.390625 
Q 13.765625 71.78125 18.9375 73 
Q 24.125 74.21875 28.421875 74.21875 
Q 39.75 74.21875 46.484375 68.546875 
Q 53.21875 62.890625 53.21875 53.421875 
Q 53.21875 48.921875 51.53125 44.890625 
Q 49.859375 40.875 45.40625 35.40625 
Q 44.1875 33.984375 37.640625 27.21875 
Q 31.109375 20.453125 19.1875 8.296875 
z
" id="DejaVuSans-32"/>
      </defs>
      <g transform="translate(157.364906 322.182437)scale(0.1 -0.1)">
       <use xlink:href="#DejaVuSans-2212"/>
       <use x="83.789062" xlink:href="#DejaVuSans-32"/>
      </g>
     </g>
    </g>
    <g id="xtick_3">
     <g id="line2d_3">
      <g>
       <use style="stroke:#000000;stroke-width:0.8;" x="236.16" xlink:href="#m0f99633d12" y="307.584"/>
      </g>
     </g>
     <g id="text_3">
      <!-- 0 -->
      <defs>
       <path d="M 31.78125 66.40625 
Q 24.171875 66.40625 20.328125 58.90625 
Q 16.5 51.421875 16.5 36.375 
Q 16.5 21.390625 20.328125 13.890625 
Q 24.171875 6.390625 31.78125 6.390625 
Q 39.453125 6.390625 43.28125 13.890625 
Q 47.125 21.390625 47.125 36.375 
Q 47.125 51.421875 43.28125 58.90625 
Q 39.453125 66.40625 31.78125 66.40625 
z
M 31.78125 74.21875 
Q 44.046875 74.21875 50.515625 64.515625 
Q 56.984375 54.828125 56.984375 36.375 
Q 56.984375 17.96875 50.515625 8.265625 
Q 44.046875 -1.421875 31.78125 -1.421875 
Q 19.53125 -1.421875 13.0625 8.265625 
Q 6.59375 17.96875 6.59375 36.375 
Q 6.59375 54.828125 13.0625 64.515625 
Q 19.53125 74.21875 31.78125 74.21875 
z
" id="DejaVuSans-30"/>
      </defs>
      <g transform="translate(232.97875 322.182437)scale(0.1 -0.1)">
       <use xlink:href="#DejaVuSans-30"/>
      </g>
     </g>
    </g>
    <g id="xtick_4">
     <g id="line2d_4">
      <g>
       <use style="stroke:#000000;stroke-width:0.8;" x="307.584" xlink:href="#m0f99633d12" y="307.584"/>
      </g>
     </g>
     <g id="text_4">
      <!-- 2 -->
      <g transform="translate(304.40275 322.182437)scale(0.1 -0.1)">
       <use xlink:href="#DejaVuSans-32"/>
      </g>
     </g>
    </g>
    <g id="xtick_5">
     <g id="line2d_5">
      <g>
       <use style="stroke:#000000;stroke-width:0.8;" x="379.008" xlink:href="#m0f99633d12" y="307.584"/>
      </g>
     </g>
     <g id="text_5">
      <!-- 4 -->
      <g transform="translate(375.82675 322.182437)scale(0.1 -0.1)">
       <use xlink:href="#DejaVuSans-34"/>
      </g>
     </g>
    </g>
    <g id="text_6">
     <!-- Probe position $x/h$ -->
     <defs>
      <path d="M 19.671875 64.796875 
L 19.671875 37.40625 
L 32.078125 37.40625 
Q 38.96875 37.40625 42.71875 40.96875 
Q 46.484375 44.53125 46.484375 51.125 
Q 46.484375 57.671875 42.71875 61.234375 
Q 38.96875 64.796875 32.078125 64.796875 
z
M 9.8125 72.90625 
L 32.078125 72.90625 
Q 44.34375 72.90625 50.609375 67.359375 
Q 56.890625 61.8125 56.890625 51.125 
Q 56.890625 40.328125 50.609375 34.8125 
Q 44.34375 29.296875 32.078125 29.296875 
L 19.671875 29.296875 
L 19.671875 0 
L 9.8125 0 
z
" id="DejaVuSans-50"/>
      <path d="M 41.109375 46.296875 
Q 39.59375 47.171875 37.8125 47.578125 
Q 36.03125 48 33.890625 48 
Q 26.265625 48 22.1875 43.046875 
Q 18.109375 38.09375 18.109375 28.8125 
L 18.109375 0 
L 9.078125 0 
L 9.078125 54.6875 
L 18.109375 54.6875 
L 18.109375 46.1875 
Q 20.953125 51.171875 25.484375 53.578125 
Q 30.03125 56 36.53125 56 
Q 37.453125 56 38.578125 55.875 
Q 39.703125 55.765625 41.0625 55.515625 
z
" id="DejaVuSans-72"/>
      <path d="M 30.609375 48.390625 
Q 23.390625 48.390625 19.1875 42.75 
Q 14.984375 37.109375 14.984375 27.296875 
Q 14.984375 17.484375 19.15625 11.84375 
Q 23.34375 6.203125 30.609375 6.203125 
Q 37.796875 6.203125 41.984375 11.859375 
Q 46.1875 17.53125 46.1875 27.296875 
Q 46.1875 37.015625 41.984375 42.703125 
Q 37.796875 48.390625 30.609375 48.390625 
z
M 30.609375 56 
Q 42.328125 56 49.015625 48.375 
Q 55.71875 40.765625 55.71875 27.296875 
Q 55.71875 13.875 49.015625 6.21875 
Q 42.328125 -1.421875 30.609375 -1.421875 
Q 18.84375 -1.421875 12.171875 6.21875 
Q 5.515625 13.875 5.515625 27.296875 
Q 5.515625 40.765625 12.171875 48.375 
Q 18.84375 56 30.609375 56 
z
" id="DejaVuSans-6f"/>
      <path d="M 48.6875 27.296875 
Q 48.6875 37.203125 44.609375 42.84375 
Q 40.53125 48.484375 33.40625 48.484375 
Q 26.265625 48.484375 22.1875 42.84375 
Q 18.109375 37.203125 18.109375 27.296875 
Q 18.109375 17.390625 22.1875 11.75 
Q 26.265625 6.109375 33.40625 6.109375 
Q 40.53125 6.109375 44.609375 11.75 
Q 48.6875 17.390625 48.6875 27.296875 
z
M 18.109375 46.390625 
Q 20.953125 51.265625 25.265625 53.625 
Q 29.59375 56 35.59375 56 
Q 45.5625 56 51.78125 48.09375 
Q 58.015625 40.1875 58.015625 27.296875 
Q 58.015625 14.40625 51.78125 6.484375 
Q 45.5625 -1.421875 35.59375 -1.421875 
Q 29.59375 -1.421875 25.265625 0.953125 
Q 20.953125 3.328125 18.109375 8.203125 
L 18.109375 0 
L 9.078125 0 
L 9.078125 75.984375 
L 18.109375 75.984375 
z
" id="DejaVuSans-62"/>
      <path d="M 56.203125 29.59375 
L 56.203125 25.203125 
L 14.890625 25.203125 
Q 15.484375 15.921875 20.484375 11.0625 
Q 25.484375 6.203125 34.421875 6.203125 
Q 39.59375 6.203125 44.453125 7.46875 
Q 49.3125 8.734375 54.109375 11.28125 
L 54.109375 2.78125 
Q 49.265625 0.734375 44.1875 -0.34375 
Q 39.109375 -1.421875 33.890625 -1.421875 
Q 20.796875 -1.421875 13.15625 6.1875 
Q 5.515625 13.8125 5.515625 26.8125 
Q 5.515625 40.234375 12.765625 48.109375 
Q 20.015625 56 32.328125 56 
Q 43.359375 56 49.78125 48.890625 
Q 56.203125 41.796875 56.203125 29.59375 
z
M 47.21875 32.234375 
Q 47.125 39.59375 43.09375 43.984375 
Q 39.0625 48.390625 32.421875 48.390625 
Q 24.90625 48.390625 20.390625 44.140625 
Q 15.875 39.890625 15.1875 32.171875 
z
" id="DejaVuSans-65"/>
      <path id="DejaVuSans-20"/>
      <path d="M 18.109375 8.203125 
L 18.109375 -20.796875 
L 9.078125 -20.796875 
L 9.078125 54.6875 
L 18.109375 54.6875 
L 18.109375 46.390625 
Q 20.953125 51.265625 25.265625 53.625 
Q 29.59375 56 35.59375 56 
Q 45.5625 56 51.78125 48.09375 
Q 58.015625 40.1875 58.015625 27.296875 
Q 58.015625 14.40625 51.78125 6.484375 
Q 45.5625 -1.421875 35.59375 -1.421875 
Q 29.59375 -1.421875 25.265625 0.953125 
Q 20.953125 3.328125 18.109375 8.203125 
z
M 48.6875 27.296875 
Q 48.6875 37.203125 44.609375 42.84375 
Q 40.53125 48.484375 33.40625 48.484375 
Q 26.265625 48.484375 22.1875 42.84375 
Q 18.109375 37.203125 18.109375 27.296875 
Q 18.109375 17.390625 22.1875 11.75 
Q 26.265625 6.109375 33.40625 6.109375 
Q 40.53125 6.109375 44.609375 11.75 
Q 48.6875 17.390625 48.6875 27.296875 
z
" id="DejaVuSans-70"/>
      <path d="M 44.28125 53.078125 
L 44.28125 44.578125 
Q 40.484375 46.53125 36.375 47.5 
Q 32.28125 48.484375 27.875 48.484375 
Q 21.1875 48.484375 17.84375 46.4375 
Q 14.5 44.390625 14.5 40.28125 
Q 14.5 37.15625 16.890625 35.375 
Q 19.28125 33.59375 26.515625 31.984375 
L 29.59375 31.296875 
Q 39.15625 29.25 43.1875 25.515625 
Q 47.21875 21.78125 47.21875 15.09375 
Q 47.21875 7.46875 41.1875 3.015625 
Q 35.15625 -1.421875 24.609375 -1.421875 
Q 20.21875 -1.421875 15.453125 -0.5625 
Q 10.6875 0.296875 5.421875 2 
L 5.421875 11.28125 
Q 10.40625 8.6875 15.234375 7.390625 
Q 20.0625 6.109375 24.8125 6.109375 
Q 31.15625 6.109375 34.5625 8.28125 
Q 37.984375 10.453125 37.984375 14.40625 
Q 37.984375 18.0625 35.515625 20.015625 
Q 33.0625 21.96875 24.703125 23.78125 
L 21.578125 24.515625 
Q 13.234375 26.265625 9.515625 29.90625 
Q 5.8125 33.546875 5.8125 39.890625 
Q 5.8125 47.609375 11.28125 51.796875 
Q 16.75 56 26.8125 56 
Q 31.78125 56 36.171875 55.265625 
Q 40.578125 54.546875 44.28125 53.078125 
z
" id="DejaVuSans-73"/>
      <path d="M 9.421875 54.6875 
L 18.40625 54.6875 
L 18.40625 0 
L 9.421875 0 
z
M 9.421875 75.984375 
L 18.40625 75.984375 
L 18.40625 64.59375 
L 9.421875 64.59375 
z
" id="DejaVuSans-69"/>
      <path d="M 18.3125 70.21875 
L 18.3125 54.6875 
L 36.8125 54.6875 
L 36.8125 47.703125 
L 18.3125 47.703125 
L 18.3125 18.015625 
Q 18.3125 11.328125 20.140625 9.421875 
Q 21.96875 7.515625 27.59375 7.515625 
L 36.8125 7.515625 
L 36.8125 0 
L 27.59375 0 
Q 17.1875 0 13.234375 3.875 
Q 9.28125 7.765625 9.28125 18.015625 
L 9.28125 47.703125 
L 2.6875 47.703125 
L 2.6875 54.6875 
L 9.28125 54.6875 
L 9.28125 70.21875 
z
" id="DejaVuSans-74"/>
      <path d="M 54.890625 33.015625 
L 54.890625 0 
L 45.90625 0 
L 45.90625 32.71875 
Q 45.90625 40.484375 42.875 44.328125 
Q 39.84375 48.1875 33.796875 48.1875 
Q 26.515625 48.1875 22.3125 43.546875 
Q 18.109375 38.921875 18.109375 30.90625 
L 18.109375 0 
L 9.078125 0 
L 9.078125 54.6875 
L 18.109375 54.6875 
L 18.109375 46.1875 
Q 21.34375 51.125 25.703125 53.5625 
Q 30.078125 56 35.796875 56 
Q 45.21875 56 50.046875 50.171875 
Q 54.890625 44.34375 54.890625 33.015625 
z
" id="DejaVuSans-6e"/>
      <path d="M 60.015625 54.6875 
L 34.90625 27.875 
L 50.296875 0 
L 39.984375 0 
L 28.421875 21.6875 
L 8.296875 0 
L -2.59375 0 
L 24.3125 28.8125 
L 10.015625 54.6875 
L 20.3125 54.6875 
L 30.8125 34.90625 
L 49.125 54.6875 
z
" id="DejaVuSans-Oblique-78"/>
      <path d="M 25.390625 72.90625 
L 33.6875 72.90625 
L 8.296875 -9.28125 
L 0 -9.28125 
z
" id="DejaVuSans-2f"/>
      <path d="M 55.71875 33.015625 
L 49.3125 0 
L 40.28125 0 
L 46.6875 32.671875 
Q 47.125 34.96875 47.359375 36.71875 
Q 47.609375 38.484375 47.609375 39.5 
Q 47.609375 43.609375 45.015625 45.890625 
Q 42.4375 48.1875 37.796875 48.1875 
Q 30.5625 48.1875 25.265625 43.296875 
Q 19.96875 38.421875 18.40625 30.328125 
L 12.5 0 
L 3.515625 0 
L 18.3125 75.984375 
L 27.296875 75.984375 
L 21.484375 46.09375 
Q 24.90625 50.6875 30.21875 53.34375 
Q 35.546875 56 41.40625 56 
Q 48.640625 56 52.609375 52.09375 
Q 56.59375 48.1875 56.59375 41.109375 
Q 56.59375 39.359375 56.375 37.359375 
Q 56.15625 35.359375 55.71875 33.015625 
z
" id="DejaVuSans-Oblique-68"/>
     </defs>
     <g transform="translate(190.96 335.862125)scale(0.1 -0.1)">
      <use transform="translate(0 0.015625)" xlink:href="#DejaVuSans-50"/>
      <use transform="translate(60.302734 0.015625)" xlink:href="#DejaVuSans-72"/>
      <use transform="translate(101.416016 0.015625)" xlink:href="#DejaVuSans-6f"/>
      <use transform="translate(162.597656 0.015625)" xlink:href="#DejaVuSans-62"/>
      <use transform="translate(226.074219 0.015625)" xlink:href="#DejaVuSans-65"/>
      <use transform="translate(287.597656 0.015625)" xlink:href="#DejaVuSans-20"/>
      <use transform="translate(319.384766 0.015625)" xlink:href="#DejaVuSans-70"/>
      <use transform="translate(382.861328 0.015625)" xlink:href="#DejaVuSans-6f"/>
      <use transform="translate(444.042969 0.015625)" xlink:href="#DejaVuSans-73"/>
      <use transform="translate(496.142578 0.015625)" xlink:href="#DejaVuSans-69"/>
      <use transform="translate(523.925781 0.015625)" xlink:href="#DejaVuSans-74"/>
      <use transform="translate(563.134766 0.015625)" xlink:href="#DejaVuSans-69"/>
      <use transform="translate(590.917969 0.015625)" xlink:href="#DejaVuSans-6f"/>
      <use transform="translate(652.099609 0.015625)" xlink:href="#DejaVuSans-6e"/>
      <use transform="translate(715.478516 0.015625)" xlink:href="#DejaVuSans-20"/>
      <use transform="translate(747.265625 0.015625)" xlink:href="#DejaVuSans-Oblique-78"/>
      <use transform="translate(806.445312 0.015625)" xlink:href="#DejaVuSans-2f"/>
      <use transform="translate(840.136719 0.015625)" xlink:href="#DejaVuSans-Oblique-68"/>
     </g>
    </g>
   </g>
   <g id="matplotlib.axis_2">
    <g id="ytick_1">
     <g id="line2d_6">
      <defs>
       <path d="M 0 0 
L -3.5 0 
" id="m93b11223f7" style="stroke:#000000;stroke-width:0.8;"/>
      </defs>
      <g>
       <use style="stroke:#000000;stroke-width:0.8;" x="57.6" xlink:href="#m93b11223f7" y="301.546743"/>
      </g>
     </g>
     <g id="text_7">
      <!-- −0.4 -->
      <defs>
       <path d="M 10.6875 12.40625 
L 21 12.40625 
L 21 0 
L 10.6875 0 
z
" id="DejaVuSans-2e"/>
      </defs>
      <g transform="translate(26.317187 305.345962)scale(0.1 -0.1)">
       <use xlink:href="#DejaVuSans-2212"/>
       <use x="83.789062" xlink:href="#DejaVuSans-30"/>
       <use x="147.412109" xlink:href="#DejaVuSans-2e"/>
       <use x="179.199219" xlink:href="#DejaVuSans-34"/>
      </g>
     </g>
    </g>
    <g id="ytick_2">
     <g id="line2d_7">
      <g>
       <use style="stroke:#000000;stroke-width:0.8;" x="57.6" xlink:href="#m93b11223f7" y="269.792047"/>
      </g>
     </g>
     <g id="text_8">
      <!-- −0.3 -->
      <defs>
       <path d="M 40.578125 39.3125 
Q 47.65625 37.796875 51.625 33 
Q 55.609375 28.21875 55.609375 21.1875 
Q 55.609375 10.40625 48.1875 4.484375 
Q 40.765625 -1.421875 27.09375 -1.421875 
Q 22.515625 -1.421875 17.65625 -0.515625 
Q 12.796875 0.390625 7.625 2.203125 
L 7.625 11.71875 
Q 11.71875 9.328125 16.59375 8.109375 
Q 21.484375 6.890625 26.8125 6.890625 
Q 36.078125 6.890625 40.9375 10.546875 
Q 45.796875 14.203125 45.796875 21.1875 
Q 45.796875 27.640625 41.28125 31.265625 
Q 36.765625 34.90625 28.71875 34.90625 
L 20.21875 34.90625 
L 20.21875 43.015625 
L 29.109375 43.015625 
Q 36.375 43.015625 40.234375 45.921875 
Q 44.09375 48.828125 44.09375 54.296875 
Q 44.09375 59.90625 40.109375 62.90625 
Q 36.140625 65.921875 28.71875 65.921875 
Q 24.65625 65.921875 20.015625 65.03125 
Q 15.375 64.15625 9.8125 62.3125 
L 9.8125 71.09375 
Q 15.4375 72.65625 20.34375 73.4375 
Q 25.25 74.21875 29.59375 74.21875 
Q 40.828125 74.21875 47.359375 69.109375 
Q 53.90625 64.015625 53.90625 55.328125 
Q 53.90625 49.265625 50.4375 45.09375 
Q 46.96875 40.921875 40.578125 39.3125 
z
" id="DejaVuSans-33"/>
      </defs>
      <g transform="translate(26.317187 273.591266)scale(0.1 -0.1)">
       <use xlink:href="#DejaVuSans-2212"/>
       <use x="83.789062" xlink:href="#DejaVuSans-30"/>
       <use x="147.412109" xlink:href="#DejaVuSans-2e"/>
       <use x="179.199219" xlink:href="#DejaVuSans-33"/>
      </g>
     </g>
    </g>
    <g id="ytick_3">
     <g id="line2d_8">
      <g>
       <use style="stroke:#000000;stroke-width:0.8;" x="57.6" xlink:href="#m93b11223f7" y="238.037352"/>
      </g>
     </g>
     <g id="text_9">
      <!-- −0.2 -->
      <g transform="translate(26.317187 241.83657)scale(0.1 -0.1)">
       <use xlink:href="#DejaVuSans-2212"/>
       <use x="83.789062" xlink:href="#DejaVuSans-30"/>
       <use x="147.412109" xlink:href="#DejaVuSans-2e"/>
       <use x="179.199219" xlink:href="#DejaVuSans-32"/>
      </g>
     </g>
    </g>
    <g id="ytick_4">
     <g id="line2d_9">
      <g>
       <use style="stroke:#000000;stroke-width:0.8;" x="57.6" xlink:href="#m93b11223f7" y="206.282656"/>
      </g>
     </g>
     <g id="text_10">
      <!-- −0.1 -->
      <defs>
       <path d="M 12.40625 8.296875 
L 28.515625 8.296875 
L 28.515625 63.921875 
L 10.984375 60.40625 
L 10.984375 69.390625 
L 28.421875 72.90625 
L 38.28125 72.90625 
L 38.28125 8.296875 
L 54.390625 8.296875 
L 54.390625 0 
L 12.40625 0 
z
" id="DejaVuSans-31"/>
      </defs>
      <g transform="translate(26.317187 210.081875)scale(0.1 -0.1)">
       <use xlink:href="#DejaVuSans-2212"/>
       <use x="83.789062" xlink:href="#DejaVuSans-30"/>
       <use x="147.412109" xlink:href="#DejaVuSans-2e"/>
       <use x="179.199219" xlink:href="#DejaVuSans-31"/>
      </g>
     </g>
    </g>
    <g id="ytick_5">
     <g id="line2d_10">
      <g>
       <use style="stroke:#000000;stroke-width:0.8;" x="57.6" xlink:href="#m93b11223f7" y="174.52796"/>
      </g>
     </g>
     <g id="text_11">
      <!-- 0.0 -->
      <g transform="translate(34.696875 178.327179)scale(0.1 -0.1)">
       <use xlink:href="#DejaVuSans-30"/>
       <use x="63.623047" xlink:href="#DejaVuSans-2e"/>
       <use x="95.410156" xlink:href="#DejaVuSans-30"/>
      </g>
     </g>
    </g>
    <g id="ytick_6">
     <g id="line2d_11">
      <g>
       <use style="stroke:#000000;stroke-width:0.8;" x="57.6" xlink:href="#m93b11223f7" y="142.773265"/>
      </g>
     </g>
     <g id="text_12">
      <!-- 0.1 -->
      <g transform="translate(34.696875 146.572483)scale(0.1 -0.1)">
       <use xlink:href="#DejaVuSans-30"/>
       <use x="63.623047" xlink:href="#DejaVuSans-2e"/>
       <use x="95.410156" xlink:href="#DejaVuSans-31"/>
      </g>
     </g>
    </g>
    <g id="ytick_7">
     <g id="line2d_12">
      <g>
       <use style="stroke:#000000;stroke-width:0.8;" x="57.6" xlink:href="#m93b11223f7" y="111.018569"/>
      </g>
     </g>
     <g id="text_13">
      <!-- 0.2 -->
      <g transform="translate(34.696875 114.817788)scale(0.1 -0.1)">
       <use xlink:href="#DejaVuSans-30"/>
       <use x="63.623047" xlink:href="#DejaVuSans-2e"/>
       <use x="95.410156" xlink:href="#DejaVuSans-32"/>
      </g>
     </g>
    </g>
    <g id="ytick_8">
     <g id="line2d_13">
      <g>
       <use style="stroke:#000000;stroke-width:0.8;" x="57.6" xlink:href="#m93b11223f7" y="79.263873"/>
      </g>
     </g>
     <g id="text_14">
      <!-- 0.3 -->
      <g transform="translate(34.696875 83.063092)scale(0.1 -0.1)">
       <use xlink:href="#DejaVuSans-30"/>
       <use x="63.623047" xlink:href="#DejaVuSans-2e"/>
       <use x="95.410156" xlink:href="#DejaVuSans-33"/>
      </g>
     </g>
    </g>
    <g id="ytick_9">
     <g id="line2d_14">
      <g>
       <use style="stroke:#000000;stroke-width:0.8;" x="57.6" xlink:href="#m93b11223f7" y="47.509177"/>
      </g>
     </g>
     <g id="text_15">
      <!-- 0.4 -->
      <g transform="translate(34.696875 51.308396)scale(0.1 -0.1)">
       <use xlink:href="#DejaVuSans-30"/>
       <use x="63.623047" xlink:href="#DejaVuSans-2e"/>
       <use x="95.410156" xlink:href="#DejaVuSans-34"/>
      </g>
     </g>
    </g>
    <g id="text_16">
     <!-- $V_P(x)$ -->
     <defs>
      <path d="M 20.609375 0 
L 7.8125 72.90625 
L 17.484375 72.90625 
L 28.078125 10.203125 
L 63.484375 72.90625 
L 74.21875 72.90625 
L 32.078125 0 
z
" id="DejaVuSans-Oblique-56"/>
      <path d="M 16.890625 72.90625 
L 39.703125 72.90625 
Q 49.65625 72.90625 54.875 68.265625 
Q 60.109375 63.625 60.109375 54.6875 
Q 60.109375 42.671875 52.390625 35.984375 
Q 44.671875 29.296875 30.71875 29.296875 
L 18.3125 29.296875 
L 12.59375 0 
L 2.6875 0 
z
M 25.203125 64.796875 
L 19.921875 37.40625 
L 32.328125 37.40625 
Q 40.71875 37.40625 45.203125 41.703125 
Q 49.703125 46 49.703125 54 
Q 49.703125 59.125 46.65625 61.953125 
Q 43.609375 64.796875 38.09375 64.796875 
z
" id="DejaVuSans-Oblique-50"/>
      <path d="M 31 75.875 
Q 24.46875 64.65625 21.28125 53.65625 
Q 18.109375 42.671875 18.109375 31.390625 
Q 18.109375 20.125 21.3125 9.0625 
Q 24.515625 -2 31 -13.1875 
L 23.1875 -13.1875 
Q 15.875 -1.703125 12.234375 9.375 
Q 8.59375 20.453125 8.59375 31.390625 
Q 8.59375 42.28125 12.203125 53.3125 
Q 15.828125 64.359375 23.1875 75.875 
z
" id="DejaVuSans-28"/>
      <path d="M 8.015625 75.875 
L 15.828125 75.875 
Q 23.140625 64.359375 26.78125 53.3125 
Q 30.421875 42.28125 30.421875 31.390625 
Q 30.421875 20.453125 26.78125 9.375 
Q 23.140625 -1.703125 15.828125 -13.1875 
L 8.015625 -13.1875 
Q 14.5 -2 17.703125 9.0625 
Q 20.90625 20.125 20.90625 31.390625 
Q 20.90625 42.671875 17.703125 53.65625 
Q 14.5 64.65625 8.015625 75.875 
z
" id="DejaVuSans-29"/>
     </defs>
     <g transform="translate(20.2375 187.078)rotate(-90)scale(0.1 -0.1)">
      <use transform="translate(0 0.125)" xlink:href="#DejaVuSans-Oblique-56"/>
      <use transform="translate(68.408203 -16.28125)scale(0.7)" xlink:href="#DejaVuSans-Oblique-50"/>
      <use transform="translate(113.354492 0.125)" xlink:href="#DejaVuSans-28"/>
      <use transform="translate(152.368164 0.125)" xlink:href="#DejaVuSans-Oblique-78"/>
      <use transform="translate(211.547852 0.125)" xlink:href="#DejaVuSans-29"/>
     </g>
    </g>
   </g>
   <g id="line2d_15">
    <path clip-path="url(#p3b4e878ec8)" d="M 55.540608 182.344579 
L 67.504128 183.669349 
L 77.074944 184.963163 
L 86.64576 186.521023 
L 93.823872 187.895127 
L 101.001984 189.489205 
L 108.180096 191.353488 
L 115.358208 193.537907 
L 120.143616 195.200746 
L 124.929024 197.056768 
L 129.714432 199.137063 
L 134.49984 201.476878 
L 139.285248 204.113489 
L 144.070656 207.086773 
L 148.856064 210.442692 
L 153.641472 214.237 
L 158.42688 218.53559 
L 163.212288 223.41007 
L 165.604992 226.085396 
L 167.997696 228.93035 
L 170.3904 231.952157 
L 172.783104 235.156995 
L 177.568512 242.13311 
L 182.35392 249.869808 
L 187.139328 258.31486 
L 191.924736 267.293823 
L 199.102848 280.822337 
L 201.495552 284.955436 
L 203.888256 288.648514 
L 206.28096 291.695113 
L 208.673664 293.848528 
L 211.066368 294.823092 
L 213.459072 294.30034 
L 215.851776 291.942131 
L 218.24448 287.412763 
L 220.637184 280.411336 
L 223.029888 270.713851 
L 225.422592 258.221459 
L 227.815296 243.007478 
L 230.208 225.352227 
L 232.600704 205.753415 
L 242.17152 123.238442 
L 244.564224 105.638767 
L 246.956928 90.489991 
L 249.349632 78.067034 
L 251.742336 68.438434 
L 254.13504 61.501633 
L 256.527744 57.030145 
L 258.920448 54.721734 
L 261.313152 54.240285 
L 263.705856 55.247921 
L 266.09856 57.426865 
L 268.491264 60.49237 
L 270.883968 64.198734 
L 273.276672 68.340483 
L 278.06208 77.296312 
L 285.240192 90.849914 
L 290.0256 99.286893 
L 294.811008 107.014274 
L 299.596416 113.98091 
L 304.381824 120.198458 
L 309.167232 125.710306 
L 313.95264 130.577183 
L 318.738048 134.869065 
L 323.523456 138.657534 
L 328.308864 142.008375 
L 333.094272 144.977206 
L 337.87968 147.609889 
L 342.665088 149.94625 
L 347.450496 152.023545 
L 352.235904 153.876984 
L 357.021312 155.537591 
L 364.199424 157.719138 
L 371.377536 159.580975 
L 378.555648 161.173025 
L 385.73376 162.545498 
L 395.304576 164.101574 
L 404.875392 165.393891 
L 414.446208 166.473835 
L 416.838912 166.717283 
L 416.838912 166.717283 
" style="fill:none;stroke:#1f77b4;stroke-linecap:square;stroke-width:1.5;"/>
   </g>
   <g id="line2d_16">
    <path clip-path="url(#p3b4e878ec8)" d="M 57.442867 181.238071 
L 68.927846 182.41982 
L 78.977203 183.692821 
L 87.590938 185.007516 
L 94.76905 186.300485 
L 101.947162 187.811996 
L 107.689651 189.210217 
L 113.432141 190.807404 
L 119.17463 192.63602 
L 124.91712 194.737441 
L 129.223987 196.522264 
L 133.530854 198.511975 
L 137.837722 200.734307 
L 142.144589 203.222332 
L 146.451456 206.012721 
L 150.758323 209.145124 
L 155.06519 212.663805 
L 157.936435 215.248945 
L 160.80768 218.044066 
L 163.678925 221.065165 
L 166.55017 224.327624 
L 169.421414 227.84664 
L 172.292659 231.63662 
L 175.163904 235.710412 
L 178.035149 240.077161 
L 180.906394 244.738832 
L 185.213261 252.263106 
L 189.520128 260.33957 
L 201.005107 282.471791 
L 203.876352 287.203538 
L 205.311974 289.251858 
L 206.747597 291.020693 
L 208.183219 292.452498 
L 209.618842 293.484592 
L 211.054464 294.049479 
L 212.490086 294.075398 
L 213.925709 293.487339 
L 215.361331 292.208701 
L 216.796954 290.163551 
L 218.232576 287.279346 
L 219.668198 283.490118 
L 221.103821 278.740182 
L 222.539443 272.988343 
L 223.975066 266.212207 
L 225.410688 258.412029 
L 226.84631 249.61373 
L 228.281933 239.871002 
L 231.153178 217.911856 
L 234.024422 193.540241 
L 241.202534 130.853459 
L 244.073779 108.931748 
L 245.509402 99.211658 
L 246.945024 90.437594 
L 248.380646 82.662633 
L 249.816269 75.912092 
L 251.251891 70.185587 
L 252.687514 65.460133 
L 254.123136 61.69411 
L 255.558758 58.831579 
L 256.994381 56.806405 
L 258.430003 55.54591 
L 259.865626 54.974063 
L 261.301248 55.014265 
L 262.73687 55.591603 
L 264.172493 56.634446 
L 265.608115 58.0754 
L 267.043738 59.851873 
L 268.47936 61.906441 
L 271.350605 66.647147 
L 274.22185 71.944848 
L 288.578074 99.431749 
L 292.884941 106.742516 
L 295.756186 111.253376 
L 298.62743 115.469217 
L 301.498675 119.396125 
L 304.36992 123.045532 
L 307.241165 126.431194 
L 310.11241 129.568081 
L 312.983654 132.47141 
L 315.854899 135.156912 
L 320.161766 138.811796 
L 324.468634 142.06457 
L 328.775501 144.961617 
L 333.082368 147.54378 
L 337.389235 149.848601 
L 341.696102 151.910642 
L 346.00297 153.759308 
L 351.745459 155.934545 
L 357.487949 157.825474 
L 363.230438 159.475831 
L 368.972928 160.919823 
L 376.15104 162.479104 
L 383.329152 163.811577 
L 391.942886 165.16484 
L 400.556621 166.301988 
L 410.605978 167.407961 
L 414.912845 167.821138 
L 414.912845 167.821138 
" style="fill:none;stroke:#ff7f0e;stroke-linecap:square;stroke-width:1.5;"/>
   </g>
   <g id="line2d_17">
    <path clip-path="url(#p3b4e878ec8)" d="M 57.075034 179.708731 
L 68.560013 180.684738 
L 78.60937 181.747924 
L 87.940915 182.962886 
L 95.836838 184.20875 
L 103.01495 185.558138 
L 109.475251 186.989193 
L 115.217741 188.468996 
L 120.96023 190.182522 
L 125.984909 191.908681 
L 131.009587 193.883935 
L 135.316454 195.80712 
L 139.623322 197.975348 
L 143.930189 200.424501 
L 147.519245 202.709541 
L 151.108301 205.244774 
L 154.697357 208.059565 
L 158.286413 211.18598 
L 161.875469 214.658586 
L 165.464525 218.513837 
L 168.33577 221.898498 
L 171.207014 225.570268 
L 174.078259 229.545995 
L 176.949504 233.839479 
L 180.53856 239.665814 
L 184.127616 246.000582 
L 187.716672 252.811005 
L 192.023539 261.491242 
L 201.355085 280.538829 
L 203.508518 284.43745 
L 205.661952 287.872367 
L 207.097574 289.815706 
L 208.533197 291.410863 
L 209.968819 292.590685 
L 210.68663 293.002441 
L 211.404442 293.282911 
L 212.122253 293.422413 
L 212.840064 293.411083 
L 213.557875 293.238927 
L 214.275686 292.895885 
L 214.993498 292.371898 
L 215.711309 291.656985 
L 216.42912 290.741336 
L 217.146931 289.615402 
L 218.582554 286.696427 
L 220.018176 282.833057 
L 221.453798 277.969853 
L 222.889421 272.067066 
L 224.325043 265.10481 
L 225.760666 257.086969 
L 227.196288 248.044501 
L 229.349722 232.699973 
L 231.503155 215.524187 
L 234.3744 190.612423 
L 240.834701 133.382991 
L 242.988134 116.220621 
L 245.141568 100.892873 
L 246.57719 91.862841 
L 248.012813 83.857997 
L 249.448435 76.908948 
L 250.884058 71.019259 
L 252.31968 66.168772 
L 253.755302 62.317516 
L 255.190925 59.409885 
L 255.908736 58.289295 
L 256.626547 57.378757 
L 257.344358 56.668714 
L 258.06217 56.149349 
L 258.779981 55.81068 
L 259.497792 55.642647 
L 260.215603 55.63519 
L 260.933414 55.778317 
L 261.651226 56.06217 
L 263.086848 57.013571 
L 264.52247 58.414949 
L 265.958093 60.196569 
L 267.393715 62.294127 
L 269.547149 65.906499 
L 272.418394 71.332213 
L 276.725261 80.138412 
L 283.903373 94.867186 
L 287.492429 101.762734 
L 291.081485 108.194091 
L 294.670541 114.120461 
L 298.259597 119.53562 
L 301.130842 123.50941 
L 304.002086 127.179341 
L 307.591142 131.365306 
L 311.180198 135.139098 
L 314.769254 138.537821 
L 318.35831 141.597621 
L 321.947366 144.352584 
L 325.536422 146.83423 
L 329.125478 149.071367 
L 333.432346 151.469772 
L 337.739213 153.593741 
L 342.04608 155.478303 
L 347.070758 157.414611 
L 352.095437 159.10745 
L 357.837926 160.788706 
L 363.580416 162.241386 
L 370.040717 163.646929 
L 377.218829 164.973018 
L 385.114752 166.198161 
L 393.728486 167.310093 
L 403.777843 168.372881 
L 415.262822 169.348541 
L 415.262822 169.348541 
" style="fill:none;stroke:#2ca02c;stroke-linecap:square;stroke-width:1.5;"/>
   </g>
   <g id="line2d_18">
    <path clip-path="url(#p3b4e878ec8)" d="M 57.250022 178.73587 
L 69.811718 179.656757 
L 80.578886 180.665622 
L 89.910432 181.758507 
L 98.165261 182.945376 
L 105.343373 184.190939 
L 111.803674 185.523531 
L 117.905069 187.007946 
L 123.288653 188.538211 
L 128.313331 190.189547 
L 132.979104 191.950751 
L 137.285971 193.804232 
L 141.233933 195.725527 
L 145.181894 197.891082 
L 148.77095 200.101345 
L 152.360006 202.572625 
L 155.590157 205.047628 
L 158.820307 207.788192 
L 162.050458 210.823567 
L 165.280608 214.184972 
L 168.510758 217.904981 
L 171.382003 221.539284 
L 174.253248 225.505088 
L 177.124493 229.822206 
L 179.995738 234.50596 
L 183.225888 240.222782 
L 186.456038 246.406353 
L 190.045094 253.779488 
L 194.351962 263.163029 
L 201.888979 279.689438 
L 204.401318 284.624214 
L 206.195846 287.742971 
L 207.990374 290.391319 
L 209.425997 292.081774 
L 210.502714 293.050754 
L 211.57943 293.726114 
L 212.656147 294.072605 
L 213.373958 294.103005 
L 214.09177 293.960214 
L 214.809581 293.633274 
L 215.527392 293.111271 
L 216.245203 292.383419 
L 217.32192 290.882683 
L 218.398637 288.86109 
L 219.475354 286.287263 
L 220.55207 283.133492 
L 221.628787 279.376794 
L 223.06441 273.401277 
L 224.500032 266.303031 
L 225.935654 258.086944 
L 227.730182 246.300384 
L 229.52471 232.96124 
L 231.678144 215.216708 
L 234.549389 189.483684 
L 241.00969 130.69289 
L 243.163123 113.243441 
L 244.957651 100.20739 
L 246.752179 88.758712 
L 248.187802 80.826986 
L 249.623424 74.017045 
L 251.059046 68.326739 
L 252.135763 64.778262 
L 253.21248 61.82546 
L 254.289197 59.443612 
L 255.365914 57.603639 
L 256.44263 56.273148 
L 257.160442 55.652115 
L 257.878253 55.231428 
L 258.596064 55.000221 
L 259.313875 54.947547 
L 260.031686 55.062463 
L 261.108403 55.525341 
L 262.18512 56.304909 
L 263.261837 57.366361 
L 264.697459 59.162813 
L 266.133082 61.327406 
L 267.92761 64.448195 
L 270.081043 68.648236 
L 273.311194 75.528683 
L 284.437267 99.777716 
L 288.026323 106.839635 
L 291.256474 112.712689 
L 294.486624 118.111882 
L 297.716774 123.043776 
L 300.946925 127.52844 
L 304.177075 131.593696 
L 307.407226 135.271204 
L 310.637376 138.593857 
L 313.867526 141.594118 
L 317.097677 144.303006 
L 320.686733 147.006346 
L 324.275789 149.422179 
L 327.864845 151.583357 
L 331.812806 153.701437 
L 336.119674 155.7414 
L 340.426541 157.536498 
L 345.092314 159.243344 
L 350.116992 160.844881 
L 355.500576 162.330178 
L 361.601971 163.772235 
L 368.062272 165.068031 
L 375.240384 166.280417 
L 383.136307 167.391198 
L 392.108947 168.428828 
L 402.51721 169.399907 
L 414.361094 170.274115 
L 414.72 170.297454 
L 414.72 170.297454 
" style="fill:none;stroke:#d62728;stroke-linecap:square;stroke-width:1.5;"/>
   </g>
   <g id="line2d_19">
    <path clip-path="url(#p3b4e878ec8)" d="M 115.9296 185.657896 
L 121.67209 187.133064 
L 126.936038 188.708984 
L 131.721446 190.363308 
L 136.267584 192.166381 
L 140.574451 194.118907 
L 144.642048 196.217688 
L 148.470374 198.454723 
L 152.05943 200.816463 
L 155.409216 203.283282 
L 158.759002 206.036105 
L 161.869517 208.878907 
L 164.980032 212.028669 
L 168.090547 215.517367 
L 170.961792 219.067026 
L 173.833037 222.959294 
L 176.704282 227.218361 
L 179.575526 231.864898 
L 182.446771 236.913208 
L 185.557286 242.839806 
L 188.907072 249.734961 
L 192.735398 258.181718 
L 198.717158 272.05577 
L 202.784755 281.213208 
L 205.177459 286.084845 
L 207.091622 289.4983 
L 208.527245 291.673682 
L 209.962867 293.436346 
L 211.159219 294.531188 
L 212.116301 295.126224 
L 213.073382 295.442727 
L 213.791194 295.480883 
L 214.509005 295.335322 
L 215.226816 294.994353 
L 215.944627 294.446362 
L 216.901709 293.373939 
L 217.85879 291.886914 
L 218.815872 289.960475 
L 219.772954 287.57183 
L 220.969306 283.905639 
L 222.165658 279.454005 
L 223.36201 274.19493 
L 224.797632 266.805007 
L 226.233254 258.247615 
L 227.908147 246.845116 
L 229.82231 232.100778 
L 231.975744 213.682634 
L 234.846989 187.074619 
L 240.828749 131.085729 
L 242.982182 113.063724 
L 244.896346 98.761038 
L 246.571238 87.791695 
L 248.246131 78.378113 
L 249.681754 71.582055 
L 251.117376 65.955966 
L 252.313728 62.138821 
L 253.51008 59.08206 
L 254.467162 57.158426 
L 255.424243 55.674058 
L 256.381325 54.604132 
L 257.338406 53.922384 
L 258.056218 53.649483 
L 258.774029 53.568 
L 259.49184 53.666241 
L 260.448922 54.056695 
L 261.406003 54.718764 
L 262.602355 55.88798 
L 263.798707 57.39046 
L 265.23433 59.567392 
L 266.909222 62.528396 
L 269.062656 66.838863 
L 271.933901 73.158934 
L 284.854502 102.350661 
L 288.204288 109.021555 
L 291.314803 114.728098 
L 294.425318 119.959156 
L 297.296563 124.376646 
L 300.167808 128.418199 
L 303.039053 132.10683 
L 306.149568 135.733938 
L 309.260083 139.009561 
L 312.370598 141.966159 
L 315.720384 144.828882 
L 319.07017 147.393527 
L 322.659226 149.847962 
L 326.248282 152.034502 
L 330.076608 154.107998 
L 334.144205 156.056077 
L 338.451072 157.871322 
L 342.99721 159.550587 
L 348.021888 161.165967 
L 353.525107 162.69101 
L 359.506867 164.107305 
L 365.967168 165.403391 
L 373.14528 166.610351 
L 381.041203 167.708202 
L 389.894208 168.711184 
L 399.943565 169.623589 
L 411.907085 170.477375 
L 414.77833 170.652925 
L 414.77833 170.652925 
" style="fill:none;stroke:#9467bd;stroke-linecap:square;stroke-width:1.5;"/>
   </g>
   <g id="patch_3">
    <path d="M 57.6 307.584 
L 57.6 41.472 
" style="fill:none;stroke:#000000;stroke-linecap:square;stroke-linejoin:miter;stroke-width:0.8;"/>
   </g>
   <g id="patch_4">
    <path d="M 414.72 307.584 
L 414.72 41.472 
" style="fill:none;stroke:#000000;stroke-linecap:square;stroke-linejoin:miter;stroke-width:0.8;"/>
   </g>
   <g id="patch_5">
    <path d="M 57.6 307.584 
L 414.72 307.584 
" style="fill:none;stroke:#000000;stroke-linecap:square;stroke-linejoin:miter;stroke-width:0.8;"/>
   </g>
   <g id="patch_6">
    <path d="M 57.6 41.472 
L 414.72 41.472 
" style="fill:none;stroke:#000000;stroke-linecap:square;stroke-linejoin:miter;stroke-width:0.8;"/>
   </g>
   <g id="text_17">
    <!-- Edge probe potential -->
    <defs>
     <path d="M 9.8125 72.90625 
L 55.90625 72.90625 
L 55.90625 64.59375 
L 19.671875 64.59375 
L 19.671875 43.015625 
L 54.390625 43.015625 
L 54.390625 34.71875 
L 19.671875 34.71875 
L 19.671875 8.296875 
L 56.78125 8.296875 
L 56.78125 0 
L 9.8125 0 
z
" id="DejaVuSans-45"/>
     <path d="M 45.40625 46.390625 
L 45.40625 75.984375 
L 54.390625 75.984375 
L 54.390625 0 
L 45.40625 0 
L 45.40625 8.203125 
Q 42.578125 3.328125 38.25 0.953125 
Q 33.9375 -1.421875 27.875 -1.421875 
Q 17.96875 -1.421875 11.734375 6.484375 
Q 5.515625 14.40625 5.515625 27.296875 
Q 5.515625 40.1875 11.734375 48.09375 
Q 17.96875 56 27.875 56 
Q 33.9375 56 38.25 53.625 
Q 42.578125 51.265625 45.40625 46.390625 
z
M 14.796875 27.296875 
Q 14.796875 17.390625 18.875 11.75 
Q 22.953125 6.109375 30.078125 6.109375 
Q 37.203125 6.109375 41.296875 11.75 
Q 45.40625 17.390625 45.40625 27.296875 
Q 45.40625 37.203125 41.296875 42.84375 
Q 37.203125 48.484375 30.078125 48.484375 
Q 22.953125 48.484375 18.875 42.84375 
Q 14.796875 37.203125 14.796875 27.296875 
z
" id="DejaVuSans-64"/>
     <path d="M 45.40625 27.984375 
Q 45.40625 37.75 41.375 43.109375 
Q 37.359375 48.484375 30.078125 48.484375 
Q 22.859375 48.484375 18.828125 43.109375 
Q 14.796875 37.75 14.796875 27.984375 
Q 14.796875 18.265625 18.828125 12.890625 
Q 22.859375 7.515625 30.078125 7.515625 
Q 37.359375 7.515625 41.375 12.890625 
Q 45.40625 18.265625 45.40625 27.984375 
z
M 54.390625 6.78125 
Q 54.390625 -7.171875 48.1875 -13.984375 
Q 42 -20.796875 29.203125 -20.796875 
Q 24.46875 -20.796875 20.265625 -20.09375 
Q 16.0625 -19.390625 12.109375 -17.921875 
L 12.109375 -9.1875 
Q 16.0625 -11.328125 19.921875 -12.34375 
Q 23.78125 -13.375 27.78125 -13.375 
Q 36.625 -13.375 41.015625 -8.765625 
Q 45.40625 -4.15625 45.40625 5.171875 
L 45.40625 9.625 
Q 42.625 4.78125 38.28125 2.390625 
Q 33.9375 0 27.875 0 
Q 17.828125 0 11.671875 7.65625 
Q 5.515625 15.328125 5.515625 27.984375 
Q 5.515625 40.671875 11.671875 48.328125 
Q 17.828125 56 27.875 56 
Q 33.9375 56 38.28125 53.609375 
Q 42.625 51.21875 45.40625 46.390625 
L 45.40625 54.6875 
L 54.390625 54.6875 
z
" id="DejaVuSans-67"/>
     <path d="M 34.28125 27.484375 
Q 23.390625 27.484375 19.1875 25 
Q 14.984375 22.515625 14.984375 16.5 
Q 14.984375 11.71875 18.140625 8.90625 
Q 21.296875 6.109375 26.703125 6.109375 
Q 34.1875 6.109375 38.703125 11.40625 
Q 43.21875 16.703125 43.21875 25.484375 
L 43.21875 27.484375 
z
M 52.203125 31.203125 
L 52.203125 0 
L 43.21875 0 
L 43.21875 8.296875 
Q 40.140625 3.328125 35.546875 0.953125 
Q 30.953125 -1.421875 24.3125 -1.421875 
Q 15.921875 -1.421875 10.953125 3.296875 
Q 6 8.015625 6 15.921875 
Q 6 25.140625 12.171875 29.828125 
Q 18.359375 34.515625 30.609375 34.515625 
L 43.21875 34.515625 
L 43.21875 35.40625 
Q 43.21875 41.609375 39.140625 45 
Q 35.0625 48.390625 27.6875 48.390625 
Q 23 48.390625 18.546875 47.265625 
Q 14.109375 46.140625 10.015625 43.890625 
L 10.015625 52.203125 
Q 14.9375 54.109375 19.578125 55.046875 
Q 24.21875 56 28.609375 56 
Q 40.484375 56 46.34375 49.84375 
Q 52.203125 43.703125 52.203125 31.203125 
z
" id="DejaVuSans-61"/>
     <path d="M 9.421875 75.984375 
L 18.40625 75.984375 
L 18.40625 0 
L 9.421875 0 
z
" id="DejaVuSans-6c"/>
    </defs>
    <g transform="translate(173.109375 35.472)scale(0.12 -0.12)">
     <use xlink:href="#DejaVuSans-45"/>
     <use x="63.183594" xlink:href="#DejaVuSans-64"/>
     <use x="126.660156" xlink:href="#DejaVuSans-67"/>
     <use x="190.136719" xlink:href="#DejaVuSans-65"/>
     <use x="251.660156" xlink:href="#DejaVuSans-20"/>
     <use x="283.447266" xlink:href="#DejaVuSans-70"/>
     <use x="346.923828" xlink:href="#DejaVuSans-72"/>
     <use x="388.005859" xlink:href="#DejaVuSans-6f"/>
     <use x="449.1875" xlink:href="#DejaVuSans-62"/>
     <use x="512.664062" xlink:href="#DejaVuSans-65"/>
     <use x="574.1875" xlink:href="#DejaVuSans-20"/>
     <use x="605.974609" xlink:href="#DejaVuSans-70"/>
     <use x="669.451172" xlink:href="#DejaVuSans-6f"/>
     <use x="730.632812" xlink:href="#DejaVuSans-74"/>
     <use x="769.841797" xlink:href="#DejaVuSans-65"/>
     <use x="831.365234" xlink:href="#DejaVuSans-6e"/>
     <use x="894.744141" xlink:href="#DejaVuSans-74"/>
     <use x="933.953125" xlink:href="#DejaVuSans-69"/>
     <use x="961.736328" xlink:href="#DejaVuSans-61"/>
     <use x="1023.015625" xlink:href="#DejaVuSans-6c"/>
    </g>
   </g>
   <g id="legend_1">
    <g id="patch_7">
     <path d="M 323.12 122.862625 
L 407.72 122.862625 
Q 409.72 122.862625 409.72 120.862625 
L 409.72 48.472 
Q 409.72 46.472 407.72 46.472 
L 323.12 46.472 
Q 321.12 46.472 321.12 48.472 
L 321.12 120.862625 
Q 321.12 122.862625 323.12 122.862625 
z
" style="fill:#ffffff;opacity:0.8;stroke:#cccccc;stroke-linejoin:miter;"/>
    </g>
    <g id="line2d_20">
     <path d="M 325.12 54.570438 
L 345.12 54.570438 
" style="fill:none;stroke:#1f77b4;stroke-linecap:square;stroke-width:1.5;"/>
    </g>
    <g id="line2d_21"/>
    <g id="text_18">
     <!-- $l_{ee} = 3.3h$ -->
     <defs>
      <path d="M 18.3125 75.984375 
L 27.296875 75.984375 
L 12.5 0 
L 3.515625 0 
z
" id="DejaVuSans-Oblique-6c"/>
      <path d="M 48.09375 32.234375 
Q 48.25 33.015625 48.3125 33.84375 
Q 48.390625 34.671875 48.390625 35.5 
Q 48.390625 41.453125 44.890625 44.921875 
Q 41.40625 48.390625 35.40625 48.390625 
Q 28.71875 48.390625 23.578125 44.15625 
Q 18.453125 39.9375 15.828125 32.171875 
z
M 55.90625 25.203125 
L 14.109375 25.203125 
Q 13.8125 23.34375 13.71875 22.265625 
Q 13.625 21.1875 13.625 20.40625 
Q 13.625 13.625 17.796875 9.90625 
Q 21.96875 6.203125 29.59375 6.203125 
Q 35.453125 6.203125 40.671875 7.515625 
Q 45.90625 8.84375 50.390625 11.375 
L 48.6875 2.484375 
Q 43.84375 0.53125 38.6875 -0.4375 
Q 33.546875 -1.421875 28.21875 -1.421875 
Q 16.84375 -1.421875 10.71875 4.015625 
Q 4.59375 9.46875 4.59375 19.484375 
Q 4.59375 28.03125 7.640625 35.375 
Q 10.6875 42.71875 16.609375 48.484375 
Q 20.40625 52.09375 25.65625 54.046875 
Q 30.90625 56 36.8125 56 
Q 46.09375 56 51.578125 50.4375 
Q 57.078125 44.875 57.078125 35.5 
Q 57.078125 33.25 56.78125 30.6875 
Q 56.5 28.125 55.90625 25.203125 
z
" id="DejaVuSans-Oblique-65"/>
      <path d="M 10.59375 45.40625 
L 73.1875 45.40625 
L 73.1875 37.203125 
L 10.59375 37.203125 
z
M 10.59375 25.484375 
L 73.1875 25.484375 
L 73.1875 17.1875 
L 10.59375 17.1875 
z
" id="DejaVuSans-3d"/>
     </defs>
     <g transform="translate(353.12 58.070438)scale(0.1 -0.1)">
      <use transform="translate(0 0.015625)" xlink:href="#DejaVuSans-Oblique-6c"/>
      <use transform="translate(27.783203 -16.390625)scale(0.7)" xlink:href="#DejaVuSans-Oblique-65"/>
      <use transform="translate(70.849609 -16.390625)scale(0.7)" xlink:href="#DejaVuSans-Oblique-65"/>
      <use transform="translate(136.132812 0.015625)" xlink:href="#DejaVuSans-3d"/>
      <use transform="translate(239.404297 0.015625)" xlink:href="#DejaVuSans-33"/>
      <use transform="translate(303.027344 0.015625)" xlink:href="#DejaVuSans-2e"/>
      <use transform="translate(334.814453 0.015625)" xlink:href="#DejaVuSans-33"/>
      <use transform="translate(398.4375 0.015625)" xlink:href="#DejaVuSans-Oblique-68"/>
     </g>
    </g>
    <g id="line2d_22">
     <path d="M 325.12 69.248563 
L 345.12 69.248563 
" style="fill:none;stroke:#ff7f0e;stroke-linecap:square;stroke-width:1.5;"/>
    </g>
    <g id="line2d_23"/>
    <g id="text_19">
     <!-- $l_{ee} = 2h$ -->
     <g transform="translate(353.12 72.748563)scale(0.1 -0.1)">
      <use transform="translate(0 0.015625)" xlink:href="#DejaVuSans-Oblique-6c"/>
      <use transform="translate(27.783203 -16.390625)scale(0.7)" xlink:href="#DejaVuSans-Oblique-65"/>
      <use transform="translate(70.849609 -16.390625)scale(0.7)" xlink:href="#DejaVuSans-Oblique-65"/>
      <use transform="translate(136.132812 0.015625)" xlink:href="#DejaVuSans-3d"/>
      <use transform="translate(239.404297 0.015625)" xlink:href="#DejaVuSans-32"/>
      <use transform="translate(303.027344 0.015625)" xlink:href="#DejaVuSans-Oblique-68"/>
     </g>
    </g>
    <g id="line2d_24">
     <path d="M 325.12 83.926688 
L 345.12 83.926688 
" style="fill:none;stroke:#2ca02c;stroke-linecap:square;stroke-width:1.5;"/>
    </g>
    <g id="line2d_25"/>
    <g id="text_20">
     <!-- $l_{ee} = 1h$ -->
     <g transform="translate(353.12 87.426688)scale(0.1 -0.1)">
      <use transform="translate(0 0.015625)" xlink:href="#DejaVuSans-Oblique-6c"/>
      <use transform="translate(27.783203 -16.390625)scale(0.7)" xlink:href="#DejaVuSans-Oblique-65"/>
      <use transform="translate(70.849609 -16.390625)scale(0.7)" xlink:href="#DejaVuSans-Oblique-65"/>
      <use transform="translate(136.132812 0.015625)" xlink:href="#DejaVuSans-3d"/>
      <use transform="translate(239.404297 0.015625)" xlink:href="#DejaVuSans-31"/>
      <use transform="translate(303.027344 0.015625)" xlink:href="#DejaVuSans-Oblique-68"/>
     </g>
    </g>
    <g id="line2d_26">
     <path d="M 325.12 98.604813 
L 345.12 98.604813 
" style="fill:none;stroke:#d62728;stroke-linecap:square;stroke-width:1.5;"/>
    </g>
    <g id="line2d_27"/>
    <g id="text_21">
     <!-- $l_{ee} = 0.5h$ -->
     <defs>
      <path d="M 10.796875 72.90625 
L 49.515625 72.90625 
L 49.515625 64.59375 
L 19.828125 64.59375 
L 19.828125 46.734375 
Q 21.96875 47.46875 24.109375 47.828125 
Q 26.265625 48.1875 28.421875 48.1875 
Q 40.625 48.1875 47.75 41.5 
Q 54.890625 34.8125 54.890625 23.390625 
Q 54.890625 11.625 47.5625 5.09375 
Q 40.234375 -1.421875 26.90625 -1.421875 
Q 22.3125 -1.421875 17.546875 -0.640625 
Q 12.796875 0.140625 7.71875 1.703125 
L 7.71875 11.625 
Q 12.109375 9.234375 16.796875 8.0625 
Q 21.484375 6.890625 26.703125 6.890625 
Q 35.15625 6.890625 40.078125 11.328125 
Q 45.015625 15.765625 45.015625 23.390625 
Q 45.015625 31 40.078125 35.4375 
Q 35.15625 39.890625 26.703125 39.890625 
Q 22.75 39.890625 18.8125 39.015625 
Q 14.890625 38.140625 10.796875 36.28125 
z
" id="DejaVuSans-35"/>
     </defs>
     <g transform="translate(353.12 102.104813)scale(0.1 -0.1)">
      <use transform="translate(0 0.015625)" xlink:href="#DejaVuSans-Oblique-6c"/>
      <use transform="translate(27.783203 -16.390625)scale(0.7)" xlink:href="#DejaVuSans-Oblique-65"/>
      <use transform="translate(70.849609 -16.390625)scale(0.7)" xlink:href="#DejaVuSans-Oblique-65"/>
      <use transform="translate(136.132812 0.015625)" xlink:href="#DejaVuSans-3d"/>
      <use transform="translate(239.404297 0.015625)" xlink:href="#DejaVuSans-30"/>
      <use transform="translate(303.027344 0.015625)" xlink:href="#DejaVuSans-2e"/>
      <use transform="translate(334.814453 0.015625)" xlink:href="#DejaVuSans-35"/>
      <use transform="translate(398.4375 0.015625)" xlink:href="#DejaVuSans-Oblique-68"/>
     </g>
    </g>
    <g id="line2d_28">
     <path d="M 325.12 113.282938 
L 345.12 113.282938 
" style="fill:none;stroke:#9467bd;stroke-linecap:square;stroke-width:1.5;"/>
    </g>
    <g id="line2d_29"/>
    <g id="text_22">
     <!-- $l_{ee} = 0.33h$ -->
     <g transform="translate(353.12 116.782938)scale(0.1 -0.1)">
      <use transform="translate(0 0.015625)" xlink:href="#DejaVuSans-Oblique-6c"/>
      <use transform="translate(27.783203 -16.390625)scale(0.7)" xlink:href="#DejaVuSans-Oblique-65"/>
      <use transform="translate(70.849609 -16.390625)scale(0.7)" xlink:href="#DejaVuSans-Oblique-65"/>
      <use transform="translate(136.132812 0.015625)" xlink:href="#DejaVuSans-3d"/>
      <use transform="translate(239.404297 0.015625)" xlink:href="#DejaVuSans-30"/>
      <use transform="translate(303.027344 0.015625)" xlink:href="#DejaVuSans-2e"/>
      <use transform="translate(334.814453 0.015625)" xlink:href="#DejaVuSans-33"/>
      <use transform="translate(398.4375 0.015625)" xlink:href="#DejaVuSans-33"/>
      <use transform="translate(462.060547 0.015625)" xlink:href="#DejaVuSans-Oblique-68"/>
     </g>
    </g>
   </g>
  </g>
 </g>
 <defs>
  <clipPath id="p3b4e878ec8">
   <rect height="266.112" width="357.12" x="57.6" y="41.472"/>
  </clipPath>
 </defs>
</svg>
