<?xml version="1.0" encoding="utf-8" standalone="no"?>
<!DOCTYPE svg PUBLIC "-//W3C//DTD SVG 1.1//EN"
  "http://www.w3.org/Graphics/SVG/1.1/DTD/svg11.dtd">
<!-- Created with matplotlib (http://matplotlib.org/) -->
<svg height="345.6pt" version="1.1" viewBox="0 0 460.8 345.6" width="460.8pt" xmlns="http://www.w3.org/2000/svg" xmlns:xlink="http://www.w3.org/1999/xlink">
 <defs>
  <style type="text/css">
*{stroke-linecap:butt;stroke-linejoin:round;}
  </style>
 </defs>
 <g id="figure_1">
  <g id="patch_1">
   <path d="M 0 345.6 
L 460.8 345.6 
L 460.8 0 
L 0 0 
z
" style="fill:#ffffff;"/>
  </g>
  <g id="axes_1">
   <g id="patch_2">
    <path d="M 57.6 307.584 
L 414.72 307.584 
L 414.72 41.472 
L 57.6 41.472 
z
" style="fill:#ffffff;"/>
   </g>
   <g id="matplotlib.axis_1">
    <g id="xtick_1">
     <g id="line2d_1">
      <defs>
       <path d="M 0 0 
L 0 3.5 
" id="m2b5d377cc5" style="stroke:#000000;stroke-width:0.8;"/>
      </defs>
      <g>
       <use style="stroke:#000000;stroke-width:0.8;" x="93.312" xlink:href="#m2b5d377cc5" y="307.584"/>
      </g>
     </g>
     <g id="text_1">
      <!-- −4 -->
      <defs>
       <path d="M 10.59375 35.5 
L 73.1875 35.5 
L 73.1875 27.203125 
L 10.59375 27.203125 
z
" id="DejaVuSans-2212"/>
       <path d="M 37.796875 64.3125 
L 12.890625 25.390625 
L 37.796875 25.390625 
z
M 35.203125 72.90625 
L 47.609375 72.90625 
L 47.609375 25.390625 
L 58.015625 25.390625 
L 58.015625 17.1875 
L 47.609375 17.1875 
L 47.609375 0 
L 37.796875 0 
L 37.796875 17.1875 
L 4.890625 17.1875 
L 4.890625 26.703125 
z
" id="DejaVuSans-34"/>
      </defs>
      <g transform="translate(85.940906 322.182437)scale(0.1 -0.1)">
       <use xlink:href="#DejaVuSans-2212"/>
       <use x="83.789062" xlink:href="#DejaVuSans-34"/>
      </g>
     </g>
    </g>
    <g id="xtick_2">
     <g id="line2d_2">
      <g>
       <use style="stroke:#000000;stroke-width:0.8;" x="164.736" xlink:href="#m2b5d377cc5" y="307.584"/>
      </g>
     </g>
     <g id="text_2">
      <!-- −2 -->
      <defs>
       <path d="M 19.1875 8.296875 
L 53.609375 8.296875 
L 53.609375 0 
L 7.328125 0 
L 7.328125 8.296875 
Q 12.9375 14.109375 22.625 23.890625 
Q 32.328125 33.6875 34.8125 36.53125 
Q 39.546875 41.84375 41.421875 45.53125 
Q 43.3125 49.21875 43.3125 52.78125 
Q 43.3125 58.59375 39.234375 62.25 
Q 35.15625 65.921875 28.609375 65.921875 
Q 23.96875 65.921875 18.8125 64.3125 
Q 13.671875 62.703125 7.8125 59.421875 
L 7.8125 69.390625 
Q 13.765625 71.78125 18.9375 73 
Q 24.125 74.21875 28.421875 74.21875 
Q 39.75 74.21875 46.484375 68.546875 
Q 53.21875 62.890625 53.21875 53.421875 
Q 53.21875 48.921875 51.53125 44.890625 
Q 49.859375 40.875 45.40625 35.40625 
Q 44.1875 33.984375 37.640625 27.21875 
Q 31.109375 20.453125 19.1875 8.296875 
z
" id="DejaVuSans-32"/>
      </defs>
      <g transform="translate(157.364906 322.182437)scale(0.1 -0.1)">
       <use xlink:href="#DejaVuSans-2212"/>
       <use x="83.789062" xlink:href="#DejaVuSans-32"/>
      </g>
     </g>
    </g>
    <g id="xtick_3">
     <g id="line2d_3">
      <g>
       <use style="stroke:#000000;stroke-width:0.8;" x="236.16" xlink:href="#m2b5d377cc5" y="307.584"/>
      </g>
     </g>
     <g id="text_3">
      <!-- 0 -->
      <defs>
       <path d="M 31.78125 66.40625 
Q 24.171875 66.40625 20.328125 58.90625 
Q 16.5 51.421875 16.5 36.375 
Q 16.5 21.390625 20.328125 13.890625 
Q 24.171875 6.390625 31.78125 6.390625 
Q 39.453125 6.390625 43.28125 13.890625 
Q 47.125 21.390625 47.125 36.375 
Q 47.125 51.421875 43.28125 58.90625 
Q 39.453125 66.40625 31.78125 66.40625 
z
M 31.78125 74.21875 
Q 44.046875 74.21875 50.515625 64.515625 
Q 56.984375 54.828125 56.984375 36.375 
Q 56.984375 17.96875 50.515625 8.265625 
Q 44.046875 -1.421875 31.78125 -1.421875 
Q 19.53125 -1.421875 13.0625 8.265625 
Q 6.59375 17.96875 6.59375 36.375 
Q 6.59375 54.828125 13.0625 64.515625 
Q 19.53125 74.21875 31.78125 74.21875 
z
" id="DejaVuSans-30"/>
      </defs>
      <g transform="translate(232.97875 322.182437)scale(0.1 -0.1)">
       <use xlink:href="#DejaVuSans-30"/>
      </g>
     </g>
    </g>
    <g id="xtick_4">
     <g id="line2d_4">
      <g>
       <use style="stroke:#000000;stroke-width:0.8;" x="307.584" xlink:href="#m2b5d377cc5" y="307.584"/>
      </g>
     </g>
     <g id="text_4">
      <!-- 2 -->
      <g transform="translate(304.40275 322.182437)scale(0.1 -0.1)">
       <use xlink:href="#DejaVuSans-32"/>
      </g>
     </g>
    </g>
    <g id="xtick_5">
     <g id="line2d_5">
      <g>
       <use style="stroke:#000000;stroke-width:0.8;" x="379.008" xlink:href="#m2b5d377cc5" y="307.584"/>
      </g>
     </g>
     <g id="text_5">
      <!-- 4 -->
      <g transform="translate(375.82675 322.182437)scale(0.1 -0.1)">
       <use xlink:href="#DejaVuSans-34"/>
      </g>
     </g>
    </g>
    <g id="text_6">
     <!-- Probe position $x/l_{ee}$ -->
     <defs>
      <path d="M 19.671875 64.796875 
L 19.671875 37.40625 
L 32.078125 37.40625 
Q 38.96875 37.40625 42.71875 40.96875 
Q 46.484375 44.53125 46.484375 51.125 
Q 46.484375 57.671875 42.71875 61.234375 
Q 38.96875 64.796875 32.078125 64.796875 
z
M 9.8125 72.90625 
L 32.078125 72.90625 
Q 44.34375 72.90625 50.609375 67.359375 
Q 56.890625 61.8125 56.890625 51.125 
Q 56.890625 40.328125 50.609375 34.8125 
Q 44.34375 29.296875 32.078125 29.296875 
L 19.671875 29.296875 
L 19.671875 0 
L 9.8125 0 
z
" id="DejaVuSans-50"/>
      <path d="M 41.109375 46.296875 
Q 39.59375 47.171875 37.8125 47.578125 
Q 36.03125 48 33.890625 48 
Q 26.265625 48 22.1875 43.046875 
Q 18.109375 38.09375 18.109375 28.8125 
L 18.109375 0 
L 9.078125 0 
L 9.078125 54.6875 
L 18.109375 54.6875 
L 18.109375 46.1875 
Q 20.953125 51.171875 25.484375 53.578125 
Q 30.03125 56 36.53125 56 
Q 37.453125 56 38.578125 55.875 
Q 39.703125 55.765625 41.0625 55.515625 
z
" id="DejaVuSans-72"/>
      <path d="M 30.609375 48.390625 
Q 23.390625 48.390625 19.1875 42.75 
Q 14.984375 37.109375 14.984375 27.296875 
Q 14.984375 17.484375 19.15625 11.84375 
Q 23.34375 6.203125 30.609375 6.203125 
Q 37.796875 6.203125 41.984375 11.859375 
Q 46.1875 17.53125 46.1875 27.296875 
Q 46.1875 37.015625 41.984375 42.703125 
Q 37.796875 48.390625 30.609375 48.390625 
z
M 30.609375 56 
Q 42.328125 56 49.015625 48.375 
Q 55.71875 40.765625 55.71875 27.296875 
Q 55.71875 13.875 49.015625 6.21875 
Q 42.328125 -1.421875 30.609375 -1.421875 
Q 18.84375 -1.421875 12.171875 6.21875 
Q 5.515625 13.875 5.515625 27.296875 
Q 5.515625 40.765625 12.171875 48.375 
Q 18.84375 56 30.609375 56 
z
" id="DejaVuSans-6f"/>
      <path d="M 48.6875 27.296875 
Q 48.6875 37.203125 44.609375 42.84375 
Q 40.53125 48.484375 33.40625 48.484375 
Q 26.265625 48.484375 22.1875 42.84375 
Q 18.109375 37.203125 18.109375 27.296875 
Q 18.109375 17.390625 22.1875 11.75 
Q 26.265625 6.109375 33.40625 6.109375 
Q 40.53125 6.109375 44.609375 11.75 
Q 48.6875 17.390625 48.6875 27.296875 
z
M 18.109375 46.390625 
Q 20.953125 51.265625 25.265625 53.625 
Q 29.59375 56 35.59375 56 
Q 45.5625 56 51.78125 48.09375 
Q 58.015625 40.1875 58.015625 27.296875 
Q 58.015625 14.40625 51.78125 6.484375 
Q 45.5625 -1.421875 35.59375 -1.421875 
Q 29.59375 -1.421875 25.265625 0.953125 
Q 20.953125 3.328125 18.109375 8.203125 
L 18.109375 0 
L 9.078125 0 
L 9.078125 75.984375 
L 18.109375 75.984375 
z
" id="DejaVuSans-62"/>
      <path d="M 56.203125 29.59375 
L 56.203125 25.203125 
L 14.890625 25.203125 
Q 15.484375 15.921875 20.484375 11.0625 
Q 25.484375 6.203125 34.421875 6.203125 
Q 39.59375 6.203125 44.453125 7.46875 
Q 49.3125 8.734375 54.109375 11.28125 
L 54.109375 2.78125 
Q 49.265625 0.734375 44.1875 -0.34375 
Q 39.109375 -1.421875 33.890625 -1.421875 
Q 20.796875 -1.421875 13.15625 6.1875 
Q 5.515625 13.8125 5.515625 26.8125 
Q 5.515625 40.234375 12.765625 48.109375 
Q 20.015625 56 32.328125 56 
Q 43.359375 56 49.78125 48.890625 
Q 56.203125 41.796875 56.203125 29.59375 
z
M 47.21875 32.234375 
Q 47.125 39.59375 43.09375 43.984375 
Q 39.0625 48.390625 32.421875 48.390625 
Q 24.90625 48.390625 20.390625 44.140625 
Q 15.875 39.890625 15.1875 32.171875 
z
" id="DejaVuSans-65"/>
      <path id="DejaVuSans-20"/>
      <path d="M 18.109375 8.203125 
L 18.109375 -20.796875 
L 9.078125 -20.796875 
L 9.078125 54.6875 
L 18.109375 54.6875 
L 18.109375 46.390625 
Q 20.953125 51.265625 25.265625 53.625 
Q 29.59375 56 35.59375 56 
Q 45.5625 56 51.78125 48.09375 
Q 58.015625 40.1875 58.015625 27.296875 
Q 58.015625 14.40625 51.78125 6.484375 
Q 45.5625 -1.421875 35.59375 -1.421875 
Q 29.59375 -1.421875 25.265625 0.953125 
Q 20.953125 3.328125 18.109375 8.203125 
z
M 48.6875 27.296875 
Q 48.6875 37.203125 44.609375 42.84375 
Q 40.53125 48.484375 33.40625 48.484375 
Q 26.265625 48.484375 22.1875 42.84375 
Q 18.109375 37.203125 18.109375 27.296875 
Q 18.109375 17.390625 22.1875 11.75 
Q 26.265625 6.109375 33.40625 6.109375 
Q 40.53125 6.109375 44.609375 11.75 
Q 48.6875 17.390625 48.6875 27.296875 
z
" id="DejaVuSans-70"/>
      <path d="M 44.28125 53.078125 
L 44.28125 44.578125 
Q 40.484375 46.53125 36.375 47.5 
Q 32.28125 48.484375 27.875 48.484375 
Q 21.1875 48.484375 17.84375 46.4375 
Q 14.5 44.390625 14.5 40.28125 
Q 14.5 37.15625 16.890625 35.375 
Q 19.28125 33.59375 26.515625 31.984375 
L 29.59375 31.296875 
Q 39.15625 29.25 43.1875 25.515625 
Q 47.21875 21.78125 47.21875 15.09375 
Q 47.21875 7.46875 41.1875 3.015625 
Q 35.15625 -1.421875 24.609375 -1.421875 
Q 20.21875 -1.421875 15.453125 -0.5625 
Q 10.6875 0.296875 5.421875 2 
L 5.421875 11.28125 
Q 10.40625 8.6875 15.234375 7.390625 
Q 20.0625 6.109375 24.8125 6.109375 
Q 31.15625 6.109375 34.5625 8.28125 
Q 37.984375 10.453125 37.984375 14.40625 
Q 37.984375 18.0625 35.515625 20.015625 
Q 33.0625 21.96875 24.703125 23.78125 
L 21.578125 24.515625 
Q 13.234375 26.265625 9.515625 29.90625 
Q 5.8125 33.546875 5.8125 39.890625 
Q 5.8125 47.609375 11.28125 51.796875 
Q 16.75 56 26.8125 56 
Q 31.78125 56 36.171875 55.265625 
Q 40.578125 54.546875 44.28125 53.078125 
z
" id="DejaVuSans-73"/>
      <path d="M 9.421875 54.6875 
L 18.40625 54.6875 
L 18.40625 0 
L 9.421875 0 
z
M 9.421875 75.984375 
L 18.40625 75.984375 
L 18.40625 64.59375 
L 9.421875 64.59375 
z
" id="DejaVuSans-69"/>
      <path d="M 18.3125 70.21875 
L 18.3125 54.6875 
L 36.8125 54.6875 
L 36.8125 47.703125 
L 18.3125 47.703125 
L 18.3125 18.015625 
Q 18.3125 11.328125 20.140625 9.421875 
Q 21.96875 7.515625 27.59375 7.515625 
L 36.8125 7.515625 
L 36.8125 0 
L 27.59375 0 
Q 17.1875 0 13.234375 3.875 
Q 9.28125 7.765625 9.28125 18.015625 
L 9.28125 47.703125 
L 2.6875 47.703125 
L 2.6875 54.6875 
L 9.28125 54.6875 
L 9.28125 70.21875 
z
" id="DejaVuSans-74"/>
      <path d="M 54.890625 33.015625 
L 54.890625 0 
L 45.90625 0 
L 45.90625 32.71875 
Q 45.90625 40.484375 42.875 44.328125 
Q 39.84375 48.1875 33.796875 48.1875 
Q 26.515625 48.1875 22.3125 43.546875 
Q 18.109375 38.921875 18.109375 30.90625 
L 18.109375 0 
L 9.078125 0 
L 9.078125 54.6875 
L 18.109375 54.6875 
L 18.109375 46.1875 
Q 21.34375 51.125 25.703125 53.5625 
Q 30.078125 56 35.796875 56 
Q 45.21875 56 50.046875 50.171875 
Q 54.890625 44.34375 54.890625 33.015625 
z
" id="DejaVuSans-6e"/>
      <path d="M 60.015625 54.6875 
L 34.90625 27.875 
L 50.296875 0 
L 39.984375 0 
L 28.421875 21.6875 
L 8.296875 0 
L -2.59375 0 
L 24.3125 28.8125 
L 10.015625 54.6875 
L 20.3125 54.6875 
L 30.8125 34.90625 
L 49.125 54.6875 
z
" id="DejaVuSans-Oblique-78"/>
      <path d="M 25.390625 72.90625 
L 33.6875 72.90625 
L 8.296875 -9.28125 
L 0 -9.28125 
z
" id="DejaVuSans-2f"/>
      <path d="M 18.3125 75.984375 
L 27.296875 75.984375 
L 12.5 0 
L 3.515625 0 
z
" id="DejaVuSans-Oblique-6c"/>
      <path d="M 48.09375 32.234375 
Q 48.25 33.015625 48.3125 33.84375 
Q 48.390625 34.671875 48.390625 35.5 
Q 48.390625 41.453125 44.890625 44.921875 
Q 41.40625 48.390625 35.40625 48.390625 
Q 28.71875 48.390625 23.578125 44.15625 
Q 18.453125 39.9375 15.828125 32.171875 
z
M 55.90625 25.203125 
L 14.109375 25.203125 
Q 13.8125 23.34375 13.71875 22.265625 
Q 13.625 21.1875 13.625 20.40625 
Q 13.625 13.625 17.796875 9.90625 
Q 21.96875 6.203125 29.59375 6.203125 
Q 35.453125 6.203125 40.671875 7.515625 
Q 45.90625 8.84375 50.390625 11.375 
L 48.6875 2.484375 
Q 43.84375 0.53125 38.6875 -0.4375 
Q 33.546875 -1.421875 28.21875 -1.421875 
Q 16.84375 -1.421875 10.71875 4.015625 
Q 4.59375 9.46875 4.59375 19.484375 
Q 4.59375 28.03125 7.640625 35.375 
Q 10.6875 42.71875 16.609375 48.484375 
Q 20.40625 52.09375 25.65625 54.046875 
Q 30.90625 56 36.8125 56 
Q 46.09375 56 51.578125 50.4375 
Q 57.078125 44.875 57.078125 35.5 
Q 57.078125 33.25 56.78125 30.6875 
Q 56.5 28.125 55.90625 25.203125 
z
" id="DejaVuSans-Oblique-65"/>
     </defs>
     <g transform="translate(188.31 335.862125)scale(0.1 -0.1)">
      <use transform="translate(0 0.015625)" xlink:href="#DejaVuSans-50"/>
      <use transform="translate(60.302734 0.015625)" xlink:href="#DejaVuSans-72"/>
      <use transform="translate(101.416016 0.015625)" xlink:href="#DejaVuSans-6f"/>
      <use transform="translate(162.597656 0.015625)" xlink:href="#DejaVuSans-62"/>
      <use transform="translate(226.074219 0.015625)" xlink:href="#DejaVuSans-65"/>
      <use transform="translate(287.597656 0.015625)" xlink:href="#DejaVuSans-20"/>
      <use transform="translate(319.384766 0.015625)" xlink:href="#DejaVuSans-70"/>
      <use transform="translate(382.861328 0.015625)" xlink:href="#DejaVuSans-6f"/>
      <use transform="translate(444.042969 0.015625)" xlink:href="#DejaVuSans-73"/>
      <use transform="translate(496.142578 0.015625)" xlink:href="#DejaVuSans-69"/>
      <use transform="translate(523.925781 0.015625)" xlink:href="#DejaVuSans-74"/>
      <use transform="translate(563.134766 0.015625)" xlink:href="#DejaVuSans-69"/>
      <use transform="translate(590.917969 0.015625)" xlink:href="#DejaVuSans-6f"/>
      <use transform="translate(652.099609 0.015625)" xlink:href="#DejaVuSans-6e"/>
      <use transform="translate(715.478516 0.015625)" xlink:href="#DejaVuSans-20"/>
      <use transform="translate(747.265625 0.015625)" xlink:href="#DejaVuSans-Oblique-78"/>
      <use transform="translate(806.445312 0.015625)" xlink:href="#DejaVuSans-2f"/>
      <use transform="translate(840.136719 0.015625)" xlink:href="#DejaVuSans-Oblique-6c"/>
      <use transform="translate(867.919922 -16.390625)scale(0.7)" xlink:href="#DejaVuSans-Oblique-65"/>
      <use transform="translate(910.986328 -16.390625)scale(0.7)" xlink:href="#DejaVuSans-Oblique-65"/>
     </g>
    </g>
   </g>
   <g id="matplotlib.axis_2">
    <g id="ytick_1">
     <g id="line2d_6">
      <defs>
       <path d="M 0 0 
L -3.5 0 
" id="m0ae60f4fd9" style="stroke:#000000;stroke-width:0.8;"/>
      </defs>
      <g>
       <use style="stroke:#000000;stroke-width:0.8;" x="57.6" xlink:href="#m0ae60f4fd9" y="270.317829"/>
      </g>
     </g>
     <g id="text_7">
      <!-- −1.0 -->
      <defs>
       <path d="M 12.40625 8.296875 
L 28.515625 8.296875 
L 28.515625 63.921875 
L 10.984375 60.40625 
L 10.984375 69.390625 
L 28.421875 72.90625 
L 38.28125 72.90625 
L 38.28125 8.296875 
L 54.390625 8.296875 
L 54.390625 0 
L 12.40625 0 
z
" id="DejaVuSans-31"/>
       <path d="M 10.6875 12.40625 
L 21 12.40625 
L 21 0 
L 10.6875 0 
z
" id="DejaVuSans-2e"/>
      </defs>
      <g transform="translate(26.317187 274.117048)scale(0.1 -0.1)">
       <use xlink:href="#DejaVuSans-2212"/>
       <use x="83.789062" xlink:href="#DejaVuSans-31"/>
       <use x="147.412109" xlink:href="#DejaVuSans-2e"/>
       <use x="179.199219" xlink:href="#DejaVuSans-30"/>
      </g>
     </g>
    </g>
    <g id="ytick_2">
     <g id="line2d_7">
      <g>
       <use style="stroke:#000000;stroke-width:0.8;" x="57.6" xlink:href="#m0ae60f4fd9" y="222.42104"/>
      </g>
     </g>
     <g id="text_8">
      <!-- −0.5 -->
      <defs>
       <path d="M 10.796875 72.90625 
L 49.515625 72.90625 
L 49.515625 64.59375 
L 19.828125 64.59375 
L 19.828125 46.734375 
Q 21.96875 47.46875 24.109375 47.828125 
Q 26.265625 48.1875 28.421875 48.1875 
Q 40.625 48.1875 47.75 41.5 
Q 54.890625 34.8125 54.890625 23.390625 
Q 54.890625 11.625 47.5625 5.09375 
Q 40.234375 -1.421875 26.90625 -1.421875 
Q 22.3125 -1.421875 17.546875 -0.640625 
Q 12.796875 0.140625 7.71875 1.703125 
L 7.71875 11.625 
Q 12.109375 9.234375 16.796875 8.0625 
Q 21.484375 6.890625 26.703125 6.890625 
Q 35.15625 6.890625 40.078125 11.328125 
Q 45.015625 15.765625 45.015625 23.390625 
Q 45.015625 31 40.078125 35.4375 
Q 35.15625 39.890625 26.703125 39.890625 
Q 22.75 39.890625 18.8125 39.015625 
Q 14.890625 38.140625 10.796875 36.28125 
z
" id="DejaVuSans-35"/>
      </defs>
      <g transform="translate(26.317187 226.220259)scale(0.1 -0.1)">
       <use xlink:href="#DejaVuSans-2212"/>
       <use x="83.789062" xlink:href="#DejaVuSans-30"/>
       <use x="147.412109" xlink:href="#DejaVuSans-2e"/>
       <use x="179.199219" xlink:href="#DejaVuSans-35"/>
      </g>
     </g>
    </g>
    <g id="ytick_3">
     <g id="line2d_8">
      <g>
       <use style="stroke:#000000;stroke-width:0.8;" x="57.6" xlink:href="#m0ae60f4fd9" y="174.524251"/>
      </g>
     </g>
     <g id="text_9">
      <!-- 0.0 -->
      <g transform="translate(34.696875 178.32347)scale(0.1 -0.1)">
       <use xlink:href="#DejaVuSans-30"/>
       <use x="63.623047" xlink:href="#DejaVuSans-2e"/>
       <use x="95.410156" xlink:href="#DejaVuSans-30"/>
      </g>
     </g>
    </g>
    <g id="ytick_4">
     <g id="line2d_9">
      <g>
       <use style="stroke:#000000;stroke-width:0.8;" x="57.6" xlink:href="#m0ae60f4fd9" y="126.627462"/>
      </g>
     </g>
     <g id="text_10">
      <!-- 0.5 -->
      <g transform="translate(34.696875 130.42668)scale(0.1 -0.1)">
       <use xlink:href="#DejaVuSans-30"/>
       <use x="63.623047" xlink:href="#DejaVuSans-2e"/>
       <use x="95.410156" xlink:href="#DejaVuSans-35"/>
      </g>
     </g>
    </g>
    <g id="ytick_5">
     <g id="line2d_10">
      <g>
       <use style="stroke:#000000;stroke-width:0.8;" x="57.6" xlink:href="#m0ae60f4fd9" y="78.730673"/>
      </g>
     </g>
     <g id="text_11">
      <!-- 1.0 -->
      <g transform="translate(34.696875 82.529891)scale(0.1 -0.1)">
       <use xlink:href="#DejaVuSans-31"/>
       <use x="63.623047" xlink:href="#DejaVuSans-2e"/>
       <use x="95.410156" xlink:href="#DejaVuSans-30"/>
      </g>
     </g>
    </g>
    <g id="text_12">
     <!-- $V_P(x)$ -->
     <defs>
      <path d="M 20.609375 0 
L 7.8125 72.90625 
L 17.484375 72.90625 
L 28.078125 10.203125 
L 63.484375 72.90625 
L 74.21875 72.90625 
L 32.078125 0 
z
" id="DejaVuSans-Oblique-56"/>
      <path d="M 16.890625 72.90625 
L 39.703125 72.90625 
Q 49.65625 72.90625 54.875 68.265625 
Q 60.109375 63.625 60.109375 54.6875 
Q 60.109375 42.671875 52.390625 35.984375 
Q 44.671875 29.296875 30.71875 29.296875 
L 18.3125 29.296875 
L 12.59375 0 
L 2.6875 0 
z
M 25.203125 64.796875 
L 19.921875 37.40625 
L 32.328125 37.40625 
Q 40.71875 37.40625 45.203125 41.703125 
Q 49.703125 46 49.703125 54 
Q 49.703125 59.125 46.65625 61.953125 
Q 43.609375 64.796875 38.09375 64.796875 
z
" id="DejaVuSans-Oblique-50"/>
      <path d="M 31 75.875 
Q 24.46875 64.65625 21.28125 53.65625 
Q 18.109375 42.671875 18.109375 31.390625 
Q 18.109375 20.125 21.3125 9.0625 
Q 24.515625 -2 31 -13.1875 
L 23.1875 -13.1875 
Q 15.875 -1.703125 12.234375 9.375 
Q 8.59375 20.453125 8.59375 31.390625 
Q 8.59375 42.28125 12.203125 53.3125 
Q 15.828125 64.359375 23.1875 75.875 
z
" id="DejaVuSans-28"/>
      <path d="M 8.015625 75.875 
L 15.828125 75.875 
Q 23.140625 64.359375 26.78125 53.3125 
Q 30.421875 42.28125 30.421875 31.390625 
Q 30.421875 20.453125 26.78125 9.375 
Q 23.140625 -1.703125 15.828125 -13.1875 
L 8.015625 -13.1875 
Q 14.5 -2 17.703125 9.0625 
Q 20.90625 20.125 20.90625 31.390625 
Q 20.90625 42.671875 17.703125 53.65625 
Q 14.5 64.65625 8.015625 75.875 
z
" id="DejaVuSans-29"/>
     </defs>
     <g transform="translate(20.2375 187.078)rotate(-90)scale(0.1 -0.1)">
      <use transform="translate(0 0.125)" xlink:href="#DejaVuSans-Oblique-56"/>
      <use transform="translate(68.408203 -16.28125)scale(0.7)" xlink:href="#DejaVuSans-Oblique-50"/>
      <use transform="translate(113.354492 0.125)" xlink:href="#DejaVuSans-28"/>
      <use transform="translate(152.368164 0.125)" xlink:href="#DejaVuSans-Oblique-78"/>
      <use transform="translate(211.547852 0.125)" xlink:href="#DejaVuSans-29"/>
     </g>
    </g>
   </g>
   <g id="line2d_11">
    <path clip-path="url(#p2e6015054f)" d="M 57.075034 174.959633 
L 92.247782 175.277165 
L 115.935552 175.692416 
L 132.44521 176.197262 
L 144.648 176.789538 
L 153.979546 177.460809 
L 161.875469 178.263511 
L 168.33577 179.164855 
L 173.360448 180.095612 
L 177.667315 181.102082 
L 181.256371 182.148673 
L 184.845427 183.426959 
L 187.716672 184.669054 
L 190.587917 186.16495 
L 193.459162 187.965714 
L 195.612595 189.568652 
L 197.766029 191.443297 
L 199.919462 193.639858 
L 202.072896 196.219003 
L 204.22633 199.270135 
L 205.661952 201.622954 
L 207.097574 204.27422 
L 208.533197 207.26403 
L 209.968819 210.638602 
L 211.404442 214.453999 
L 212.840064 218.776481 
L 214.275686 223.678055 
L 215.711309 229.229016 
L 217.146931 235.49027 
L 218.582554 242.505159 
L 220.735987 254.448981 
L 223.607232 272.410814 
L 225.760666 285.565498 
L 226.478477 289.279103 
L 227.196288 292.342635 
L 227.914099 294.508019 
L 228.63191 295.488 
L 229.349722 294.962342 
L 230.067533 292.591026 
L 230.785344 288.036483 
L 231.503155 280.996142 
L 232.220966 271.244756 
L 232.938778 258.682929 
L 233.656589 243.384387 
L 235.092211 205.923261 
L 237.963456 122.949658 
L 239.399078 90.019187 
L 240.11689 77.527181 
L 240.834701 67.845064 
L 241.552512 60.869707 
L 242.270323 56.373367 
L 242.988134 54.052125 
L 243.705946 53.568 
L 244.423757 54.581236 
L 245.141568 56.772291 
L 245.859379 59.854835 
L 247.295002 67.746569 
L 253.037491 102.844568 
L 255.190925 113.640671 
L 256.626547 119.892777 
L 258.06217 125.435261 
L 259.497792 130.329189 
L 260.933414 134.644926 
L 262.369037 138.454452 
L 263.804659 141.823917 
L 265.240282 144.80925 
L 267.393715 148.666106 
L 269.547149 151.894753 
L 271.700582 154.615938 
L 273.854016 156.929059 
L 276.00745 158.902757 
L 278.160883 160.58843 
L 280.314317 162.036812 
L 283.185562 163.675323 
L 286.056806 165.036858 
L 288.928051 166.170653 
L 292.517107 167.349516 
L 296.106163 168.312382 
L 300.41303 169.24666 
L 305.437709 170.109987 
L 311.89801 170.955139 
L 319.076122 171.650834 
L 327.689856 172.260044 
L 338.457024 172.794174 
L 352.095437 173.24659 
L 371.476339 173.649209 
L 396.599731 173.950091 
L 415.262822 174.088977 
L 415.262822 174.088977 
" style="fill:none;stroke:#1f77b4;stroke-linecap:square;stroke-width:1.5;"/>
   </g>
   <g id="line2d_12">
    <path clip-path="url(#p2e6015054f)" d="M 57.075034 175.212108 
L 85.787482 175.608911 
L 105.886195 176.093338 
L 120.96023 176.670848 
L 132.44521 177.32207 
L 141.776755 178.0623 
L 149.672678 178.909859 
L 156.132979 179.818571 
L 161.875469 180.846933 
L 166.900147 181.974564 
L 171.207014 183.161119 
L 174.79607 184.346207 
L 178.385126 185.749909 
L 181.974182 187.422245 
L 184.845427 188.994643 
L 187.716672 190.81695 
L 190.587917 192.937216 
L 193.459162 195.409993 
L 195.612595 197.532937 
L 197.766029 199.91939 
L 199.919462 202.60177 
L 202.072896 205.611788 
L 204.22633 208.979897 
L 206.379763 212.732776 
L 208.533197 216.884919 
L 211.404442 223.016097 
L 214.993498 231.383554 
L 218.582554 239.650529 
L 220.018176 242.505357 
L 221.453798 244.80838 
L 222.17161 245.672238 
L 222.889421 246.294937 
L 223.607232 246.635753 
L 224.325043 246.65139 
L 225.042854 246.296594 
L 225.760666 245.525147 
L 226.478477 244.291236 
L 227.196288 242.551095 
L 227.914099 240.264922 
L 228.63191 237.39912 
L 229.349722 233.928835 
L 230.785344 225.134436 
L 232.220966 213.947987 
L 233.656589 200.699269 
L 235.810022 178.413995 
L 237.963456 155.384926 
L 239.399078 141.333588 
L 240.834701 129.083298 
L 242.270323 119.098694 
L 243.705946 111.570857 
L 244.423757 108.719826 
L 245.141568 106.447653 
L 245.859379 104.720588 
L 246.57719 103.49873 
L 247.295002 102.738229 
L 248.012813 102.393214 
L 248.730624 102.417469 
L 249.448435 102.765797 
L 250.166246 103.394981 
L 250.884058 104.264359 
L 252.31968 106.57576 
L 253.755302 109.435993 
L 255.908736 114.303112 
L 261.651226 127.663053 
L 264.52247 133.626928 
L 266.675904 137.642393 
L 268.829338 141.261291 
L 270.982771 144.503786 
L 273.136205 147.398387 
L 275.289638 149.976013 
L 277.443072 152.268864 
L 279.596506 154.308919 
L 282.46775 156.685845 
L 285.338995 158.724792 
L 288.21024 160.478852 
L 291.081485 161.993799 
L 294.670541 163.606371 
L 298.259597 164.961655 
L 302.566464 166.313987 
L 306.873331 167.425661 
L 311.89801 168.485133 
L 317.640499 169.454829 
L 324.1008 170.313837 
L 331.996723 171.117417 
L 341.328269 171.822531 
L 352.095437 172.411957 
L 365.73385 172.933316 
L 383.67913 173.384309 
L 408.08471 173.758534 
L 415.262822 173.836572 
L 415.262822 173.836572 
" style="fill:none;stroke:#ff7f0e;stroke-linecap:square;stroke-width:1.5;"/>
   </g>
   <g id="line2d_13">
    <path clip-path="url(#p2e6015054f)" d="M 57.075034 176.087121 
L 77.173747 176.652202 
L 92.965594 177.300051 
L 105.886195 178.035167 
L 116.653363 178.851941 
L 125.984909 179.767448 
L 134.598643 180.841924 
L 141.776755 181.955649 
L 148.237056 183.172366 
L 153.979546 184.462619 
L 159.722035 185.988672 
L 164.746714 187.550984 
L 169.771392 189.357067 
L 174.078259 191.121401 
L 178.385126 193.101059 
L 182.691994 195.302777 
L 187.716672 198.139697 
L 193.459162 201.655667 
L 201.355085 206.504278 
L 204.22633 208.043845 
L 206.379763 209.021618 
L 208.533197 209.784017 
L 210.68663 210.264144 
L 212.122253 210.390836 
L 213.557875 210.335485 
L 214.993498 210.07393 
L 216.42912 209.582043 
L 217.864742 208.836521 
L 219.300365 207.815852 
L 220.735987 206.501415 
L 222.17161 204.878694 
L 223.607232 202.938539 
L 225.042854 200.678399 
L 226.478477 198.103419 
L 228.63191 193.683091 
L 230.785344 188.671965 
L 233.656589 181.300888 
L 241.552512 160.33288 
L 243.705946 155.32618 
L 245.859379 150.911168 
L 247.295002 148.340039 
L 248.730624 146.083864 
L 250.166246 144.147688 
L 251.601869 142.52887 
L 253.037491 141.218186 
L 254.473114 140.20106 
L 255.908736 139.45883 
L 257.344358 138.969953 
L 258.779981 138.711113 
L 260.215603 138.658173 
L 261.651226 138.786979 
L 263.804659 139.269744 
L 265.958093 140.034193 
L 268.829338 141.377383 
L 272.418394 143.393454 
L 278.878694 147.404039 
L 285.338995 151.340681 
L 290.363674 154.13743 
L 294.670541 156.301275 
L 298.977408 158.243385 
L 303.284275 159.972266 
L 308.308954 161.740758 
L 313.333632 163.269952 
L 319.076122 164.763497 
L 324.818611 166.026395 
L 331.278912 167.217654 
L 338.457024 168.308582 
L 346.352947 169.28303 
L 355.684493 170.198107 
L 366.451661 171.014516 
L 378.654451 171.714083 
L 393.728486 172.346855 
L 412.391578 172.894364 
L 415.262822 172.961789 
L 415.262822 172.961789 
" style="fill:none;stroke:#2ca02c;stroke-linecap:square;stroke-width:1.5;"/>
   </g>
   <g id="line2d_14">
    <path clip-path="url(#p2e6015054f)" d="M 57.075034 178.177128 
L 73.584691 179.041375 
L 88.658726 180.05267 
L 101.579328 181.132868 
L 113.782118 182.37104 
L 125.267098 183.756385 
L 136.752077 185.365936 
L 149.672678 187.414435 
L 172.642637 191.130478 
L 179.102938 191.927073 
L 184.127616 192.357431 
L 189.152294 192.555614 
L 193.459162 192.489349 
L 197.048218 192.233793 
L 200.637274 191.769542 
L 204.22633 191.074142 
L 207.815386 190.129426 
L 211.404442 188.923575 
L 214.993498 187.453182 
L 218.582554 185.725089 
L 222.17161 183.757688 
L 226.478477 181.124616 
L 231.503155 177.773511 
L 247.295002 167.005866 
L 251.601869 164.466913 
L 255.190925 162.593437 
L 258.779981 160.968163 
L 262.369037 159.604694 
L 265.958093 158.505525 
L 269.547149 157.663606 
L 273.136205 157.064291 
L 276.725261 156.687437 
L 280.314317 156.509405 
L 284.621184 156.522458 
L 289.645862 156.794554 
L 295.388352 157.363537 
L 302.566464 158.336062 
L 313.333632 160.07101 
L 334.867968 163.57746 
L 346.352947 165.200423 
L 357.837926 166.599349 
L 370.040717 167.850665 
L 382.961318 168.942762 
L 397.317542 169.921941 
L 413.109389 170.771702 
L 415.262822 170.872194 
L 415.262822 170.872194 
" style="fill:none;stroke:#d62728;stroke-linecap:square;stroke-width:1.5;"/>
   </g>
   <g id="line2d_15">
    <path clip-path="url(#p2e6015054f)" d="M 57.075034 179.785425 
L 77.173747 180.930748 
L 97.990272 182.346298 
L 128.856154 184.718858 
L 146.083622 185.920064 
L 156.85079 186.454863 
L 165.464525 186.670692 
L 173.360448 186.637847 
L 180.53856 186.366806 
L 186.998861 185.891469 
L 192.74135 185.263874 
L 198.48384 184.430723 
L 204.22633 183.387492 
L 210.68663 181.968986 
L 217.146931 180.313532 
L 224.325043 178.245881 
L 234.3744 175.09721 
L 249.448435 170.367865 
L 256.626547 168.343665 
L 263.086848 166.738625 
L 269.547149 165.377185 
L 275.289638 164.387076 
L 281.032128 163.606706 
L 287.492429 162.971028 
L 293.95273 162.5728 
L 301.130842 162.376168 
L 309.026765 162.410165 
L 317.640499 162.681249 
L 328.407667 163.262043 
L 343.481702 164.331006 
L 390.857242 167.844677 
L 410.955955 169.03704 
L 415.262822 169.263998 
L 415.262822 169.263998 
" style="fill:none;stroke:#9467bd;stroke-linecap:square;stroke-width:1.5;"/>
   </g>
   <g id="patch_3">
    <path d="M 57.6 307.584 
L 57.6 41.472 
" style="fill:none;stroke:#000000;stroke-linecap:square;stroke-linejoin:miter;stroke-width:0.8;"/>
   </g>
   <g id="patch_4">
    <path d="M 414.72 307.584 
L 414.72 41.472 
" style="fill:none;stroke:#000000;stroke-linecap:square;stroke-linejoin:miter;stroke-width:0.8;"/>
   </g>
   <g id="patch_5">
    <path d="M 57.6 307.584 
L 414.72 307.584 
" style="fill:none;stroke:#000000;stroke-linecap:square;stroke-linejoin:miter;stroke-width:0.8;"/>
   </g>
   <g id="patch_6">
    <path d="M 57.6 41.472 
L 414.72 41.472 
" style="fill:none;stroke:#000000;stroke-linecap:square;stroke-linejoin:miter;stroke-width:0.8;"/>
   </g>
   <g id="text_13">
    <!-- Edge probe potential -->
    <defs>
     <path d="M 9.8125 72.90625 
L 55.90625 72.90625 
L 55.90625 64.59375 
L 19.671875 64.59375 
L 19.671875 43.015625 
L 54.390625 43.015625 
L 54.390625 34.71875 
L 19.671875 34.71875 
L 19.671875 8.296875 
L 56.78125 8.296875 
L 56.78125 0 
L 9.8125 0 
z
" id="DejaVuSans-45"/>
     <path d="M 45.40625 46.390625 
L 45.40625 75.984375 
L 54.390625 75.984375 
L 54.390625 0 
L 45.40625 0 
L 45.40625 8.203125 
Q 42.578125 3.328125 38.25 0.953125 
Q 33.9375 -1.421875 27.875 -1.421875 
Q 17.96875 -1.421875 11.734375 6.484375 
Q 5.515625 14.40625 5.515625 27.296875 
Q 5.515625 40.1875 11.734375 48.09375 
Q 17.96875 56 27.875 56 
Q 33.9375 56 38.25 53.625 
Q 42.578125 51.265625 45.40625 46.390625 
z
M 14.796875 27.296875 
Q 14.796875 17.390625 18.875 11.75 
Q 22.953125 6.109375 30.078125 6.109375 
Q 37.203125 6.109375 41.296875 11.75 
Q 45.40625 17.390625 45.40625 27.296875 
Q 45.40625 37.203125 41.296875 42.84375 
Q 37.203125 48.484375 30.078125 48.484375 
Q 22.953125 48.484375 18.875 42.84375 
Q 14.796875 37.203125 14.796875 27.296875 
z
" id="DejaVuSans-64"/>
     <path d="M 45.40625 27.984375 
Q 45.40625 37.75 41.375 43.109375 
Q 37.359375 48.484375 30.078125 48.484375 
Q 22.859375 48.484375 18.828125 43.109375 
Q 14.796875 37.75 14.796875 27.984375 
Q 14.796875 18.265625 18.828125 12.890625 
Q 22.859375 7.515625 30.078125 7.515625 
Q 37.359375 7.515625 41.375 12.890625 
Q 45.40625 18.265625 45.40625 27.984375 
z
M 54.390625 6.78125 
Q 54.390625 -7.171875 48.1875 -13.984375 
Q 42 -20.796875 29.203125 -20.796875 
Q 24.46875 -20.796875 20.265625 -20.09375 
Q 16.0625 -19.390625 12.109375 -17.921875 
L 12.109375 -9.1875 
Q 16.0625 -11.328125 19.921875 -12.34375 
Q 23.78125 -13.375 27.78125 -13.375 
Q 36.625 -13.375 41.015625 -8.765625 
Q 45.40625 -4.15625 45.40625 5.171875 
L 45.40625 9.625 
Q 42.625 4.78125 38.28125 2.390625 
Q 33.9375 0 27.875 0 
Q 17.828125 0 11.671875 7.65625 
Q 5.515625 15.328125 5.515625 27.984375 
Q 5.515625 40.671875 11.671875 48.328125 
Q 17.828125 56 27.875 56 
Q 33.9375 56 38.28125 53.609375 
Q 42.625 51.21875 45.40625 46.390625 
L 45.40625 54.6875 
L 54.390625 54.6875 
z
" id="DejaVuSans-67"/>
     <path d="M 34.28125 27.484375 
Q 23.390625 27.484375 19.1875 25 
Q 14.984375 22.515625 14.984375 16.5 
Q 14.984375 11.71875 18.140625 8.90625 
Q 21.296875 6.109375 26.703125 6.109375 
Q 34.1875 6.109375 38.703125 11.40625 
Q 43.21875 16.703125 43.21875 25.484375 
L 43.21875 27.484375 
z
M 52.203125 31.203125 
L 52.203125 0 
L 43.21875 0 
L 43.21875 8.296875 
Q 40.140625 3.328125 35.546875 0.953125 
Q 30.953125 -1.421875 24.3125 -1.421875 
Q 15.921875 -1.421875 10.953125 3.296875 
Q 6 8.015625 6 15.921875 
Q 6 25.140625 12.171875 29.828125 
Q 18.359375 34.515625 30.609375 34.515625 
L 43.21875 34.515625 
L 43.21875 35.40625 
Q 43.21875 41.609375 39.140625 45 
Q 35.0625 48.390625 27.6875 48.390625 
Q 23 48.390625 18.546875 47.265625 
Q 14.109375 46.140625 10.015625 43.890625 
L 10.015625 52.203125 
Q 14.9375 54.109375 19.578125 55.046875 
Q 24.21875 56 28.609375 56 
Q 40.484375 56 46.34375 49.84375 
Q 52.203125 43.703125 52.203125 31.203125 
z
" id="DejaVuSans-61"/>
     <path d="M 9.421875 75.984375 
L 18.40625 75.984375 
L 18.40625 0 
L 9.421875 0 
z
" id="DejaVuSans-6c"/>
    </defs>
    <g transform="translate(173.109375 35.472)scale(0.12 -0.12)">
     <use xlink:href="#DejaVuSans-45"/>
     <use x="63.183594" xlink:href="#DejaVuSans-64"/>
     <use x="126.660156" xlink:href="#DejaVuSans-67"/>
     <use x="190.136719" xlink:href="#DejaVuSans-65"/>
     <use x="251.660156" xlink:href="#DejaVuSans-20"/>
     <use x="283.447266" xlink:href="#DejaVuSans-70"/>
     <use x="346.923828" xlink:href="#DejaVuSans-72"/>
     <use x="388.005859" xlink:href="#DejaVuSans-6f"/>
     <use x="449.1875" xlink:href="#DejaVuSans-62"/>
     <use x="512.664062" xlink:href="#DejaVuSans-65"/>
     <use x="574.1875" xlink:href="#DejaVuSans-20"/>
     <use x="605.974609" xlink:href="#DejaVuSans-70"/>
     <use x="669.451172" xlink:href="#DejaVuSans-6f"/>
     <use x="730.632812" xlink:href="#DejaVuSans-74"/>
     <use x="769.841797" xlink:href="#DejaVuSans-65"/>
     <use x="831.365234" xlink:href="#DejaVuSans-6e"/>
     <use x="894.744141" xlink:href="#DejaVuSans-74"/>
     <use x="933.953125" xlink:href="#DejaVuSans-69"/>
     <use x="961.736328" xlink:href="#DejaVuSans-61"/>
     <use x="1023.015625" xlink:href="#DejaVuSans-6c"/>
    </g>
   </g>
   <g id="legend_1">
    <g id="patch_7">
     <path d="M 329.52 122.862625 
L 407.72 122.862625 
Q 409.72 122.862625 409.72 120.862625 
L 409.72 48.472 
Q 409.72 46.472 407.72 46.472 
L 329.52 46.472 
Q 327.52 46.472 327.52 48.472 
L 327.52 120.862625 
Q 327.52 122.862625 329.52 122.862625 
z
" style="fill:#ffffff;opacity:0.8;stroke:#cccccc;stroke-linejoin:miter;"/>
    </g>
    <g id="line2d_16">
     <path d="M 331.52 54.570438 
L 351.52 54.570438 
" style="fill:none;stroke:#1f77b4;stroke-linecap:square;stroke-width:1.5;"/>
    </g>
    <g id="line2d_17"/>
    <g id="text_14">
     <!-- $h = 0.3l_{ee}$ -->
     <defs>
      <path d="M 55.71875 33.015625 
L 49.3125 0 
L 40.28125 0 
L 46.6875 32.671875 
Q 47.125 34.96875 47.359375 36.71875 
Q 47.609375 38.484375 47.609375 39.5 
Q 47.609375 43.609375 45.015625 45.890625 
Q 42.4375 48.1875 37.796875 48.1875 
Q 30.5625 48.1875 25.265625 43.296875 
Q 19.96875 38.421875 18.40625 30.328125 
L 12.5 0 
L 3.515625 0 
L 18.3125 75.984375 
L 27.296875 75.984375 
L 21.484375 46.09375 
Q 24.90625 50.6875 30.21875 53.34375 
Q 35.546875 56 41.40625 56 
Q 48.640625 56 52.609375 52.09375 
Q 56.59375 48.1875 56.59375 41.109375 
Q 56.59375 39.359375 56.375 37.359375 
Q 56.15625 35.359375 55.71875 33.015625 
z
" id="DejaVuSans-Oblique-68"/>
      <path d="M 10.59375 45.40625 
L 73.1875 45.40625 
L 73.1875 37.203125 
L 10.59375 37.203125 
z
M 10.59375 25.484375 
L 73.1875 25.484375 
L 73.1875 17.1875 
L 10.59375 17.1875 
z
" id="DejaVuSans-3d"/>
      <path d="M 40.578125 39.3125 
Q 47.65625 37.796875 51.625 33 
Q 55.609375 28.21875 55.609375 21.1875 
Q 55.609375 10.40625 48.1875 4.484375 
Q 40.765625 -1.421875 27.09375 -1.421875 
Q 22.515625 -1.421875 17.65625 -0.515625 
Q 12.796875 0.390625 7.625 2.203125 
L 7.625 11.71875 
Q 11.71875 9.328125 16.59375 8.109375 
Q 21.484375 6.890625 26.8125 6.890625 
Q 36.078125 6.890625 40.9375 10.546875 
Q 45.796875 14.203125 45.796875 21.1875 
Q 45.796875 27.640625 41.28125 31.265625 
Q 36.765625 34.90625 28.71875 34.90625 
L 20.21875 34.90625 
L 20.21875 43.015625 
L 29.109375 43.015625 
Q 36.375 43.015625 40.234375 45.921875 
Q 44.09375 48.828125 44.09375 54.296875 
Q 44.09375 59.90625 40.109375 62.90625 
Q 36.140625 65.921875 28.71875 65.921875 
Q 24.65625 65.921875 20.015625 65.03125 
Q 15.375 64.15625 9.8125 62.3125 
L 9.8125 71.09375 
Q 15.4375 72.65625 20.34375 73.4375 
Q 25.25 74.21875 29.59375 74.21875 
Q 40.828125 74.21875 47.359375 69.109375 
Q 53.90625 64.015625 53.90625 55.328125 
Q 53.90625 49.265625 50.4375 45.09375 
Q 46.96875 40.921875 40.578125 39.3125 
z
" id="DejaVuSans-33"/>
     </defs>
     <g transform="translate(359.52 58.070438)scale(0.1 -0.1)">
      <use transform="translate(0 0.015625)" xlink:href="#DejaVuSans-Oblique-68"/>
      <use transform="translate(82.861328 0.015625)" xlink:href="#DejaVuSans-3d"/>
      <use transform="translate(186.132812 0.015625)" xlink:href="#DejaVuSans-30"/>
      <use transform="translate(249.755859 0.015625)" xlink:href="#DejaVuSans-2e"/>
      <use transform="translate(281.542969 0.015625)" xlink:href="#DejaVuSans-33"/>
      <use transform="translate(345.166016 0.015625)" xlink:href="#DejaVuSans-Oblique-6c"/>
      <use transform="translate(372.949219 -16.390625)scale(0.7)" xlink:href="#DejaVuSans-Oblique-65"/>
      <use transform="translate(416.015625 -16.390625)scale(0.7)" xlink:href="#DejaVuSans-Oblique-65"/>
     </g>
    </g>
    <g id="line2d_18">
     <path d="M 331.52 69.248563 
L 351.52 69.248563 
" style="fill:none;stroke:#ff7f0e;stroke-linecap:square;stroke-width:1.5;"/>
    </g>
    <g id="line2d_19"/>
    <g id="text_15">
     <!-- $h = 0.5l_{ee}$ -->
     <g transform="translate(359.52 72.748563)scale(0.1 -0.1)">
      <use transform="translate(0 0.015625)" xlink:href="#DejaVuSans-Oblique-68"/>
      <use transform="translate(82.861328 0.015625)" xlink:href="#DejaVuSans-3d"/>
      <use transform="translate(186.132812 0.015625)" xlink:href="#DejaVuSans-30"/>
      <use transform="translate(249.755859 0.015625)" xlink:href="#DejaVuSans-2e"/>
      <use transform="translate(281.542969 0.015625)" xlink:href="#DejaVuSans-35"/>
      <use transform="translate(345.166016 0.015625)" xlink:href="#DejaVuSans-Oblique-6c"/>
      <use transform="translate(372.949219 -16.390625)scale(0.7)" xlink:href="#DejaVuSans-Oblique-65"/>
      <use transform="translate(416.015625 -16.390625)scale(0.7)" xlink:href="#DejaVuSans-Oblique-65"/>
     </g>
    </g>
    <g id="line2d_20">
     <path d="M 331.52 83.926688 
L 351.52 83.926688 
" style="fill:none;stroke:#2ca02c;stroke-linecap:square;stroke-width:1.5;"/>
    </g>
    <g id="line2d_21"/>
    <g id="text_16">
     <!-- $h = 1l_{ee}$ -->
     <g transform="translate(359.52 87.426688)scale(0.1 -0.1)">
      <use transform="translate(0 0.015625)" xlink:href="#DejaVuSans-Oblique-68"/>
      <use transform="translate(82.861328 0.015625)" xlink:href="#DejaVuSans-3d"/>
      <use transform="translate(186.132812 0.015625)" xlink:href="#DejaVuSans-31"/>
      <use transform="translate(249.755859 0.015625)" xlink:href="#DejaVuSans-Oblique-6c"/>
      <use transform="translate(277.539062 -16.390625)scale(0.7)" xlink:href="#DejaVuSans-Oblique-65"/>
      <use transform="translate(320.605469 -16.390625)scale(0.7)" xlink:href="#DejaVuSans-Oblique-65"/>
     </g>
    </g>
    <g id="line2d_22">
     <path d="M 331.52 98.604813 
L 351.52 98.604813 
" style="fill:none;stroke:#d62728;stroke-linecap:square;stroke-width:1.5;"/>
    </g>
    <g id="line2d_23"/>
    <g id="text_17">
     <!-- $h = 2l_{ee}$ -->
     <g transform="translate(359.52 102.104813)scale(0.1 -0.1)">
      <use transform="translate(0 0.015625)" xlink:href="#DejaVuSans-Oblique-68"/>
      <use transform="translate(82.861328 0.015625)" xlink:href="#DejaVuSans-3d"/>
      <use transform="translate(186.132812 0.015625)" xlink:href="#DejaVuSans-32"/>
      <use transform="translate(249.755859 0.015625)" xlink:href="#DejaVuSans-Oblique-6c"/>
      <use transform="translate(277.539062 -16.390625)scale(0.7)" xlink:href="#DejaVuSans-Oblique-65"/>
      <use transform="translate(320.605469 -16.390625)scale(0.7)" xlink:href="#DejaVuSans-Oblique-65"/>
     </g>
    </g>
    <g id="line2d_24">
     <path d="M 331.52 113.282938 
L 351.52 113.282938 
" style="fill:none;stroke:#9467bd;stroke-linecap:square;stroke-width:1.5;"/>
    </g>
    <g id="line2d_25"/>
    <g id="text_18">
     <!-- $h = 3l_{ee}$ -->
     <g transform="translate(359.52 116.782938)scale(0.1 -0.1)">
      <use transform="translate(0 0.015625)" xlink:href="#DejaVuSans-Oblique-68"/>
      <use transform="translate(82.861328 0.015625)" xlink:href="#DejaVuSans-3d"/>
      <use transform="translate(186.132812 0.015625)" xlink:href="#DejaVuSans-33"/>
      <use transform="translate(249.755859 0.015625)" xlink:href="#DejaVuSans-Oblique-6c"/>
      <use transform="translate(277.539062 -16.390625)scale(0.7)" xlink:href="#DejaVuSans-Oblique-65"/>
      <use transform="translate(320.605469 -16.390625)scale(0.7)" xlink:href="#DejaVuSans-Oblique-65"/>
     </g>
    </g>
   </g>
  </g>
 </g>
 <defs>
  <clipPath id="p2e6015054f">
   <rect height="266.112" width="357.12" x="57.6" y="41.472"/>
  </clipPath>
 </defs>
</svg>
