<?xml version="1.0" encoding="utf-8" standalone="no"?>
<!DOCTYPE svg PUBLIC "-//W3C//DTD SVG 1.1//EN"
  "http://www.w3.org/Graphics/SVG/1.1/DTD/svg11.dtd">
<!-- Created with matplotlib (http://matplotlib.org/) -->
<svg height="345.6pt" version="1.1" viewBox="0 0 460.8 345.6" width="460.8pt" xmlns="http://www.w3.org/2000/svg" xmlns:xlink="http://www.w3.org/1999/xlink">
 <defs>
  <style type="text/css">
*{stroke-linecap:butt;stroke-linejoin:round;}
  </style>
 </defs>
 <g id="figure_1">
  <g id="patch_1">
   <path d="M 0 345.6 
L 460.8 345.6 
L 460.8 0 
L 0 0 
z
" style="fill:#ffffff;"/>
  </g>
  <g id="axes_1">
   <g id="patch_2">
    <path d="M 57.6 307.584 
L 414.72 307.584 
L 414.72 41.472 
L 57.6 41.472 
z
" style="fill:#ffffff;"/>
   </g>
   <g id="matplotlib.axis_1">
    <g id="xtick_1">
     <g id="line2d_1">
      <defs>
       <path d="M 0 0 
L 0 3.5 
" id="mfafb95b921" style="stroke:#000000;stroke-width:0.8;"/>
      </defs>
      <g>
       <use style="stroke:#000000;stroke-width:0.8;" x="90.065455" xlink:href="#mfafb95b921" y="307.584"/>
      </g>
     </g>
     <g id="text_1">
      <!-- 0 -->
      <defs>
       <path d="M 31.78125 66.40625 
Q 24.171875 66.40625 20.328125 58.90625 
Q 16.5 51.421875 16.5 36.375 
Q 16.5 21.390625 20.328125 13.890625 
Q 24.171875 6.390625 31.78125 6.390625 
Q 39.453125 6.390625 43.28125 13.890625 
Q 47.125 21.390625 47.125 36.375 
Q 47.125 51.421875 43.28125 58.90625 
Q 39.453125 66.40625 31.78125 66.40625 
z
M 31.78125 74.21875 
Q 44.046875 74.21875 50.515625 64.515625 
Q 56.984375 54.828125 56.984375 36.375 
Q 56.984375 17.96875 50.515625 8.265625 
Q 44.046875 -1.421875 31.78125 -1.421875 
Q 19.53125 -1.421875 13.0625 8.265625 
Q 6.59375 17.96875 6.59375 36.375 
Q 6.59375 54.828125 13.0625 64.515625 
Q 19.53125 74.21875 31.78125 74.21875 
z
" id="DejaVuSans-30"/>
      </defs>
      <g transform="translate(86.884205 322.182437)scale(0.1 -0.1)">
       <use xlink:href="#DejaVuSans-30"/>
      </g>
     </g>
    </g>
    <g id="xtick_2">
     <g id="line2d_2">
      <g>
       <use style="stroke:#000000;stroke-width:0.8;" x="154.996364" xlink:href="#mfafb95b921" y="307.584"/>
      </g>
     </g>
     <g id="text_2">
      <!-- 2 -->
      <defs>
       <path d="M 19.1875 8.296875 
L 53.609375 8.296875 
L 53.609375 0 
L 7.328125 0 
L 7.328125 8.296875 
Q 12.9375 14.109375 22.625 23.890625 
Q 32.328125 33.6875 34.8125 36.53125 
Q 39.546875 41.84375 41.421875 45.53125 
Q 43.3125 49.21875 43.3125 52.78125 
Q 43.3125 58.59375 39.234375 62.25 
Q 35.15625 65.921875 28.609375 65.921875 
Q 23.96875 65.921875 18.8125 64.3125 
Q 13.671875 62.703125 7.8125 59.421875 
L 7.8125 69.390625 
Q 13.765625 71.78125 18.9375 73 
Q 24.125 74.21875 28.421875 74.21875 
Q 39.75 74.21875 46.484375 68.546875 
Q 53.21875 62.890625 53.21875 53.421875 
Q 53.21875 48.921875 51.53125 44.890625 
Q 49.859375 40.875 45.40625 35.40625 
Q 44.1875 33.984375 37.640625 27.21875 
Q 31.109375 20.453125 19.1875 8.296875 
z
" id="DejaVuSans-32"/>
      </defs>
      <g transform="translate(151.815114 322.182437)scale(0.1 -0.1)">
       <use xlink:href="#DejaVuSans-32"/>
      </g>
     </g>
    </g>
    <g id="xtick_3">
     <g id="line2d_3">
      <g>
       <use style="stroke:#000000;stroke-width:0.8;" x="219.927273" xlink:href="#mfafb95b921" y="307.584"/>
      </g>
     </g>
     <g id="text_3">
      <!-- 4 -->
      <defs>
       <path d="M 37.796875 64.3125 
L 12.890625 25.390625 
L 37.796875 25.390625 
z
M 35.203125 72.90625 
L 47.609375 72.90625 
L 47.609375 25.390625 
L 58.015625 25.390625 
L 58.015625 17.1875 
L 47.609375 17.1875 
L 47.609375 0 
L 37.796875 0 
L 37.796875 17.1875 
L 4.890625 17.1875 
L 4.890625 26.703125 
z
" id="DejaVuSans-34"/>
      </defs>
      <g transform="translate(216.746023 322.182437)scale(0.1 -0.1)">
       <use xlink:href="#DejaVuSans-34"/>
      </g>
     </g>
    </g>
    <g id="xtick_4">
     <g id="line2d_4">
      <g>
       <use style="stroke:#000000;stroke-width:0.8;" x="284.858182" xlink:href="#mfafb95b921" y="307.584"/>
      </g>
     </g>
     <g id="text_4">
      <!-- 6 -->
      <defs>
       <path d="M 33.015625 40.375 
Q 26.375 40.375 22.484375 35.828125 
Q 18.609375 31.296875 18.609375 23.390625 
Q 18.609375 15.53125 22.484375 10.953125 
Q 26.375 6.390625 33.015625 6.390625 
Q 39.65625 6.390625 43.53125 10.953125 
Q 47.40625 15.53125 47.40625 23.390625 
Q 47.40625 31.296875 43.53125 35.828125 
Q 39.65625 40.375 33.015625 40.375 
z
M 52.59375 71.296875 
L 52.59375 62.3125 
Q 48.875 64.0625 45.09375 64.984375 
Q 41.3125 65.921875 37.59375 65.921875 
Q 27.828125 65.921875 22.671875 59.328125 
Q 17.53125 52.734375 16.796875 39.40625 
Q 19.671875 43.65625 24.015625 45.921875 
Q 28.375 48.1875 33.59375 48.1875 
Q 44.578125 48.1875 50.953125 41.515625 
Q 57.328125 34.859375 57.328125 23.390625 
Q 57.328125 12.15625 50.6875 5.359375 
Q 44.046875 -1.421875 33.015625 -1.421875 
Q 20.359375 -1.421875 13.671875 8.265625 
Q 6.984375 17.96875 6.984375 36.375 
Q 6.984375 53.65625 15.1875 63.9375 
Q 23.390625 74.21875 37.203125 74.21875 
Q 40.921875 74.21875 44.703125 73.484375 
Q 48.484375 72.75 52.59375 71.296875 
z
" id="DejaVuSans-36"/>
      </defs>
      <g transform="translate(281.676932 322.182437)scale(0.1 -0.1)">
       <use xlink:href="#DejaVuSans-36"/>
      </g>
     </g>
    </g>
    <g id="xtick_5">
     <g id="line2d_5">
      <g>
       <use style="stroke:#000000;stroke-width:0.8;" x="349.789091" xlink:href="#mfafb95b921" y="307.584"/>
      </g>
     </g>
     <g id="text_5">
      <!-- 8 -->
      <defs>
       <path d="M 31.78125 34.625 
Q 24.75 34.625 20.71875 30.859375 
Q 16.703125 27.09375 16.703125 20.515625 
Q 16.703125 13.921875 20.71875 10.15625 
Q 24.75 6.390625 31.78125 6.390625 
Q 38.8125 6.390625 42.859375 10.171875 
Q 46.921875 13.96875 46.921875 20.515625 
Q 46.921875 27.09375 42.890625 30.859375 
Q 38.875 34.625 31.78125 34.625 
z
M 21.921875 38.8125 
Q 15.578125 40.375 12.03125 44.71875 
Q 8.5 49.078125 8.5 55.328125 
Q 8.5 64.0625 14.71875 69.140625 
Q 20.953125 74.21875 31.78125 74.21875 
Q 42.671875 74.21875 48.875 69.140625 
Q 55.078125 64.0625 55.078125 55.328125 
Q 55.078125 49.078125 51.53125 44.71875 
Q 48 40.375 41.703125 38.8125 
Q 48.828125 37.15625 52.796875 32.3125 
Q 56.78125 27.484375 56.78125 20.515625 
Q 56.78125 9.90625 50.3125 4.234375 
Q 43.84375 -1.421875 31.78125 -1.421875 
Q 19.734375 -1.421875 13.25 4.234375 
Q 6.78125 9.90625 6.78125 20.515625 
Q 6.78125 27.484375 10.78125 32.3125 
Q 14.796875 37.15625 21.921875 38.8125 
z
M 18.3125 54.390625 
Q 18.3125 48.734375 21.84375 45.5625 
Q 25.390625 42.390625 31.78125 42.390625 
Q 38.140625 42.390625 41.71875 45.5625 
Q 45.3125 48.734375 45.3125 54.390625 
Q 45.3125 60.0625 41.71875 63.234375 
Q 38.140625 66.40625 31.78125 66.40625 
Q 25.390625 66.40625 21.84375 63.234375 
Q 18.3125 60.0625 18.3125 54.390625 
z
" id="DejaVuSans-38"/>
      </defs>
      <g transform="translate(346.607841 322.182437)scale(0.1 -0.1)">
       <use xlink:href="#DejaVuSans-38"/>
      </g>
     </g>
    </g>
    <g id="xtick_6">
     <g id="line2d_6">
      <g>
       <use style="stroke:#000000;stroke-width:0.8;" x="414.72" xlink:href="#mfafb95b921" y="307.584"/>
      </g>
     </g>
     <g id="text_6">
      <!-- 10 -->
      <defs>
       <path d="M 12.40625 8.296875 
L 28.515625 8.296875 
L 28.515625 63.921875 
L 10.984375 60.40625 
L 10.984375 69.390625 
L 28.421875 72.90625 
L 38.28125 72.90625 
L 38.28125 8.296875 
L 54.390625 8.296875 
L 54.390625 0 
L 12.40625 0 
z
" id="DejaVuSans-31"/>
      </defs>
      <g transform="translate(408.3575 322.182437)scale(0.1 -0.1)">
       <use xlink:href="#DejaVuSans-31"/>
       <use x="63.623047" xlink:href="#DejaVuSans-30"/>
      </g>
     </g>
    </g>
    <g id="text_7">
     <!-- Probe position $x/l_{ee}$ -->
     <defs>
      <path d="M 19.671875 64.796875 
L 19.671875 37.40625 
L 32.078125 37.40625 
Q 38.96875 37.40625 42.71875 40.96875 
Q 46.484375 44.53125 46.484375 51.125 
Q 46.484375 57.671875 42.71875 61.234375 
Q 38.96875 64.796875 32.078125 64.796875 
z
M 9.8125 72.90625 
L 32.078125 72.90625 
Q 44.34375 72.90625 50.609375 67.359375 
Q 56.890625 61.8125 56.890625 51.125 
Q 56.890625 40.328125 50.609375 34.8125 
Q 44.34375 29.296875 32.078125 29.296875 
L 19.671875 29.296875 
L 19.671875 0 
L 9.8125 0 
z
" id="DejaVuSans-50"/>
      <path d="M 41.109375 46.296875 
Q 39.59375 47.171875 37.8125 47.578125 
Q 36.03125 48 33.890625 48 
Q 26.265625 48 22.1875 43.046875 
Q 18.109375 38.09375 18.109375 28.8125 
L 18.109375 0 
L 9.078125 0 
L 9.078125 54.6875 
L 18.109375 54.6875 
L 18.109375 46.1875 
Q 20.953125 51.171875 25.484375 53.578125 
Q 30.03125 56 36.53125 56 
Q 37.453125 56 38.578125 55.875 
Q 39.703125 55.765625 41.0625 55.515625 
z
" id="DejaVuSans-72"/>
      <path d="M 30.609375 48.390625 
Q 23.390625 48.390625 19.1875 42.75 
Q 14.984375 37.109375 14.984375 27.296875 
Q 14.984375 17.484375 19.15625 11.84375 
Q 23.34375 6.203125 30.609375 6.203125 
Q 37.796875 6.203125 41.984375 11.859375 
Q 46.1875 17.53125 46.1875 27.296875 
Q 46.1875 37.015625 41.984375 42.703125 
Q 37.796875 48.390625 30.609375 48.390625 
z
M 30.609375 56 
Q 42.328125 56 49.015625 48.375 
Q 55.71875 40.765625 55.71875 27.296875 
Q 55.71875 13.875 49.015625 6.21875 
Q 42.328125 -1.421875 30.609375 -1.421875 
Q 18.84375 -1.421875 12.171875 6.21875 
Q 5.515625 13.875 5.515625 27.296875 
Q 5.515625 40.765625 12.171875 48.375 
Q 18.84375 56 30.609375 56 
z
" id="DejaVuSans-6f"/>
      <path d="M 48.6875 27.296875 
Q 48.6875 37.203125 44.609375 42.84375 
Q 40.53125 48.484375 33.40625 48.484375 
Q 26.265625 48.484375 22.1875 42.84375 
Q 18.109375 37.203125 18.109375 27.296875 
Q 18.109375 17.390625 22.1875 11.75 
Q 26.265625 6.109375 33.40625 6.109375 
Q 40.53125 6.109375 44.609375 11.75 
Q 48.6875 17.390625 48.6875 27.296875 
z
M 18.109375 46.390625 
Q 20.953125 51.265625 25.265625 53.625 
Q 29.59375 56 35.59375 56 
Q 45.5625 56 51.78125 48.09375 
Q 58.015625 40.1875 58.015625 27.296875 
Q 58.015625 14.40625 51.78125 6.484375 
Q 45.5625 -1.421875 35.59375 -1.421875 
Q 29.59375 -1.421875 25.265625 0.953125 
Q 20.953125 3.328125 18.109375 8.203125 
L 18.109375 0 
L 9.078125 0 
L 9.078125 75.984375 
L 18.109375 75.984375 
z
" id="DejaVuSans-62"/>
      <path d="M 56.203125 29.59375 
L 56.203125 25.203125 
L 14.890625 25.203125 
Q 15.484375 15.921875 20.484375 11.0625 
Q 25.484375 6.203125 34.421875 6.203125 
Q 39.59375 6.203125 44.453125 7.46875 
Q 49.3125 8.734375 54.109375 11.28125 
L 54.109375 2.78125 
Q 49.265625 0.734375 44.1875 -0.34375 
Q 39.109375 -1.421875 33.890625 -1.421875 
Q 20.796875 -1.421875 13.15625 6.1875 
Q 5.515625 13.8125 5.515625 26.8125 
Q 5.515625 40.234375 12.765625 48.109375 
Q 20.015625 56 32.328125 56 
Q 43.359375 56 49.78125 48.890625 
Q 56.203125 41.796875 56.203125 29.59375 
z
M 47.21875 32.234375 
Q 47.125 39.59375 43.09375 43.984375 
Q 39.0625 48.390625 32.421875 48.390625 
Q 24.90625 48.390625 20.390625 44.140625 
Q 15.875 39.890625 15.1875 32.171875 
z
" id="DejaVuSans-65"/>
      <path id="DejaVuSans-20"/>
      <path d="M 18.109375 8.203125 
L 18.109375 -20.796875 
L 9.078125 -20.796875 
L 9.078125 54.6875 
L 18.109375 54.6875 
L 18.109375 46.390625 
Q 20.953125 51.265625 25.265625 53.625 
Q 29.59375 56 35.59375 56 
Q 45.5625 56 51.78125 48.09375 
Q 58.015625 40.1875 58.015625 27.296875 
Q 58.015625 14.40625 51.78125 6.484375 
Q 45.5625 -1.421875 35.59375 -1.421875 
Q 29.59375 -1.421875 25.265625 0.953125 
Q 20.953125 3.328125 18.109375 8.203125 
z
M 48.6875 27.296875 
Q 48.6875 37.203125 44.609375 42.84375 
Q 40.53125 48.484375 33.40625 48.484375 
Q 26.265625 48.484375 22.1875 42.84375 
Q 18.109375 37.203125 18.109375 27.296875 
Q 18.109375 17.390625 22.1875 11.75 
Q 26.265625 6.109375 33.40625 6.109375 
Q 40.53125 6.109375 44.609375 11.75 
Q 48.6875 17.390625 48.6875 27.296875 
z
" id="DejaVuSans-70"/>
      <path d="M 44.28125 53.078125 
L 44.28125 44.578125 
Q 40.484375 46.53125 36.375 47.5 
Q 32.28125 48.484375 27.875 48.484375 
Q 21.1875 48.484375 17.84375 46.4375 
Q 14.5 44.390625 14.5 40.28125 
Q 14.5 37.15625 16.890625 35.375 
Q 19.28125 33.59375 26.515625 31.984375 
L 29.59375 31.296875 
Q 39.15625 29.25 43.1875 25.515625 
Q 47.21875 21.78125 47.21875 15.09375 
Q 47.21875 7.46875 41.1875 3.015625 
Q 35.15625 -1.421875 24.609375 -1.421875 
Q 20.21875 -1.421875 15.453125 -0.5625 
Q 10.6875 0.296875 5.421875 2 
L 5.421875 11.28125 
Q 10.40625 8.6875 15.234375 7.390625 
Q 20.0625 6.109375 24.8125 6.109375 
Q 31.15625 6.109375 34.5625 8.28125 
Q 37.984375 10.453125 37.984375 14.40625 
Q 37.984375 18.0625 35.515625 20.015625 
Q 33.0625 21.96875 24.703125 23.78125 
L 21.578125 24.515625 
Q 13.234375 26.265625 9.515625 29.90625 
Q 5.8125 33.546875 5.8125 39.890625 
Q 5.8125 47.609375 11.28125 51.796875 
Q 16.75 56 26.8125 56 
Q 31.78125 56 36.171875 55.265625 
Q 40.578125 54.546875 44.28125 53.078125 
z
" id="DejaVuSans-73"/>
      <path d="M 9.421875 54.6875 
L 18.40625 54.6875 
L 18.40625 0 
L 9.421875 0 
z
M 9.421875 75.984375 
L 18.40625 75.984375 
L 18.40625 64.59375 
L 9.421875 64.59375 
z
" id="DejaVuSans-69"/>
      <path d="M 18.3125 70.21875 
L 18.3125 54.6875 
L 36.8125 54.6875 
L 36.8125 47.703125 
L 18.3125 47.703125 
L 18.3125 18.015625 
Q 18.3125 11.328125 20.140625 9.421875 
Q 21.96875 7.515625 27.59375 7.515625 
L 36.8125 7.515625 
L 36.8125 0 
L 27.59375 0 
Q 17.1875 0 13.234375 3.875 
Q 9.28125 7.765625 9.28125 18.015625 
L 9.28125 47.703125 
L 2.6875 47.703125 
L 2.6875 54.6875 
L 9.28125 54.6875 
L 9.28125 70.21875 
z
" id="DejaVuSans-74"/>
      <path d="M 54.890625 33.015625 
L 54.890625 0 
L 45.90625 0 
L 45.90625 32.71875 
Q 45.90625 40.484375 42.875 44.328125 
Q 39.84375 48.1875 33.796875 48.1875 
Q 26.515625 48.1875 22.3125 43.546875 
Q 18.109375 38.921875 18.109375 30.90625 
L 18.109375 0 
L 9.078125 0 
L 9.078125 54.6875 
L 18.109375 54.6875 
L 18.109375 46.1875 
Q 21.34375 51.125 25.703125 53.5625 
Q 30.078125 56 35.796875 56 
Q 45.21875 56 50.046875 50.171875 
Q 54.890625 44.34375 54.890625 33.015625 
z
" id="DejaVuSans-6e"/>
      <path d="M 60.015625 54.6875 
L 34.90625 27.875 
L 50.296875 0 
L 39.984375 0 
L 28.421875 21.6875 
L 8.296875 0 
L -2.59375 0 
L 24.3125 28.8125 
L 10.015625 54.6875 
L 20.3125 54.6875 
L 30.8125 34.90625 
L 49.125 54.6875 
z
" id="DejaVuSans-Oblique-78"/>
      <path d="M 25.390625 72.90625 
L 33.6875 72.90625 
L 8.296875 -9.28125 
L 0 -9.28125 
z
" id="DejaVuSans-2f"/>
      <path d="M 18.3125 75.984375 
L 27.296875 75.984375 
L 12.5 0 
L 3.515625 0 
z
" id="DejaVuSans-Oblique-6c"/>
      <path d="M 48.09375 32.234375 
Q 48.25 33.015625 48.3125 33.84375 
Q 48.390625 34.671875 48.390625 35.5 
Q 48.390625 41.453125 44.890625 44.921875 
Q 41.40625 48.390625 35.40625 48.390625 
Q 28.71875 48.390625 23.578125 44.15625 
Q 18.453125 39.9375 15.828125 32.171875 
z
M 55.90625 25.203125 
L 14.109375 25.203125 
Q 13.8125 23.34375 13.71875 22.265625 
Q 13.625 21.1875 13.625 20.40625 
Q 13.625 13.625 17.796875 9.90625 
Q 21.96875 6.203125 29.59375 6.203125 
Q 35.453125 6.203125 40.671875 7.515625 
Q 45.90625 8.84375 50.390625 11.375 
L 48.6875 2.484375 
Q 43.84375 0.53125 38.6875 -0.4375 
Q 33.546875 -1.421875 28.21875 -1.421875 
Q 16.84375 -1.421875 10.71875 4.015625 
Q 4.59375 9.46875 4.59375 19.484375 
Q 4.59375 28.03125 7.640625 35.375 
Q 10.6875 42.71875 16.609375 48.484375 
Q 20.40625 52.09375 25.65625 54.046875 
Q 30.90625 56 36.8125 56 
Q 46.09375 56 51.578125 50.4375 
Q 57.078125 44.875 57.078125 35.5 
Q 57.078125 33.25 56.78125 30.6875 
Q 56.5 28.125 55.90625 25.203125 
z
" id="DejaVuSans-Oblique-65"/>
     </defs>
     <g transform="translate(188.31 335.862125)scale(0.1 -0.1)">
      <use transform="translate(0 0.015625)" xlink:href="#DejaVuSans-50"/>
      <use transform="translate(60.302734 0.015625)" xlink:href="#DejaVuSans-72"/>
      <use transform="translate(101.416016 0.015625)" xlink:href="#DejaVuSans-6f"/>
      <use transform="translate(162.597656 0.015625)" xlink:href="#DejaVuSans-62"/>
      <use transform="translate(226.074219 0.015625)" xlink:href="#DejaVuSans-65"/>
      <use transform="translate(287.597656 0.015625)" xlink:href="#DejaVuSans-20"/>
      <use transform="translate(319.384766 0.015625)" xlink:href="#DejaVuSans-70"/>
      <use transform="translate(382.861328 0.015625)" xlink:href="#DejaVuSans-6f"/>
      <use transform="translate(444.042969 0.015625)" xlink:href="#DejaVuSans-73"/>
      <use transform="translate(496.142578 0.015625)" xlink:href="#DejaVuSans-69"/>
      <use transform="translate(523.925781 0.015625)" xlink:href="#DejaVuSans-74"/>
      <use transform="translate(563.134766 0.015625)" xlink:href="#DejaVuSans-69"/>
      <use transform="translate(590.917969 0.015625)" xlink:href="#DejaVuSans-6f"/>
      <use transform="translate(652.099609 0.015625)" xlink:href="#DejaVuSans-6e"/>
      <use transform="translate(715.478516 0.015625)" xlink:href="#DejaVuSans-20"/>
      <use transform="translate(747.265625 0.015625)" xlink:href="#DejaVuSans-Oblique-78"/>
      <use transform="translate(806.445312 0.015625)" xlink:href="#DejaVuSans-2f"/>
      <use transform="translate(840.136719 0.015625)" xlink:href="#DejaVuSans-Oblique-6c"/>
      <use transform="translate(867.919922 -16.390625)scale(0.7)" xlink:href="#DejaVuSans-Oblique-65"/>
      <use transform="translate(910.986328 -16.390625)scale(0.7)" xlink:href="#DejaVuSans-Oblique-65"/>
     </g>
    </g>
   </g>
   <g id="matplotlib.axis_2">
    <g id="ytick_1">
     <g id="line2d_7">
      <defs>
       <path d="M 0 0 
L -3.5 0 
" id="m6af4bb3619" style="stroke:#000000;stroke-width:0.8;"/>
      </defs>
      <g>
       <use style="stroke:#000000;stroke-width:0.8;" x="57.6" xlink:href="#m6af4bb3619" y="307.584"/>
      </g>
     </g>
     <g id="text_8">
      <!-- −1.6 -->
      <defs>
       <path d="M 10.59375 35.5 
L 73.1875 35.5 
L 73.1875 27.203125 
L 10.59375 27.203125 
z
" id="DejaVuSans-2212"/>
       <path d="M 10.6875 12.40625 
L 21 12.40625 
L 21 0 
L 10.6875 0 
z
" id="DejaVuSans-2e"/>
      </defs>
      <g transform="translate(26.317187 311.383219)scale(0.1 -0.1)">
       <use xlink:href="#DejaVuSans-2212"/>
       <use x="83.789062" xlink:href="#DejaVuSans-31"/>
       <use x="147.412109" xlink:href="#DejaVuSans-2e"/>
       <use x="179.199219" xlink:href="#DejaVuSans-36"/>
      </g>
     </g>
    </g>
    <g id="ytick_2">
     <g id="line2d_8">
      <g>
       <use style="stroke:#000000;stroke-width:0.8;" x="57.6" xlink:href="#m6af4bb3619" y="278.016"/>
      </g>
     </g>
     <g id="text_9">
      <!-- −1.4 -->
      <g transform="translate(26.317187 281.815219)scale(0.1 -0.1)">
       <use xlink:href="#DejaVuSans-2212"/>
       <use x="83.789062" xlink:href="#DejaVuSans-31"/>
       <use x="147.412109" xlink:href="#DejaVuSans-2e"/>
       <use x="179.199219" xlink:href="#DejaVuSans-34"/>
      </g>
     </g>
    </g>
    <g id="ytick_3">
     <g id="line2d_9">
      <g>
       <use style="stroke:#000000;stroke-width:0.8;" x="57.6" xlink:href="#m6af4bb3619" y="248.448"/>
      </g>
     </g>
     <g id="text_10">
      <!-- −1.2 -->
      <g transform="translate(26.317187 252.247219)scale(0.1 -0.1)">
       <use xlink:href="#DejaVuSans-2212"/>
       <use x="83.789062" xlink:href="#DejaVuSans-31"/>
       <use x="147.412109" xlink:href="#DejaVuSans-2e"/>
       <use x="179.199219" xlink:href="#DejaVuSans-32"/>
      </g>
     </g>
    </g>
    <g id="ytick_4">
     <g id="line2d_10">
      <g>
       <use style="stroke:#000000;stroke-width:0.8;" x="57.6" xlink:href="#m6af4bb3619" y="218.88"/>
      </g>
     </g>
     <g id="text_11">
      <!-- −1.0 -->
      <g transform="translate(26.317187 222.679219)scale(0.1 -0.1)">
       <use xlink:href="#DejaVuSans-2212"/>
       <use x="83.789062" xlink:href="#DejaVuSans-31"/>
       <use x="147.412109" xlink:href="#DejaVuSans-2e"/>
       <use x="179.199219" xlink:href="#DejaVuSans-30"/>
      </g>
     </g>
    </g>
    <g id="ytick_5">
     <g id="line2d_11">
      <g>
       <use style="stroke:#000000;stroke-width:0.8;" x="57.6" xlink:href="#m6af4bb3619" y="189.312"/>
      </g>
     </g>
     <g id="text_12">
      <!-- −0.8 -->
      <g transform="translate(26.317187 193.111219)scale(0.1 -0.1)">
       <use xlink:href="#DejaVuSans-2212"/>
       <use x="83.789062" xlink:href="#DejaVuSans-30"/>
       <use x="147.412109" xlink:href="#DejaVuSans-2e"/>
       <use x="179.199219" xlink:href="#DejaVuSans-38"/>
      </g>
     </g>
    </g>
    <g id="ytick_6">
     <g id="line2d_12">
      <g>
       <use style="stroke:#000000;stroke-width:0.8;" x="57.6" xlink:href="#m6af4bb3619" y="159.744"/>
      </g>
     </g>
     <g id="text_13">
      <!-- −0.6 -->
      <g transform="translate(26.317187 163.543219)scale(0.1 -0.1)">
       <use xlink:href="#DejaVuSans-2212"/>
       <use x="83.789062" xlink:href="#DejaVuSans-30"/>
       <use x="147.412109" xlink:href="#DejaVuSans-2e"/>
       <use x="179.199219" xlink:href="#DejaVuSans-36"/>
      </g>
     </g>
    </g>
    <g id="ytick_7">
     <g id="line2d_13">
      <g>
       <use style="stroke:#000000;stroke-width:0.8;" x="57.6" xlink:href="#m6af4bb3619" y="130.176"/>
      </g>
     </g>
     <g id="text_14">
      <!-- −0.4 -->
      <g transform="translate(26.317187 133.975219)scale(0.1 -0.1)">
       <use xlink:href="#DejaVuSans-2212"/>
       <use x="83.789062" xlink:href="#DejaVuSans-30"/>
       <use x="147.412109" xlink:href="#DejaVuSans-2e"/>
       <use x="179.199219" xlink:href="#DejaVuSans-34"/>
      </g>
     </g>
    </g>
    <g id="ytick_8">
     <g id="line2d_14">
      <g>
       <use style="stroke:#000000;stroke-width:0.8;" x="57.6" xlink:href="#m6af4bb3619" y="100.608"/>
      </g>
     </g>
     <g id="text_15">
      <!-- −0.2 -->
      <g transform="translate(26.317187 104.407219)scale(0.1 -0.1)">
       <use xlink:href="#DejaVuSans-2212"/>
       <use x="83.789062" xlink:href="#DejaVuSans-30"/>
       <use x="147.412109" xlink:href="#DejaVuSans-2e"/>
       <use x="179.199219" xlink:href="#DejaVuSans-32"/>
      </g>
     </g>
    </g>
    <g id="ytick_9">
     <g id="line2d_15">
      <g>
       <use style="stroke:#000000;stroke-width:0.8;" x="57.6" xlink:href="#m6af4bb3619" y="71.04"/>
      </g>
     </g>
     <g id="text_16">
      <!-- 0.0 -->
      <g transform="translate(34.696875 74.839219)scale(0.1 -0.1)">
       <use xlink:href="#DejaVuSans-30"/>
       <use x="63.623047" xlink:href="#DejaVuSans-2e"/>
       <use x="95.410156" xlink:href="#DejaVuSans-30"/>
      </g>
     </g>
    </g>
    <g id="ytick_10">
     <g id="line2d_16">
      <g>
       <use style="stroke:#000000;stroke-width:0.8;" x="57.6" xlink:href="#m6af4bb3619" y="41.472"/>
      </g>
     </g>
     <g id="text_17">
      <!-- 0.2 -->
      <g transform="translate(34.696875 45.271219)scale(0.1 -0.1)">
       <use xlink:href="#DejaVuSans-30"/>
       <use x="63.623047" xlink:href="#DejaVuSans-2e"/>
       <use x="95.410156" xlink:href="#DejaVuSans-32"/>
      </g>
     </g>
    </g>
    <g id="text_18">
     <!-- Potential, a.u. -->
     <defs>
      <path d="M 34.28125 27.484375 
Q 23.390625 27.484375 19.1875 25 
Q 14.984375 22.515625 14.984375 16.5 
Q 14.984375 11.71875 18.140625 8.90625 
Q 21.296875 6.109375 26.703125 6.109375 
Q 34.1875 6.109375 38.703125 11.40625 
Q 43.21875 16.703125 43.21875 25.484375 
L 43.21875 27.484375 
z
M 52.203125 31.203125 
L 52.203125 0 
L 43.21875 0 
L 43.21875 8.296875 
Q 40.140625 3.328125 35.546875 0.953125 
Q 30.953125 -1.421875 24.3125 -1.421875 
Q 15.921875 -1.421875 10.953125 3.296875 
Q 6 8.015625 6 15.921875 
Q 6 25.140625 12.171875 29.828125 
Q 18.359375 34.515625 30.609375 34.515625 
L 43.21875 34.515625 
L 43.21875 35.40625 
Q 43.21875 41.609375 39.140625 45 
Q 35.0625 48.390625 27.6875 48.390625 
Q 23 48.390625 18.546875 47.265625 
Q 14.109375 46.140625 10.015625 43.890625 
L 10.015625 52.203125 
Q 14.9375 54.109375 19.578125 55.046875 
Q 24.21875 56 28.609375 56 
Q 40.484375 56 46.34375 49.84375 
Q 52.203125 43.703125 52.203125 31.203125 
z
" id="DejaVuSans-61"/>
      <path d="M 9.421875 75.984375 
L 18.40625 75.984375 
L 18.40625 0 
L 9.421875 0 
z
" id="DejaVuSans-6c"/>
      <path d="M 11.71875 12.40625 
L 22.015625 12.40625 
L 22.015625 4 
L 14.015625 -11.625 
L 7.71875 -11.625 
L 11.71875 4 
z
" id="DejaVuSans-2c"/>
      <path d="M 8.5 21.578125 
L 8.5 54.6875 
L 17.484375 54.6875 
L 17.484375 21.921875 
Q 17.484375 14.15625 20.5 10.265625 
Q 23.53125 6.390625 29.59375 6.390625 
Q 36.859375 6.390625 41.078125 11.03125 
Q 45.3125 15.671875 45.3125 23.6875 
L 45.3125 54.6875 
L 54.296875 54.6875 
L 54.296875 0 
L 45.3125 0 
L 45.3125 8.40625 
Q 42.046875 3.421875 37.71875 1 
Q 33.40625 -1.421875 27.6875 -1.421875 
Q 18.265625 -1.421875 13.375 4.4375 
Q 8.5 10.296875 8.5 21.578125 
z
M 31.109375 56 
z
" id="DejaVuSans-75"/>
     </defs>
     <g transform="translate(20.2375 209.19675)rotate(-90)scale(0.1 -0.1)">
      <use xlink:href="#DejaVuSans-50"/>
      <use x="60.255859" xlink:href="#DejaVuSans-6f"/>
      <use x="121.4375" xlink:href="#DejaVuSans-74"/>
      <use x="160.646484" xlink:href="#DejaVuSans-65"/>
      <use x="222.169922" xlink:href="#DejaVuSans-6e"/>
      <use x="285.548828" xlink:href="#DejaVuSans-74"/>
      <use x="324.757812" xlink:href="#DejaVuSans-69"/>
      <use x="352.541016" xlink:href="#DejaVuSans-61"/>
      <use x="413.820312" xlink:href="#DejaVuSans-6c"/>
      <use x="441.603516" xlink:href="#DejaVuSans-2c"/>
      <use x="473.390625" xlink:href="#DejaVuSans-20"/>
      <use x="505.177734" xlink:href="#DejaVuSans-61"/>
      <use x="566.457031" xlink:href="#DejaVuSans-2e"/>
      <use x="598.244141" xlink:href="#DejaVuSans-75"/>
      <use x="661.623047" xlink:href="#DejaVuSans-2e"/>
     </g>
    </g>
   </g>
   <g id="line2d_17">
    <path clip-path="url(#pf656f94132)" d="M 57.106525 91.424179 
L 59.859596 93.496277 
L 62.612666 95.897595 
L 64.677469 97.962533 
L 66.742272 100.301111 
L 68.807075 102.969772 
L 70.871878 106.042926 
L 72.936681 109.620962 
L 75.001484 113.843541 
L 76.378019 117.114024 
L 77.754554 120.841271 
L 79.131089 125.137686 
L 80.507625 130.164684 
L 81.88416 136.157178 
L 83.260695 143.476613 
L 84.637231 152.735795 
L 85.325498 158.423406 
L 86.013766 165.101248 
L 86.702033 173.159126 
L 87.390301 183.227423 
L 88.078569 196.517988 
L 88.766836 215.893353 
L 89.455104 251.260467 
L 90.112491 346.6 
M 90.171232 346.6 
L 90.831639 240.437322 
L 91.519907 210.693182 
L 92.208175 193.126741 
L 92.896442 180.718296 
L 93.58471 171.190167 
L 94.272977 163.484924 
L 95.649513 151.563031 
L 97.026048 142.564937 
L 98.402583 135.419055 
L 99.779119 129.552585 
L 101.155654 124.619222 
L 102.532189 120.392991 
L 103.908724 116.721734 
L 105.973527 112.028582 
L 108.03833 108.089656 
L 110.103133 104.73211 
L 112.167936 101.834551 
L 114.232739 99.308542 
L 116.297542 97.087835 
L 119.050612 94.516298 
L 121.803683 92.306298 
L 124.556753 90.391393 
L 127.309824 88.718663 
L 130.751162 86.909111 
L 134.1925 85.35517 
L 138.322106 83.762661 
L 142.451712 82.411138 
L 147.269585 81.079113 
L 152.775727 79.812805 
L 158.970135 78.642369 
L 165.852812 77.585528 
L 173.423756 76.649243 
L 182.371235 75.770852 
L 192.695249 74.983537 
L 205.084067 74.265862 
L 220.225955 73.621246 
L 238.809181 73.059341 
L 262.210281 72.576274 
L 294.55886 72.148463 
L 338.607988 71.802054 
L 403.305146 71.524373 
L 415.005696 71.490455 
L 415.005696 71.490455 
" style="fill:none;stroke:#1f77b4;stroke-linecap:square;stroke-width:1.5;"/>
   </g>
   <g id="line2d_18">
    <path clip-path="url(#pf656f94132)" d="M 57.106525 68.691527 
L 59.171328 67.614743 
L 61.236131 66.283158 
L 63.300934 64.622112 
L 65.365737 62.530992 
L 66.742272 60.837541 
L 68.118807 58.825964 
L 69.495343 56.444539 
L 70.871878 53.607242 
L 72.248413 50.167729 
L 73.624948 45.949306 
L 75.001484 40.743658 
L 76.378019 34.226636 
L 77.754554 25.876832 
L 79.131089 14.932544 
L 79.819357 8.180932 
L 80.598366 -1 
M 99.53811 -1 
L 100.467386 9.790064 
L 101.843921 21.984646 
L 103.220457 31.2397 
L 104.596992 38.417271 
L 105.973527 44.07532 
L 107.350063 48.62576 
L 108.726598 52.350795 
L 110.103133 55.419191 
L 111.479668 57.957877 
L 112.856204 60.090012 
L 114.232739 61.905225 
L 116.297542 64.119859 
L 118.362345 65.878789 
L 120.427148 67.291274 
L 122.491951 68.434966 
L 124.556753 69.36595 
L 127.309824 70.340947 
L 130.062895 71.099117 
L 133.504233 71.802878 
L 136.945571 72.314139 
L 141.075177 72.750659 
L 146.581318 73.111883 
L 153.463994 73.339732 
L 160.346671 73.424202 
L 174.800291 73.359826 
L 243.627055 72.39417 
L 339.296256 71.693423 
L 415.005696 71.450075 
L 415.005696 71.450075 
" style="fill:none;stroke:#ff7f0e;stroke-linecap:square;stroke-width:1.5;"/>
   </g>
   <g id="line2d_19">
    <path clip-path="url(#pf656f94132)" d="M 187.461818 76.26877 
L 193.036694 75.717924 
L 198.61157 75.249752 
L 204.186446 74.8485 
L 209.761322 74.501997 
L 215.336198 74.200718 
L 220.911074 73.937121 
L 226.48595 73.705175 
L 232.060826 73.500009 
L 237.635702 73.317652 
L 243.210579 73.154846 
L 248.785455 73.008891 
L 254.360331 72.877541 
L 259.935207 72.758909 
L 265.510083 72.651406 
L 271.084959 72.553681 
L 276.659835 72.464584 
L 282.234711 72.383127 
L 287.809587 72.308463 
L 293.384463 72.239856 
L 298.959339 72.176668 
L 304.534215 72.118343 
L 310.109091 72.064395 
L 315.683967 72.014396 
L 321.258843 71.967971 
L 326.833719 71.924786 
L 332.408595 71.884547 
L 337.983471 71.846991 
L 343.558347 71.811887 
L 349.133223 71.779024 
L 354.708099 71.748215 
L 360.282975 71.719294 
L 365.857851 71.692109 
L 371.432727 71.666524 
L 377.007603 71.642416 
L 382.582479 71.619673 
L 388.157355 71.598193 
L 393.732231 71.577886 
L 399.307107 71.558668 
L 404.881983 71.540461 
L 410.45686 71.523196 
L 416.031736 71.50681 
L 421.606612 71.491243 
L 427.181488 71.476442 
L 432.756364 71.462357 
L 438.33124 71.448944 
L 443.906116 71.436159 
L 449.480992 71.423965 
L 455.055868 71.412325 
L 460.630744 71.401207 
L 461.8 71.398977 
" style="fill:none;stroke:#2ca02c;stroke-dasharray:5.55,2.4;stroke-dashoffset:0;stroke-width:1.5;"/>
   </g>
   <g id="line2d_20">
    <path clip-path="url(#pf656f94132)" d="M 90.390109 287.754398 
L 90.550797 268.832357 
L 90.711484 255.373904 
L 90.872172 244.920807 
L 91.03286 236.372842 
L 91.193547 229.14147 
L 91.354235 222.874728 
L 91.514922 217.345291 
L 91.67561 212.397785 
L 91.836298 207.921303 
L 91.996985 203.833904 
L 92.157673 200.073325 
L 92.31836 196.591152 
L 92.479048 193.348988 
L 92.639736 190.31587 
L 92.800423 187.466467 
L 92.961111 184.779788 
L 93.121798 182.238247 
L 93.282486 179.826964 
L 93.443174 177.533235 
L 93.603861 175.34613 
L 93.764549 173.256173 
L 93.925236 171.255102 
L 94.085924 169.335661 
L 94.246612 167.491453 
L 94.407299 165.7168 
L 94.567987 164.006647 
L 94.728674 162.356469 
L 94.889362 160.762201 
L 95.05005 159.220179 
L 95.210737 157.727087 
L 95.371425 156.279914 
L 95.532112 154.875921 
L 95.6928 153.512605 
L 95.853488 152.187675 
L 96.014175 150.899029 
L 96.174863 149.644733 
L 96.33555 148.423002 
L 96.496238 147.232188 
L 96.656926 146.070765 
L 96.817613 144.937318 
L 96.978301 143.830529 
L 97.138988 142.749174 
L 97.299676 141.69211 
L 97.460364 140.65827 
L 97.621051 139.646655 
L 97.781739 138.65633 
L 97.942426 137.686416 
L 98.103114 136.73609 
L 98.263802 135.804576 
L 98.424489 134.891144 
L 98.585177 133.995104 
L 98.745864 133.115808 
L 98.906552 132.25264 
L 99.06724 131.40502 
L 99.227927 130.572398 
L 99.388615 129.754251 
L 99.549302 128.950086 
L 99.70999 128.159432 
L 99.870678 127.381843 
L 100.031365 126.616894 
L 100.192053 125.864181 
L 100.35274 125.123318 
L 100.513428 124.393939 
L 100.674116 123.675692 
L 100.834803 122.968242 
L 100.995491 122.271271 
L 101.156179 121.584471 
L 101.316866 120.907552 
L 101.477554 120.240231 
L 101.638241 119.582241 
L 101.798929 118.933325 
L 101.959617 118.293235 
L 102.120304 117.661735 
L 102.280992 117.038597 
L 102.441679 116.423603 
L 102.602367 115.816542 
L 102.763055 115.217213 
L 102.923742 114.625421 
L 103.08443 114.040979 
L 103.245117 113.463706 
L 103.405805 112.893429 
L 103.566493 112.32998 
L 103.72718 111.773197 
L 103.887868 111.222925 
L 104.048555 110.679014 
L 104.209243 110.141317 
L 104.369931 109.609694 
L 104.530618 109.084011 
L 104.691306 108.564134 
L 104.851993 108.049939 
L 105.012681 107.541301 
L 105.173369 107.038102 
L 105.334056 106.540226 
L 105.494744 106.047563 
L 105.655431 105.560005 
L 105.816119 105.077446 
L 105.976807 104.599785 
L 106.137494 104.126924 
L 106.298182 103.658767 
" style="fill:none;stroke:#d62728;stroke-dasharray:5.55,2.4;stroke-dashoffset:0;stroke-width:1.5;"/>
   </g>
   <g id="line2d_21">
    <path clip-path="url(#pf656f94132)" d="M 57.106525 71.04 
L 415.005696 71.04 
L 415.005696 71.04 
" style="fill:none;stroke:#000000;stroke-dasharray:5.55,2.4;stroke-dashoffset:0;stroke-width:1.5;"/>
   </g>
   <g id="patch_3">
    <path d="M 57.6 307.584 
L 57.6 41.472 
" style="fill:none;stroke:#000000;stroke-linecap:square;stroke-linejoin:miter;stroke-width:0.8;"/>
   </g>
   <g id="patch_4">
    <path d="M 414.72 307.584 
L 414.72 41.472 
" style="fill:none;stroke:#000000;stroke-linecap:square;stroke-linejoin:miter;stroke-width:0.8;"/>
   </g>
   <g id="patch_5">
    <path d="M 57.6 307.584 
L 414.72 307.584 
" style="fill:none;stroke:#000000;stroke-linecap:square;stroke-linejoin:miter;stroke-width:0.8;"/>
   </g>
   <g id="patch_6">
    <path d="M 57.6 41.472 
L 414.72 41.472 
" style="fill:none;stroke:#000000;stroke-linecap:square;stroke-linejoin:miter;stroke-width:0.8;"/>
   </g>
   <g id="legend_1">
    <g id="patch_7">
     <path d="M 210.12 302.584 
L 407.72 302.584 
Q 409.72 302.584 409.72 300.584 
L 409.72 242.82775 
Q 409.72 240.82775 407.72 240.82775 
L 210.12 240.82775 
Q 208.12 240.82775 208.12 242.82775 
L 208.12 300.584 
Q 208.12 302.584 210.12 302.584 
z
" style="fill:#ffffff;opacity:0.8;stroke:#cccccc;stroke-linejoin:miter;"/>
    </g>
    <g id="line2d_22">
     <path d="M 212.12 248.92775 
L 232.12 248.92775 
" style="fill:none;stroke:#1f77b4;stroke-linecap:square;stroke-width:1.5;"/>
    </g>
    <g id="line2d_23"/>
    <g id="text_19">
     <!-- Edge probe potential $V_P(x)\propto f_s(x)$ -->
     <defs>
      <path d="M 9.8125 72.90625 
L 55.90625 72.90625 
L 55.90625 64.59375 
L 19.671875 64.59375 
L 19.671875 43.015625 
L 54.390625 43.015625 
L 54.390625 34.71875 
L 19.671875 34.71875 
L 19.671875 8.296875 
L 56.78125 8.296875 
L 56.78125 0 
L 9.8125 0 
z
" id="DejaVuSans-45"/>
      <path d="M 45.40625 46.390625 
L 45.40625 75.984375 
L 54.390625 75.984375 
L 54.390625 0 
L 45.40625 0 
L 45.40625 8.203125 
Q 42.578125 3.328125 38.25 0.953125 
Q 33.9375 -1.421875 27.875 -1.421875 
Q 17.96875 -1.421875 11.734375 6.484375 
Q 5.515625 14.40625 5.515625 27.296875 
Q 5.515625 40.1875 11.734375 48.09375 
Q 17.96875 56 27.875 56 
Q 33.9375 56 38.25 53.625 
Q 42.578125 51.265625 45.40625 46.390625 
z
M 14.796875 27.296875 
Q 14.796875 17.390625 18.875 11.75 
Q 22.953125 6.109375 30.078125 6.109375 
Q 37.203125 6.109375 41.296875 11.75 
Q 45.40625 17.390625 45.40625 27.296875 
Q 45.40625 37.203125 41.296875 42.84375 
Q 37.203125 48.484375 30.078125 48.484375 
Q 22.953125 48.484375 18.875 42.84375 
Q 14.796875 37.203125 14.796875 27.296875 
z
" id="DejaVuSans-64"/>
      <path d="M 45.40625 27.984375 
Q 45.40625 37.75 41.375 43.109375 
Q 37.359375 48.484375 30.078125 48.484375 
Q 22.859375 48.484375 18.828125 43.109375 
Q 14.796875 37.75 14.796875 27.984375 
Q 14.796875 18.265625 18.828125 12.890625 
Q 22.859375 7.515625 30.078125 7.515625 
Q 37.359375 7.515625 41.375 12.890625 
Q 45.40625 18.265625 45.40625 27.984375 
z
M 54.390625 6.78125 
Q 54.390625 -7.171875 48.1875 -13.984375 
Q 42 -20.796875 29.203125 -20.796875 
Q 24.46875 -20.796875 20.265625 -20.09375 
Q 16.0625 -19.390625 12.109375 -17.921875 
L 12.109375 -9.1875 
Q 16.0625 -11.328125 19.921875 -12.34375 
Q 23.78125 -13.375 27.78125 -13.375 
Q 36.625 -13.375 41.015625 -8.765625 
Q 45.40625 -4.15625 45.40625 5.171875 
L 45.40625 9.625 
Q 42.625 4.78125 38.28125 2.390625 
Q 33.9375 0 27.875 0 
Q 17.828125 0 11.671875 7.65625 
Q 5.515625 15.328125 5.515625 27.984375 
Q 5.515625 40.671875 11.671875 48.328125 
Q 17.828125 56 27.875 56 
Q 33.9375 56 38.28125 53.609375 
Q 42.625 51.21875 45.40625 46.390625 
L 45.40625 54.6875 
L 54.390625 54.6875 
z
" id="DejaVuSans-67"/>
      <path d="M 20.609375 0 
L 7.8125 72.90625 
L 17.484375 72.90625 
L 28.078125 10.203125 
L 63.484375 72.90625 
L 74.21875 72.90625 
L 32.078125 0 
z
" id="DejaVuSans-Oblique-56"/>
      <path d="M 16.890625 72.90625 
L 39.703125 72.90625 
Q 49.65625 72.90625 54.875 68.265625 
Q 60.109375 63.625 60.109375 54.6875 
Q 60.109375 42.671875 52.390625 35.984375 
Q 44.671875 29.296875 30.71875 29.296875 
L 18.3125 29.296875 
L 12.59375 0 
L 2.6875 0 
z
M 25.203125 64.796875 
L 19.921875 37.40625 
L 32.328125 37.40625 
Q 40.71875 37.40625 45.203125 41.703125 
Q 49.703125 46 49.703125 54 
Q 49.703125 59.125 46.65625 61.953125 
Q 43.609375 64.796875 38.09375 64.796875 
z
" id="DejaVuSans-Oblique-50"/>
      <path d="M 31 75.875 
Q 24.46875 64.65625 21.28125 53.65625 
Q 18.109375 42.671875 18.109375 31.390625 
Q 18.109375 20.125 21.3125 9.0625 
Q 24.515625 -2 31 -13.1875 
L 23.1875 -13.1875 
Q 15.875 -1.703125 12.234375 9.375 
Q 8.59375 20.453125 8.59375 31.390625 
Q 8.59375 42.28125 12.203125 53.3125 
Q 15.828125 64.359375 23.1875 75.875 
z
" id="DejaVuSans-28"/>
      <path d="M 8.015625 75.875 
L 15.828125 75.875 
Q 23.140625 64.359375 26.78125 53.3125 
Q 30.421875 42.28125 30.421875 31.390625 
Q 30.421875 20.453125 26.78125 9.375 
Q 23.140625 -1.703125 15.828125 -13.1875 
L 8.015625 -13.1875 
Q 14.5 -2 17.703125 9.0625 
Q 20.90625 20.125 20.90625 31.390625 
Q 20.90625 42.671875 17.703125 53.65625 
Q 14.5 64.65625 8.015625 75.875 
z
" id="DejaVuSans-29"/>
      <path d="M 25.734375 17.71875 
Q 33.796875 17.71875 38.625 29.4375 
Q 32.421875 42.234375 25.734375 42.234375 
Q 20.84375 42.234375 18.359375 38.71875 
Q 15.71875 34.96875 15.71875 29.984375 
Q 15.71875 24.515625 18.359375 21.140625 
Q 21.09375 17.71875 25.734375 17.71875 
z
M 60.6875 17.625 
L 60.6875 11.1875 
L 56.9375 11.1875 
Q 53.375 11.1875 50.734375 12.640625 
Q 48.09375 13.96875 45.5625 17.046875 
Q 44.046875 18.796875 41.65625 22.90625 
Q 38.375 17.046875 35.5 14.453125 
Q 31.9375 11.328125 26.265625 11.328125 
Q 19.671875 11.328125 15.328125 16.265625 
Q 10.75 21.4375 10.75 29.984375 
Q 10.75 38.1875 15.328125 43.75 
Q 19.390625 48.6875 26.375 48.6875 
Q 29.9375 48.6875 32.5625 47.21875 
Q 35.640625 45.609375 37.75 42.828125 
Q 39.703125 40.328125 41.65625 36.96875 
Q 44.921875 42.828125 47.796875 45.40625 
Q 51.375 48.53125 57.03125 48.53125 
L 60.6875 48.53125 
L 60.6875 42.140625 
L 57.5625 42.140625 
Q 50.34375 42.140625 44.671875 30.421875 
Q 50.875 17.625 57.5625 17.625 
z
" id="DejaVuSans-221d"/>
      <path d="M 47.796875 75.984375 
L 46.390625 68.5 
L 37.796875 68.5 
Q 32.90625 68.5 30.6875 66.578125 
Q 28.46875 64.65625 27.390625 59.515625 
L 26.421875 54.6875 
L 41.21875 54.6875 
L 39.890625 47.703125 
L 25.09375 47.703125 
L 15.828125 0 
L 6.78125 0 
L 16.109375 47.703125 
L 7.515625 47.703125 
L 8.796875 54.6875 
L 17.390625 54.6875 
L 18.109375 58.5 
Q 19.96875 68.171875 24.625 72.078125 
Q 29.296875 75.984375 39.3125 75.984375 
z
" id="DejaVuSans-Oblique-66"/>
      <path d="M 50 53.078125 
L 48.296875 44.578125 
Q 44.734375 46.53125 40.765625 47.5 
Q 36.8125 48.484375 32.625 48.484375 
Q 25.53125 48.484375 21.453125 46.0625 
Q 17.390625 43.65625 17.390625 39.5 
Q 17.390625 34.671875 26.859375 32.078125 
Q 27.59375 31.890625 27.9375 31.78125 
L 30.8125 30.90625 
Q 39.796875 28.421875 42.796875 25.6875 
Q 45.796875 22.953125 45.796875 18.21875 
Q 45.796875 9.515625 38.890625 4.046875 
Q 31.984375 -1.421875 20.796875 -1.421875 
Q 16.453125 -1.421875 11.671875 -0.578125 
Q 6.890625 0.25 1.125 2 
L 2.875 11.28125 
Q 7.8125 8.734375 12.59375 7.421875 
Q 17.390625 6.109375 21.78125 6.109375 
Q 28.375 6.109375 32.5 8.9375 
Q 36.625 11.765625 36.625 16.109375 
Q 36.625 20.796875 25.78125 23.6875 
L 24.859375 23.921875 
L 21.78125 24.703125 
Q 14.9375 26.515625 11.765625 29.46875 
Q 8.59375 32.421875 8.59375 37.015625 
Q 8.59375 45.75 15.15625 50.875 
Q 21.734375 56 33.015625 56 
Q 37.453125 56 41.671875 55.265625 
Q 45.90625 54.546875 50 53.078125 
z
" id="DejaVuSans-Oblique-73"/>
     </defs>
     <g transform="translate(240.12 252.42775)scale(0.1 -0.1)">
      <use transform="translate(0 0.015625)" xlink:href="#DejaVuSans-45"/>
      <use transform="translate(63.183594 0.015625)" xlink:href="#DejaVuSans-64"/>
      <use transform="translate(126.660156 0.015625)" xlink:href="#DejaVuSans-67"/>
      <use transform="translate(190.136719 0.015625)" xlink:href="#DejaVuSans-65"/>
      <use transform="translate(251.660156 0.015625)" xlink:href="#DejaVuSans-20"/>
      <use transform="translate(283.447266 0.015625)" xlink:href="#DejaVuSans-70"/>
      <use transform="translate(346.923828 0.015625)" xlink:href="#DejaVuSans-72"/>
      <use transform="translate(388.037109 0.015625)" xlink:href="#DejaVuSans-6f"/>
      <use transform="translate(449.21875 0.015625)" xlink:href="#DejaVuSans-62"/>
      <use transform="translate(512.695312 0.015625)" xlink:href="#DejaVuSans-65"/>
      <use transform="translate(574.21875 0.015625)" xlink:href="#DejaVuSans-20"/>
      <use transform="translate(606.005859 0.015625)" xlink:href="#DejaVuSans-70"/>
      <use transform="translate(669.482422 0.015625)" xlink:href="#DejaVuSans-6f"/>
      <use transform="translate(730.664062 0.015625)" xlink:href="#DejaVuSans-74"/>
      <use transform="translate(769.873047 0.015625)" xlink:href="#DejaVuSans-65"/>
      <use transform="translate(831.396484 0.015625)" xlink:href="#DejaVuSans-6e"/>
      <use transform="translate(894.775391 0.015625)" xlink:href="#DejaVuSans-74"/>
      <use transform="translate(933.984375 0.015625)" xlink:href="#DejaVuSans-69"/>
      <use transform="translate(961.767578 0.015625)" xlink:href="#DejaVuSans-61"/>
      <use transform="translate(1023.046875 0.015625)" xlink:href="#DejaVuSans-6c"/>
      <use transform="translate(1050.830078 0.015625)" xlink:href="#DejaVuSans-20"/>
      <use transform="translate(1082.617188 0.015625)" xlink:href="#DejaVuSans-Oblique-56"/>
      <use transform="translate(1151.025391 -16.390625)scale(0.7)" xlink:href="#DejaVuSans-Oblique-50"/>
      <use transform="translate(1195.97168 0.015625)" xlink:href="#DejaVuSans-28"/>
      <use transform="translate(1234.985352 0.015625)" xlink:href="#DejaVuSans-Oblique-78"/>
      <use transform="translate(1294.165039 0.015625)" xlink:href="#DejaVuSans-29"/>
      <use transform="translate(1352.661133 0.015625)" xlink:href="#DejaVuSans-221d"/>
      <use transform="translate(1443.579102 0.015625)" xlink:href="#DejaVuSans-Oblique-66"/>
      <use transform="translate(1478.78418 -16.390625)scale(0.7)" xlink:href="#DejaVuSans-Oblique-73"/>
      <use transform="translate(1517.988281 0.015625)" xlink:href="#DejaVuSans-28"/>
      <use transform="translate(1557.001953 0.015625)" xlink:href="#DejaVuSans-Oblique-78"/>
      <use transform="translate(1616.181641 0.015625)" xlink:href="#DejaVuSans-29"/>
     </g>
    </g>
    <g id="line2d_24">
     <path d="M 212.12 263.62775 
L 232.12 263.62775 
" style="fill:none;stroke:#ff7f0e;stroke-linecap:square;stroke-width:1.5;"/>
    </g>
    <g id="line2d_25"/>
    <g id="text_20">
     <!-- Electric potential $\phi(x) \propto \rho(x)$ -->
     <defs>
      <path d="M 48.78125 52.59375 
L 48.78125 44.1875 
Q 44.96875 46.296875 41.140625 47.34375 
Q 37.3125 48.390625 33.40625 48.390625 
Q 24.65625 48.390625 19.8125 42.84375 
Q 14.984375 37.3125 14.984375 27.296875 
Q 14.984375 17.28125 19.8125 11.734375 
Q 24.65625 6.203125 33.40625 6.203125 
Q 37.3125 6.203125 41.140625 7.25 
Q 44.96875 8.296875 48.78125 10.40625 
L 48.78125 2.09375 
Q 45.015625 0.34375 40.984375 -0.53125 
Q 36.96875 -1.421875 32.421875 -1.421875 
Q 20.0625 -1.421875 12.78125 6.34375 
Q 5.515625 14.109375 5.515625 27.296875 
Q 5.515625 40.671875 12.859375 48.328125 
Q 20.21875 56 33.015625 56 
Q 37.15625 56 41.109375 55.140625 
Q 45.0625 54.296875 48.78125 52.59375 
z
" id="DejaVuSans-63"/>
      <path d="M 46.734375 75.984375 
L 42.78125 55.8125 
Q 52.546875 55.8125 57.5625 48.34375 
Q 62.75 40.71875 60.15625 27.296875 
Q 57.515625 13.875 49.359375 6.25 
Q 41.453125 -1.21875 31.6875 -1.21875 
L 27.875 -20.796875 
L 18.953125 -20.796875 
L 22.75 -1.21875 
Q 13.03125 -1.21875 7.953125 6.25 
Q 2.78125 13.875 5.421875 27.296875 
Q 8.015625 40.71875 16.15625 48.34375 
Q 24.125 55.8125 33.84375 55.8125 
L 37.796875 75.984375 
z
M 33.25 6.78125 
Q 38.765625 6.78125 43.5 11.8125 
Q 48.6875 17.4375 50.6875 27.296875 
Q 52.640625 37.0625 49.515625 42.78125 
Q 46.734375 47.796875 41.21875 47.796875 
z
M 24.3125 6.78125 
L 32.28125 47.796875 
Q 26.8125 47.796875 22.078125 42.78125 
Q 16.75 37.0625 14.890625 27.296875 
Q 13.03125 17.4375 16.0625 11.8125 
Q 18.796875 6.78125 24.3125 6.78125 
z
" id="DejaVuSans-Oblique-3d5"/>
      <path d="M 18.796875 44.921875 
Q 22.703125 49.90625 30.953125 54.296875 
Q 34.1875 56 43.0625 56 
Q 53.03125 56 57.71875 48.09375 
Q 62.40625 40.1875 59.90625 27.296875 
Q 57.375 14.40625 49.609375 6.484375 
Q 41.84375 -1.421875 31.890625 -1.421875 
Q 25.875 -1.421875 22.015625 0.984375 
Q 18.171875 3.328125 16.3125 8.203125 
L 10.640625 -20.796875 
L 1.609375 -20.796875 
L 10.890625 26.8125 
Q 13.09375 38.09375 18.796875 44.921875 
z
M 50.59375 27.296875 
Q 52.484375 37.203125 49.515625 42.875 
Q 46.53125 48.484375 39.40625 48.484375 
Q 32.28125 48.484375 27.09375 42.875 
Q 21.921875 37.203125 20.015625 27.296875 
Q 18.0625 17.390625 21.046875 11.71875 
Q 24.03125 6.109375 31.15625 6.109375 
Q 38.28125 6.109375 43.453125 11.71875 
Q 48.640625 17.390625 50.59375 27.296875 
z
" id="DejaVuSans-Oblique-3c1"/>
     </defs>
     <g transform="translate(240.12 267.12775)scale(0.1 -0.1)">
      <use transform="translate(0 0.015625)" xlink:href="#DejaVuSans-45"/>
      <use transform="translate(63.183594 0.015625)" xlink:href="#DejaVuSans-6c"/>
      <use transform="translate(90.966797 0.015625)" xlink:href="#DejaVuSans-65"/>
      <use transform="translate(152.490234 0.015625)" xlink:href="#DejaVuSans-63"/>
      <use transform="translate(207.470703 0.015625)" xlink:href="#DejaVuSans-74"/>
      <use transform="translate(246.679688 0.015625)" xlink:href="#DejaVuSans-72"/>
      <use transform="translate(287.792969 0.015625)" xlink:href="#DejaVuSans-69"/>
      <use transform="translate(315.576172 0.015625)" xlink:href="#DejaVuSans-63"/>
      <use transform="translate(370.556641 0.015625)" xlink:href="#DejaVuSans-20"/>
      <use transform="translate(402.34375 0.015625)" xlink:href="#DejaVuSans-70"/>
      <use transform="translate(465.820312 0.015625)" xlink:href="#DejaVuSans-6f"/>
      <use transform="translate(527.001953 0.015625)" xlink:href="#DejaVuSans-74"/>
      <use transform="translate(566.210938 0.015625)" xlink:href="#DejaVuSans-65"/>
      <use transform="translate(627.734375 0.015625)" xlink:href="#DejaVuSans-6e"/>
      <use transform="translate(691.113281 0.015625)" xlink:href="#DejaVuSans-74"/>
      <use transform="translate(730.322266 0.015625)" xlink:href="#DejaVuSans-69"/>
      <use transform="translate(758.105469 0.015625)" xlink:href="#DejaVuSans-61"/>
      <use transform="translate(819.384766 0.015625)" xlink:href="#DejaVuSans-6c"/>
      <use transform="translate(847.167969 0.015625)" xlink:href="#DejaVuSans-20"/>
      <use transform="translate(878.955078 0.015625)" xlink:href="#DejaVuSans-Oblique-3d5"/>
      <use transform="translate(944.921875 0.015625)" xlink:href="#DejaVuSans-28"/>
      <use transform="translate(983.935547 0.015625)" xlink:href="#DejaVuSans-Oblique-78"/>
      <use transform="translate(1043.115234 0.015625)" xlink:href="#DejaVuSans-29"/>
      <use transform="translate(1101.611328 0.015625)" xlink:href="#DejaVuSans-221d"/>
      <use transform="translate(1192.529297 0.015625)" xlink:href="#DejaVuSans-Oblique-3c1"/>
      <use transform="translate(1256.005859 0.015625)" xlink:href="#DejaVuSans-28"/>
      <use transform="translate(1295.019531 0.015625)" xlink:href="#DejaVuSans-Oblique-78"/>
      <use transform="translate(1354.199219 0.015625)" xlink:href="#DejaVuSans-29"/>
     </g>
    </g>
    <g id="line2d_26">
     <path d="M 212.12 278.326187 
L 232.12 278.326187 
" style="fill:none;stroke:#2ca02c;stroke-dasharray:5.55,2.4;stroke-dashoffset:0;stroke-width:1.5;"/>
    </g>
    <g id="line2d_27"/>
    <g id="text_21">
     <!-- Hydrodynamics -->
     <defs>
      <path d="M 9.8125 72.90625 
L 19.671875 72.90625 
L 19.671875 43.015625 
L 55.515625 43.015625 
L 55.515625 72.90625 
L 65.375 72.90625 
L 65.375 0 
L 55.515625 0 
L 55.515625 34.71875 
L 19.671875 34.71875 
L 19.671875 0 
L 9.8125 0 
z
" id="DejaVuSans-48"/>
      <path d="M 32.171875 -5.078125 
Q 28.375 -14.84375 24.75 -17.8125 
Q 21.140625 -20.796875 15.09375 -20.796875 
L 7.90625 -20.796875 
L 7.90625 -13.28125 
L 13.1875 -13.28125 
Q 16.890625 -13.28125 18.9375 -11.515625 
Q 21 -9.765625 23.484375 -3.21875 
L 25.09375 0.875 
L 2.984375 54.6875 
L 12.5 54.6875 
L 29.59375 11.921875 
L 46.6875 54.6875 
L 56.203125 54.6875 
z
" id="DejaVuSans-79"/>
      <path d="M 52 44.1875 
Q 55.375 50.25 60.0625 53.125 
Q 64.75 56 71.09375 56 
Q 79.640625 56 84.28125 50.015625 
Q 88.921875 44.046875 88.921875 33.015625 
L 88.921875 0 
L 79.890625 0 
L 79.890625 32.71875 
Q 79.890625 40.578125 77.09375 44.375 
Q 74.3125 48.1875 68.609375 48.1875 
Q 61.625 48.1875 57.5625 43.546875 
Q 53.515625 38.921875 53.515625 30.90625 
L 53.515625 0 
L 44.484375 0 
L 44.484375 32.71875 
Q 44.484375 40.625 41.703125 44.40625 
Q 38.921875 48.1875 33.109375 48.1875 
Q 26.21875 48.1875 22.15625 43.53125 
Q 18.109375 38.875 18.109375 30.90625 
L 18.109375 0 
L 9.078125 0 
L 9.078125 54.6875 
L 18.109375 54.6875 
L 18.109375 46.1875 
Q 21.1875 51.21875 25.484375 53.609375 
Q 29.78125 56 35.6875 56 
Q 41.65625 56 45.828125 52.96875 
Q 50 49.953125 52 44.1875 
z
" id="DejaVuSans-6d"/>
     </defs>
     <g transform="translate(240.12 281.826187)scale(0.1 -0.1)">
      <use xlink:href="#DejaVuSans-48"/>
      <use x="75.195312" xlink:href="#DejaVuSans-79"/>
      <use x="134.375" xlink:href="#DejaVuSans-64"/>
      <use x="197.851562" xlink:href="#DejaVuSans-72"/>
      <use x="238.933594" xlink:href="#DejaVuSans-6f"/>
      <use x="300.115234" xlink:href="#DejaVuSans-64"/>
      <use x="363.591797" xlink:href="#DejaVuSans-79"/>
      <use x="422.771484" xlink:href="#DejaVuSans-6e"/>
      <use x="486.150391" xlink:href="#DejaVuSans-61"/>
      <use x="547.429688" xlink:href="#DejaVuSans-6d"/>
      <use x="644.841797" xlink:href="#DejaVuSans-69"/>
      <use x="672.625" xlink:href="#DejaVuSans-63"/>
      <use x="727.605469" xlink:href="#DejaVuSans-73"/>
     </g>
    </g>
    <g id="line2d_28">
     <path d="M 212.12 293.004312 
L 232.12 293.004312 
" style="fill:none;stroke:#d62728;stroke-dasharray:5.55,2.4;stroke-dashoffset:0;stroke-width:1.5;"/>
    </g>
    <g id="line2d_29"/>
    <g id="text_22">
     <!-- Backscattering -->
     <defs>
      <path d="M 19.671875 34.8125 
L 19.671875 8.109375 
L 35.5 8.109375 
Q 43.453125 8.109375 47.28125 11.40625 
Q 51.125 14.703125 51.125 21.484375 
Q 51.125 28.328125 47.28125 31.5625 
Q 43.453125 34.8125 35.5 34.8125 
z
M 19.671875 64.796875 
L 19.671875 42.828125 
L 34.28125 42.828125 
Q 41.5 42.828125 45.03125 45.53125 
Q 48.578125 48.25 48.578125 53.8125 
Q 48.578125 59.328125 45.03125 62.0625 
Q 41.5 64.796875 34.28125 64.796875 
z
M 9.8125 72.90625 
L 35.015625 72.90625 
Q 46.296875 72.90625 52.390625 68.21875 
Q 58.5 63.53125 58.5 54.890625 
Q 58.5 48.1875 55.375 44.234375 
Q 52.25 40.28125 46.1875 39.3125 
Q 53.46875 37.75 57.5 32.78125 
Q 61.53125 27.828125 61.53125 20.40625 
Q 61.53125 10.640625 54.890625 5.3125 
Q 48.25 0 35.984375 0 
L 9.8125 0 
z
" id="DejaVuSans-42"/>
      <path d="M 9.078125 75.984375 
L 18.109375 75.984375 
L 18.109375 31.109375 
L 44.921875 54.6875 
L 56.390625 54.6875 
L 27.390625 29.109375 
L 57.625 0 
L 45.90625 0 
L 18.109375 26.703125 
L 18.109375 0 
L 9.078125 0 
z
" id="DejaVuSans-6b"/>
     </defs>
     <g transform="translate(240.12 296.504312)scale(0.1 -0.1)">
      <use xlink:href="#DejaVuSans-42"/>
      <use x="68.603516" xlink:href="#DejaVuSans-61"/>
      <use x="129.882812" xlink:href="#DejaVuSans-63"/>
      <use x="184.863281" xlink:href="#DejaVuSans-6b"/>
      <use x="242.773438" xlink:href="#DejaVuSans-73"/>
      <use x="294.873047" xlink:href="#DejaVuSans-63"/>
      <use x="349.853516" xlink:href="#DejaVuSans-61"/>
      <use x="411.132812" xlink:href="#DejaVuSans-74"/>
      <use x="450.341797" xlink:href="#DejaVuSans-74"/>
      <use x="489.550781" xlink:href="#DejaVuSans-65"/>
      <use x="551.074219" xlink:href="#DejaVuSans-72"/>
      <use x="592.1875" xlink:href="#DejaVuSans-69"/>
      <use x="619.970703" xlink:href="#DejaVuSans-6e"/>
      <use x="683.349609" xlink:href="#DejaVuSans-67"/>
     </g>
    </g>
   </g>
  </g>
  <g id="axes_2">
   <g id="patch_8">
    <path d="M 207.36 190.08 
L 391.68 190.08 
L 391.68 86.4 
L 207.36 86.4 
z
" style="fill:#ffffff;"/>
   </g>
   <g id="matplotlib.axis_3">
    <g id="xtick_7">
     <g id="line2d_30">
      <g>
       <use style="stroke:#000000;stroke-width:0.8;" x="238.08" xlink:href="#mfafb95b921" y="190.08"/>
      </g>
     </g>
     <g id="text_23">
      <!-- 5 -->
      <defs>
       <path d="M 10.796875 72.90625 
L 49.515625 72.90625 
L 49.515625 64.59375 
L 19.828125 64.59375 
L 19.828125 46.734375 
Q 21.96875 47.46875 24.109375 47.828125 
Q 26.265625 48.1875 28.421875 48.1875 
Q 40.625 48.1875 47.75 41.5 
Q 54.890625 34.8125 54.890625 23.390625 
Q 54.890625 11.625 47.5625 5.09375 
Q 40.234375 -1.421875 26.90625 -1.421875 
Q 22.3125 -1.421875 17.546875 -0.640625 
Q 12.796875 0.140625 7.71875 1.703125 
L 7.71875 11.625 
Q 12.109375 9.234375 16.796875 8.0625 
Q 21.484375 6.890625 26.703125 6.890625 
Q 35.15625 6.890625 40.078125 11.328125 
Q 45.015625 15.765625 45.015625 23.390625 
Q 45.015625 31 40.078125 35.4375 
Q 35.15625 39.890625 26.703125 39.890625 
Q 22.75 39.890625 18.8125 39.015625 
Q 14.890625 38.140625 10.796875 36.28125 
z
" id="DejaVuSans-35"/>
      </defs>
      <g transform="translate(234.89875 204.678437)scale(0.1 -0.1)">
       <use xlink:href="#DejaVuSans-35"/>
      </g>
     </g>
    </g>
    <g id="xtick_8">
     <g id="line2d_31">
      <g>
       <use style="stroke:#000000;stroke-width:0.8;" x="289.28" xlink:href="#mfafb95b921" y="190.08"/>
      </g>
     </g>
     <g id="text_24">
      <!-- 10 -->
      <g transform="translate(282.9175 204.678437)scale(0.1 -0.1)">
       <use xlink:href="#DejaVuSans-31"/>
       <use x="63.623047" xlink:href="#DejaVuSans-30"/>
      </g>
     </g>
    </g>
    <g id="xtick_9">
     <g id="line2d_32">
      <g>
       <use style="stroke:#000000;stroke-width:0.8;" x="340.48" xlink:href="#mfafb95b921" y="190.08"/>
      </g>
     </g>
     <g id="text_25">
      <!-- 15 -->
      <g transform="translate(334.1175 204.678437)scale(0.1 -0.1)">
       <use xlink:href="#DejaVuSans-31"/>
       <use x="63.623047" xlink:href="#DejaVuSans-35"/>
      </g>
     </g>
    </g>
    <g id="xtick_10">
     <g id="line2d_33">
      <g>
       <use style="stroke:#000000;stroke-width:0.8;" x="391.68" xlink:href="#mfafb95b921" y="190.08"/>
      </g>
     </g>
     <g id="text_26">
      <!-- 20 -->
      <g transform="translate(385.3175 204.678437)scale(0.1 -0.1)">
       <use xlink:href="#DejaVuSans-32"/>
       <use x="63.623047" xlink:href="#DejaVuSans-30"/>
      </g>
     </g>
    </g>
   </g>
   <g id="matplotlib.axis_4">
    <g id="ytick_11">
     <g id="line2d_34">
      <g>
       <use style="stroke:#000000;stroke-width:0.8;" x="207.36" xlink:href="#m6af4bb3619" y="172.8"/>
      </g>
     </g>
     <g id="text_27">
      <!-- −0.02 -->
      <g transform="translate(169.714688 176.599219)scale(0.1 -0.1)">
       <use xlink:href="#DejaVuSans-2212"/>
       <use x="83.789062" xlink:href="#DejaVuSans-30"/>
       <use x="147.412109" xlink:href="#DejaVuSans-2e"/>
       <use x="179.199219" xlink:href="#DejaVuSans-30"/>
       <use x="242.822266" xlink:href="#DejaVuSans-32"/>
      </g>
     </g>
    </g>
    <g id="ytick_12">
     <g id="line2d_35">
      <g>
       <use style="stroke:#000000;stroke-width:0.8;" x="207.36" xlink:href="#m6af4bb3619" y="138.24"/>
      </g>
     </g>
     <g id="text_28">
      <!-- −0.01 -->
      <g transform="translate(169.714688 142.039219)scale(0.1 -0.1)">
       <use xlink:href="#DejaVuSans-2212"/>
       <use x="83.789062" xlink:href="#DejaVuSans-30"/>
       <use x="147.412109" xlink:href="#DejaVuSans-2e"/>
       <use x="179.199219" xlink:href="#DejaVuSans-30"/>
       <use x="242.822266" xlink:href="#DejaVuSans-31"/>
      </g>
     </g>
    </g>
    <g id="ytick_13">
     <g id="line2d_36">
      <g>
       <use style="stroke:#000000;stroke-width:0.8;" x="207.36" xlink:href="#m6af4bb3619" y="103.68"/>
      </g>
     </g>
     <g id="text_29">
      <!-- 0.00 -->
      <g transform="translate(178.094375 107.479219)scale(0.1 -0.1)">
       <use xlink:href="#DejaVuSans-30"/>
       <use x="63.623047" xlink:href="#DejaVuSans-2e"/>
       <use x="95.410156" xlink:href="#DejaVuSans-30"/>
       <use x="159.033203" xlink:href="#DejaVuSans-30"/>
      </g>
     </g>
    </g>
   </g>
   <g id="line2d_37">
    <path clip-path="url(#p071b9aa112)" d="M 207.310848 299.014053 
L 208.830464 278.688127 
L 210.35008 261.222516 
L 211.869696 246.146964 
L 213.389312 233.044043 
L 215.126016 220.071994 
L 216.86272 208.877264 
L 218.599424 199.172291 
L 220.336128 190.707811 
L 222.072832 183.277729 
L 223.809536 176.731896 
L 225.763328 170.272314 
L 227.500032 165.202045 
L 229.453824 160.1367 
L 231.624704 155.207755 
L 233.578496 151.290233 
L 235.966464 147.068709 
L 238.137344 143.697988 
L 240.525312 140.419477 
L 243.130368 137.277027 
L 245.518336 134.738257 
L 247.906304 132.470109 
L 250.51136 130.268003 
L 253.550592 128.005419 
L 256.372736 126.146252 
L 259.846144 124.138989 
L 263.319552 122.383469 
L 267.227136 120.660669 
L 271.785984 118.933473 
L 276.56192 117.383497 
L 282.857472 115.670226 
L 289.370112 114.210116 
L 296.316928 112.925385 
L 305.434624 111.567168 
L 314.769408 110.467522 
L 326.926336 109.342921 
L 344.510464 108.131807 
L 363.831296 107.188988 
L 378.376192 106.668511 
L 391.835648 106.280748 
L 391.835648 106.280748 
" style="fill:none;stroke:#1f77b4;stroke-linecap:square;stroke-width:1.5;"/>
   </g>
   <g id="line2d_38">
    <path clip-path="url(#p071b9aa112)" d="M 207.310848 158.089254 
L 208.1792 158.981632 
L 208.830464 159.394593 
L 209.26464 159.465511 
L 209.481728 159.588572 
L 209.698816 159.517758 
L 210.132992 159.593424 
L 210.35008 159.499054 
L 210.567168 159.551151 
L 212.955136 158.417945 
L 213.389312 158.060726 
L 214.257664 157.327477 
L 218.165248 153.339355 
L 219.0336 152.278729 
L 219.467776 151.82237 
L 220.770304 150.280446 
L 221.20448 149.817628 
L 222.507008 148.274919 
L 222.941184 147.811392 
L 224.243712 146.302148 
L 225.112064 145.39673 
L 225.980416 144.384055 
L 226.848768 143.507539 
L 227.71712 142.532632 
L 228.585472 141.685334 
L 229.453824 140.747653 
L 230.322176 139.941502 
L 231.190528 139.049857 
L 232.05888 138.281938 
L 232.927232 137.435789 
L 233.795584 136.702385 
L 234.881024 135.738954 
L 238.788608 132.556961 
L 239.65696 131.951963 
L 240.525312 131.2761 
L 241.393664 130.703689 
L 242.262016 130.062109 
L 243.130368 129.523355 
L 243.99872 128.919977 
L 244.867072 128.412706 
L 245.735424 127.838731 
L 246.603776 127.36132 
L 247.472128 126.816684 
L 248.34048 126.362754 
L 249.208832 125.84795 
L 250.077184 125.423223 
L 250.945536 124.934732 
L 251.813888 124.535354 
L 252.68224 124.07325 
L 253.550592 123.69214 
L 254.418944 123.25195 
L 255.287296 122.894216 
L 256.155648 122.477358 
L 257.241088 122.022765 
L 263.753728 119.538084 
L 264.62208 119.271874 
L 265.490432 118.954828 
L 266.358784 118.703359 
L 267.227136 118.399263 
L 268.095488 118.159014 
L 268.96384 117.872457 
L 269.832192 117.646508 
L 270.700544 117.371969 
L 271.568896 117.158984 
L 272.437248 116.896025 
L 273.3056 116.691131 
L 274.173952 116.438873 
L 275.259392 116.169818 
L 278.081536 115.508452 
L 280.035328 115.060221 
L 280.90368 114.891017 
L 282.206208 114.602495 
L 298.053632 111.932072 
L 300.007424 111.684475 
L 301.309952 111.502857 
L 305.651712 110.98235 
L 309.993472 110.506878 
L 313.032704 110.189796 
L 314.55232 110.061454 
L 316.071936 109.911541 
L 318.459904 109.704092 
L 328.228864 108.92685 
L 330.182656 108.800743 
L 331.702272 108.682702 
L 333.656064 108.569457 
L 335.17568 108.458246 
L 337.129472 108.349973 
L 338.649088 108.245364 
L 340.60288 108.145561 
L 342.556672 108.024513 
L 382.717952 106.429352 
L 384.671744 106.38769 
L 387.928064 106.288027 
L 390.098944 106.237512 
L 391.835648 106.196099 
L 391.835648 106.196099 
" style="fill:none;stroke:#ff7f0e;stroke-linecap:square;stroke-width:1.5;"/>
   </g>
   <g id="line2d_39">
    <path clip-path="url(#p071b9aa112)" d="M 217.6 225.910996 
L 219.358384 213.034071 
L 221.116768 202.08978 
L 222.875152 192.709875 
L 224.633535 184.60981 
L 226.391919 177.566913 
L 228.150303 171.404913 
L 229.908687 165.982803 
L 231.667071 161.186701 
L 233.425455 156.923822 
L 235.183838 153.117954 
L 236.942222 149.706031 
L 238.700606 146.635502 
L 240.45899 143.862294 
L 242.217374 141.349225 
L 243.975758 139.064747 
L 245.734141 136.981954 
L 247.492525 135.077786 
L 249.250909 133.332385 
L 251.009293 131.728579 
L 252.767677 130.251458 
L 254.526061 128.888021 
L 256.284444 127.626895 
L 258.042828 126.458094 
L 259.801212 125.37282 
L 261.559596 124.363301 
L 263.31798 123.422647 
L 265.076364 122.544733 
L 266.834747 121.724102 
L 268.593131 120.955876 
L 270.351515 120.235686 
L 272.109899 119.55961 
L 273.868283 118.924116 
L 275.626667 118.326022 
L 277.385051 117.762448 
L 279.143434 117.230788 
L 280.901818 116.728677 
L 282.660202 116.253966 
L 284.418586 115.804696 
L 286.17697 115.379082 
L 287.935354 114.975491 
L 289.693737 114.59243 
L 291.452121 114.22853 
L 293.210505 113.882533 
L 294.968889 113.553285 
L 296.727273 113.239721 
L 298.485657 112.940861 
L 300.24404 112.655799 
L 302.002424 112.3837 
L 303.760808 112.123789 
L 305.519192 111.875348 
L 307.277576 111.637713 
L 309.03596 111.410266 
L 310.794343 111.192433 
L 312.552727 110.983679 
L 314.311111 110.783507 
L 316.069495 110.591453 
L 317.827879 110.407084 
L 319.586263 110.229995 
L 321.344646 110.059807 
L 323.10303 109.896167 
L 324.861414 109.738744 
L 326.619798 109.587226 
L 328.378182 109.441321 
L 330.136566 109.300756 
L 331.894949 109.165273 
L 333.653333 109.03463 
L 335.411717 108.908599 
L 337.170101 108.786967 
L 338.928485 108.669529 
L 340.686869 108.556097 
L 342.445253 108.446489 
L 344.203636 108.340536 
L 345.96202 108.238076 
L 347.720404 108.138959 
L 349.478788 108.04304 
L 351.237172 107.950183 
L 352.995556 107.860259 
L 354.753939 107.773146 
L 356.512323 107.688728 
L 358.270707 107.606894 
L 360.029091 107.527542 
L 361.787475 107.45057 
L 363.545859 107.375886 
L 365.304242 107.303398 
L 367.062626 107.233022 
L 368.82101 107.164677 
L 370.579394 107.098285 
L 372.337778 107.033773 
L 374.096162 106.97107 
L 375.854545 106.910109 
L 377.612929 106.850826 
L 379.371313 106.79316 
L 381.129697 106.737054 
L 382.888081 106.68245 
L 384.646465 106.629297 
L 386.404848 106.577542 
L 388.163232 106.527138 
L 389.921616 106.478038 
L 391.68 106.430197 
" style="fill:none;stroke:#2ca02c;stroke-dasharray:5.55,2.4;stroke-dashoffset:0;stroke-width:1.5;"/>
   </g>
   <g id="line2d_40">
    <path clip-path="url(#p071b9aa112)" d="M 207.310848 103.68 
L 391.835648 103.68 
L 391.835648 103.68 
" style="fill:none;stroke:#000000;stroke-dasharray:5.55,2.4;stroke-dashoffset:0;stroke-width:1.5;"/>
   </g>
   <g id="patch_9">
    <path d="M 207.36 190.08 
L 207.36 86.4 
" style="fill:none;stroke:#000000;stroke-linecap:square;stroke-linejoin:miter;stroke-width:0.8;"/>
   </g>
   <g id="patch_10">
    <path d="M 391.68 190.08 
L 391.68 86.4 
" style="fill:none;stroke:#000000;stroke-linecap:square;stroke-linejoin:miter;stroke-width:0.8;"/>
   </g>
   <g id="patch_11">
    <path d="M 207.36 190.08 
L 391.68 190.08 
" style="fill:none;stroke:#000000;stroke-linecap:square;stroke-linejoin:miter;stroke-width:0.8;"/>
   </g>
   <g id="patch_12">
    <path d="M 207.36 86.4 
L 391.68 86.4 
" style="fill:none;stroke:#000000;stroke-linecap:square;stroke-linejoin:miter;stroke-width:0.8;"/>
   </g>
  </g>
 </g>
 <defs>
  <clipPath id="pf656f94132">
   <rect height="266.112" width="357.12" x="57.6" y="41.472"/>
  </clipPath>
  <clipPath id="p071b9aa112">
   <rect height="103.68" width="184.32" x="207.36" y="86.4"/>
  </clipPath>
 </defs>
</svg>
