<?xml version="1.0" encoding="utf-8" standalone="no"?>
<!DOCTYPE svg PUBLIC "-//W3C//DTD SVG 1.1//EN"
  "http://www.w3.org/Graphics/SVG/1.1/DTD/svg11.dtd">
<!-- Created with matplotlib (http://matplotlib.org/) -->
<svg height="345.6pt" version="1.1" viewBox="0 0 460.8 345.6" width="460.8pt" xmlns="http://www.w3.org/2000/svg" xmlns:xlink="http://www.w3.org/1999/xlink">
 <defs>
  <style type="text/css">
*{stroke-linecap:butt;stroke-linejoin:round;}
  </style>
 </defs>
 <g id="figure_1">
  <g id="patch_1">
   <path d="M 0 345.6 
L 460.8 345.6 
L 460.8 0 
L 0 0 
z
" style="fill:#ffffff;"/>
  </g>
  <g id="axes_1">
   <g id="patch_2">
    <path d="M 57.6 271.763644 
L 414.72 271.763644 
L 414.72 77.292356 
L 57.6 77.292356 
z
" style="fill:#ffffff;"/>
   </g>
   <g id="patch_3">
    <path clip-path="url(#pcb12df3e6e)" d="M 57.6 271.763644 
L 414.72 271.763644 
L 414.72 254.084436 
L 57.6 254.084436 
z
" style="fill:#cccccc;stroke:#808080;stroke-linejoin:miter;"/>
   </g>
   <g id="matplotlib.axis_1">
    <g id="xtick_1">
     <g id="line2d_1">
      <defs>
       <path d="M 0 0 
L 0 3.5 
" id="mafe9904140" style="stroke:#000000;stroke-width:0.8;"/>
      </defs>
      <g>
       <use style="stroke:#000000;stroke-width:0.8;" x="59.367921" xlink:href="#mafe9904140" y="271.763644"/>
      </g>
     </g>
     <g id="text_1">
      <!-- −10.0 -->
      <defs>
       <path d="M 10.59375 35.5 
L 73.1875 35.5 
L 73.1875 27.203125 
L 10.59375 27.203125 
z
" id="DejaVuSans-2212"/>
       <path d="M 12.40625 8.296875 
L 28.515625 8.296875 
L 28.515625 63.921875 
L 10.984375 60.40625 
L 10.984375 69.390625 
L 28.421875 72.90625 
L 38.28125 72.90625 
L 38.28125 8.296875 
L 54.390625 8.296875 
L 54.390625 0 
L 12.40625 0 
z
" id="DejaVuSans-31"/>
       <path d="M 31.78125 66.40625 
Q 24.171875 66.40625 20.328125 58.90625 
Q 16.5 51.421875 16.5 36.375 
Q 16.5 21.390625 20.328125 13.890625 
Q 24.171875 6.390625 31.78125 6.390625 
Q 39.453125 6.390625 43.28125 13.890625 
Q 47.125 21.390625 47.125 36.375 
Q 47.125 51.421875 43.28125 58.90625 
Q 39.453125 66.40625 31.78125 66.40625 
z
M 31.78125 74.21875 
Q 44.046875 74.21875 50.515625 64.515625 
Q 56.984375 54.828125 56.984375 36.375 
Q 56.984375 17.96875 50.515625 8.265625 
Q 44.046875 -1.421875 31.78125 -1.421875 
Q 19.53125 -1.421875 13.0625 8.265625 
Q 6.59375 17.96875 6.59375 36.375 
Q 6.59375 54.828125 13.0625 64.515625 
Q 19.53125 74.21875 31.78125 74.21875 
z
" id="DejaVuSans-30"/>
       <path d="M 10.6875 12.40625 
L 21 12.40625 
L 21 0 
L 10.6875 0 
z
" id="DejaVuSans-2e"/>
      </defs>
      <g transform="translate(44.045265 286.362081)scale(0.1 -0.1)">
       <use xlink:href="#DejaVuSans-2212"/>
       <use x="83.789062" xlink:href="#DejaVuSans-31"/>
       <use x="147.412109" xlink:href="#DejaVuSans-30"/>
       <use x="211.035156" xlink:href="#DejaVuSans-2e"/>
       <use x="242.822266" xlink:href="#DejaVuSans-30"/>
      </g>
     </g>
    </g>
    <g id="xtick_2">
     <g id="line2d_2">
      <g>
       <use style="stroke:#000000;stroke-width:0.8;" x="103.565941" xlink:href="#mafe9904140" y="271.763644"/>
      </g>
     </g>
     <g id="text_2">
      <!-- −7.5 -->
      <defs>
       <path d="M 8.203125 72.90625 
L 55.078125 72.90625 
L 55.078125 68.703125 
L 28.609375 0 
L 18.3125 0 
L 43.21875 64.59375 
L 8.203125 64.59375 
z
" id="DejaVuSans-37"/>
       <path d="M 10.796875 72.90625 
L 49.515625 72.90625 
L 49.515625 64.59375 
L 19.828125 64.59375 
L 19.828125 46.734375 
Q 21.96875 47.46875 24.109375 47.828125 
Q 26.265625 48.1875 28.421875 48.1875 
Q 40.625 48.1875 47.75 41.5 
Q 54.890625 34.8125 54.890625 23.390625 
Q 54.890625 11.625 47.5625 5.09375 
Q 40.234375 -1.421875 26.90625 -1.421875 
Q 22.3125 -1.421875 17.546875 -0.640625 
Q 12.796875 0.140625 7.71875 1.703125 
L 7.71875 11.625 
Q 12.109375 9.234375 16.796875 8.0625 
Q 21.484375 6.890625 26.703125 6.890625 
Q 35.15625 6.890625 40.078125 11.328125 
Q 45.015625 15.765625 45.015625 23.390625 
Q 45.015625 31 40.078125 35.4375 
Q 35.15625 39.890625 26.703125 39.890625 
Q 22.75 39.890625 18.8125 39.015625 
Q 14.890625 38.140625 10.796875 36.28125 
z
" id="DejaVuSans-35"/>
      </defs>
      <g transform="translate(91.424534 286.362081)scale(0.1 -0.1)">
       <use xlink:href="#DejaVuSans-2212"/>
       <use x="83.789062" xlink:href="#DejaVuSans-37"/>
       <use x="147.412109" xlink:href="#DejaVuSans-2e"/>
       <use x="179.199219" xlink:href="#DejaVuSans-35"/>
      </g>
     </g>
    </g>
    <g id="xtick_3">
     <g id="line2d_3">
      <g>
       <use style="stroke:#000000;stroke-width:0.8;" x="147.76396" xlink:href="#mafe9904140" y="271.763644"/>
      </g>
     </g>
     <g id="text_3">
      <!-- −5.0 -->
      <g transform="translate(135.622554 286.362081)scale(0.1 -0.1)">
       <use xlink:href="#DejaVuSans-2212"/>
       <use x="83.789062" xlink:href="#DejaVuSans-35"/>
       <use x="147.412109" xlink:href="#DejaVuSans-2e"/>
       <use x="179.199219" xlink:href="#DejaVuSans-30"/>
      </g>
     </g>
    </g>
    <g id="xtick_4">
     <g id="line2d_4">
      <g>
       <use style="stroke:#000000;stroke-width:0.8;" x="191.96198" xlink:href="#mafe9904140" y="271.763644"/>
      </g>
     </g>
     <g id="text_4">
      <!-- −2.5 -->
      <defs>
       <path d="M 19.1875 8.296875 
L 53.609375 8.296875 
L 53.609375 0 
L 7.328125 0 
L 7.328125 8.296875 
Q 12.9375 14.109375 22.625 23.890625 
Q 32.328125 33.6875 34.8125 36.53125 
Q 39.546875 41.84375 41.421875 45.53125 
Q 43.3125 49.21875 43.3125 52.78125 
Q 43.3125 58.59375 39.234375 62.25 
Q 35.15625 65.921875 28.609375 65.921875 
Q 23.96875 65.921875 18.8125 64.3125 
Q 13.671875 62.703125 7.8125 59.421875 
L 7.8125 69.390625 
Q 13.765625 71.78125 18.9375 73 
Q 24.125 74.21875 28.421875 74.21875 
Q 39.75 74.21875 46.484375 68.546875 
Q 53.21875 62.890625 53.21875 53.421875 
Q 53.21875 48.921875 51.53125 44.890625 
Q 49.859375 40.875 45.40625 35.40625 
Q 44.1875 33.984375 37.640625 27.21875 
Q 31.109375 20.453125 19.1875 8.296875 
z
" id="DejaVuSans-32"/>
      </defs>
      <g transform="translate(179.820574 286.362081)scale(0.1 -0.1)">
       <use xlink:href="#DejaVuSans-2212"/>
       <use x="83.789062" xlink:href="#DejaVuSans-32"/>
       <use x="147.412109" xlink:href="#DejaVuSans-2e"/>
       <use x="179.199219" xlink:href="#DejaVuSans-35"/>
      </g>
     </g>
    </g>
    <g id="xtick_5">
     <g id="line2d_5">
      <g>
       <use style="stroke:#000000;stroke-width:0.8;" x="236.16" xlink:href="#mafe9904140" y="271.763644"/>
      </g>
     </g>
     <g id="text_5">
      <!-- 0.0 -->
      <g transform="translate(228.208438 286.362081)scale(0.1 -0.1)">
       <use xlink:href="#DejaVuSans-30"/>
       <use x="63.623047" xlink:href="#DejaVuSans-2e"/>
       <use x="95.410156" xlink:href="#DejaVuSans-30"/>
      </g>
     </g>
    </g>
    <g id="xtick_6">
     <g id="line2d_6">
      <g>
       <use style="stroke:#000000;stroke-width:0.8;" x="280.35802" xlink:href="#mafe9904140" y="271.763644"/>
      </g>
     </g>
     <g id="text_6">
      <!-- 2.5 -->
      <g transform="translate(272.406457 286.362081)scale(0.1 -0.1)">
       <use xlink:href="#DejaVuSans-32"/>
       <use x="63.623047" xlink:href="#DejaVuSans-2e"/>
       <use x="95.410156" xlink:href="#DejaVuSans-35"/>
      </g>
     </g>
    </g>
    <g id="xtick_7">
     <g id="line2d_7">
      <g>
       <use style="stroke:#000000;stroke-width:0.8;" x="324.55604" xlink:href="#mafe9904140" y="271.763644"/>
      </g>
     </g>
     <g id="text_7">
      <!-- 5.0 -->
      <g transform="translate(316.604477 286.362081)scale(0.1 -0.1)">
       <use xlink:href="#DejaVuSans-35"/>
       <use x="63.623047" xlink:href="#DejaVuSans-2e"/>
       <use x="95.410156" xlink:href="#DejaVuSans-30"/>
      </g>
     </g>
    </g>
    <g id="xtick_8">
     <g id="line2d_8">
      <g>
       <use style="stroke:#000000;stroke-width:0.8;" x="368.754059" xlink:href="#mafe9904140" y="271.763644"/>
      </g>
     </g>
     <g id="text_8">
      <!-- 7.5 -->
      <g transform="translate(360.802497 286.362081)scale(0.1 -0.1)">
       <use xlink:href="#DejaVuSans-37"/>
       <use x="63.623047" xlink:href="#DejaVuSans-2e"/>
       <use x="95.410156" xlink:href="#DejaVuSans-35"/>
      </g>
     </g>
    </g>
    <g id="xtick_9">
     <g id="line2d_9">
      <g>
       <use style="stroke:#000000;stroke-width:0.8;" x="412.952079" xlink:href="#mafe9904140" y="271.763644"/>
      </g>
     </g>
     <g id="text_9">
      <!-- 10.0 -->
      <g transform="translate(401.819267 286.362081)scale(0.1 -0.1)">
       <use xlink:href="#DejaVuSans-31"/>
       <use x="63.623047" xlink:href="#DejaVuSans-30"/>
       <use x="127.246094" xlink:href="#DejaVuSans-2e"/>
       <use x="159.033203" xlink:href="#DejaVuSans-30"/>
      </g>
     </g>
    </g>
    <g id="text_10">
     <!-- $x/l_{ee}$ -->
     <defs>
      <path d="M 60.015625 54.6875 
L 34.90625 27.875 
L 50.296875 0 
L 39.984375 0 
L 28.421875 21.6875 
L 8.296875 0 
L -2.59375 0 
L 24.3125 28.8125 
L 10.015625 54.6875 
L 20.3125 54.6875 
L 30.8125 34.90625 
L 49.125 54.6875 
z
" id="DejaVuSans-Oblique-78"/>
      <path d="M 25.390625 72.90625 
L 33.6875 72.90625 
L 8.296875 -9.28125 
L 0 -9.28125 
z
" id="DejaVuSans-2f"/>
      <path d="M 18.3125 75.984375 
L 27.296875 75.984375 
L 12.5 0 
L 3.515625 0 
z
" id="DejaVuSans-Oblique-6c"/>
      <path d="M 48.09375 32.234375 
Q 48.25 33.015625 48.3125 33.84375 
Q 48.390625 34.671875 48.390625 35.5 
Q 48.390625 41.453125 44.890625 44.921875 
Q 41.40625 48.390625 35.40625 48.390625 
Q 28.71875 48.390625 23.578125 44.15625 
Q 18.453125 39.9375 15.828125 32.171875 
z
M 55.90625 25.203125 
L 14.109375 25.203125 
Q 13.8125 23.34375 13.71875 22.265625 
Q 13.625 21.1875 13.625 20.40625 
Q 13.625 13.625 17.796875 9.90625 
Q 21.96875 6.203125 29.59375 6.203125 
Q 35.453125 6.203125 40.671875 7.515625 
Q 45.90625 8.84375 50.390625 11.375 
L 48.6875 2.484375 
Q 43.84375 0.53125 38.6875 -0.4375 
Q 33.546875 -1.421875 28.21875 -1.421875 
Q 16.84375 -1.421875 10.71875 4.015625 
Q 4.59375 9.46875 4.59375 19.484375 
Q 4.59375 28.03125 7.640625 35.375 
Q 10.6875 42.71875 16.609375 48.484375 
Q 20.40625 52.09375 25.65625 54.046875 
Q 30.90625 56 36.8125 56 
Q 46.09375 56 51.578125 50.4375 
Q 57.078125 44.875 57.078125 35.5 
Q 57.078125 33.25 56.78125 30.6875 
Q 56.5 28.125 55.90625 25.203125 
z
" id="DejaVuSans-Oblique-65"/>
     </defs>
     <g transform="translate(225.66 300.040206)scale(0.1 -0.1)">
      <use transform="translate(0 0.015625)" xlink:href="#DejaVuSans-Oblique-78"/>
      <use transform="translate(59.179688 0.015625)" xlink:href="#DejaVuSans-2f"/>
      <use transform="translate(92.871094 0.015625)" xlink:href="#DejaVuSans-Oblique-6c"/>
      <use transform="translate(120.654297 -16.390625)scale(0.7)" xlink:href="#DejaVuSans-Oblique-65"/>
      <use transform="translate(163.720703 -16.390625)scale(0.7)" xlink:href="#DejaVuSans-Oblique-65"/>
     </g>
    </g>
   </g>
   <g id="matplotlib.axis_2">
    <g id="ytick_1">
     <g id="line2d_10">
      <defs>
       <path d="M 0 0 
L -3.5 0 
" id="m024c89342f" style="stroke:#000000;stroke-width:0.8;"/>
      </defs>
      <g>
       <use style="stroke:#000000;stroke-width:0.8;" x="57.6" xlink:href="#m024c89342f" y="254.084436"/>
      </g>
     </g>
     <g id="text_11">
      <!-- 0 -->
      <g transform="translate(44.2375 257.883654)scale(0.1 -0.1)">
       <use xlink:href="#DejaVuSans-30"/>
      </g>
     </g>
    </g>
    <g id="ytick_2">
     <g id="line2d_11">
      <g>
       <use style="stroke:#000000;stroke-width:0.8;" x="57.6" xlink:href="#m024c89342f" y="218.72602"/>
      </g>
     </g>
     <g id="text_12">
      <!-- 2 -->
      <g transform="translate(44.2375 222.525239)scale(0.1 -0.1)">
       <use xlink:href="#DejaVuSans-32"/>
      </g>
     </g>
    </g>
    <g id="ytick_3">
     <g id="line2d_12">
      <g>
       <use style="stroke:#000000;stroke-width:0.8;" x="57.6" xlink:href="#m024c89342f" y="183.367604"/>
      </g>
     </g>
     <g id="text_13">
      <!-- 4 -->
      <defs>
       <path d="M 37.796875 64.3125 
L 12.890625 25.390625 
L 37.796875 25.390625 
z
M 35.203125 72.90625 
L 47.609375 72.90625 
L 47.609375 25.390625 
L 58.015625 25.390625 
L 58.015625 17.1875 
L 47.609375 17.1875 
L 47.609375 0 
L 37.796875 0 
L 37.796875 17.1875 
L 4.890625 17.1875 
L 4.890625 26.703125 
z
" id="DejaVuSans-34"/>
      </defs>
      <g transform="translate(44.2375 187.166823)scale(0.1 -0.1)">
       <use xlink:href="#DejaVuSans-34"/>
      </g>
     </g>
    </g>
    <g id="ytick_4">
     <g id="line2d_13">
      <g>
       <use style="stroke:#000000;stroke-width:0.8;" x="57.6" xlink:href="#m024c89342f" y="148.009188"/>
      </g>
     </g>
     <g id="text_14">
      <!-- 6 -->
      <defs>
       <path d="M 33.015625 40.375 
Q 26.375 40.375 22.484375 35.828125 
Q 18.609375 31.296875 18.609375 23.390625 
Q 18.609375 15.53125 22.484375 10.953125 
Q 26.375 6.390625 33.015625 6.390625 
Q 39.65625 6.390625 43.53125 10.953125 
Q 47.40625 15.53125 47.40625 23.390625 
Q 47.40625 31.296875 43.53125 35.828125 
Q 39.65625 40.375 33.015625 40.375 
z
M 52.59375 71.296875 
L 52.59375 62.3125 
Q 48.875 64.0625 45.09375 64.984375 
Q 41.3125 65.921875 37.59375 65.921875 
Q 27.828125 65.921875 22.671875 59.328125 
Q 17.53125 52.734375 16.796875 39.40625 
Q 19.671875 43.65625 24.015625 45.921875 
Q 28.375 48.1875 33.59375 48.1875 
Q 44.578125 48.1875 50.953125 41.515625 
Q 57.328125 34.859375 57.328125 23.390625 
Q 57.328125 12.15625 50.6875 5.359375 
Q 44.046875 -1.421875 33.015625 -1.421875 
Q 20.359375 -1.421875 13.671875 8.265625 
Q 6.984375 17.96875 6.984375 36.375 
Q 6.984375 53.65625 15.1875 63.9375 
Q 23.390625 74.21875 37.203125 74.21875 
Q 40.921875 74.21875 44.703125 73.484375 
Q 48.484375 72.75 52.59375 71.296875 
z
" id="DejaVuSans-36"/>
      </defs>
      <g transform="translate(44.2375 151.808407)scale(0.1 -0.1)">
       <use xlink:href="#DejaVuSans-36"/>
      </g>
     </g>
    </g>
    <g id="ytick_5">
     <g id="line2d_14">
      <g>
       <use style="stroke:#000000;stroke-width:0.8;" x="57.6" xlink:href="#m024c89342f" y="112.650772"/>
      </g>
     </g>
     <g id="text_15">
      <!-- 8 -->
      <defs>
       <path d="M 31.78125 34.625 
Q 24.75 34.625 20.71875 30.859375 
Q 16.703125 27.09375 16.703125 20.515625 
Q 16.703125 13.921875 20.71875 10.15625 
Q 24.75 6.390625 31.78125 6.390625 
Q 38.8125 6.390625 42.859375 10.171875 
Q 46.921875 13.96875 46.921875 20.515625 
Q 46.921875 27.09375 42.890625 30.859375 
Q 38.875 34.625 31.78125 34.625 
z
M 21.921875 38.8125 
Q 15.578125 40.375 12.03125 44.71875 
Q 8.5 49.078125 8.5 55.328125 
Q 8.5 64.0625 14.71875 69.140625 
Q 20.953125 74.21875 31.78125 74.21875 
Q 42.671875 74.21875 48.875 69.140625 
Q 55.078125 64.0625 55.078125 55.328125 
Q 55.078125 49.078125 51.53125 44.71875 
Q 48 40.375 41.703125 38.8125 
Q 48.828125 37.15625 52.796875 32.3125 
Q 56.78125 27.484375 56.78125 20.515625 
Q 56.78125 9.90625 50.3125 4.234375 
Q 43.84375 -1.421875 31.78125 -1.421875 
Q 19.734375 -1.421875 13.25 4.234375 
Q 6.78125 9.90625 6.78125 20.515625 
Q 6.78125 27.484375 10.78125 32.3125 
Q 14.796875 37.15625 21.921875 38.8125 
z
M 18.3125 54.390625 
Q 18.3125 48.734375 21.84375 45.5625 
Q 25.390625 42.390625 31.78125 42.390625 
Q 38.140625 42.390625 41.71875 45.5625 
Q 45.3125 48.734375 45.3125 54.390625 
Q 45.3125 60.0625 41.71875 63.234375 
Q 38.140625 66.40625 31.78125 66.40625 
Q 25.390625 66.40625 21.84375 63.234375 
Q 18.3125 60.0625 18.3125 54.390625 
z
" id="DejaVuSans-38"/>
      </defs>
      <g transform="translate(44.2375 116.449991)scale(0.1 -0.1)">
       <use xlink:href="#DejaVuSans-38"/>
      </g>
     </g>
    </g>
    <g id="ytick_6">
     <g id="line2d_15">
      <g>
       <use style="stroke:#000000;stroke-width:0.8;" x="57.6" xlink:href="#m024c89342f" y="77.292356"/>
      </g>
     </g>
     <g id="text_16">
      <!-- 10 -->
      <g transform="translate(37.875 81.091575)scale(0.1 -0.1)">
       <use xlink:href="#DejaVuSans-31"/>
       <use x="63.623047" xlink:href="#DejaVuSans-30"/>
      </g>
     </g>
    </g>
    <g id="text_17">
     <!-- $y/l_{ee}$ -->
     <defs>
      <path d="M 24.8125 -5.078125 
Q 18.5625 -15.578125 14.625 -18.1875 
Q 10.6875 -20.796875 4.59375 -20.796875 
L -2.484375 -20.796875 
L -0.984375 -13.28125 
L 4.203125 -13.28125 
Q 7.953125 -13.28125 10.59375 -11.234375 
Q 13.234375 -9.1875 16.5 -3.21875 
L 19.28125 2 
L 7.171875 54.6875 
L 16.703125 54.6875 
L 25.78125 12.796875 
L 50.875 54.6875 
L 60.296875 54.6875 
z
" id="DejaVuSans-Oblique-79"/>
     </defs>
     <g transform="translate(31.775 185.028)rotate(-90)scale(0.1 -0.1)">
      <use transform="translate(0 0.015625)" xlink:href="#DejaVuSans-Oblique-79"/>
      <use transform="translate(59.179688 0.015625)" xlink:href="#DejaVuSans-2f"/>
      <use transform="translate(92.871094 0.015625)" xlink:href="#DejaVuSans-Oblique-6c"/>
      <use transform="translate(120.654297 -16.390625)scale(0.7)" xlink:href="#DejaVuSans-Oblique-65"/>
      <use transform="translate(163.720703 -16.390625)scale(0.7)" xlink:href="#DejaVuSans-Oblique-65"/>
     </g>
    </g>
   </g>
   <g id="LineCollection_1">
    <path clip-path="url(#pcb12df3e6e)" d="M 259.360447 198.925307 
L 259.72992 199.334899 
L 260.515411 199.809267 
L 261.51552 200.110669 
L 262.58688 200.231027 
L 264.030537 200.162851 
L 265.80096 199.80834 
L 267.58656 199.171116 
L 269.112953 198.394931 
L 270.695768 197.334178 
L 271.926934 196.273426 
L 273.046166 195.035881 
L 273.881348 193.798337 
L 274.443328 192.560792 
L 274.680947 191.50004 
L 274.653937 190.616079 
L 274.37184 189.837152 
L 274.003421 189.378535 
L 273.30048 188.933398 
L 272.58624 188.730999 
L 271.51488 188.676833 
L 270.0864 188.894029 
L 268.551297 189.378535 
L 266.87232 190.131699 
L 264.831638 191.323248 
L 263.109204 192.560792 
L 261.51552 193.940634 
L 260.337567 195.212673 
L 259.596698 196.273426 
L 259.197164 197.157386 
L 259.067555 197.864554 
L 259.181501 198.571723 
L 259.360447 198.925307 
L 259.360447 198.925307 
" style="fill:none;stroke:#ff0000;stroke-width:1.5;"/>
   </g>
   <g id="LineCollection_2">
    <path clip-path="url(#pcb12df3e6e)" d="M 250.073015 200.87002 
L 250.352463 201.577188 
L 250.822746 202.284356 
L 251.686062 203.168317 
L 252.94464 204.105759 
L 254.421005 204.936238 
L 256.15872 205.673042 
L 257.94432 206.216316 
L 260.08704 206.623943 
L 262.22976 206.791895 
L 264.37248 206.739824 
L 266.5152 206.480742 
L 269.01504 205.930447 
L 271.538154 205.11303 
L 274.023696 204.052277 
L 276.51456 202.729405 
L 278.869981 201.223604 
L 281.217003 199.455683 
L 283.420707 197.51097 
L 285.480689 195.389465 
L 287.378604 193.091168 
L 288.974887 190.792871 
L 290.291119 188.494574 
L 291.263107 186.373069 
L 291.993717 184.251564 
L 292.433095 182.306851 
L 292.614413 180.538931 
L 292.563276 178.947802 
L 292.301753 177.533465 
L 291.850299 176.295921 
L 291.223812 175.235168 
L 290.440387 174.351208 
L 289.37088 173.558627 
L 288.29952 173.052349 
L 286.87104 172.672423 
L 285.44256 172.535214 
L 283.65696 172.620072 
L 281.845701 172.936871 
L 279.72864 173.547049 
L 277.273597 174.528 
L 275.08608 175.614766 
L 272.22912 177.301622 
L 269.01504 179.52164 
L 265.702583 182.130059 
L 262.466187 184.958733 
L 258.947882 188.317782 
L 255.207117 192.207208 
L 252.73298 195.035881 
L 251.260096 196.980594 
L 250.435148 198.394931 
L 250.062757 199.455683 
L 249.990603 200.339644 
L 250.073015 200.87002 
L 250.073015 200.87002 
" style="fill:none;stroke:#ff2f00;stroke-width:1.5;"/>
   </g>
   <g id="LineCollection_3">
    <path clip-path="url(#pcb12df3e6e)" d="M 245.74335 201.577188 
L 246.15936 202.390129 
L 246.909227 203.345109 
L 248.30208 204.691928 
L 250.191668 206.173782 
L 252.2304 207.493657 
L 254.455551 208.648871 
L 256.51584 209.476128 
L 258.65856 210.104406 
L 260.80128 210.513512 
L 262.944 210.719858 
L 265.44384 210.723939 
L 267.94368 210.492558 
L 270.44352 210.042785 
L 273.30048 209.277565 
L 276.15744 208.257576 
L 279.0144 206.990243 
L 281.890793 205.466614 
L 284.753205 203.698693 
L 287.58528 201.688117 
L 290.351132 199.455683 
L 293.055452 196.980594 
L 295.612884 194.328713 
L 297.94176 191.589087 
L 299.991135 188.848158 
L 301.87008 185.962434 
L 303.419048 183.190812 
L 304.745854 180.362139 
L 305.7984 177.57248 
L 306.518474 175.058376 
L 306.996749 172.583287 
L 307.211715 170.28499 
L 307.181055 168.163485 
L 306.919688 166.218772 
L 306.498346 164.627644 
L 305.919915 163.213307 
L 305.204312 161.975762 
L 304.36992 160.911222 
L 303.232881 159.854257 
L 302.191138 159.147089 
L 300.703168 158.439921 
L 299.37024 158.031335 
L 297.58464 157.741683 
L 295.79904 157.688422 
L 293.65632 157.879618 
L 291.5136 158.30635 
L 289.01376 159.061036 
L 286.51392 160.060429 
L 283.65696 161.472241 
L 280.697279 163.213307 
L 277.818343 165.15802 
L 274.72896 167.503376 
L 271.15776 170.531504 
L 267.22944 174.228826 
L 262.944 178.661801 
L 257.94432 184.27887 
L 250.295336 193.444752 
L 246.950115 197.687762 
L 246.058916 199.102099 
L 245.653209 200.162851 
L 245.594606 200.87002 
L 245.74335 201.577188 
L 245.74335 201.577188 
" style="fill:none;stroke:#ff6400;stroke-width:1.5;"/>
   </g>
   <g id="LineCollection_4">
    <path clip-path="url(#pcb12df3e6e)" d="M 242.569819 201.046812 
L 242.763783 201.75398 
L 243.322686 202.637941 
L 244.578993 204.052277 
L 246.583958 205.99699 
L 249.063968 208.118495 
L 251.237635 209.709624 
L 253.30176 210.976804 
L 255.44448 212.041692 
L 257.669489 212.891881 
L 259.72992 213.465776 
L 261.87264 213.861561 
L 264.37248 214.088669 
L 266.87232 214.08703 
L 269.37216 213.878193 
L 272.22912 213.408571 
L 275.08608 212.712325 
L 278.30016 211.677596 
L 281.51424 210.391825 
L 284.804183 208.825663 
L 288.01378 207.057743 
L 291.395536 204.936238 
L 294.72768 202.57781 
L 298.000331 199.986059 
L 301.203637 197.157386 
L 304.26496 194.151921 
L 307.178469 190.969663 
L 309.795531 187.787406 
L 312.266957 184.428356 
L 314.460066 181.069307 
L 316.387462 177.710257 
L 318.054656 174.351208 
L 319.393405 171.16895 
L 320.491387 167.986693 
L 321.295898 164.981228 
L 321.831202 162.152554 
L 322.11737 159.500673 
L 322.17252 157.025584 
L 322.011525 154.727287 
L 321.648051 152.605782 
L 321.093464 150.661069 
L 320.356638 148.893149 
L 319.444846 147.30202 
L 318.514302 146.064475 
L 317.307442 144.826931 
L 316.15488 143.915574 
L 314.7264 143.054615 
L 313.10283 142.351842 
L 311.51232 141.885455 
L 309.72672 141.577586 
L 307.584 141.458308 
L 305.44128 141.571327 
L 302.94144 141.956667 
L 300.4416 142.583496 
L 297.94176 143.427878 
L 295.057764 144.650139 
L 292.22784 146.089463 
L 288.994032 148.009188 
L 285.79968 150.17953 
L 282.22848 152.917266 
L 278.473155 156.141624 
L 275.106837 159.323881 
L 271.997711 162.506139 
L 268.619755 166.218772 
L 264.438929 171.16895 
L 260.80128 175.766633 
L 254.864938 183.721188 
L 245.088 196.818856 
L 242.900679 199.809267 
L 242.58816 200.667806 
L 242.569819 201.046812 
L 242.569819 201.046812 
" style="fill:none;stroke:#ff9400;stroke-width:1.5;"/>
   </g>
   <g id="LineCollection_5">
    <path clip-path="url(#pcb12df3e6e)" d="M 240.433293 201.577188 
L 240.941232 202.284356 
L 242.884181 204.405861 
L 246.270371 207.941703 
L 248.714278 210.24 
L 250.896855 212.007921 
L 252.974739 213.422257 
L 255.218447 214.659802 
L 257.25572 215.543762 
L 259.40943 216.250931 
L 261.743653 216.781307 
L 264.01536 217.0885 
L 266.5152 217.213154 
L 269.37216 217.113348 
L 272.243771 216.781307 
L 275.4432 216.166842 
L 278.65728 215.314687 
L 282.188876 214.129426 
L 285.687681 212.715089 
L 289.37088 210.980557 
L 293.051558 209.002455 
L 296.8704 206.6932 
L 300.53193 204.229069 
L 304.36992 201.372776 
L 308.005291 198.394931 
L 311.547429 195.212673 
L 315.08352 191.728735 
L 318.24417 188.317782 
L 321.381798 184.605149 
L 324.231784 180.892515 
L 326.930471 177.003089 
L 329.350349 173.113663 
L 331.51104 169.203508 
L 333.304204 165.511604 
L 334.864124 161.79897 
L 336.1536 158.151511 
L 337.135862 154.727287 
L 337.871458 151.368238 
L 338.343491 148.18598 
L 338.568151 145.180515 
L 338.559564 142.351842 
L 338.329761 139.69996 
L 337.888337 137.224871 
L 337.243235 134.926574 
L 336.480044 132.981861 
L 335.569078 131.213941 
L 334.522368 129.622812 
L 333.29664 128.148484 
L 331.863929 126.794139 
L 330.436333 125.733386 
L 328.65408 124.71592 
L 326.866758 123.965465 
L 325.080023 123.435089 
L 322.94016 123.041742 
L 320.79744 122.873593 
L 318.2976 122.924625 
L 315.79776 123.210592 
L 313.29792 123.707492 
L 310.44096 124.510962 
L 307.560399 125.556594 
L 304.72704 126.800896 
L 301.51296 128.458796 
L 298.081258 130.506772 
L 294.934287 132.628277 
L 291.628446 135.103366 
L 288.407745 137.755248 
L 285.061482 140.760713 
L 281.27349 144.473347 
L 277.94304 148.009743 
L 273.938369 152.605782 
L 269.950373 157.55596 
L 266.102288 162.682931 
L 261.757667 168.870653 
L 257.082561 175.942337 
L 244.506877 195.212673 
L 241.575773 198.925307 
L 240.44544 200.42667 
L 240.287158 200.87002 
L 240.352978 201.400396 
L 240.433293 201.577188 
L 240.433293 201.577188 
" style="fill:none;stroke:#ffc900;stroke-width:1.5;"/>
   </g>
   <g id="LineCollection_6">
    <path clip-path="url(#pcb12df3e6e)" d="M 238.642145 201.400396 
L 239.46848 202.284356 
L 241.592815 204.582653 
L 248.486932 212.361505 
L 250.457755 214.129426 
L 252.58752 215.733884 
L 254.73024 217.046424 
L 256.87296 218.085605 
L 259.080773 218.902812 
L 261.1584 219.466313 
L 263.65824 219.911791 
L 266.25939 220.140356 
L 269.01504 220.156488 
L 271.872 219.957383 
L 275.08608 219.502831 
L 278.30016 218.831463 
L 281.920942 217.842059 
L 285.79968 216.532805 
L 289.728 214.963655 
L 293.850796 213.068673 
L 297.94176 210.94637 
L 302.2272 208.469072 
L 306.51264 205.731311 
L 310.678453 202.814733 
L 314.847764 199.632475 
L 319.01184 196.17557 
L 322.94016 192.637737 
L 326.65064 189.02495 
L 330.504386 184.958733 
L 334.051054 180.892515 
L 337.452527 176.649505 
L 340.56913 172.406495 
L 343.41611 168.163485 
L 346.00378 163.920475 
L 348.338377 159.677465 
L 350.4384 155.399913 
L 352.255297 151.191446 
L 353.77161 147.125228 
L 354.995193 143.235802 
L 355.986767 139.346376 
L 356.703684 135.633743 
L 357.161996 132.097901 
L 357.375614 128.738851 
L 357.356955 125.556594 
L 357.116568 122.551129 
L 356.663297 119.722455 
L 356.004305 117.070574 
L 355.214846 114.772277 
L 354.267807 112.650772 
L 353.171921 110.706059 
L 351.86688 108.849378 
L 350.397395 107.170218 
L 348.865605 105.755881 
L 347.208054 104.518337 
L 345.425867 103.457584 
L 343.517191 102.573624 
L 341.473479 101.866455 
L 339.245971 101.336079 
L 336.86784 101.007008 
L 334.368 100.893477 
L 331.86816 100.991607 
L 329.0112 101.33753 
L 326.15424 101.911445 
L 323.125674 102.750416 
L 320.0832 103.815369 
L 316.751657 105.225505 
L 313.535996 106.816634 
L 310.08384 108.767845 
L 306.492697 111.059644 
L 302.772021 113.711525 
L 299.176591 116.540198 
L 295.677249 119.545663 
L 291.87072 123.100375 
L 287.886161 127.147723 
L 283.874631 131.567525 
L 280.009027 136.164119 
L 276.002627 141.291089 
L 272.139987 146.594851 
L 268.051826 152.605782 
L 264.327994 158.439921 
L 259.86899 165.865188 
L 255.444348 173.64404 
L 245.547268 191.323248 
L 242.832401 195.566257 
L 240.990987 198.041347 
L 239.01696 200.241204 
L 238.537945 200.87002 
L 238.542896 201.223604 
L 238.642145 201.400396 
L 238.642145 201.400396 
" style="fill:none;stroke:#fcf500;stroke-width:1.5;"/>
   </g>
   <g id="LineCollection_7">
    <path clip-path="url(#pcb12df3e6e)" d="M 335.334534 77.292356 
L 331.86816 78.665266 
L 328.29696 80.316909 
L 324.653444 82.242535 
L 320.793458 84.540832 
L 316.804325 87.192713 
L 312.9408 90.026727 
L 308.771933 93.380436 
L 304.936059 96.739485 
L 301.012186 100.452119 
L 297.025394 104.518337 
L 293.1527 108.761347 
L 289.236072 113.357941 
L 285.294357 118.308119 
L 281.343895 123.611881 
L 277.398756 129.269228 
L 273.582466 135.103366 
L 269.463351 141.821465 
L 265.795791 148.18598 
L 261.392193 156.318416 
L 257.069505 164.804436 
L 252.016352 175.235168 
L 244.792175 190.085703 
L 242.138438 194.859089 
L 240.44544 197.44636 
L 239.303111 198.925307 
L 238.137094 200.162851 
L 237.249659 201.046812 
L 237.58848 201.440862 
L 238.863631 202.637941 
L 240.80256 204.959607 
L 242.868233 207.764911 
L 245.44512 211.22604 
L 247.94496 214.183466 
L 250.08768 216.310982 
L 252.2304 218.06666 
L 254.37312 219.485454 
L 256.51584 220.609506 
L 258.65856 221.479102 
L 260.80128 222.129532 
L 263.30112 222.650755 
L 266.019563 222.96903 
L 268.65792 223.06754 
L 271.551807 222.96903 
L 274.72896 222.64574 
L 278.30016 222.047805 
L 281.988158 221.201109 
L 285.79968 220.107912 
L 290.08512 218.638252 
L 294.37056 216.933699 
L 299.016042 214.836594 
L 303.65568 212.493882 
L 308.334382 209.886416 
L 313.253074 206.88095 
L 318.032011 203.698693 
L 322.94016 200.152563 
L 327.680641 196.450218 
L 332.300987 192.560792 
L 336.86784 188.423111 
L 341.15328 184.250707 
L 345.378087 179.831762 
L 349.461106 175.235168 
L 353.29536 170.582332 
L 356.86656 165.905148 
L 360.08064 161.357036 
L 363.135584 156.672 
L 365.988332 151.898614 
L 368.583787 147.125228 
L 370.923969 142.351842 
L 372.93696 137.751525 
L 374.72256 133.112698 
L 376.176068 128.738851 
L 377.409545 124.31905 
L 378.360556 120.07604 
L 379.044625 116.009822 
L 379.475537 112.120396 
L 379.665704 108.407762 
L 379.625897 104.871921 
L 379.36512 101.506472 
L 378.893364 98.330614 
L 378.215595 95.325149 
L 377.337424 92.496475 
L 376.342353 90.021386 
L 375.190047 87.723089 
L 373.886923 85.601584 
L 372.438755 83.656871 
L 370.79424 81.831845 
L 369.00864 80.200373 
L 367.22304 78.854704 
L 365.265735 77.645941 
L 364.60576 77.292356 
L 364.60576 77.292356 
" style="fill:none;stroke:#d1ff00;stroke-width:1.5;"/>
   </g>
   <g id="LineCollection_8">
    <path clip-path="url(#pcb12df3e6e)" d="M 307.11507 77.292356 
L 302.804774 82.065743 
L 298.474211 87.192713 
L 294.275774 92.496475 
L 289.945808 98.330614 
L 285.761684 104.341545 
L 281.490889 110.882851 
L 277.167159 117.954535 
L 273.015603 125.20301 
L 269.301029 132.097901 
L 265.267233 140.053545 
L 261.388731 148.18598 
L 257.257113 157.379168 
L 253.41155 166.395564 
L 242.330529 192.560792 
L 240.368514 196.273426 
L 239.011473 198.394931 
L 238.050136 199.632475 
L 236.87424 200.742033 
L 236.505279 201.046812 
L 236.51712 201.135677 
L 237.376769 201.75398 
L 238.65984 203.187641 
L 239.7312 204.656761 
L 241.067367 206.704158 
L 244.538203 212.184713 
L 246.566266 215.013386 
L 248.49198 217.311683 
L 250.242889 219.079604 
L 252.128009 220.670733 
L 253.90344 221.908277 
L 255.8016 222.990534 
L 257.94432 223.954763 
L 260.256577 224.73695 
L 262.58688 225.299186 
L 265.08672 225.687793 
L 267.94368 225.90336 
L 271.15776 225.900612 
L 274.37184 225.678149 
L 277.94304 225.210907 
L 281.87136 224.465569 
L 286.1568 223.410834 
L 290.586737 222.085069 
L 295.146915 220.493941 
L 300.08448 218.53192 
L 305.20358 216.250931 
L 310.44096 213.668099 
L 315.488077 210.947168 
L 320.923355 207.764911 
L 326.496641 204.229069 
L 331.922593 200.516436 
L 337.22496 196.623637 
L 342.398751 192.560792 
L 347.665896 188.14099 
L 352.793545 183.544396 
L 357.781493 178.77101 
L 362.626256 173.820832 
L 367.22304 168.804989 
L 371.50848 163.812747 
L 375.543248 158.793505 
L 379.523238 153.489743 
L 383.224493 148.18598 
L 386.766623 142.705426 
L 389.928223 137.401663 
L 392.832524 132.097901 
L 395.481814 126.794139 
L 397.800447 121.667168 
L 399.878738 116.540198 
L 401.65332 111.59002 
L 403.193866 106.639842 
L 404.449797 101.866455 
L 405.436502 97.269861 
L 406.192553 92.673267 
L 406.687637 88.253465 
L 406.932487 84.010455 
L 406.941187 80.12103 
L 406.806383 77.292356 
L 406.806383 77.292356 
" style="fill:none;stroke:#a2ff00;stroke-width:1.5;"/>
   </g>
   <g id="LineCollection_9">
    <path clip-path="url(#pcb12df3e6e)" d="M 292.775225 77.292356 
L 288.434429 84.187248 
L 284.235116 91.258931 
L 279.980665 98.86099 
L 275.790991 106.816634 
L 271.59232 115.302653 
L 267.806549 123.435089 
L 263.930996 132.274693 
L 259.996856 141.821465 
L 256.024466 152.075406 
L 251.82362 163.566891 
L 241.848998 191.323248 
L 240.234916 195.035881 
L 238.77084 197.864554 
L 237.481341 199.809267 
L 236.653175 200.693228 
L 236.483434 200.87002 
L 236.51712 201.326264 
L 236.87424 201.618901 
L 237.485713 202.284356 
L 239.227607 204.936238 
L 241.883965 209.886416 
L 244.562452 214.659802 
L 246.304059 217.311683 
L 247.94496 219.448761 
L 249.73056 221.402624 
L 251.51616 223.019764 
L 253.351407 224.383366 
L 255.42396 225.620911 
L 257.289351 226.504871 
L 259.3728 227.278833 
L 261.87264 227.958911 
L 264.624015 228.449584 
L 267.22944 228.709763 
L 270.44352 228.802354 
L 274.01472 228.659488 
L 277.94304 228.253478 
L 282.199604 227.565624 
L 286.349489 226.681663 
L 290.79936 225.528486 
L 295.79904 224.005813 
L 301.15584 222.132171 
L 306.51264 220.02676 
L 311.952443 217.665267 
L 317.94048 214.816189 
L 324.01152 211.668443 
L 329.72544 208.471208 
L 335.902513 204.759446 
L 342.211382 200.693228 
L 348.366659 196.450218 
L 354.387323 192.030416 
L 360.281749 187.433822 
L 366.261425 182.483644 
L 372.096131 177.356673 
L 377.785549 172.052911 
L 383.326517 166.572356 
L 388.550663 161.091802 
L 393.787801 155.257663 
L 398.6496 149.499142 
L 403.067318 143.94297 
L 407.430275 138.108832 
L 411.641985 132.097901 
L 414.72 127.430504 
L 414.72 127.430504 
" style="fill:none;stroke:#6cff00;stroke-width:1.5;"/>
   </g>
   <g id="LineCollection_10">
    <path clip-path="url(#pcb12df3e6e)" d="M 281.870907 77.292356 
L 277.512497 86.485545 
L 273.330058 95.855525 
L 269.608508 104.695129 
L 265.679786 114.595485 
L 261.857069 124.849426 
L 258.023799 135.810535 
L 254.479265 146.594851 
L 250.750767 158.616713 
L 245.117129 177.710257 
L 241.538014 189.378535 
L 239.579141 194.859089 
L 238.26273 197.864554 
L 237.40409 199.455683 
L 236.418959 201.046812 
L 236.51712 201.465124 
L 236.87424 201.873456 
L 237.292507 202.461149 
L 238.108257 203.875485 
L 239.546169 206.88095 
L 243.598857 215.720554 
L 245.088 218.403849 
L 246.809362 221.024317 
L 248.30208 222.924256 
L 250.08768 224.808152 
L 251.87328 226.341596 
L 253.65888 227.588901 
L 255.8016 228.779366 
L 257.94432 229.699593 
L 260.44416 230.499616 
L 263.166131 231.101465 
L 265.80096 231.469771 
L 269.01504 231.686254 
L 272.58624 231.682749 
L 276.51456 231.436855 
L 280.835912 230.924673 
L 285.44256 230.14497 
L 290.44224 229.065284 
L 295.79904 227.673204 
L 301.51296 225.949383 
L 307.584 223.872244 
L 313.66992 221.554693 
L 320.0832 218.872124 
L 326.615568 215.897347 
L 333.436279 212.538297 
L 340.440226 208.825663 
L 347.295412 204.936238 
L 354.36672 200.658555 
L 360.923642 196.450218 
L 367.947728 191.676832 
L 374.830731 186.726653 
L 381.579833 181.599683 
L 388.29312 176.218286 
L 394.484833 170.992158 
L 401.04897 165.15802 
L 407.460853 159.147089 
L 413.719147 152.959366 
L 414.72 151.938536 
L 414.72 151.938536 
" style="fill:none;stroke:#3dff00;stroke-width:1.5;"/>
   </g>
   <g id="LineCollection_11">
    <path clip-path="url(#pcb12df3e6e)" d="M 272.667409 77.292356 
L 268.877459 87.723089 
L 265.064259 98.86099 
L 261.258318 110.706059 
L 257.794821 122.197545 
L 254.296724 134.57299 
L 250.741514 148.009188 
L 246.8736 163.584248 
L 240.631905 189.02495 
L 239.028853 194.505505 
L 237.685617 198.218139 
L 236.645511 200.339644 
L 236.435771 200.693228 
L 236.39104 201.223604 
L 236.51712 201.608974 
L 236.841899 202.107564 
L 238.941313 207.057743 
L 242.151327 215.720554 
L 243.560008 218.902812 
L 244.946246 221.554693 
L 246.38276 223.85299 
L 247.846458 225.797703 
L 249.37344 227.477009 
L 251.15904 229.07493 
L 252.999054 230.394297 
L 254.846909 231.45505 
L 256.87296 232.376047 
L 259.335824 233.22297 
L 261.51552 233.774214 
L 264.466413 234.283723 
L 267.58656 234.586856 
L 271.15776 234.697096 
L 275.08608 234.585017 
L 279.37152 234.23707 
L 284.01408 233.641276 
L 289.37088 232.717028 
L 295.0848 231.492423 
L 301.15584 229.955735 
L 307.584 228.092422 
L 314.36928 225.885315 
L 321.15456 223.449067 
L 328.29696 220.651366 
L 335.79648 217.468312 
L 343.487542 213.952634 
L 351.427861 210.063208 
L 359.543495 205.820198 
L 367.58016 201.353147 
L 375.07968 196.948336 
L 382.93632 192.084018 
L 390.43584 187.19868 
L 398.1028 181.953267 
L 405.972954 176.295921 
L 413.930041 170.28499 
L 414.72 169.671731 
L 414.72 169.671731 
" style="fill:none;stroke:#08ff00;stroke-width:1.5;"/>
   </g>
   <g id="LineCollection_12">
    <path clip-path="url(#pcb12df3e6e)" d="M 264.473044 77.292356 
L 260.949541 90.198178 
L 257.554441 103.457584 
L 254.170546 117.60095 
L 250.976393 131.921109 
L 247.814374 147.125228 
L 244.305204 165.15802 
L 239.708199 188.848158 
L 238.352385 194.682297 
L 237.210554 198.571723 
L 236.597523 200.162851 
L 236.380617 200.693228 
L 236.344832 201.223604 
L 236.598009 201.930772 
L 237.156935 203.345109 
L 238.473738 207.588119 
L 241.290208 217.134891 
L 242.658655 220.847525 
L 244.01664 223.855588 
L 245.392116 226.328079 
L 246.715204 228.272792 
L 248.183756 230.040713 
L 249.73056 231.5551 
L 251.51616 232.958373 
L 253.357561 234.106931 
L 255.44448 235.127981 
L 257.5872 235.934544 
L 260.08704 236.635963 
L 262.944 237.192676 
L 266.15808 237.577841 
L 269.72928 237.773859 
L 273.6576 237.768953 
L 278.30016 237.528059 
L 283.29984 237.040273 
L 289.01376 236.24635 
L 295.104776 235.167683 
L 301.762777 233.753347 
L 308.65536 232.060993 
L 315.954371 230.040713 
L 323.6544 227.675729 
L 331.51104 225.032325 
L 339.7248 222.034442 
L 348.29568 218.66346 
L 356.961737 215.013386 
L 366.018456 210.947168 
L 375.282975 206.527366 
L 384.385065 201.930772 
L 393.677698 196.980594 
L 402.93504 191.787581 
L 411.86304 186.530222 
L 414.72 184.795799 
L 414.72 184.795799 
" style="fill:none;stroke:#00ff27;stroke-width:1.5;"/>
   </g>
   <g id="LineCollection_13">
    <path clip-path="url(#pcb12df3e6e)" d="M 256.924152 77.292356 
L 253.814621 93.203644 
L 250.826542 109.645307 
L 248.026462 126.263762 
L 245.269306 143.94297 
L 242.250615 164.804436 
L 238.525459 190.439287 
L 237.416554 196.450218 
L 236.639043 199.632475 
L 236.28948 201.046812 
L 236.41624 201.75398 
L 237.397895 205.466614 
L 241.077989 221.377901 
L 242.209331 224.73695 
L 243.321634 227.388832 
L 244.518796 229.687129 
L 245.80224 231.668845 
L 247.23072 233.432522 
L 248.6592 234.848039 
L 250.160644 236.051644 
L 251.87328 237.155011 
L 253.890389 238.173149 
L 255.8016 238.925758 
L 258.30144 239.672318 
L 261.267775 240.294653 
L 264.37248 240.717962 
L 267.94368 240.986612 
L 272.22912 241.07583 
L 276.87168 240.952406 
L 282.22848 240.589019 
L 288.365139 239.941069 
L 295.0848 239.000149 
L 302.2272 237.776164 
L 310.08384 236.198368 
L 318.437657 234.283723 
L 326.86848 232.126092 
L 335.79648 229.613494 
L 345.0816 226.768578 
L 354.72384 223.579131 
L 364.42661 220.140356 
L 374.72256 216.250105 
L 385.07904 212.093986 
L 395.284139 207.764911 
L 406.14912 202.904038 
L 414.72 198.888877 
L 414.72 198.888877 
" style="fill:none;stroke:#00ff5c;stroke-width:1.5;"/>
   </g>
   <g id="LineCollection_14">
    <path clip-path="url(#pcb12df3e6e)" d="M 249.793138 77.292356 
L 247.216313 97.800238 
L 244.756968 119.192079 
L 242.46165 141.114297 
L 239.959249 167.279525 
L 237.621679 191.323248 
L 236.74659 198.041347 
L 236.270326 201.400396 
L 239.826165 223.499406 
L 240.765221 227.21204 
L 241.691215 230.040713 
L 242.730698 232.515802 
L 243.769886 234.460515 
L 244.963761 236.228436 
L 246.164203 237.642772 
L 247.58784 238.97729 
L 249.131672 240.117861 
L 250.973432 241.178614 
L 252.972593 242.062574 
L 255.44448 242.879524 
L 258.30144 243.552697 
L 261.51552 244.063894 
L 265.44384 244.437805 
L 269.72928 244.619965 
L 274.72896 244.616287 
L 280.8 244.379793 
L 287.58528 243.88667 
L 295.0848 243.11958 
L 303.29856 242.058945 
L 312.22656 240.681643 
L 321.8688 238.961737 
L 331.924446 236.935604 
L 342.22464 234.634722 
L 353.064812 231.985426 
L 364.408331 228.97996 
L 375.79392 225.737823 
L 387.801131 222.085069 
L 400.07808 218.11038 
L 412.22016 213.94755 
L 414.72 213.062553 
L 414.72 213.062553 
" style="fill:none;stroke:#00ff8c;stroke-width:1.5;"/>
   </g>
   <g id="LineCollection_15">
    <path clip-path="url(#pcb12df3e6e)" d="M 242.916048 77.292356 
L 241.081569 107.523802 
L 239.408975 138.816 
L 237.493049 179.301386 
L 236.580419 196.273426 
L 236.279996 202.107564 
L 236.74987 208.118495 
L 237.791389 221.731485 
L 238.455751 227.388832 
L 239.144006 231.45505 
L 239.903647 234.637307 
L 240.71882 237.112396 
L 241.57907 239.057109 
L 242.58816 240.775003 
L 243.65952 242.158883 
L 244.803438 243.300119 
L 246.180468 244.360871 
L 247.675295 245.244832 
L 249.37344 246.016806 
L 251.51616 246.74738 
L 254.016635 247.366337 
L 257.23008 247.916447 
L 261.1584 248.342471 
L 265.80096 248.617695 
L 271.51488 248.733914 
L 278.65728 248.647512 
L 287.22816 248.308095 
L 296.8704 247.698632 
L 307.584 246.795995 
L 319.110736 245.598416 
L 331.15392 244.124211 
L 344.01024 242.321348 
L 357.5808 240.183084 
L 371.50848 237.757051 
L 385.79328 235.041587 
L 400.651199 231.985426 
L 414.72 228.882548 
L 414.72 228.882548 
" style="fill:none;stroke:#00ffc1;stroke-width:1.5;"/>
   </g>
   <g id="LineCollection_16">
    <path clip-path="url(#pcb12df3e6e)" d="M 236.16 77.292356 
L 236.16 254.43802 
L 414.72 254.43802 
L 414.72 254.43802 
" style="fill:none;stroke:#00fff6;stroke-width:1.5;"/>
    <path clip-path="url(#pcb12df3e6e)" d="M 414.72 271.763644 
L 57.6 271.763644 
L 57.6 271.763644 
" style="fill:none;stroke:#00fff6;stroke-width:1.5;"/>
   </g>
   <g id="LineCollection_17">
    <path clip-path="url(#pcb12df3e6e)" d="M 229.403952 77.292356 
L 231.238431 107.523802 
L 232.911025 138.816 
L 234.826951 179.301386 
L 235.739581 196.273426 
L 236.040004 202.107564 
L 235.57013 208.118495 
L 234.528611 221.731485 
L 233.864249 227.388832 
L 233.175994 231.45505 
L 232.416353 234.637307 
L 231.60118 237.112396 
L 230.74093 239.057109 
L 229.73184 240.775003 
L 228.66048 242.158883 
L 227.516562 243.300119 
L 226.139532 244.360871 
L 224.644705 245.244832 
L 222.94656 246.016806 
L 220.80384 246.74738 
L 218.303365 247.366337 
L 215.08992 247.916447 
L 211.1616 248.342471 
L 206.51904 248.617695 
L 200.80512 248.733914 
L 193.66272 248.647512 
L 185.09184 248.308095 
L 175.4496 247.698632 
L 164.736 246.795995 
L 153.209264 245.598416 
L 141.16608 244.124211 
L 128.30976 242.321348 
L 114.7392 240.183084 
L 100.81152 237.757051 
L 86.52672 235.041587 
L 71.668801 231.985426 
L 57.6 228.882548 
L 57.6 228.882548 
" style="fill:none;stroke:#00d9ff;stroke-width:1.5;"/>
   </g>
   <g id="LineCollection_18">
    <path clip-path="url(#pcb12df3e6e)" d="M 222.526862 77.292356 
L 225.103687 97.800238 
L 227.563032 119.192079 
L 229.85835 141.114297 
L 232.360751 167.279525 
L 234.698321 191.323248 
L 235.57341 198.041347 
L 236.049674 201.400396 
L 232.493835 223.499406 
L 231.554779 227.21204 
L 230.628785 230.040713 
L 229.589302 232.515802 
L 228.550114 234.460515 
L 227.356239 236.228436 
L 226.155797 237.642772 
L 224.73216 238.97729 
L 223.188328 240.117861 
L 221.346568 241.178614 
L 219.347407 242.062574 
L 216.87552 242.879524 
L 214.01856 243.552697 
L 210.80448 244.063894 
L 206.87616 244.437805 
L 202.59072 244.619965 
L 197.59104 244.616287 
L 191.52 244.379793 
L 184.73472 243.88667 
L 177.2352 243.11958 
L 169.02144 242.058945 
L 160.09344 240.681643 
L 150.4512 238.961737 
L 140.395554 236.935604 
L 130.09536 234.634722 
L 119.255188 231.985426 
L 107.911669 228.97996 
L 96.52608 225.737823 
L 84.518869 222.085069 
L 72.24192 218.11038 
L 60.09984 213.94755 
L 57.6 213.062553 
L 57.6 213.062553 
" style="fill:none;stroke:#00a4ff;stroke-width:1.5;"/>
   </g>
   <g id="LineCollection_19">
    <path clip-path="url(#pcb12df3e6e)" d="M 215.395848 77.292356 
L 218.505379 93.203644 
L 221.493458 109.645307 
L 224.293538 126.263762 
L 227.050694 143.94297 
L 230.069385 164.804436 
L 233.794541 190.439287 
L 234.903446 196.450218 
L 235.680957 199.632475 
L 236.03052 201.046812 
L 235.90376 201.75398 
L 234.922105 205.466614 
L 231.242011 221.377901 
L 230.110669 224.73695 
L 228.998366 227.388832 
L 227.801204 229.687129 
L 226.51776 231.668845 
L 225.08928 233.432522 
L 223.6608 234.848039 
L 222.159356 236.051644 
L 220.44672 237.155011 
L 218.429611 238.173149 
L 216.5184 238.925758 
L 214.01856 239.672318 
L 211.052225 240.294653 
L 207.94752 240.717962 
L 204.37632 240.986612 
L 200.09088 241.07583 
L 195.44832 240.952406 
L 190.09152 240.589019 
L 183.954861 239.941069 
L 177.2352 239.000149 
L 170.0928 237.776164 
L 162.23616 236.198368 
L 153.882343 234.283723 
L 145.45152 232.126092 
L 136.52352 229.613494 
L 127.2384 226.768578 
L 117.59616 223.579131 
L 107.89339 220.140356 
L 97.59744 216.250105 
L 87.24096 212.093986 
L 77.035861 207.764911 
L 66.17088 202.904038 
L 57.6 198.888877 
L 57.6 198.888877 
" style="fill:none;stroke:#0074ff;stroke-width:1.5;"/>
   </g>
   <g id="LineCollection_20">
    <path clip-path="url(#pcb12df3e6e)" d="M 207.846956 77.292356 
L 211.370459 90.198178 
L 214.765559 103.457584 
L 218.149454 117.60095 
L 221.343607 131.921109 
L 224.505626 147.125228 
L 228.014796 165.15802 
L 232.611801 188.848158 
L 233.967615 194.682297 
L 235.109446 198.571723 
L 235.722477 200.162851 
L 235.939383 200.693228 
L 235.975168 201.223604 
L 235.721991 201.930772 
L 235.163065 203.345109 
L 233.846262 207.588119 
L 231.029792 217.134891 
L 229.661345 220.847525 
L 228.30336 223.855588 
L 226.927884 226.328079 
L 225.604796 228.272792 
L 224.136244 230.040713 
L 222.58944 231.5551 
L 220.80384 232.958373 
L 218.962439 234.106931 
L 216.87552 235.127981 
L 214.7328 235.934544 
L 212.23296 236.635963 
L 209.376 237.192676 
L 206.16192 237.577841 
L 202.59072 237.773859 
L 198.6624 237.768953 
L 194.01984 237.528059 
L 189.02016 237.040273 
L 183.30624 236.24635 
L 177.215224 235.167683 
L 170.557223 233.753347 
L 163.66464 232.060993 
L 156.365629 230.040713 
L 148.6656 227.675729 
L 140.80896 225.032325 
L 132.5952 222.034442 
L 124.02432 218.66346 
L 115.358263 215.013386 
L 106.301544 210.947168 
L 97.037025 206.527366 
L 87.934935 201.930772 
L 78.642302 196.980594 
L 69.38496 191.787581 
L 60.45696 186.530222 
L 57.6 184.795799 
L 57.6 184.795799 
" style="fill:none;stroke:#003fff;stroke-width:1.5;"/>
   </g>
   <g id="LineCollection_21">
    <path clip-path="url(#pcb12df3e6e)" d="M 199.652591 77.292356 
L 203.442541 87.723089 
L 207.255741 98.86099 
L 211.061682 110.706059 
L 214.525179 122.197545 
L 218.023276 134.57299 
L 221.578486 148.009188 
L 225.4464 163.584248 
L 231.688095 189.02495 
L 233.291147 194.505505 
L 234.634383 198.218139 
L 235.674489 200.339644 
L 235.884229 200.693228 
L 235.92896 201.223604 
L 235.80288 201.608974 
L 235.478101 202.107564 
L 233.378687 207.057743 
L 230.168673 215.720554 
L 228.759992 218.902812 
L 227.373754 221.554693 
L 225.93724 223.85299 
L 224.473542 225.797703 
L 222.94656 227.477009 
L 221.16096 229.07493 
L 219.320946 230.394297 
L 217.473091 231.45505 
L 215.44704 232.376047 
L 212.984176 233.22297 
L 210.80448 233.774214 
L 207.853587 234.283723 
L 204.73344 234.586856 
L 201.16224 234.697096 
L 197.23392 234.585017 
L 192.94848 234.23707 
L 188.30592 233.641276 
L 182.94912 232.717028 
L 177.2352 231.492423 
L 171.16416 229.955735 
L 164.736 228.092422 
L 157.95072 225.885315 
L 151.16544 223.449067 
L 144.02304 220.651366 
L 136.52352 217.468312 
L 128.832458 213.952634 
L 120.892139 210.063208 
L 112.776505 205.820198 
L 104.73984 201.353147 
L 97.24032 196.948336 
L 89.38368 192.084018 
L 81.88416 187.19868 
L 74.2172 181.953267 
L 66.347046 176.295921 
L 58.389959 170.28499 
L 57.6 169.671731 
L 57.6 169.671731 
" style="fill:none;stroke:#0010ff;stroke-width:1.5;"/>
   </g>
   <g id="LineCollection_22">
    <path clip-path="url(#pcb12df3e6e)" d="M 190.449093 77.292356 
L 194.807503 86.485545 
L 198.989942 95.855525 
L 202.711492 104.695129 
L 206.640214 114.595485 
L 210.462931 124.849426 
L 214.296201 135.810535 
L 217.840735 146.594851 
L 221.569233 158.616713 
L 227.202871 177.710257 
L 230.781986 189.378535 
L 232.740859 194.859089 
L 234.05727 197.864554 
L 234.91591 199.455683 
L 235.901041 201.046812 
L 235.80288 201.465124 
L 235.44576 201.873456 
L 235.027493 202.461149 
L 234.211743 203.875485 
L 232.773831 206.88095 
L 228.721143 215.720554 
L 227.232 218.403849 
L 225.510638 221.024317 
L 224.01792 222.924256 
L 222.23232 224.808152 
L 220.44672 226.341596 
L 218.66112 227.588901 
L 216.5184 228.779366 
L 214.37568 229.699593 
L 211.87584 230.499616 
L 209.153869 231.101465 
L 206.51904 231.469771 
L 203.30496 231.686254 
L 199.73376 231.682749 
L 195.80544 231.436855 
L 191.484088 230.924673 
L 186.87744 230.14497 
L 181.87776 229.065284 
L 176.52096 227.673204 
L 170.80704 225.949383 
L 164.736 223.872244 
L 158.65008 221.554693 
L 152.2368 218.872124 
L 145.704432 215.897347 
L 138.883721 212.538297 
L 131.879774 208.825663 
L 125.024588 204.936238 
L 117.95328 200.658555 
L 111.396358 196.450218 
L 104.372272 191.676832 
L 97.489269 186.726653 
L 90.740167 181.599683 
L 84.02688 176.218286 
L 77.835167 170.992158 
L 71.27103 165.15802 
L 64.859147 159.147089 
L 58.600853 152.959366 
L 57.6 151.938536 
L 57.6 151.938536 
" style="fill:none;stroke:#2500ff;stroke-width:1.5;"/>
   </g>
   <g id="LineCollection_23">
    <path clip-path="url(#pcb12df3e6e)" d="M 179.544775 77.292356 
L 183.885571 84.187248 
L 188.084884 91.258931 
L 192.339335 98.86099 
L 196.529009 106.816634 
L 200.72768 115.302653 
L 204.513451 123.435089 
L 208.389004 132.274693 
L 212.323144 141.821465 
L 216.295534 152.075406 
L 220.49638 163.566891 
L 230.471002 191.323248 
L 232.085084 195.035881 
L 233.54916 197.864554 
L 234.838659 199.809267 
L 235.666825 200.693228 
L 235.836566 200.87002 
L 235.80288 201.326264 
L 235.44576 201.618901 
L 234.834287 202.284356 
L 233.092393 204.936238 
L 230.436035 209.886416 
L 227.757548 214.659802 
L 226.015941 217.311683 
L 224.37504 219.448761 
L 222.58944 221.402624 
L 220.80384 223.019764 
L 218.968593 224.383366 
L 216.89604 225.620911 
L 215.030649 226.504871 
L 212.9472 227.278833 
L 210.44736 227.958911 
L 207.695985 228.449584 
L 205.09056 228.709763 
L 201.87648 228.802354 
L 198.30528 228.659488 
L 194.37696 228.253478 
L 190.120396 227.565624 
L 185.970511 226.681663 
L 181.52064 225.528486 
L 176.52096 224.005813 
L 171.16416 222.132171 
L 165.80736 220.02676 
L 160.367557 217.665267 
L 154.37952 214.816189 
L 148.30848 211.668443 
L 142.59456 208.471208 
L 136.417487 204.759446 
L 130.108618 200.693228 
L 123.953341 196.450218 
L 117.932677 192.030416 
L 112.038251 187.433822 
L 106.058575 182.483644 
L 100.223869 177.356673 
L 94.534451 172.052911 
L 88.993483 166.572356 
L 83.769337 161.091802 
L 78.532199 155.257663 
L 73.6704 149.499142 
L 69.252682 143.94297 
L 64.889725 138.108832 
L 60.678015 132.097901 
L 57.6 127.430504 
L 57.6 127.430504 
" style="fill:none;stroke:#5400ff;stroke-width:1.5;"/>
   </g>
   <g id="LineCollection_24">
    <path clip-path="url(#pcb12df3e6e)" d="M 165.20493 77.292356 
L 169.515226 82.065743 
L 173.845789 87.192713 
L 178.044226 92.496475 
L 182.374192 98.330614 
L 186.558316 104.341545 
L 190.829111 110.882851 
L 195.152841 117.954535 
L 199.304397 125.20301 
L 203.018971 132.097901 
L 207.052767 140.053545 
L 210.931269 148.18598 
L 215.062887 157.379168 
L 218.90845 166.395564 
L 229.989471 192.560792 
L 231.951486 196.273426 
L 233.308527 198.394931 
L 234.269864 199.632475 
L 235.44576 200.742033 
L 235.814721 201.046812 
L 235.80288 201.135677 
L 234.943231 201.75398 
L 233.66016 203.187641 
L 232.5888 204.656761 
L 231.252633 206.704158 
L 227.781797 212.184713 
L 225.753734 215.013386 
L 223.82802 217.311683 
L 222.077111 219.079604 
L 220.191991 220.670733 
L 218.41656 221.908277 
L 216.5184 222.990534 
L 214.37568 223.954763 
L 212.063423 224.73695 
L 209.73312 225.299186 
L 207.23328 225.687793 
L 204.37632 225.90336 
L 201.16224 225.900612 
L 197.94816 225.678149 
L 194.37696 225.210907 
L 190.44864 224.465569 
L 186.1632 223.410834 
L 181.733263 222.085069 
L 177.173085 220.493941 
L 172.23552 218.53192 
L 167.11642 216.250931 
L 161.87904 213.668099 
L 156.831923 210.947168 
L 151.396645 207.764911 
L 145.823359 204.229069 
L 140.397407 200.516436 
L 135.09504 196.623637 
L 129.921249 192.560792 
L 124.654104 188.14099 
L 119.526455 183.544396 
L 114.538507 178.77101 
L 109.693744 173.820832 
L 105.09696 168.804989 
L 100.81152 163.812747 
L 96.776752 158.793505 
L 92.796762 153.489743 
L 89.095507 148.18598 
L 85.553377 142.705426 
L 82.391777 137.401663 
L 79.487476 132.097901 
L 76.838186 126.794139 
L 74.519553 121.667168 
L 72.441262 116.540198 
L 70.66668 111.59002 
L 69.126134 106.639842 
L 67.870203 101.866455 
L 66.883498 97.269861 
L 66.127447 92.673267 
L 65.632363 88.253465 
L 65.387513 84.010455 
L 65.378813 80.12103 
L 65.513617 77.292356 
L 65.513617 77.292356 
" style="fill:none;stroke:#8a00ff;stroke-width:1.5;"/>
   </g>
   <g id="LineCollection_25">
    <path clip-path="url(#pcb12df3e6e)" d="M 136.985466 77.292356 
L 140.45184 78.665266 
L 144.02304 80.316909 
L 147.666556 82.242535 
L 151.526542 84.540832 
L 155.515675 87.192713 
L 159.3792 90.026727 
L 163.548067 93.380436 
L 167.383941 96.739485 
L 171.307814 100.452119 
L 175.294606 104.518337 
L 179.1673 108.761347 
L 183.083928 113.357941 
L 187.025643 118.308119 
L 190.976105 123.611881 
L 194.921244 129.269228 
L 198.737534 135.103366 
L 202.856649 141.821465 
L 206.524209 148.18598 
L 210.927807 156.318416 
L 215.250495 164.804436 
L 220.303648 175.235168 
L 227.527825 190.085703 
L 230.181562 194.859089 
L 231.87456 197.44636 
L 233.016889 198.925307 
L 234.182906 200.162851 
L 235.070341 201.046812 
L 234.73152 201.440862 
L 233.456369 202.637941 
L 231.51744 204.959607 
L 229.451767 207.764911 
L 226.87488 211.22604 
L 224.37504 214.183466 
L 222.23232 216.310982 
L 220.0896 218.06666 
L 217.94688 219.485454 
L 215.80416 220.609506 
L 213.66144 221.479102 
L 211.51872 222.129532 
L 209.01888 222.650755 
L 206.300437 222.96903 
L 203.66208 223.06754 
L 200.768193 222.96903 
L 197.59104 222.64574 
L 194.01984 222.047805 
L 190.331842 221.201109 
L 186.52032 220.107912 
L 182.23488 218.638252 
L 177.94944 216.933699 
L 173.303958 214.836594 
L 168.66432 212.493882 
L 163.985618 209.886416 
L 159.066926 206.88095 
L 154.287989 203.698693 
L 149.37984 200.152563 
L 144.639359 196.450218 
L 140.019013 192.560792 
L 135.45216 188.423111 
L 131.16672 184.250707 
L 126.941913 179.831762 
L 122.858894 175.235168 
L 119.02464 170.582332 
L 115.45344 165.905148 
L 112.23936 161.357036 
L 109.184416 156.672 
L 106.331668 151.898614 
L 103.736213 147.125228 
L 101.396031 142.351842 
L 99.38304 137.751525 
L 97.59744 133.112698 
L 96.143932 128.738851 
L 94.910455 124.31905 
L 93.959444 120.07604 
L 93.275375 116.009822 
L 92.844463 112.120396 
L 92.654296 108.407762 
L 92.694103 104.871921 
L 92.95488 101.506472 
L 93.426636 98.330614 
L 94.104405 95.325149 
L 94.982576 92.496475 
L 95.977647 90.021386 
L 97.129953 87.723089 
L 98.433077 85.601584 
L 99.881245 83.656871 
L 101.52576 81.831845 
L 103.31136 80.200373 
L 105.09696 78.854704 
L 107.054265 77.645941 
L 107.71424 77.292356 
L 107.71424 77.292356 
" style="fill:none;stroke:#b900ff;stroke-width:1.5;"/>
   </g>
   <g id="LineCollection_26">
    <path clip-path="url(#pcb12df3e6e)" d="M 115.094285 131.390733 
L 114.929069 128.031683 
L 114.999045 124.849426 
L 115.294818 121.84396 
L 115.768973 119.192079 
L 116.422909 116.71699 
L 117.246987 114.418693 
L 118.233683 112.297188 
L 119.38176 110.341707 
L 120.664759 108.584554 
L 122.097605 106.993426 
L 123.66952 105.579089 
L 125.4528 104.295632 
L 127.2384 103.280166 
L 129.38112 102.349713 
L 131.52384 101.680164 
L 133.66656 101.232062 
L 136.1664 100.951579 
L 138.66624 100.900892 
L 141.16608 101.055608 
L 144.02304 101.460398 
L 146.88 102.088443 
L 150.09408 103.042256 
L 153.30816 104.241572 
L 156.691203 105.755881 
L 159.767645 107.34701 
L 163.378481 109.468515 
L 166.87872 111.780297 
L 170.708077 114.595485 
L 174.203311 117.424158 
L 177.812608 120.606416 
L 181.328787 123.965465 
L 185.098014 127.854891 
L 189.21116 132.451485 
L 192.94848 136.954282 
L 197.243026 142.528634 
L 201.411861 148.362772 
L 205.09056 153.863982 
L 209.509371 160.91501 
L 213.881248 168.340277 
L 218.66112 176.868004 
L 225.520837 189.201743 
L 228.196647 193.621545 
L 230.636532 197.157386 
L 232.559542 199.455683 
L 233.782055 200.87002 
L 233.777104 201.223604 
L 233.373658 201.75398 
L 229.822825 205.643406 
L 226.208319 209.886416 
L 224.374249 211.831129 
L 222.072516 213.952634 
L 220.0896 215.486432 
L 217.94688 216.847495 
L 215.80416 217.930058 
L 213.66144 218.765277 
L 211.302883 219.433188 
L 209.01888 219.862425 
L 206.51904 220.11633 
L 203.66208 220.166527 
L 200.80512 219.993317 
L 197.59104 219.564507 
L 194.320601 218.902812 
L 190.80576 217.964788 
L 187.203689 216.781307 
L 183.30624 215.266448 
L 179.199242 213.422257 
L 175.030636 211.300752 
L 170.682948 208.825663 
L 166.472781 206.173782 
L 162.127797 203.168317 
L 157.91899 199.986059 
L 153.832346 196.62701 
L 149.675795 192.914376 
L 145.66936 189.02495 
L 141.815614 184.958733 
L 138.268946 180.892515 
L 134.867473 176.649505 
L 131.75087 172.406495 
L 128.90389 168.163485 
L 126.31622 163.920475 
L 123.981623 159.677465 
L 121.8816 155.399913 
L 120.064703 151.191446 
L 118.54839 147.125228 
L 117.324807 143.235802 
L 116.333233 139.346376 
L 115.616316 135.633743 
L 115.158004 132.097901 
L 115.094285 131.390733 
L 115.094285 131.390733 
" style="fill:none;stroke:#ee00ff;stroke-width:1.5;"/>
   </g>
   <g id="LineCollection_27">
    <path clip-path="url(#pcb12df3e6e)" d="M 134.017453 148.539564 
L 133.766357 145.534099 
L 133.746691 142.705426 
L 133.946046 140.053545 
L 134.353601 137.578455 
L 134.96107 135.280158 
L 135.761158 133.158653 
L 136.649005 131.390733 
L 137.668511 129.799604 
L 138.967784 128.208475 
L 140.248629 126.970931 
L 141.622002 125.910178 
L 143.3088 124.896261 
L 145.0944 124.097193 
L 146.88 123.526128 
L 149.089524 123.081505 
L 151.16544 122.887265 
L 153.66528 122.902284 
L 156.16512 123.156346 
L 158.66496 123.624313 
L 161.52192 124.397468 
L 164.37888 125.405272 
L 167.578526 126.794139 
L 170.350754 128.208475 
L 173.393636 129.976396 
L 176.630261 132.097901 
L 180.010724 134.57299 
L 183.080857 137.048079 
L 186.52032 140.075381 
L 190.44864 143.864735 
L 194.535971 148.18598 
L 198.084502 152.252198 
L 201.87648 156.922631 
L 206.217712 162.682931 
L 210.562333 168.870653 
L 215.237439 175.942337 
L 227.813123 195.212673 
L 230.744227 198.925307 
L 231.87456 200.42667 
L 232.032842 200.87002 
L 231.967022 201.400396 
L 231.525704 202.107564 
L 230.08896 203.709706 
L 224.37504 209.551141 
L 221.8752 211.666608 
L 219.626645 213.245465 
L 217.58976 214.415894 
L 215.44704 215.394603 
L 213.30432 216.138213 
L 211.1616 216.670374 
L 208.66176 217.053051 
L 206.16192 217.208052 
L 203.30496 217.13898 
L 200.448 216.836462 
L 197.249671 216.250931 
L 194.37696 215.523382 
L 191.110156 214.48301 
L 187.59168 213.125902 
L 183.952394 211.477545 
L 180.212257 209.532832 
L 176.52096 207.367573 
L 172.801686 204.936238 
L 168.900181 202.107564 
L 165.09312 199.056376 
L 161.52192 195.910247 
L 158.051072 192.560792 
L 154.70827 189.02495 
L 151.512964 185.312317 
L 148.609932 181.599683 
L 145.977938 177.88705 
L 143.495693 173.997624 
L 141.28487 170.108198 
L 139.38048 166.303839 
L 137.804943 162.682931 
L 136.434403 158.970297 
L 135.368268 155.434455 
L 134.58387 152.075406 
L 134.06144 148.893149 
L 134.017453 148.539564 
L 134.017453 148.539564 
" style="fill:none;stroke:#ff00e1;stroke-width:1.5;"/>
   </g>
   <g id="LineCollection_28">
    <path clip-path="url(#pcb12df3e6e)" d="M 150.438013 161.79897 
L 150.18154 159.147089 
L 150.158123 156.672 
L 150.353578 154.373703 
L 150.755444 152.252198 
L 151.354508 150.307485 
L 152.143046 148.539564 
L 152.994391 147.125228 
L 154.117404 145.710891 
L 155.215375 144.650139 
L 156.52224 143.675577 
L 157.95072 142.877262 
L 159.742644 142.17505 
L 161.52192 141.737262 
L 163.30752 141.509676 
L 165.45024 141.471879 
L 167.59296 141.655018 
L 170.0928 142.112328 
L 172.59264 142.803404 
L 175.4496 143.851924 
L 178.358423 145.180515 
L 181.296431 146.771644 
L 184.143149 148.539564 
L 187.23456 150.701124 
L 190.80576 153.503394 
L 194.42912 156.672 
L 198.099126 160.207842 
L 201.637421 163.920475 
L 205.44768 168.240923 
L 210.09024 173.930944 
L 215.640105 181.246099 
L 229.585853 200.162851 
L 229.752568 200.87002 
L 229.688715 201.400396 
L 229.367208 202.107564 
L 228.558468 203.168317 
L 226.860224 204.936238 
L 224.123459 207.411327 
L 222.091999 209.002455 
L 219.977867 210.416792 
L 217.94688 211.540342 
L 215.655406 212.538297 
L 213.465557 213.245465 
L 211.51872 213.688068 
L 209.01888 214.020724 
L 206.51904 214.114316 
L 204.0192 213.991863 
L 201.16224 213.612268 
L 198.30528 212.998755 
L 195.44832 212.169261 
L 192.23424 210.993477 
L 189.02016 209.572777 
L 185.80608 207.913448 
L 182.561837 205.99699 
L 179.127901 203.698693 
L 175.80672 201.198208 
L 172.675514 198.571723 
L 169.635359 195.74305 
L 166.721293 192.737584 
L 163.943709 189.555327 
L 161.31801 186.196277 
L 158.980451 182.837228 
L 156.87936 179.41722 
L 155.09376 176.085529 
L 153.56645 172.760079 
L 152.346953 169.577822 
L 151.420986 166.572356 
L 150.72832 163.566891 
L 150.438013 161.79897 
L 150.438013 161.79897 
" style="fill:none;stroke:#ff00ac;stroke-width:1.5;"/>
   </g>
   <g id="LineCollection_29">
    <path clip-path="url(#pcb12df3e6e)" d="M 165.09203 169.577822 
L 165.186157 167.633109 
L 165.475957 165.865188 
L 165.946602 164.274059 
L 166.581345 162.859723 
L 167.366658 161.622178 
L 168.3072 160.539277 
L 169.37856 159.634645 
L 170.44992 158.967357 
L 171.8784 158.344213 
L 173.52635 157.909545 
L 175.09248 157.713714 
L 176.87808 157.702199 
L 179.0208 157.935368 
L 181.316465 158.439921 
L 183.66336 159.189457 
L 186.1632 160.221692 
L 189.02016 161.667686 
L 191.901025 163.390099 
L 195.0912 165.584483 
L 198.617367 168.340277 
L 201.51936 170.852168 
L 205.44768 174.582955 
L 209.802401 179.124594 
L 214.37568 184.27887 
L 222.024664 193.444752 
L 225.369885 197.687762 
L 226.261084 199.102099 
L 226.666791 200.162851 
L 226.725394 200.87002 
L 226.57665 201.577188 
L 226.16064 202.390129 
L 225.410773 203.345109 
L 224.01792 204.691928 
L 222.128332 206.173782 
L 220.0896 207.493657 
L 217.864449 208.648871 
L 215.80416 209.476128 
L 213.66144 210.104406 
L 211.51872 210.513512 
L 209.376 210.719858 
L 206.87616 210.723939 
L 204.37632 210.492558 
L 201.87648 210.042785 
L 199.01952 209.277565 
L 196.16256 208.257576 
L 193.3056 206.990243 
L 190.429207 205.466614 
L 187.566795 203.698693 
L 184.73472 201.688117 
L 181.968868 199.455683 
L 179.264548 196.980594 
L 176.707116 194.328713 
L 174.37824 191.589087 
L 172.328865 188.848158 
L 170.44992 185.962434 
L 168.900952 183.190812 
L 167.574146 180.362139 
L 166.5216 177.57248 
L 165.801526 175.058376 
L 165.323251 172.583287 
L 165.108285 170.28499 
L 165.09203 169.577822 
L 165.09203 169.577822 
" style="fill:none;stroke:#ff007c;stroke-width:1.5;"/>
   </g>
   <g id="LineCollection_30">
    <path clip-path="url(#pcb12df3e6e)" d="M 179.723192 180.892515 
L 179.73504 179.177751 
L 179.930948 177.88705 
L 180.315618 176.649505 
L 180.856573 175.588752 
L 181.528431 174.704792 
L 182.298985 173.997624 
L 183.30624 173.363807 
L 184.3776 172.929794 
L 185.80608 172.618076 
L 187.23456 172.531531 
L 189.02016 172.665727 
L 190.80576 173.016255 
L 192.94848 173.672478 
L 195.430524 174.704792 
L 197.59104 175.809756 
L 200.450147 177.533465 
L 203.482653 179.65497 
L 206.404216 181.953267 
L 209.376 184.523409 
L 213.548994 188.494574 
L 216.622863 191.676832 
L 219.441912 194.859089 
L 221.059904 196.980594 
L 221.884852 198.394931 
L 222.257243 199.455683 
L 222.329397 200.339644 
L 222.196145 201.046812 
L 221.755884 201.930772 
L 221.015217 202.814733 
L 219.96792 203.698693 
L 218.575762 204.582653 
L 216.87552 205.397209 
L 215.08992 206.022747 
L 212.9472 206.516089 
L 210.80448 206.761265 
L 208.66176 206.780642 
L 206.51904 206.589344 
L 204.270377 206.173782 
L 201.87648 205.499632 
L 199.465086 204.582653 
L 197.23392 203.520638 
L 194.73408 202.075735 
L 192.227031 200.339644 
L 189.859476 198.394931 
L 187.829075 196.450218 
L 185.923587 194.328713 
L 184.293354 192.207208 
L 182.806553 189.908911 
L 181.59522 187.610614 
L 180.722191 185.489109 
L 180.097146 183.367604 
L 179.76777 181.422891 
L 179.723192 180.892515 
L 179.723192 180.892515 
" style="fill:none;stroke:#ff0047;stroke-width:1.5;"/>
   </g>
   <g id="LineCollection_31">
    <path clip-path="url(#pcb12df3e6e)" d="M 197.938221 192.737584 
L 197.661032 191.676832 
L 197.639851 190.792871 
L 197.82384 190.085703 
L 198.151832 189.555327 
L 198.6624 189.116371 
L 199.37664 188.80992 
L 200.448 188.669175 
L 201.51936 188.752651 
L 202.94784 189.09125 
L 204.73344 189.784551 
L 206.638699 190.792871 
L 208.510809 192.030416 
L 210.09024 193.286431 
L 211.683123 194.859089 
L 212.61966 196.096634 
L 213.122836 197.157386 
L 213.252445 197.864554 
L 213.138499 198.571723 
L 212.821796 199.102099 
L 212.16217 199.632475 
L 211.1616 200.028735 
L 210.09024 200.209785 
L 208.66176 200.201481 
L 207.23328 199.983799 
L 205.433664 199.455683 
L 203.66208 198.649654 
L 202.105021 197.687762 
L 200.771621 196.62701 
L 199.563594 195.389465 
L 198.648163 194.151921 
L 198.007915 192.914376 
L 197.938221 192.737584 
L 197.938221 192.737584 
" style="fill:none;stroke:#ff0018;stroke-width:1.5;"/>
   </g>
   <g id="patch_4">
    <path d="M 57.6 271.763644 
L 57.6 77.292356 
" style="fill:none;stroke:#000000;stroke-linecap:square;stroke-linejoin:miter;stroke-width:0.8;"/>
   </g>
   <g id="patch_5">
    <path d="M 414.72 271.763644 
L 414.72 77.292356 
" style="fill:none;stroke:#000000;stroke-linecap:square;stroke-linejoin:miter;stroke-width:0.8;"/>
   </g>
   <g id="patch_6">
    <path d="M 57.6 271.763644 
L 414.72 271.763644 
" style="fill:none;stroke:#000000;stroke-linecap:square;stroke-linejoin:miter;stroke-width:0.8;"/>
   </g>
   <g id="patch_7">
    <path d="M 57.6 77.292356 
L 414.72 77.292356 
" style="fill:none;stroke:#000000;stroke-linecap:square;stroke-linejoin:miter;stroke-width:0.8;"/>
   </g>
   <g id="text_18">
    <!-- Stream function $\psi(x,y)$, $h = 3 l_{ee}$ -->
    <defs>
     <path d="M 53.515625 70.515625 
L 53.515625 60.890625 
Q 47.90625 63.578125 42.921875 64.890625 
Q 37.9375 66.21875 33.296875 66.21875 
Q 25.25 66.21875 20.875 63.09375 
Q 16.5 59.96875 16.5 54.203125 
Q 16.5 49.359375 19.40625 46.890625 
Q 22.3125 44.4375 30.421875 42.921875 
L 36.375 41.703125 
Q 47.40625 39.59375 52.65625 34.296875 
Q 57.90625 29 57.90625 20.125 
Q 57.90625 9.515625 50.796875 4.046875 
Q 43.703125 -1.421875 29.984375 -1.421875 
Q 24.8125 -1.421875 18.96875 -0.25 
Q 13.140625 0.921875 6.890625 3.21875 
L 6.890625 13.375 
Q 12.890625 10.015625 18.65625 8.296875 
Q 24.421875 6.59375 29.984375 6.59375 
Q 38.421875 6.59375 43.015625 9.90625 
Q 47.609375 13.234375 47.609375 19.390625 
Q 47.609375 24.75 44.3125 27.78125 
Q 41.015625 30.8125 33.5 32.328125 
L 27.484375 33.5 
Q 16.453125 35.6875 11.515625 40.375 
Q 6.59375 45.0625 6.59375 53.421875 
Q 6.59375 63.09375 13.40625 68.65625 
Q 20.21875 74.21875 32.171875 74.21875 
Q 37.3125 74.21875 42.625 73.28125 
Q 47.953125 72.359375 53.515625 70.515625 
z
" id="DejaVuSans-53"/>
     <path d="M 18.3125 70.21875 
L 18.3125 54.6875 
L 36.8125 54.6875 
L 36.8125 47.703125 
L 18.3125 47.703125 
L 18.3125 18.015625 
Q 18.3125 11.328125 20.140625 9.421875 
Q 21.96875 7.515625 27.59375 7.515625 
L 36.8125 7.515625 
L 36.8125 0 
L 27.59375 0 
Q 17.1875 0 13.234375 3.875 
Q 9.28125 7.765625 9.28125 18.015625 
L 9.28125 47.703125 
L 2.6875 47.703125 
L 2.6875 54.6875 
L 9.28125 54.6875 
L 9.28125 70.21875 
z
" id="DejaVuSans-74"/>
     <path d="M 41.109375 46.296875 
Q 39.59375 47.171875 37.8125 47.578125 
Q 36.03125 48 33.890625 48 
Q 26.265625 48 22.1875 43.046875 
Q 18.109375 38.09375 18.109375 28.8125 
L 18.109375 0 
L 9.078125 0 
L 9.078125 54.6875 
L 18.109375 54.6875 
L 18.109375 46.1875 
Q 20.953125 51.171875 25.484375 53.578125 
Q 30.03125 56 36.53125 56 
Q 37.453125 56 38.578125 55.875 
Q 39.703125 55.765625 41.0625 55.515625 
z
" id="DejaVuSans-72"/>
     <path d="M 56.203125 29.59375 
L 56.203125 25.203125 
L 14.890625 25.203125 
Q 15.484375 15.921875 20.484375 11.0625 
Q 25.484375 6.203125 34.421875 6.203125 
Q 39.59375 6.203125 44.453125 7.46875 
Q 49.3125 8.734375 54.109375 11.28125 
L 54.109375 2.78125 
Q 49.265625 0.734375 44.1875 -0.34375 
Q 39.109375 -1.421875 33.890625 -1.421875 
Q 20.796875 -1.421875 13.15625 6.1875 
Q 5.515625 13.8125 5.515625 26.8125 
Q 5.515625 40.234375 12.765625 48.109375 
Q 20.015625 56 32.328125 56 
Q 43.359375 56 49.78125 48.890625 
Q 56.203125 41.796875 56.203125 29.59375 
z
M 47.21875 32.234375 
Q 47.125 39.59375 43.09375 43.984375 
Q 39.0625 48.390625 32.421875 48.390625 
Q 24.90625 48.390625 20.390625 44.140625 
Q 15.875 39.890625 15.1875 32.171875 
z
" id="DejaVuSans-65"/>
     <path d="M 34.28125 27.484375 
Q 23.390625 27.484375 19.1875 25 
Q 14.984375 22.515625 14.984375 16.5 
Q 14.984375 11.71875 18.140625 8.90625 
Q 21.296875 6.109375 26.703125 6.109375 
Q 34.1875 6.109375 38.703125 11.40625 
Q 43.21875 16.703125 43.21875 25.484375 
L 43.21875 27.484375 
z
M 52.203125 31.203125 
L 52.203125 0 
L 43.21875 0 
L 43.21875 8.296875 
Q 40.140625 3.328125 35.546875 0.953125 
Q 30.953125 -1.421875 24.3125 -1.421875 
Q 15.921875 -1.421875 10.953125 3.296875 
Q 6 8.015625 6 15.921875 
Q 6 25.140625 12.171875 29.828125 
Q 18.359375 34.515625 30.609375 34.515625 
L 43.21875 34.515625 
L 43.21875 35.40625 
Q 43.21875 41.609375 39.140625 45 
Q 35.0625 48.390625 27.6875 48.390625 
Q 23 48.390625 18.546875 47.265625 
Q 14.109375 46.140625 10.015625 43.890625 
L 10.015625 52.203125 
Q 14.9375 54.109375 19.578125 55.046875 
Q 24.21875 56 28.609375 56 
Q 40.484375 56 46.34375 49.84375 
Q 52.203125 43.703125 52.203125 31.203125 
z
" id="DejaVuSans-61"/>
     <path d="M 52 44.1875 
Q 55.375 50.25 60.0625 53.125 
Q 64.75 56 71.09375 56 
Q 79.640625 56 84.28125 50.015625 
Q 88.921875 44.046875 88.921875 33.015625 
L 88.921875 0 
L 79.890625 0 
L 79.890625 32.71875 
Q 79.890625 40.578125 77.09375 44.375 
Q 74.3125 48.1875 68.609375 48.1875 
Q 61.625 48.1875 57.5625 43.546875 
Q 53.515625 38.921875 53.515625 30.90625 
L 53.515625 0 
L 44.484375 0 
L 44.484375 32.71875 
Q 44.484375 40.625 41.703125 44.40625 
Q 38.921875 48.1875 33.109375 48.1875 
Q 26.21875 48.1875 22.15625 43.53125 
Q 18.109375 38.875 18.109375 30.90625 
L 18.109375 0 
L 9.078125 0 
L 9.078125 54.6875 
L 18.109375 54.6875 
L 18.109375 46.1875 
Q 21.1875 51.21875 25.484375 53.609375 
Q 29.78125 56 35.6875 56 
Q 41.65625 56 45.828125 52.96875 
Q 50 49.953125 52 44.1875 
z
" id="DejaVuSans-6d"/>
     <path id="DejaVuSans-20"/>
     <path d="M 37.109375 75.984375 
L 37.109375 68.5 
L 28.515625 68.5 
Q 23.6875 68.5 21.796875 66.546875 
Q 19.921875 64.59375 19.921875 59.515625 
L 19.921875 54.6875 
L 34.71875 54.6875 
L 34.71875 47.703125 
L 19.921875 47.703125 
L 19.921875 0 
L 10.890625 0 
L 10.890625 47.703125 
L 2.296875 47.703125 
L 2.296875 54.6875 
L 10.890625 54.6875 
L 10.890625 58.5 
Q 10.890625 67.625 15.140625 71.796875 
Q 19.390625 75.984375 28.609375 75.984375 
z
" id="DejaVuSans-66"/>
     <path d="M 8.5 21.578125 
L 8.5 54.6875 
L 17.484375 54.6875 
L 17.484375 21.921875 
Q 17.484375 14.15625 20.5 10.265625 
Q 23.53125 6.390625 29.59375 6.390625 
Q 36.859375 6.390625 41.078125 11.03125 
Q 45.3125 15.671875 45.3125 23.6875 
L 45.3125 54.6875 
L 54.296875 54.6875 
L 54.296875 0 
L 45.3125 0 
L 45.3125 8.40625 
Q 42.046875 3.421875 37.71875 1 
Q 33.40625 -1.421875 27.6875 -1.421875 
Q 18.265625 -1.421875 13.375 4.4375 
Q 8.5 10.296875 8.5 21.578125 
z
M 31.109375 56 
z
" id="DejaVuSans-75"/>
     <path d="M 54.890625 33.015625 
L 54.890625 0 
L 45.90625 0 
L 45.90625 32.71875 
Q 45.90625 40.484375 42.875 44.328125 
Q 39.84375 48.1875 33.796875 48.1875 
Q 26.515625 48.1875 22.3125 43.546875 
Q 18.109375 38.921875 18.109375 30.90625 
L 18.109375 0 
L 9.078125 0 
L 9.078125 54.6875 
L 18.109375 54.6875 
L 18.109375 46.1875 
Q 21.34375 51.125 25.703125 53.5625 
Q 30.078125 56 35.796875 56 
Q 45.21875 56 50.046875 50.171875 
Q 54.890625 44.34375 54.890625 33.015625 
z
" id="DejaVuSans-6e"/>
     <path d="M 48.78125 52.59375 
L 48.78125 44.1875 
Q 44.96875 46.296875 41.140625 47.34375 
Q 37.3125 48.390625 33.40625 48.390625 
Q 24.65625 48.390625 19.8125 42.84375 
Q 14.984375 37.3125 14.984375 27.296875 
Q 14.984375 17.28125 19.8125 11.734375 
Q 24.65625 6.203125 33.40625 6.203125 
Q 37.3125 6.203125 41.140625 7.25 
Q 44.96875 8.296875 48.78125 10.40625 
L 48.78125 2.09375 
Q 45.015625 0.34375 40.984375 -0.53125 
Q 36.96875 -1.421875 32.421875 -1.421875 
Q 20.0625 -1.421875 12.78125 6.34375 
Q 5.515625 14.109375 5.515625 27.296875 
Q 5.515625 40.671875 12.859375 48.328125 
Q 20.21875 56 33.015625 56 
Q 37.15625 56 41.109375 55.140625 
Q 45.0625 54.296875 48.78125 52.59375 
z
" id="DejaVuSans-63"/>
     <path d="M 9.421875 54.6875 
L 18.40625 54.6875 
L 18.40625 0 
L 9.421875 0 
z
M 9.421875 75.984375 
L 18.40625 75.984375 
L 18.40625 64.59375 
L 9.421875 64.59375 
z
" id="DejaVuSans-69"/>
     <path d="M 30.609375 48.390625 
Q 23.390625 48.390625 19.1875 42.75 
Q 14.984375 37.109375 14.984375 27.296875 
Q 14.984375 17.484375 19.15625 11.84375 
Q 23.34375 6.203125 30.609375 6.203125 
Q 37.796875 6.203125 41.984375 11.859375 
Q 46.1875 17.53125 46.1875 27.296875 
Q 46.1875 37.015625 41.984375 42.703125 
Q 37.796875 48.390625 30.609375 48.390625 
z
M 30.609375 56 
Q 42.328125 56 49.015625 48.375 
Q 55.71875 40.765625 55.71875 27.296875 
Q 55.71875 13.875 49.015625 6.21875 
Q 42.328125 -1.421875 30.609375 -1.421875 
Q 18.84375 -1.421875 12.171875 6.21875 
Q 5.515625 13.875 5.515625 27.296875 
Q 5.515625 40.765625 12.171875 48.375 
Q 18.84375 56 30.609375 56 
z
" id="DejaVuSans-6f"/>
     <path d="M 24.859375 -1.21875 
Q 13.921875 0.59375 9.625 5.328125 
Q 4.34375 11.140625 6.640625 23 
L 12.796875 54.6875 
L 21.875 54.6875 
L 15.765625 23.34375 
Q 14.0625 14.40625 17.484375 10.6875 
Q 20.515625 7.46875 26.421875 6.78125 
L 35.6875 54.6875 
L 44.625 54.6875 
L 35.359375 6.84375 
Q 41.890625 7.515625 45.75 10.75 
Q 50.734375 14.84375 52.390625 23.390625 
L 58.453125 54.6875 
L 67.53125 54.6875 
L 61.375 23.046875 
Q 58.984375 10.75 51.5625 5.375 
Q 44.875 0.53125 33.796875 -1.171875 
L 29.984375 -20.796875 
L 21.046875 -20.796875 
z
" id="DejaVuSans-Oblique-3c8"/>
     <path d="M 31 75.875 
Q 24.46875 64.65625 21.28125 53.65625 
Q 18.109375 42.671875 18.109375 31.390625 
Q 18.109375 20.125 21.3125 9.0625 
Q 24.515625 -2 31 -13.1875 
L 23.1875 -13.1875 
Q 15.875 -1.703125 12.234375 9.375 
Q 8.59375 20.453125 8.59375 31.390625 
Q 8.59375 42.28125 12.203125 53.3125 
Q 15.828125 64.359375 23.1875 75.875 
z
" id="DejaVuSans-28"/>
     <path d="M 11.71875 12.40625 
L 22.015625 12.40625 
L 22.015625 4 
L 14.015625 -11.625 
L 7.71875 -11.625 
L 11.71875 4 
z
" id="DejaVuSans-2c"/>
     <path d="M 8.015625 75.875 
L 15.828125 75.875 
Q 23.140625 64.359375 26.78125 53.3125 
Q 30.421875 42.28125 30.421875 31.390625 
Q 30.421875 20.453125 26.78125 9.375 
Q 23.140625 -1.703125 15.828125 -13.1875 
L 8.015625 -13.1875 
Q 14.5 -2 17.703125 9.0625 
Q 20.90625 20.125 20.90625 31.390625 
Q 20.90625 42.671875 17.703125 53.65625 
Q 14.5 64.65625 8.015625 75.875 
z
" id="DejaVuSans-29"/>
     <path d="M 55.71875 33.015625 
L 49.3125 0 
L 40.28125 0 
L 46.6875 32.671875 
Q 47.125 34.96875 47.359375 36.71875 
Q 47.609375 38.484375 47.609375 39.5 
Q 47.609375 43.609375 45.015625 45.890625 
Q 42.4375 48.1875 37.796875 48.1875 
Q 30.5625 48.1875 25.265625 43.296875 
Q 19.96875 38.421875 18.40625 30.328125 
L 12.5 0 
L 3.515625 0 
L 18.3125 75.984375 
L 27.296875 75.984375 
L 21.484375 46.09375 
Q 24.90625 50.6875 30.21875 53.34375 
Q 35.546875 56 41.40625 56 
Q 48.640625 56 52.609375 52.09375 
Q 56.59375 48.1875 56.59375 41.109375 
Q 56.59375 39.359375 56.375 37.359375 
Q 56.15625 35.359375 55.71875 33.015625 
z
" id="DejaVuSans-Oblique-68"/>
     <path d="M 10.59375 45.40625 
L 73.1875 45.40625 
L 73.1875 37.203125 
L 10.59375 37.203125 
z
M 10.59375 25.484375 
L 73.1875 25.484375 
L 73.1875 17.1875 
L 10.59375 17.1875 
z
" id="DejaVuSans-3d"/>
     <path d="M 40.578125 39.3125 
Q 47.65625 37.796875 51.625 33 
Q 55.609375 28.21875 55.609375 21.1875 
Q 55.609375 10.40625 48.1875 4.484375 
Q 40.765625 -1.421875 27.09375 -1.421875 
Q 22.515625 -1.421875 17.65625 -0.515625 
Q 12.796875 0.390625 7.625 2.203125 
L 7.625 11.71875 
Q 11.71875 9.328125 16.59375 8.109375 
Q 21.484375 6.890625 26.8125 6.890625 
Q 36.078125 6.890625 40.9375 10.546875 
Q 45.796875 14.203125 45.796875 21.1875 
Q 45.796875 27.640625 41.28125 31.265625 
Q 36.765625 34.90625 28.71875 34.90625 
L 20.21875 34.90625 
L 20.21875 43.015625 
L 29.109375 43.015625 
Q 36.375 43.015625 40.234375 45.921875 
Q 44.09375 48.828125 44.09375 54.296875 
Q 44.09375 59.90625 40.109375 62.90625 
Q 36.140625 65.921875 28.71875 65.921875 
Q 24.65625 65.921875 20.015625 65.03125 
Q 15.375 64.15625 9.8125 62.3125 
L 9.8125 71.09375 
Q 15.4375 72.65625 20.34375 73.4375 
Q 25.25 74.21875 29.59375 74.21875 
Q 40.828125 74.21875 47.359375 69.109375 
Q 53.90625 64.015625 53.90625 55.328125 
Q 53.90625 49.265625 50.4375 45.09375 
Q 46.96875 40.921875 40.578125 39.3125 
z
" id="DejaVuSans-33"/>
    </defs>
    <g transform="translate(141.36 71.292356)scale(0.12 -0.12)">
     <use transform="translate(0 0.015625)" xlink:href="#DejaVuSans-53"/>
     <use transform="translate(63.476562 0.015625)" xlink:href="#DejaVuSans-74"/>
     <use transform="translate(102.685547 0.015625)" xlink:href="#DejaVuSans-72"/>
     <use transform="translate(143.798828 0.015625)" xlink:href="#DejaVuSans-65"/>
     <use transform="translate(205.322266 0.015625)" xlink:href="#DejaVuSans-61"/>
     <use transform="translate(266.601562 0.015625)" xlink:href="#DejaVuSans-6d"/>
     <use transform="translate(364.013672 0.015625)" xlink:href="#DejaVuSans-20"/>
     <use transform="translate(395.800781 0.015625)" xlink:href="#DejaVuSans-66"/>
     <use transform="translate(431.005859 0.015625)" xlink:href="#DejaVuSans-75"/>
     <use transform="translate(494.384766 0.015625)" xlink:href="#DejaVuSans-6e"/>
     <use transform="translate(557.763672 0.015625)" xlink:href="#DejaVuSans-63"/>
     <use transform="translate(612.744141 0.015625)" xlink:href="#DejaVuSans-74"/>
     <use transform="translate(651.953125 0.015625)" xlink:href="#DejaVuSans-69"/>
     <use transform="translate(679.736328 0.015625)" xlink:href="#DejaVuSans-6f"/>
     <use transform="translate(740.917969 0.015625)" xlink:href="#DejaVuSans-6e"/>
     <use transform="translate(804.296875 0.015625)" xlink:href="#DejaVuSans-20"/>
     <use transform="translate(836.083984 0.015625)" xlink:href="#DejaVuSans-Oblique-3c8"/>
     <use transform="translate(902.050781 0.015625)" xlink:href="#DejaVuSans-28"/>
     <use transform="translate(941.064453 0.015625)" xlink:href="#DejaVuSans-Oblique-78"/>
     <use transform="translate(1000.244141 0.015625)" xlink:href="#DejaVuSans-2c"/>
     <use transform="translate(1051.513672 0.015625)" xlink:href="#DejaVuSans-Oblique-79"/>
     <use transform="translate(1110.693359 0.015625)" xlink:href="#DejaVuSans-29"/>
     <use transform="translate(1149.707031 0.015625)" xlink:href="#DejaVuSans-2c"/>
     <use transform="translate(1181.494141 0.015625)" xlink:href="#DejaVuSans-20"/>
     <use transform="translate(1213.28125 0.015625)" xlink:href="#DejaVuSans-Oblique-68"/>
     <use transform="translate(1296.142578 0.015625)" xlink:href="#DejaVuSans-3d"/>
     <use transform="translate(1399.414062 0.015625)" xlink:href="#DejaVuSans-33"/>
     <use transform="translate(1463.037109 0.015625)" xlink:href="#DejaVuSans-Oblique-6c"/>
     <use transform="translate(1490.820312 -16.390625)scale(0.7)" xlink:href="#DejaVuSans-Oblique-65"/>
     <use transform="translate(1533.886719 -16.390625)scale(0.7)" xlink:href="#DejaVuSans-Oblique-65"/>
    </g>
   </g>
  </g>
 </g>
 <defs>
  <clipPath id="pcb12df3e6e">
   <rect height="194.471287" width="357.12" x="57.6" y="77.292356"/>
  </clipPath>
 </defs>
</svg>
