<?xml version="1.0" encoding="utf-8" standalone="no"?>
<!DOCTYPE svg PUBLIC "-//W3C//DTD SVG 1.1//EN"
  "http://www.w3.org/Graphics/SVG/1.1/DTD/svg11.dtd">
<!-- Created with matplotlib (http://matplotlib.org/) -->
<svg height="345.6pt" version="1.1" viewBox="0 0 460.8 345.6" width="460.8pt" xmlns="http://www.w3.org/2000/svg" xmlns:xlink="http://www.w3.org/1999/xlink">
 <defs>
  <style type="text/css">
*{stroke-linecap:butt;stroke-linejoin:round;}
  </style>
 </defs>
 <g id="figure_1">
  <g id="patch_1">
   <path d="M 0 345.6 
L 460.8 345.6 
L 460.8 0 
L 0 0 
z
" style="fill:#ffffff;"/>
  </g>
  <g id="axes_1">
   <g id="patch_2">
    <path d="M 57.6 271.763644 
L 414.72 271.763644 
L 414.72 77.292356 
L 57.6 77.292356 
z
" style="fill:#ffffff;"/>
   </g>
   <g id="patch_3">
    <path clip-path="url(#pd49b1e4535)" d="M 57.6 271.763644 
L 414.72 271.763644 
L 414.72 254.084436 
L 57.6 254.084436 
z
" style="fill:#cccccc;stroke:#808080;stroke-linejoin:miter;"/>
   </g>
   <g id="matplotlib.axis_1">
    <g id="xtick_1">
     <g id="line2d_1">
      <defs>
       <path d="M 0 0 
L 0 3.5 
" id="m16f7683b1d" style="stroke:#000000;stroke-width:0.8;"/>
      </defs>
      <g>
       <use style="stroke:#000000;stroke-width:0.8;" x="59.367921" xlink:href="#m16f7683b1d" y="271.763644"/>
      </g>
     </g>
     <g id="text_1">
      <!-- −10.0 -->
      <defs>
       <path d="M 10.59375 35.5 
L 73.1875 35.5 
L 73.1875 27.203125 
L 10.59375 27.203125 
z
" id="DejaVuSans-2212"/>
       <path d="M 12.40625 8.296875 
L 28.515625 8.296875 
L 28.515625 63.921875 
L 10.984375 60.40625 
L 10.984375 69.390625 
L 28.421875 72.90625 
L 38.28125 72.90625 
L 38.28125 8.296875 
L 54.390625 8.296875 
L 54.390625 0 
L 12.40625 0 
z
" id="DejaVuSans-31"/>
       <path d="M 31.78125 66.40625 
Q 24.171875 66.40625 20.328125 58.90625 
Q 16.5 51.421875 16.5 36.375 
Q 16.5 21.390625 20.328125 13.890625 
Q 24.171875 6.390625 31.78125 6.390625 
Q 39.453125 6.390625 43.28125 13.890625 
Q 47.125 21.390625 47.125 36.375 
Q 47.125 51.421875 43.28125 58.90625 
Q 39.453125 66.40625 31.78125 66.40625 
z
M 31.78125 74.21875 
Q 44.046875 74.21875 50.515625 64.515625 
Q 56.984375 54.828125 56.984375 36.375 
Q 56.984375 17.96875 50.515625 8.265625 
Q 44.046875 -1.421875 31.78125 -1.421875 
Q 19.53125 -1.421875 13.0625 8.265625 
Q 6.59375 17.96875 6.59375 36.375 
Q 6.59375 54.828125 13.0625 64.515625 
Q 19.53125 74.21875 31.78125 74.21875 
z
" id="DejaVuSans-30"/>
       <path d="M 10.6875 12.40625 
L 21 12.40625 
L 21 0 
L 10.6875 0 
z
" id="DejaVuSans-2e"/>
      </defs>
      <g transform="translate(44.045265 286.362081)scale(0.1 -0.1)">
       <use xlink:href="#DejaVuSans-2212"/>
       <use x="83.789062" xlink:href="#DejaVuSans-31"/>
       <use x="147.412109" xlink:href="#DejaVuSans-30"/>
       <use x="211.035156" xlink:href="#DejaVuSans-2e"/>
       <use x="242.822266" xlink:href="#DejaVuSans-30"/>
      </g>
     </g>
    </g>
    <g id="xtick_2">
     <g id="line2d_2">
      <g>
       <use style="stroke:#000000;stroke-width:0.8;" x="103.565941" xlink:href="#m16f7683b1d" y="271.763644"/>
      </g>
     </g>
     <g id="text_2">
      <!-- −7.5 -->
      <defs>
       <path d="M 8.203125 72.90625 
L 55.078125 72.90625 
L 55.078125 68.703125 
L 28.609375 0 
L 18.3125 0 
L 43.21875 64.59375 
L 8.203125 64.59375 
z
" id="DejaVuSans-37"/>
       <path d="M 10.796875 72.90625 
L 49.515625 72.90625 
L 49.515625 64.59375 
L 19.828125 64.59375 
L 19.828125 46.734375 
Q 21.96875 47.46875 24.109375 47.828125 
Q 26.265625 48.1875 28.421875 48.1875 
Q 40.625 48.1875 47.75 41.5 
Q 54.890625 34.8125 54.890625 23.390625 
Q 54.890625 11.625 47.5625 5.09375 
Q 40.234375 -1.421875 26.90625 -1.421875 
Q 22.3125 -1.421875 17.546875 -0.640625 
Q 12.796875 0.140625 7.71875 1.703125 
L 7.71875 11.625 
Q 12.109375 9.234375 16.796875 8.0625 
Q 21.484375 6.890625 26.703125 6.890625 
Q 35.15625 6.890625 40.078125 11.328125 
Q 45.015625 15.765625 45.015625 23.390625 
Q 45.015625 31 40.078125 35.4375 
Q 35.15625 39.890625 26.703125 39.890625 
Q 22.75 39.890625 18.8125 39.015625 
Q 14.890625 38.140625 10.796875 36.28125 
z
" id="DejaVuSans-35"/>
      </defs>
      <g transform="translate(91.424534 286.362081)scale(0.1 -0.1)">
       <use xlink:href="#DejaVuSans-2212"/>
       <use x="83.789062" xlink:href="#DejaVuSans-37"/>
       <use x="147.412109" xlink:href="#DejaVuSans-2e"/>
       <use x="179.199219" xlink:href="#DejaVuSans-35"/>
      </g>
     </g>
    </g>
    <g id="xtick_3">
     <g id="line2d_3">
      <g>
       <use style="stroke:#000000;stroke-width:0.8;" x="147.76396" xlink:href="#m16f7683b1d" y="271.763644"/>
      </g>
     </g>
     <g id="text_3">
      <!-- −5.0 -->
      <g transform="translate(135.622554 286.362081)scale(0.1 -0.1)">
       <use xlink:href="#DejaVuSans-2212"/>
       <use x="83.789062" xlink:href="#DejaVuSans-35"/>
       <use x="147.412109" xlink:href="#DejaVuSans-2e"/>
       <use x="179.199219" xlink:href="#DejaVuSans-30"/>
      </g>
     </g>
    </g>
    <g id="xtick_4">
     <g id="line2d_4">
      <g>
       <use style="stroke:#000000;stroke-width:0.8;" x="191.96198" xlink:href="#m16f7683b1d" y="271.763644"/>
      </g>
     </g>
     <g id="text_4">
      <!-- −2.5 -->
      <defs>
       <path d="M 19.1875 8.296875 
L 53.609375 8.296875 
L 53.609375 0 
L 7.328125 0 
L 7.328125 8.296875 
Q 12.9375 14.109375 22.625 23.890625 
Q 32.328125 33.6875 34.8125 36.53125 
Q 39.546875 41.84375 41.421875 45.53125 
Q 43.3125 49.21875 43.3125 52.78125 
Q 43.3125 58.59375 39.234375 62.25 
Q 35.15625 65.921875 28.609375 65.921875 
Q 23.96875 65.921875 18.8125 64.3125 
Q 13.671875 62.703125 7.8125 59.421875 
L 7.8125 69.390625 
Q 13.765625 71.78125 18.9375 73 
Q 24.125 74.21875 28.421875 74.21875 
Q 39.75 74.21875 46.484375 68.546875 
Q 53.21875 62.890625 53.21875 53.421875 
Q 53.21875 48.921875 51.53125 44.890625 
Q 49.859375 40.875 45.40625 35.40625 
Q 44.1875 33.984375 37.640625 27.21875 
Q 31.109375 20.453125 19.1875 8.296875 
z
" id="DejaVuSans-32"/>
      </defs>
      <g transform="translate(179.820574 286.362081)scale(0.1 -0.1)">
       <use xlink:href="#DejaVuSans-2212"/>
       <use x="83.789062" xlink:href="#DejaVuSans-32"/>
       <use x="147.412109" xlink:href="#DejaVuSans-2e"/>
       <use x="179.199219" xlink:href="#DejaVuSans-35"/>
      </g>
     </g>
    </g>
    <g id="xtick_5">
     <g id="line2d_5">
      <g>
       <use style="stroke:#000000;stroke-width:0.8;" x="236.16" xlink:href="#m16f7683b1d" y="271.763644"/>
      </g>
     </g>
     <g id="text_5">
      <!-- 0.0 -->
      <g transform="translate(228.208438 286.362081)scale(0.1 -0.1)">
       <use xlink:href="#DejaVuSans-30"/>
       <use x="63.623047" xlink:href="#DejaVuSans-2e"/>
       <use x="95.410156" xlink:href="#DejaVuSans-30"/>
      </g>
     </g>
    </g>
    <g id="xtick_6">
     <g id="line2d_6">
      <g>
       <use style="stroke:#000000;stroke-width:0.8;" x="280.35802" xlink:href="#m16f7683b1d" y="271.763644"/>
      </g>
     </g>
     <g id="text_6">
      <!-- 2.5 -->
      <g transform="translate(272.406457 286.362081)scale(0.1 -0.1)">
       <use xlink:href="#DejaVuSans-32"/>
       <use x="63.623047" xlink:href="#DejaVuSans-2e"/>
       <use x="95.410156" xlink:href="#DejaVuSans-35"/>
      </g>
     </g>
    </g>
    <g id="xtick_7">
     <g id="line2d_7">
      <g>
       <use style="stroke:#000000;stroke-width:0.8;" x="324.55604" xlink:href="#m16f7683b1d" y="271.763644"/>
      </g>
     </g>
     <g id="text_7">
      <!-- 5.0 -->
      <g transform="translate(316.604477 286.362081)scale(0.1 -0.1)">
       <use xlink:href="#DejaVuSans-35"/>
       <use x="63.623047" xlink:href="#DejaVuSans-2e"/>
       <use x="95.410156" xlink:href="#DejaVuSans-30"/>
      </g>
     </g>
    </g>
    <g id="xtick_8">
     <g id="line2d_8">
      <g>
       <use style="stroke:#000000;stroke-width:0.8;" x="368.754059" xlink:href="#m16f7683b1d" y="271.763644"/>
      </g>
     </g>
     <g id="text_8">
      <!-- 7.5 -->
      <g transform="translate(360.802497 286.362081)scale(0.1 -0.1)">
       <use xlink:href="#DejaVuSans-37"/>
       <use x="63.623047" xlink:href="#DejaVuSans-2e"/>
       <use x="95.410156" xlink:href="#DejaVuSans-35"/>
      </g>
     </g>
    </g>
    <g id="xtick_9">
     <g id="line2d_9">
      <g>
       <use style="stroke:#000000;stroke-width:0.8;" x="412.952079" xlink:href="#m16f7683b1d" y="271.763644"/>
      </g>
     </g>
     <g id="text_9">
      <!-- 10.0 -->
      <g transform="translate(401.819267 286.362081)scale(0.1 -0.1)">
       <use xlink:href="#DejaVuSans-31"/>
       <use x="63.623047" xlink:href="#DejaVuSans-30"/>
       <use x="127.246094" xlink:href="#DejaVuSans-2e"/>
       <use x="159.033203" xlink:href="#DejaVuSans-30"/>
      </g>
     </g>
    </g>
    <g id="text_10">
     <!-- $x/l_{ee}$ -->
     <defs>
      <path d="M 60.015625 54.6875 
L 34.90625 27.875 
L 50.296875 0 
L 39.984375 0 
L 28.421875 21.6875 
L 8.296875 0 
L -2.59375 0 
L 24.3125 28.8125 
L 10.015625 54.6875 
L 20.3125 54.6875 
L 30.8125 34.90625 
L 49.125 54.6875 
z
" id="DejaVuSans-Oblique-78"/>
      <path d="M 25.390625 72.90625 
L 33.6875 72.90625 
L 8.296875 -9.28125 
L 0 -9.28125 
z
" id="DejaVuSans-2f"/>
      <path d="M 18.3125 75.984375 
L 27.296875 75.984375 
L 12.5 0 
L 3.515625 0 
z
" id="DejaVuSans-Oblique-6c"/>
      <path d="M 48.09375 32.234375 
Q 48.25 33.015625 48.3125 33.84375 
Q 48.390625 34.671875 48.390625 35.5 
Q 48.390625 41.453125 44.890625 44.921875 
Q 41.40625 48.390625 35.40625 48.390625 
Q 28.71875 48.390625 23.578125 44.15625 
Q 18.453125 39.9375 15.828125 32.171875 
z
M 55.90625 25.203125 
L 14.109375 25.203125 
Q 13.8125 23.34375 13.71875 22.265625 
Q 13.625 21.1875 13.625 20.40625 
Q 13.625 13.625 17.796875 9.90625 
Q 21.96875 6.203125 29.59375 6.203125 
Q 35.453125 6.203125 40.671875 7.515625 
Q 45.90625 8.84375 50.390625 11.375 
L 48.6875 2.484375 
Q 43.84375 0.53125 38.6875 -0.4375 
Q 33.546875 -1.421875 28.21875 -1.421875 
Q 16.84375 -1.421875 10.71875 4.015625 
Q 4.59375 9.46875 4.59375 19.484375 
Q 4.59375 28.03125 7.640625 35.375 
Q 10.6875 42.71875 16.609375 48.484375 
Q 20.40625 52.09375 25.65625 54.046875 
Q 30.90625 56 36.8125 56 
Q 46.09375 56 51.578125 50.4375 
Q 57.078125 44.875 57.078125 35.5 
Q 57.078125 33.25 56.78125 30.6875 
Q 56.5 28.125 55.90625 25.203125 
z
" id="DejaVuSans-Oblique-65"/>
     </defs>
     <g transform="translate(225.66 300.040206)scale(0.1 -0.1)">
      <use transform="translate(0 0.015625)" xlink:href="#DejaVuSans-Oblique-78"/>
      <use transform="translate(59.179688 0.015625)" xlink:href="#DejaVuSans-2f"/>
      <use transform="translate(92.871094 0.015625)" xlink:href="#DejaVuSans-Oblique-6c"/>
      <use transform="translate(120.654297 -16.390625)scale(0.7)" xlink:href="#DejaVuSans-Oblique-65"/>
      <use transform="translate(163.720703 -16.390625)scale(0.7)" xlink:href="#DejaVuSans-Oblique-65"/>
     </g>
    </g>
   </g>
   <g id="matplotlib.axis_2">
    <g id="ytick_1">
     <g id="line2d_10">
      <defs>
       <path d="M 0 0 
L -3.5 0 
" id="mc60328dc4e" style="stroke:#000000;stroke-width:0.8;"/>
      </defs>
      <g>
       <use style="stroke:#000000;stroke-width:0.8;" x="57.6" xlink:href="#mc60328dc4e" y="254.084436"/>
      </g>
     </g>
     <g id="text_11">
      <!-- 0 -->
      <g transform="translate(44.2375 257.883654)scale(0.1 -0.1)">
       <use xlink:href="#DejaVuSans-30"/>
      </g>
     </g>
    </g>
    <g id="ytick_2">
     <g id="line2d_11">
      <g>
       <use style="stroke:#000000;stroke-width:0.8;" x="57.6" xlink:href="#mc60328dc4e" y="218.72602"/>
      </g>
     </g>
     <g id="text_12">
      <!-- 2 -->
      <g transform="translate(44.2375 222.525239)scale(0.1 -0.1)">
       <use xlink:href="#DejaVuSans-32"/>
      </g>
     </g>
    </g>
    <g id="ytick_3">
     <g id="line2d_12">
      <g>
       <use style="stroke:#000000;stroke-width:0.8;" x="57.6" xlink:href="#mc60328dc4e" y="183.367604"/>
      </g>
     </g>
     <g id="text_13">
      <!-- 4 -->
      <defs>
       <path d="M 37.796875 64.3125 
L 12.890625 25.390625 
L 37.796875 25.390625 
z
M 35.203125 72.90625 
L 47.609375 72.90625 
L 47.609375 25.390625 
L 58.015625 25.390625 
L 58.015625 17.1875 
L 47.609375 17.1875 
L 47.609375 0 
L 37.796875 0 
L 37.796875 17.1875 
L 4.890625 17.1875 
L 4.890625 26.703125 
z
" id="DejaVuSans-34"/>
      </defs>
      <g transform="translate(44.2375 187.166823)scale(0.1 -0.1)">
       <use xlink:href="#DejaVuSans-34"/>
      </g>
     </g>
    </g>
    <g id="ytick_4">
     <g id="line2d_13">
      <g>
       <use style="stroke:#000000;stroke-width:0.8;" x="57.6" xlink:href="#mc60328dc4e" y="148.009188"/>
      </g>
     </g>
     <g id="text_14">
      <!-- 6 -->
      <defs>
       <path d="M 33.015625 40.375 
Q 26.375 40.375 22.484375 35.828125 
Q 18.609375 31.296875 18.609375 23.390625 
Q 18.609375 15.53125 22.484375 10.953125 
Q 26.375 6.390625 33.015625 6.390625 
Q 39.65625 6.390625 43.53125 10.953125 
Q 47.40625 15.53125 47.40625 23.390625 
Q 47.40625 31.296875 43.53125 35.828125 
Q 39.65625 40.375 33.015625 40.375 
z
M 52.59375 71.296875 
L 52.59375 62.3125 
Q 48.875 64.0625 45.09375 64.984375 
Q 41.3125 65.921875 37.59375 65.921875 
Q 27.828125 65.921875 22.671875 59.328125 
Q 17.53125 52.734375 16.796875 39.40625 
Q 19.671875 43.65625 24.015625 45.921875 
Q 28.375 48.1875 33.59375 48.1875 
Q 44.578125 48.1875 50.953125 41.515625 
Q 57.328125 34.859375 57.328125 23.390625 
Q 57.328125 12.15625 50.6875 5.359375 
Q 44.046875 -1.421875 33.015625 -1.421875 
Q 20.359375 -1.421875 13.671875 8.265625 
Q 6.984375 17.96875 6.984375 36.375 
Q 6.984375 53.65625 15.1875 63.9375 
Q 23.390625 74.21875 37.203125 74.21875 
Q 40.921875 74.21875 44.703125 73.484375 
Q 48.484375 72.75 52.59375 71.296875 
z
" id="DejaVuSans-36"/>
      </defs>
      <g transform="translate(44.2375 151.808407)scale(0.1 -0.1)">
       <use xlink:href="#DejaVuSans-36"/>
      </g>
     </g>
    </g>
    <g id="ytick_5">
     <g id="line2d_14">
      <g>
       <use style="stroke:#000000;stroke-width:0.8;" x="57.6" xlink:href="#mc60328dc4e" y="112.650772"/>
      </g>
     </g>
     <g id="text_15">
      <!-- 8 -->
      <defs>
       <path d="M 31.78125 34.625 
Q 24.75 34.625 20.71875 30.859375 
Q 16.703125 27.09375 16.703125 20.515625 
Q 16.703125 13.921875 20.71875 10.15625 
Q 24.75 6.390625 31.78125 6.390625 
Q 38.8125 6.390625 42.859375 10.171875 
Q 46.921875 13.96875 46.921875 20.515625 
Q 46.921875 27.09375 42.890625 30.859375 
Q 38.875 34.625 31.78125 34.625 
z
M 21.921875 38.8125 
Q 15.578125 40.375 12.03125 44.71875 
Q 8.5 49.078125 8.5 55.328125 
Q 8.5 64.0625 14.71875 69.140625 
Q 20.953125 74.21875 31.78125 74.21875 
Q 42.671875 74.21875 48.875 69.140625 
Q 55.078125 64.0625 55.078125 55.328125 
Q 55.078125 49.078125 51.53125 44.71875 
Q 48 40.375 41.703125 38.8125 
Q 48.828125 37.15625 52.796875 32.3125 
Q 56.78125 27.484375 56.78125 20.515625 
Q 56.78125 9.90625 50.3125 4.234375 
Q 43.84375 -1.421875 31.78125 -1.421875 
Q 19.734375 -1.421875 13.25 4.234375 
Q 6.78125 9.90625 6.78125 20.515625 
Q 6.78125 27.484375 10.78125 32.3125 
Q 14.796875 37.15625 21.921875 38.8125 
z
M 18.3125 54.390625 
Q 18.3125 48.734375 21.84375 45.5625 
Q 25.390625 42.390625 31.78125 42.390625 
Q 38.140625 42.390625 41.71875 45.5625 
Q 45.3125 48.734375 45.3125 54.390625 
Q 45.3125 60.0625 41.71875 63.234375 
Q 38.140625 66.40625 31.78125 66.40625 
Q 25.390625 66.40625 21.84375 63.234375 
Q 18.3125 60.0625 18.3125 54.390625 
z
" id="DejaVuSans-38"/>
      </defs>
      <g transform="translate(44.2375 116.449991)scale(0.1 -0.1)">
       <use xlink:href="#DejaVuSans-38"/>
      </g>
     </g>
    </g>
    <g id="ytick_6">
     <g id="line2d_15">
      <g>
       <use style="stroke:#000000;stroke-width:0.8;" x="57.6" xlink:href="#mc60328dc4e" y="77.292356"/>
      </g>
     </g>
     <g id="text_16">
      <!-- 10 -->
      <g transform="translate(37.875 81.091575)scale(0.1 -0.1)">
       <use xlink:href="#DejaVuSans-31"/>
       <use x="63.623047" xlink:href="#DejaVuSans-30"/>
      </g>
     </g>
    </g>
    <g id="text_17">
     <!-- $y/l_{ee}$ -->
     <defs>
      <path d="M 24.8125 -5.078125 
Q 18.5625 -15.578125 14.625 -18.1875 
Q 10.6875 -20.796875 4.59375 -20.796875 
L -2.484375 -20.796875 
L -0.984375 -13.28125 
L 4.203125 -13.28125 
Q 7.953125 -13.28125 10.59375 -11.234375 
Q 13.234375 -9.1875 16.5 -3.21875 
L 19.28125 2 
L 7.171875 54.6875 
L 16.703125 54.6875 
L 25.78125 12.796875 
L 50.875 54.6875 
L 60.296875 54.6875 
z
" id="DejaVuSans-Oblique-79"/>
     </defs>
     <g transform="translate(31.775 185.028)rotate(-90)scale(0.1 -0.1)">
      <use transform="translate(0 0.015625)" xlink:href="#DejaVuSans-Oblique-79"/>
      <use transform="translate(59.179688 0.015625)" xlink:href="#DejaVuSans-2f"/>
      <use transform="translate(92.871094 0.015625)" xlink:href="#DejaVuSans-Oblique-6c"/>
      <use transform="translate(120.654297 -16.390625)scale(0.7)" xlink:href="#DejaVuSans-Oblique-65"/>
      <use transform="translate(163.720703 -16.390625)scale(0.7)" xlink:href="#DejaVuSans-Oblique-65"/>
     </g>
    </g>
   </g>
   <g id="LineCollection_1">
    <path clip-path="url(#pd49b1e4535)" d="M 229.216421 77.292356 
L 231.844055 140.937505 
L 232.702105 157.202376 
L 233.915948 177.003089 
L 235.08864 191.360086 
L 235.80288 198.003958 
L 235.803488 197.864554 
L 235.815154 166.395564 
L 235.816127 77.292356 
L 235.816127 77.292356 
" style="fill:none;stroke:#ff0000;stroke-width:1.5;"/>
   </g>
   <g id="LineCollection_2">
    <path clip-path="url(#pd49b1e4535)" d="M 215.140629 77.292356 
L 218.060293 102.22004 
L 220.506281 121.84396 
L 223.324831 142.351842 
L 225.216943 154.727287 
L 227.057459 165.511604 
L 228.90739 175.058376 
L 230.769523 183.367604 
L 232.674907 190.616079 
L 234.307121 195.919842 
L 235.80288 200.113459 
L 235.808337 199.986059 
L 235.838392 195.389465 
L 235.844727 91.612515 
L 235.844783 77.292356 
L 235.844783 77.292356 
" style="fill:none;stroke:#ff3b00;stroke-width:1.5;"/>
   </g>
   <g id="LineCollection_3">
    <path clip-path="url(#pd49b1e4535)" d="M 200.629347 77.292356 
L 205.81642 103.634376 
L 210.106029 123.965465 
L 212.998904 136.694495 
L 215.664338 147.655604 
L 218.67205 158.970297 
L 221.178241 167.456317 
L 223.360785 174.174416 
L 225.392009 179.831762 
L 227.517176 185.135525 
L 230.006072 190.616079 
L 232.026519 194.505505 
L 234.120864 198.041347 
L 235.80288 200.537939 
L 235.806301 200.516436 
L 235.857388 198.925307 
L 235.871838 181.776475 
L 235.873439 77.292356 
L 235.873439 77.292356 
" style="fill:none;stroke:#ff7c00;stroke-width:1.5;"/>
   </g>
   <g id="LineCollection_4">
    <path clip-path="url(#pd49b1e4535)" d="M 185.388782 77.292356 
L 190.260763 94.971564 
L 194.625471 110.175683 
L 199.267528 125.556594 
L 203.831547 139.69996 
L 207.462462 150.130693 
L 210.997492 159.500673 
L 214.281124 167.456317 
L 217.418825 174.351208 
L 220.372247 180.185347 
L 222.867657 184.605149 
L 225.651188 189.02495 
L 228.444871 192.914376 
L 230.607502 195.566257 
L 233.41691 198.571723 
L 235.717888 200.693228 
L 235.80288 200.734696 
L 235.814454 200.693228 
L 235.880026 199.632475 
L 235.899273 190.792871 
L 235.902095 77.292356 
L 235.902095 77.292356 
" style="fill:none;stroke:#ffbd00;stroke-width:1.5;"/>
   </g>
   <g id="LineCollection_5">
    <path clip-path="url(#pd49b1e4535)" d="M 169.058456 77.292356 
L 176.969804 99.214574 
L 182.302865 113.357941 
L 187.968408 127.678099 
L 192.168262 137.755248 
L 196.299283 147.125228 
L 200.11077 155.257663 
L 203.475273 161.975762 
L 206.604979 167.809901 
L 209.4576 172.760079 
L 212.59008 177.778264 
L 215.564442 182.130059 
L 218.66112 186.216896 
L 221.335778 189.378535 
L 224.01792 192.219108 
L 226.647739 194.682297 
L 229.0176 196.632842 
L 231.51744 198.421197 
L 233.66016 199.745127 
L 235.08864 200.520226 
L 235.80288 200.871626 
L 235.803607 200.87002 
L 235.898704 200.162851 
L 235.925605 195.919842 
L 235.930744 79.944238 
L 235.930751 77.292356 
L 235.930751 77.292356 
" style="fill:none;stroke:#fcf500;stroke-width:1.5;"/>
   </g>
   <g id="LineCollection_6">
    <path clip-path="url(#pd49b1e4535)" d="M 151.142508 77.292356 
L 161.08882 99.391366 
L 169.242856 116.71699 
L 176.065715 130.506772 
L 182.166596 142.17505 
L 186.87744 150.678838 
L 190.906695 157.55596 
L 195.44832 164.833601 
L 199.37664 170.671995 
L 202.94784 175.595013 
L 206.129453 179.65497 
L 209.924941 184.074772 
L 212.957083 187.25703 
L 215.80416 189.965442 
L 218.66112 192.401074 
L 221.51808 194.544074 
L 224.01792 196.187352 
L 226.66662 197.687762 
L 229.37472 198.962295 
L 232.07374 199.986059 
L 235.262956 200.87002 
L 235.848156 200.87002 
L 235.931366 200.162851 
L 235.95534 195.389465 
L 235.959407 77.292356 
L 235.959407 77.292356 
" style="fill:none;stroke:#c5ff00;stroke-width:1.5;"/>
   </g>
   <g id="LineCollection_7">
    <path clip-path="url(#pd49b1e4535)" d="M 130.91936 77.292356 
L 142.429421 98.330614 
L 151.352899 114.065109 
L 158.955853 126.970931 
L 165.473799 137.578455 
L 171.390206 146.771644 
L 177.012897 155.080871 
L 181.692138 161.622178 
L 185.968175 167.279525 
L 190.823513 173.290455 
L 195.145131 178.240634 
L 198.6624 181.969435 
L 202.265781 185.489109 
L 206.058111 188.848158 
L 209.73312 191.750587 
L 212.59008 193.756265 
L 215.498498 195.566257 
L 218.824278 197.334178 
L 221.8752 198.666617 
L 224.65739 199.632475 
L 227.331871 200.339644 
L 230.391212 200.87002 
L 232.94592 201.079672 
L 235.44576 201.084856 
L 235.815558 201.046812 
L 235.947781 200.516436 
L 235.981358 198.041347 
L 235.987822 144.296554 
L 235.988063 77.292356 
L 235.988063 77.292356 
" style="fill:none;stroke:#84ff00;stroke-width:1.5;"/>
   </g>
   <g id="LineCollection_8">
    <path clip-path="url(#pd49b1e4535)" d="M 107.278439 77.292356 
L 118.888249 94.971564 
L 128.049349 108.584554 
L 137.343546 122.020752 
L 145.957214 134.042614 
L 154.415388 145.357307 
L 161.349111 154.196911 
L 167.619437 161.79897 
L 173.639412 168.693861 
L 178.392593 173.820832 
L 182.737642 178.240634 
L 187.59168 182.848728 
L 192.027606 186.726653 
L 196.007352 189.908911 
L 200.163821 192.914376 
L 203.730682 195.212673 
L 207.23328 197.200029 
L 210.80448 198.93219 
L 214.01856 200.225683 
L 217.23264 201.250178 
L 220.121485 201.930772 
L 222.94656 202.364703 
L 225.80352 202.560485 
L 228.30336 202.522705 
L 230.8032 202.281375 
L 233.30304 201.830432 
L 235.80288 201.167022 
L 235.96803 200.693228 
L 236.008694 198.925307 
L 236.016314 166.395564 
L 236.016719 77.292356 
L 236.016719 77.292356 
" style="fill:none;stroke:#49ff00;stroke-width:1.5;"/>
   </g>
   <g id="LineCollection_9">
    <path clip-path="url(#pd49b1e4535)" d="M 78.348767 77.292356 
L 89.902944 91.966099 
L 103.40384 108.761347 
L 112.714603 120.07604 
L 125.300315 134.926574 
L 133.053707 143.766178 
L 141.232432 152.782574 
L 149.088628 161.091802 
L 156.641331 168.693861 
L 162.367874 174.174416 
L 168.820404 180.008554 
L 174.37824 184.709659 
L 179.400302 188.671366 
L 184.3776 192.300509 
L 188.737351 195.212673 
L 192.94848 197.757646 
L 196.729635 199.809267 
L 200.09088 201.423931 
L 203.66208 202.90913 
L 206.958971 204.052277 
L 210.166572 204.936238 
L 213.30432 205.565877 
L 216.16128 205.92087 
L 219.01824 206.05119 
L 221.8752 205.939544 
L 224.37504 205.628679 
L 226.87488 205.10494 
L 229.37472 204.354309 
L 231.905783 203.345109 
L 234.048776 202.284356 
L 235.837206 201.223604 
L 236.006424 200.693228 
L 236.039469 198.748515 
L 236.045175 151.721822 
L 236.045376 77.292356 
L 236.045376 77.292356 
" style="fill:none;stroke:#08ff00;stroke-width:1.5;"/>
   </g>
   <g id="LineCollection_10">
    <path clip-path="url(#pd49b1e4535)" d="M 57.6 95.143666 
L 76.09537 114.065109 
L 92.811098 130.683564 
L 108.087921 145.357307 
L 119.38176 155.810336 
L 129.890435 165.15802 
L 137.973171 172.052911 
L 145.543214 178.240634 
L 152.821911 183.89798 
L 160.553397 189.555327 
L 166.87872 193.870162 
L 172.041164 197.157386 
L 177.2352 200.225587 
L 182.713514 203.168317 
L 187.23456 205.346376 
L 191.669926 207.234535 
L 195.80544 208.747791 
L 199.73376 209.937439 
L 203.30496 210.784698 
L 206.51904 211.334471 
L 209.73312 211.65933 
L 212.59008 211.738288 
L 215.44704 211.597201 
L 217.94688 211.273713 
L 220.44672 210.743559 
L 222.94656 209.985016 
L 225.4464 208.973128 
L 227.94624 207.680727 
L 230.44608 206.076276 
L 233.026165 204.052277 
L 235.124617 202.107564 
L 235.987779 201.046812 
L 236.058914 200.339644 
L 236.072778 193.26796 
L 236.074032 77.292356 
L 236.074032 77.292356 
" style="fill:none;stroke:#00ff39;stroke-width:1.5;"/>
   </g>
   <g id="LineCollection_11">
    <path clip-path="url(#pd49b1e4535)" d="M 57.6 136.422181 
L 76.17024 150.734231 
L 92.24064 162.695883 
L 103.31136 170.655154 
L 111.898932 176.649505 
L 120.096 182.197355 
L 127.59552 187.107527 
L 138.0192 193.621545 
L 146.16576 198.427861 
L 154.076299 202.814733 
L 160.916609 206.350574 
L 167.23584 209.375546 
L 173.30688 212.032561 
L 178.66368 214.146008 
L 183.667815 215.897347 
L 188.343317 217.311683 
L 192.59136 218.384176 
L 196.51968 219.169561 
L 200.448 219.726417 
L 204.0192 220.003095 
L 207.23328 220.035029 
L 210.09024 219.863506 
L 212.9472 219.474211 
L 215.538256 218.902812 
L 217.94688 218.15792 
L 220.44672 217.13021 
L 222.782844 215.897347 
L 224.73216 214.638607 
L 226.87488 212.972608 
L 229.035673 210.947168 
L 231.090042 208.648871 
L 232.595441 206.704158 
L 234.73152 203.507444 
L 236.045186 201.046812 
L 236.096061 199.986059 
L 236.102413 178.947802 
L 236.102688 77.292356 
L 236.102688 77.292356 
" style="fill:none;stroke:#00ff74;stroke-width:1.5;"/>
   </g>
   <g id="LineCollection_12">
    <path clip-path="url(#pd49b1e4535)" d="M 57.6 179.263711 
L 78.107802 189.732119 
L 95.933306 198.394931 
L 111.52512 205.55812 
L 122.29526 210.24 
L 132.610314 214.48301 
L 141.88032 218.062655 
L 150.615553 221.201109 
L 158.66496 223.859958 
L 166.16448 226.104557 
L 172.982644 227.919208 
L 179.37792 229.392957 
L 185.09184 230.489268 
L 190.44864 231.291675 
L 195.0912 231.77496 
L 199.37664 232.008379 
L 203.30496 232.002695 
L 206.87616 231.772166 
L 210.09024 231.336406 
L 212.9472 230.722788 
L 215.44704 229.969167 
L 217.94688 228.963438 
L 220.0896 227.852428 
L 222.160664 226.504871 
L 223.727212 225.267327 
L 225.4464 223.644003 
L 227.122568 221.731485 
L 228.551998 219.786772 
L 229.980388 217.488475 
L 231.369785 214.836594 
L 232.698507 211.831129 
L 234.017391 208.295287 
L 235.394082 203.875485 
L 236.079302 201.223604 
L 236.127338 200.162851 
L 236.131248 170.815366 
L 236.131344 77.292356 
L 236.131344 77.292356 
" style="fill:none;stroke:#00ffb5;stroke-width:1.5;"/>
   </g>
   <g id="LineCollection_13">
    <path clip-path="url(#pd49b1e4535)" d="M 57.6 254.261228 
L 235.80288 254.261228 
L 236.16 254.084436 
L 236.16 77.292356 
L 236.16 77.292356 
" style="fill:none;stroke:#00fff6;stroke-width:1.5;"/>
    <path clip-path="url(#pd49b1e4535)" d="M 414.72 271.763644 
L 57.6 271.763644 
L 57.6 271.763644 
" style="fill:none;stroke:#00fff6;stroke-width:1.5;"/>
   </g>
   <g id="LineCollection_14">
    <path clip-path="url(#pd49b1e4535)" d="M 414.72 179.263711 
L 394.212198 189.732119 
L 376.386694 198.394931 
L 360.79488 205.55812 
L 350.02474 210.24 
L 339.709686 214.48301 
L 330.43968 218.062655 
L 321.704447 221.201109 
L 313.65504 223.859958 
L 306.15552 226.104557 
L 299.337356 227.919208 
L 292.94208 229.392957 
L 287.22816 230.489268 
L 281.87136 231.291675 
L 277.2288 231.77496 
L 272.94336 232.008379 
L 269.01504 232.002695 
L 265.44384 231.772166 
L 262.22976 231.336406 
L 259.3728 230.722788 
L 256.87296 229.969167 
L 254.37312 228.963438 
L 252.2304 227.852428 
L 250.159336 226.504871 
L 248.592788 225.267327 
L 246.8736 223.644003 
L 245.197432 221.731485 
L 243.768002 219.786772 
L 242.339612 217.488475 
L 240.950215 214.836594 
L 239.621493 211.831129 
L 238.302609 208.295287 
L 236.925918 203.875485 
L 236.240698 201.223604 
L 236.192662 200.162851 
L 236.188752 170.815366 
L 236.188656 77.292356 
L 236.188656 77.292356 
" style="fill:none;stroke:#00cdff;stroke-width:1.5;"/>
   </g>
   <g id="LineCollection_15">
    <path clip-path="url(#pd49b1e4535)" d="M 414.72 136.422181 
L 396.14976 150.734231 
L 380.07936 162.695883 
L 369.00864 170.655154 
L 360.421068 176.649505 
L 352.224 182.197355 
L 344.72448 187.107527 
L 334.3008 193.621545 
L 326.15424 198.427861 
L 318.243701 202.814733 
L 311.403391 206.350574 
L 305.08416 209.375546 
L 299.01312 212.032561 
L 293.65632 214.146008 
L 288.652185 215.897347 
L 283.976683 217.311683 
L 279.72864 218.384176 
L 275.80032 219.169561 
L 271.872 219.726417 
L 268.3008 220.003095 
L 265.08672 220.035029 
L 262.22976 219.863506 
L 259.3728 219.474211 
L 256.781744 218.902812 
L 254.37312 218.15792 
L 251.87328 217.13021 
L 249.537156 215.897347 
L 247.58784 214.638607 
L 245.44512 212.972608 
L 243.284327 210.947168 
L 241.229958 208.648871 
L 239.724559 206.704158 
L 237.58848 203.507444 
L 236.274814 201.046812 
L 236.223939 199.986059 
L 236.217587 178.947802 
L 236.217312 77.292356 
L 236.217312 77.292356 
" style="fill:none;stroke:#008cff;stroke-width:1.5;"/>
   </g>
   <g id="LineCollection_16">
    <path clip-path="url(#pd49b1e4535)" d="M 414.72 95.143666 
L 396.22463 114.065109 
L 379.508902 130.683564 
L 364.232079 145.357307 
L 352.93824 155.810336 
L 342.429565 165.15802 
L 334.346829 172.052911 
L 326.776786 178.240634 
L 319.498089 183.89798 
L 311.766603 189.555327 
L 305.44128 193.870162 
L 300.278836 197.157386 
L 295.0848 200.225587 
L 289.606486 203.168317 
L 285.08544 205.346376 
L 280.650074 207.234535 
L 276.51456 208.747791 
L 272.58624 209.937439 
L 269.01504 210.784698 
L 265.80096 211.334471 
L 262.58688 211.65933 
L 259.72992 211.738288 
L 256.87296 211.597201 
L 254.37312 211.273713 
L 251.87328 210.743559 
L 249.37344 209.985016 
L 246.8736 208.973128 
L 244.37376 207.680727 
L 241.87392 206.076276 
L 239.293835 204.052277 
L 237.195383 202.107564 
L 236.332221 201.046812 
L 236.261086 200.339644 
L 236.247222 193.26796 
L 236.245968 77.292356 
L 236.245968 77.292356 
" style="fill:none;stroke:#004bff;stroke-width:1.5;"/>
   </g>
   <g id="LineCollection_17">
    <path clip-path="url(#pd49b1e4535)" d="M 393.971233 77.292356 
L 382.417056 91.966099 
L 368.91616 108.761347 
L 359.605397 120.07604 
L 347.019685 134.926574 
L 339.266293 143.766178 
L 331.087568 152.782574 
L 323.231372 161.091802 
L 315.678669 168.693861 
L 309.952126 174.174416 
L 303.499596 180.008554 
L 297.94176 184.709659 
L 292.919698 188.671366 
L 287.9424 192.300509 
L 283.582649 195.212673 
L 279.37152 197.757646 
L 275.590365 199.809267 
L 272.22912 201.423931 
L 268.65792 202.90913 
L 265.361029 204.052277 
L 262.153428 204.936238 
L 259.01568 205.565877 
L 256.15872 205.92087 
L 253.30176 206.05119 
L 250.4448 205.939544 
L 247.94496 205.628679 
L 245.44512 205.10494 
L 242.94528 204.354309 
L 240.414217 203.345109 
L 238.271224 202.284356 
L 236.482794 201.223604 
L 236.313576 200.693228 
L 236.280531 198.748515 
L 236.274825 151.721822 
L 236.274624 77.292356 
L 236.274624 77.292356 
" style="fill:none;stroke:#0010ff;stroke-width:1.5;"/>
   </g>
   <g id="LineCollection_18">
    <path clip-path="url(#pd49b1e4535)" d="M 365.041561 77.292356 
L 353.431751 94.971564 
L 344.270651 108.584554 
L 334.976454 122.020752 
L 326.362786 134.042614 
L 317.904612 145.357307 
L 310.970889 154.196911 
L 304.700563 161.79897 
L 298.680588 168.693861 
L 293.927407 173.820832 
L 289.582358 178.240634 
L 284.72832 182.848728 
L 280.292394 186.726653 
L 276.312648 189.908911 
L 272.156179 192.914376 
L 268.589318 195.212673 
L 265.08672 197.200029 
L 261.51552 198.93219 
L 258.30144 200.225683 
L 255.08736 201.250178 
L 252.198515 201.930772 
L 249.37344 202.364703 
L 246.51648 202.560485 
L 244.01664 202.522705 
L 241.5168 202.281375 
L 239.01696 201.830432 
L 236.51712 201.167022 
L 236.35197 200.693228 
L 236.311306 198.925307 
L 236.303686 166.395564 
L 236.303281 77.292356 
L 236.303281 77.292356 
" style="fill:none;stroke:#3100ff;stroke-width:1.5;"/>
   </g>
   <g id="LineCollection_19">
    <path clip-path="url(#pd49b1e4535)" d="M 341.40064 77.292356 
L 329.890579 98.330614 
L 320.967101 114.065109 
L 313.364147 126.970931 
L 306.846201 137.578455 
L 300.929794 146.771644 
L 295.307103 155.080871 
L 290.627862 161.622178 
L 286.351825 167.279525 
L 281.496487 173.290455 
L 277.174869 178.240634 
L 273.6576 181.969435 
L 270.054219 185.489109 
L 266.261889 188.848158 
L 262.58688 191.750587 
L 259.72992 193.756265 
L 256.821502 195.566257 
L 253.495722 197.334178 
L 250.4448 198.666617 
L 247.66261 199.632475 
L 244.988129 200.339644 
L 241.928788 200.87002 
L 239.37408 201.079672 
L 236.87424 201.084856 
L 236.504442 201.046812 
L 236.372219 200.516436 
L 236.338642 198.041347 
L 236.332178 144.296554 
L 236.331937 77.292356 
L 236.331937 77.292356 
" style="fill:none;stroke:#7200ff;stroke-width:1.5;"/>
   </g>
   <g id="LineCollection_20">
    <path clip-path="url(#pd49b1e4535)" d="M 321.177492 77.292356 
L 311.23118 99.391366 
L 303.077144 116.71699 
L 296.254285 130.506772 
L 290.153404 142.17505 
L 285.44256 150.678838 
L 281.413305 157.55596 
L 276.87168 164.833601 
L 272.94336 170.671995 
L 269.37216 175.595013 
L 266.190547 179.65497 
L 262.395059 184.074772 
L 259.362917 187.25703 
L 256.51584 189.965442 
L 253.65888 192.401074 
L 250.80192 194.544074 
L 248.30208 196.187352 
L 245.65338 197.687762 
L 242.94528 198.962295 
L 240.24626 199.986059 
L 237.057044 200.87002 
L 236.471844 200.87002 
L 236.388634 200.162851 
L 236.36466 195.389465 
L 236.360593 77.292356 
L 236.360593 77.292356 
" style="fill:none;stroke:#ad00ff;stroke-width:1.5;"/>
   </g>
   <g id="LineCollection_21">
    <path clip-path="url(#pd49b1e4535)" d="M 303.261544 77.292356 
L 295.350196 99.214574 
L 290.017135 113.357941 
L 284.351592 127.678099 
L 280.151738 137.755248 
L 276.020717 147.125228 
L 272.20923 155.257663 
L 268.844727 161.975762 
L 265.715021 167.809901 
L 262.8624 172.760079 
L 259.72992 177.778264 
L 256.755558 182.130059 
L 253.65888 186.216896 
L 250.984222 189.378535 
L 248.30208 192.219108 
L 245.672261 194.682297 
L 243.3024 196.632842 
L 240.80256 198.421197 
L 238.65984 199.745127 
L 237.23136 200.520226 
L 236.51712 200.871626 
L 236.516393 200.87002 
L 236.421296 200.162851 
L 236.394395 195.919842 
L 236.389256 79.944238 
L 236.389249 77.292356 
L 236.389249 77.292356 
" style="fill:none;stroke:#ee00ff;stroke-width:1.5;"/>
   </g>
   <g id="LineCollection_22">
    <path clip-path="url(#pd49b1e4535)" d="M 286.931218 77.292356 
L 282.059237 94.971564 
L 277.694529 110.175683 
L 273.052472 125.556594 
L 268.488453 139.69996 
L 264.857538 150.130693 
L 261.322508 159.500673 
L 258.038876 167.456317 
L 254.901175 174.351208 
L 251.947753 180.185347 
L 249.452343 184.605149 
L 246.668812 189.02495 
L 243.875129 192.914376 
L 241.712498 195.566257 
L 238.90309 198.571723 
L 236.602112 200.693228 
L 236.51712 200.734696 
L 236.505546 200.693228 
L 236.439974 199.632475 
L 236.420727 190.792871 
L 236.417905 77.292356 
L 236.417905 77.292356 
" style="fill:none;stroke:#ff00cf;stroke-width:1.5;"/>
   </g>
   <g id="LineCollection_23">
    <path clip-path="url(#pd49b1e4535)" d="M 271.690653 77.292356 
L 266.50358 103.634376 
L 262.213971 123.965465 
L 259.321096 136.694495 
L 256.655662 147.655604 
L 253.64795 158.970297 
L 251.141759 167.456317 
L 248.959215 174.174416 
L 246.927991 179.831762 
L 244.802824 185.135525 
L 242.313928 190.616079 
L 240.293481 194.505505 
L 238.199136 198.041347 
L 236.51712 200.537939 
L 236.513699 200.516436 
L 236.462612 198.925307 
L 236.448162 181.776475 
L 236.446561 77.292356 
L 236.446561 77.292356 
" style="fill:none;stroke:#ff0094;stroke-width:1.5;"/>
   </g>
   <g id="LineCollection_24">
    <path clip-path="url(#pd49b1e4535)" d="M 257.179371 77.292356 
L 254.259707 102.22004 
L 251.813719 121.84396 
L 248.995169 142.351842 
L 247.103057 154.727287 
L 245.262541 165.511604 
L 243.41261 175.058376 
L 241.550477 183.367604 
L 239.645093 190.616079 
L 238.012879 195.919842 
L 236.51712 200.113459 
L 236.511663 199.986059 
L 236.481608 195.389465 
L 236.475273 91.612515 
L 236.475217 77.292356 
L 236.475217 77.292356 
" style="fill:none;stroke:#ff0053;stroke-width:1.5;"/>
   </g>
   <g id="LineCollection_25">
    <path clip-path="url(#pd49b1e4535)" d="M 243.103579 77.292356 
L 240.475945 140.937505 
L 239.617895 157.202376 
L 238.404052 177.003089 
L 237.23136 191.360086 
L 236.51712 198.003958 
L 236.516512 197.864554 
L 236.504846 166.395564 
L 236.503873 77.292356 
L 236.503873 77.292356 
" style="fill:none;stroke:#ff0018;stroke-width:1.5;"/>
   </g>
   <g id="patch_4">
    <path d="M 57.6 271.763644 
L 57.6 77.292356 
" style="fill:none;stroke:#000000;stroke-linecap:square;stroke-linejoin:miter;stroke-width:0.8;"/>
   </g>
   <g id="patch_5">
    <path d="M 414.72 271.763644 
L 414.72 77.292356 
" style="fill:none;stroke:#000000;stroke-linecap:square;stroke-linejoin:miter;stroke-width:0.8;"/>
   </g>
   <g id="patch_6">
    <path d="M 57.6 271.763644 
L 414.72 271.763644 
" style="fill:none;stroke:#000000;stroke-linecap:square;stroke-linejoin:miter;stroke-width:0.8;"/>
   </g>
   <g id="patch_7">
    <path d="M 57.6 77.292356 
L 414.72 77.292356 
" style="fill:none;stroke:#000000;stroke-linecap:square;stroke-linejoin:miter;stroke-width:0.8;"/>
   </g>
   <g id="text_18">
    <!-- Stream function $\psi(x,y)$, $h = 3 l_{ee}$ -->
    <defs>
     <path d="M 53.515625 70.515625 
L 53.515625 60.890625 
Q 47.90625 63.578125 42.921875 64.890625 
Q 37.9375 66.21875 33.296875 66.21875 
Q 25.25 66.21875 20.875 63.09375 
Q 16.5 59.96875 16.5 54.203125 
Q 16.5 49.359375 19.40625 46.890625 
Q 22.3125 44.4375 30.421875 42.921875 
L 36.375 41.703125 
Q 47.40625 39.59375 52.65625 34.296875 
Q 57.90625 29 57.90625 20.125 
Q 57.90625 9.515625 50.796875 4.046875 
Q 43.703125 -1.421875 29.984375 -1.421875 
Q 24.8125 -1.421875 18.96875 -0.25 
Q 13.140625 0.921875 6.890625 3.21875 
L 6.890625 13.375 
Q 12.890625 10.015625 18.65625 8.296875 
Q 24.421875 6.59375 29.984375 6.59375 
Q 38.421875 6.59375 43.015625 9.90625 
Q 47.609375 13.234375 47.609375 19.390625 
Q 47.609375 24.75 44.3125 27.78125 
Q 41.015625 30.8125 33.5 32.328125 
L 27.484375 33.5 
Q 16.453125 35.6875 11.515625 40.375 
Q 6.59375 45.0625 6.59375 53.421875 
Q 6.59375 63.09375 13.40625 68.65625 
Q 20.21875 74.21875 32.171875 74.21875 
Q 37.3125 74.21875 42.625 73.28125 
Q 47.953125 72.359375 53.515625 70.515625 
z
" id="DejaVuSans-53"/>
     <path d="M 18.3125 70.21875 
L 18.3125 54.6875 
L 36.8125 54.6875 
L 36.8125 47.703125 
L 18.3125 47.703125 
L 18.3125 18.015625 
Q 18.3125 11.328125 20.140625 9.421875 
Q 21.96875 7.515625 27.59375 7.515625 
L 36.8125 7.515625 
L 36.8125 0 
L 27.59375 0 
Q 17.1875 0 13.234375 3.875 
Q 9.28125 7.765625 9.28125 18.015625 
L 9.28125 47.703125 
L 2.6875 47.703125 
L 2.6875 54.6875 
L 9.28125 54.6875 
L 9.28125 70.21875 
z
" id="DejaVuSans-74"/>
     <path d="M 41.109375 46.296875 
Q 39.59375 47.171875 37.8125 47.578125 
Q 36.03125 48 33.890625 48 
Q 26.265625 48 22.1875 43.046875 
Q 18.109375 38.09375 18.109375 28.8125 
L 18.109375 0 
L 9.078125 0 
L 9.078125 54.6875 
L 18.109375 54.6875 
L 18.109375 46.1875 
Q 20.953125 51.171875 25.484375 53.578125 
Q 30.03125 56 36.53125 56 
Q 37.453125 56 38.578125 55.875 
Q 39.703125 55.765625 41.0625 55.515625 
z
" id="DejaVuSans-72"/>
     <path d="M 56.203125 29.59375 
L 56.203125 25.203125 
L 14.890625 25.203125 
Q 15.484375 15.921875 20.484375 11.0625 
Q 25.484375 6.203125 34.421875 6.203125 
Q 39.59375 6.203125 44.453125 7.46875 
Q 49.3125 8.734375 54.109375 11.28125 
L 54.109375 2.78125 
Q 49.265625 0.734375 44.1875 -0.34375 
Q 39.109375 -1.421875 33.890625 -1.421875 
Q 20.796875 -1.421875 13.15625 6.1875 
Q 5.515625 13.8125 5.515625 26.8125 
Q 5.515625 40.234375 12.765625 48.109375 
Q 20.015625 56 32.328125 56 
Q 43.359375 56 49.78125 48.890625 
Q 56.203125 41.796875 56.203125 29.59375 
z
M 47.21875 32.234375 
Q 47.125 39.59375 43.09375 43.984375 
Q 39.0625 48.390625 32.421875 48.390625 
Q 24.90625 48.390625 20.390625 44.140625 
Q 15.875 39.890625 15.1875 32.171875 
z
" id="DejaVuSans-65"/>
     <path d="M 34.28125 27.484375 
Q 23.390625 27.484375 19.1875 25 
Q 14.984375 22.515625 14.984375 16.5 
Q 14.984375 11.71875 18.140625 8.90625 
Q 21.296875 6.109375 26.703125 6.109375 
Q 34.1875 6.109375 38.703125 11.40625 
Q 43.21875 16.703125 43.21875 25.484375 
L 43.21875 27.484375 
z
M 52.203125 31.203125 
L 52.203125 0 
L 43.21875 0 
L 43.21875 8.296875 
Q 40.140625 3.328125 35.546875 0.953125 
Q 30.953125 -1.421875 24.3125 -1.421875 
Q 15.921875 -1.421875 10.953125 3.296875 
Q 6 8.015625 6 15.921875 
Q 6 25.140625 12.171875 29.828125 
Q 18.359375 34.515625 30.609375 34.515625 
L 43.21875 34.515625 
L 43.21875 35.40625 
Q 43.21875 41.609375 39.140625 45 
Q 35.0625 48.390625 27.6875 48.390625 
Q 23 48.390625 18.546875 47.265625 
Q 14.109375 46.140625 10.015625 43.890625 
L 10.015625 52.203125 
Q 14.9375 54.109375 19.578125 55.046875 
Q 24.21875 56 28.609375 56 
Q 40.484375 56 46.34375 49.84375 
Q 52.203125 43.703125 52.203125 31.203125 
z
" id="DejaVuSans-61"/>
     <path d="M 52 44.1875 
Q 55.375 50.25 60.0625 53.125 
Q 64.75 56 71.09375 56 
Q 79.640625 56 84.28125 50.015625 
Q 88.921875 44.046875 88.921875 33.015625 
L 88.921875 0 
L 79.890625 0 
L 79.890625 32.71875 
Q 79.890625 40.578125 77.09375 44.375 
Q 74.3125 48.1875 68.609375 48.1875 
Q 61.625 48.1875 57.5625 43.546875 
Q 53.515625 38.921875 53.515625 30.90625 
L 53.515625 0 
L 44.484375 0 
L 44.484375 32.71875 
Q 44.484375 40.625 41.703125 44.40625 
Q 38.921875 48.1875 33.109375 48.1875 
Q 26.21875 48.1875 22.15625 43.53125 
Q 18.109375 38.875 18.109375 30.90625 
L 18.109375 0 
L 9.078125 0 
L 9.078125 54.6875 
L 18.109375 54.6875 
L 18.109375 46.1875 
Q 21.1875 51.21875 25.484375 53.609375 
Q 29.78125 56 35.6875 56 
Q 41.65625 56 45.828125 52.96875 
Q 50 49.953125 52 44.1875 
z
" id="DejaVuSans-6d"/>
     <path id="DejaVuSans-20"/>
     <path d="M 37.109375 75.984375 
L 37.109375 68.5 
L 28.515625 68.5 
Q 23.6875 68.5 21.796875 66.546875 
Q 19.921875 64.59375 19.921875 59.515625 
L 19.921875 54.6875 
L 34.71875 54.6875 
L 34.71875 47.703125 
L 19.921875 47.703125 
L 19.921875 0 
L 10.890625 0 
L 10.890625 47.703125 
L 2.296875 47.703125 
L 2.296875 54.6875 
L 10.890625 54.6875 
L 10.890625 58.5 
Q 10.890625 67.625 15.140625 71.796875 
Q 19.390625 75.984375 28.609375 75.984375 
z
" id="DejaVuSans-66"/>
     <path d="M 8.5 21.578125 
L 8.5 54.6875 
L 17.484375 54.6875 
L 17.484375 21.921875 
Q 17.484375 14.15625 20.5 10.265625 
Q 23.53125 6.390625 29.59375 6.390625 
Q 36.859375 6.390625 41.078125 11.03125 
Q 45.3125 15.671875 45.3125 23.6875 
L 45.3125 54.6875 
L 54.296875 54.6875 
L 54.296875 0 
L 45.3125 0 
L 45.3125 8.40625 
Q 42.046875 3.421875 37.71875 1 
Q 33.40625 -1.421875 27.6875 -1.421875 
Q 18.265625 -1.421875 13.375 4.4375 
Q 8.5 10.296875 8.5 21.578125 
z
M 31.109375 56 
z
" id="DejaVuSans-75"/>
     <path d="M 54.890625 33.015625 
L 54.890625 0 
L 45.90625 0 
L 45.90625 32.71875 
Q 45.90625 40.484375 42.875 44.328125 
Q 39.84375 48.1875 33.796875 48.1875 
Q 26.515625 48.1875 22.3125 43.546875 
Q 18.109375 38.921875 18.109375 30.90625 
L 18.109375 0 
L 9.078125 0 
L 9.078125 54.6875 
L 18.109375 54.6875 
L 18.109375 46.1875 
Q 21.34375 51.125 25.703125 53.5625 
Q 30.078125 56 35.796875 56 
Q 45.21875 56 50.046875 50.171875 
Q 54.890625 44.34375 54.890625 33.015625 
z
" id="DejaVuSans-6e"/>
     <path d="M 48.78125 52.59375 
L 48.78125 44.1875 
Q 44.96875 46.296875 41.140625 47.34375 
Q 37.3125 48.390625 33.40625 48.390625 
Q 24.65625 48.390625 19.8125 42.84375 
Q 14.984375 37.3125 14.984375 27.296875 
Q 14.984375 17.28125 19.8125 11.734375 
Q 24.65625 6.203125 33.40625 6.203125 
Q 37.3125 6.203125 41.140625 7.25 
Q 44.96875 8.296875 48.78125 10.40625 
L 48.78125 2.09375 
Q 45.015625 0.34375 40.984375 -0.53125 
Q 36.96875 -1.421875 32.421875 -1.421875 
Q 20.0625 -1.421875 12.78125 6.34375 
Q 5.515625 14.109375 5.515625 27.296875 
Q 5.515625 40.671875 12.859375 48.328125 
Q 20.21875 56 33.015625 56 
Q 37.15625 56 41.109375 55.140625 
Q 45.0625 54.296875 48.78125 52.59375 
z
" id="DejaVuSans-63"/>
     <path d="M 9.421875 54.6875 
L 18.40625 54.6875 
L 18.40625 0 
L 9.421875 0 
z
M 9.421875 75.984375 
L 18.40625 75.984375 
L 18.40625 64.59375 
L 9.421875 64.59375 
z
" id="DejaVuSans-69"/>
     <path d="M 30.609375 48.390625 
Q 23.390625 48.390625 19.1875 42.75 
Q 14.984375 37.109375 14.984375 27.296875 
Q 14.984375 17.484375 19.15625 11.84375 
Q 23.34375 6.203125 30.609375 6.203125 
Q 37.796875 6.203125 41.984375 11.859375 
Q 46.1875 17.53125 46.1875 27.296875 
Q 46.1875 37.015625 41.984375 42.703125 
Q 37.796875 48.390625 30.609375 48.390625 
z
M 30.609375 56 
Q 42.328125 56 49.015625 48.375 
Q 55.71875 40.765625 55.71875 27.296875 
Q 55.71875 13.875 49.015625 6.21875 
Q 42.328125 -1.421875 30.609375 -1.421875 
Q 18.84375 -1.421875 12.171875 6.21875 
Q 5.515625 13.875 5.515625 27.296875 
Q 5.515625 40.765625 12.171875 48.375 
Q 18.84375 56 30.609375 56 
z
" id="DejaVuSans-6f"/>
     <path d="M 24.859375 -1.21875 
Q 13.921875 0.59375 9.625 5.328125 
Q 4.34375 11.140625 6.640625 23 
L 12.796875 54.6875 
L 21.875 54.6875 
L 15.765625 23.34375 
Q 14.0625 14.40625 17.484375 10.6875 
Q 20.515625 7.46875 26.421875 6.78125 
L 35.6875 54.6875 
L 44.625 54.6875 
L 35.359375 6.84375 
Q 41.890625 7.515625 45.75 10.75 
Q 50.734375 14.84375 52.390625 23.390625 
L 58.453125 54.6875 
L 67.53125 54.6875 
L 61.375 23.046875 
Q 58.984375 10.75 51.5625 5.375 
Q 44.875 0.53125 33.796875 -1.171875 
L 29.984375 -20.796875 
L 21.046875 -20.796875 
z
" id="DejaVuSans-Oblique-3c8"/>
     <path d="M 31 75.875 
Q 24.46875 64.65625 21.28125 53.65625 
Q 18.109375 42.671875 18.109375 31.390625 
Q 18.109375 20.125 21.3125 9.0625 
Q 24.515625 -2 31 -13.1875 
L 23.1875 -13.1875 
Q 15.875 -1.703125 12.234375 9.375 
Q 8.59375 20.453125 8.59375 31.390625 
Q 8.59375 42.28125 12.203125 53.3125 
Q 15.828125 64.359375 23.1875 75.875 
z
" id="DejaVuSans-28"/>
     <path d="M 11.71875 12.40625 
L 22.015625 12.40625 
L 22.015625 4 
L 14.015625 -11.625 
L 7.71875 -11.625 
L 11.71875 4 
z
" id="DejaVuSans-2c"/>
     <path d="M 8.015625 75.875 
L 15.828125 75.875 
Q 23.140625 64.359375 26.78125 53.3125 
Q 30.421875 42.28125 30.421875 31.390625 
Q 30.421875 20.453125 26.78125 9.375 
Q 23.140625 -1.703125 15.828125 -13.1875 
L 8.015625 -13.1875 
Q 14.5 -2 17.703125 9.0625 
Q 20.90625 20.125 20.90625 31.390625 
Q 20.90625 42.671875 17.703125 53.65625 
Q 14.5 64.65625 8.015625 75.875 
z
" id="DejaVuSans-29"/>
     <path d="M 55.71875 33.015625 
L 49.3125 0 
L 40.28125 0 
L 46.6875 32.671875 
Q 47.125 34.96875 47.359375 36.71875 
Q 47.609375 38.484375 47.609375 39.5 
Q 47.609375 43.609375 45.015625 45.890625 
Q 42.4375 48.1875 37.796875 48.1875 
Q 30.5625 48.1875 25.265625 43.296875 
Q 19.96875 38.421875 18.40625 30.328125 
L 12.5 0 
L 3.515625 0 
L 18.3125 75.984375 
L 27.296875 75.984375 
L 21.484375 46.09375 
Q 24.90625 50.6875 30.21875 53.34375 
Q 35.546875 56 41.40625 56 
Q 48.640625 56 52.609375 52.09375 
Q 56.59375 48.1875 56.59375 41.109375 
Q 56.59375 39.359375 56.375 37.359375 
Q 56.15625 35.359375 55.71875 33.015625 
z
" id="DejaVuSans-Oblique-68"/>
     <path d="M 10.59375 45.40625 
L 73.1875 45.40625 
L 73.1875 37.203125 
L 10.59375 37.203125 
z
M 10.59375 25.484375 
L 73.1875 25.484375 
L 73.1875 17.1875 
L 10.59375 17.1875 
z
" id="DejaVuSans-3d"/>
     <path d="M 40.578125 39.3125 
Q 47.65625 37.796875 51.625 33 
Q 55.609375 28.21875 55.609375 21.1875 
Q 55.609375 10.40625 48.1875 4.484375 
Q 40.765625 -1.421875 27.09375 -1.421875 
Q 22.515625 -1.421875 17.65625 -0.515625 
Q 12.796875 0.390625 7.625 2.203125 
L 7.625 11.71875 
Q 11.71875 9.328125 16.59375 8.109375 
Q 21.484375 6.890625 26.8125 6.890625 
Q 36.078125 6.890625 40.9375 10.546875 
Q 45.796875 14.203125 45.796875 21.1875 
Q 45.796875 27.640625 41.28125 31.265625 
Q 36.765625 34.90625 28.71875 34.90625 
L 20.21875 34.90625 
L 20.21875 43.015625 
L 29.109375 43.015625 
Q 36.375 43.015625 40.234375 45.921875 
Q 44.09375 48.828125 44.09375 54.296875 
Q 44.09375 59.90625 40.109375 62.90625 
Q 36.140625 65.921875 28.71875 65.921875 
Q 24.65625 65.921875 20.015625 65.03125 
Q 15.375 64.15625 9.8125 62.3125 
L 9.8125 71.09375 
Q 15.4375 72.65625 20.34375 73.4375 
Q 25.25 74.21875 29.59375 74.21875 
Q 40.828125 74.21875 47.359375 69.109375 
Q 53.90625 64.015625 53.90625 55.328125 
Q 53.90625 49.265625 50.4375 45.09375 
Q 46.96875 40.921875 40.578125 39.3125 
z
" id="DejaVuSans-33"/>
    </defs>
    <g transform="translate(141.36 71.292356)scale(0.12 -0.12)">
     <use transform="translate(0 0.015625)" xlink:href="#DejaVuSans-53"/>
     <use transform="translate(63.476562 0.015625)" xlink:href="#DejaVuSans-74"/>
     <use transform="translate(102.685547 0.015625)" xlink:href="#DejaVuSans-72"/>
     <use transform="translate(143.798828 0.015625)" xlink:href="#DejaVuSans-65"/>
     <use transform="translate(205.322266 0.015625)" xlink:href="#DejaVuSans-61"/>
     <use transform="translate(266.601562 0.015625)" xlink:href="#DejaVuSans-6d"/>
     <use transform="translate(364.013672 0.015625)" xlink:href="#DejaVuSans-20"/>
     <use transform="translate(395.800781 0.015625)" xlink:href="#DejaVuSans-66"/>
     <use transform="translate(431.005859 0.015625)" xlink:href="#DejaVuSans-75"/>
     <use transform="translate(494.384766 0.015625)" xlink:href="#DejaVuSans-6e"/>
     <use transform="translate(557.763672 0.015625)" xlink:href="#DejaVuSans-63"/>
     <use transform="translate(612.744141 0.015625)" xlink:href="#DejaVuSans-74"/>
     <use transform="translate(651.953125 0.015625)" xlink:href="#DejaVuSans-69"/>
     <use transform="translate(679.736328 0.015625)" xlink:href="#DejaVuSans-6f"/>
     <use transform="translate(740.917969 0.015625)" xlink:href="#DejaVuSans-6e"/>
     <use transform="translate(804.296875 0.015625)" xlink:href="#DejaVuSans-20"/>
     <use transform="translate(836.083984 0.015625)" xlink:href="#DejaVuSans-Oblique-3c8"/>
     <use transform="translate(902.050781 0.015625)" xlink:href="#DejaVuSans-28"/>
     <use transform="translate(941.064453 0.015625)" xlink:href="#DejaVuSans-Oblique-78"/>
     <use transform="translate(1000.244141 0.015625)" xlink:href="#DejaVuSans-2c"/>
     <use transform="translate(1051.513672 0.015625)" xlink:href="#DejaVuSans-Oblique-79"/>
     <use transform="translate(1110.693359 0.015625)" xlink:href="#DejaVuSans-29"/>
     <use transform="translate(1149.707031 0.015625)" xlink:href="#DejaVuSans-2c"/>
     <use transform="translate(1181.494141 0.015625)" xlink:href="#DejaVuSans-20"/>
     <use transform="translate(1213.28125 0.015625)" xlink:href="#DejaVuSans-Oblique-68"/>
     <use transform="translate(1296.142578 0.015625)" xlink:href="#DejaVuSans-3d"/>
     <use transform="translate(1399.414062 0.015625)" xlink:href="#DejaVuSans-33"/>
     <use transform="translate(1463.037109 0.015625)" xlink:href="#DejaVuSans-Oblique-6c"/>
     <use transform="translate(1490.820312 -16.390625)scale(0.7)" xlink:href="#DejaVuSans-Oblique-65"/>
     <use transform="translate(1533.886719 -16.390625)scale(0.7)" xlink:href="#DejaVuSans-Oblique-65"/>
    </g>
   </g>
  </g>
 </g>
 <defs>
  <clipPath id="pd49b1e4535">
   <rect height="194.471287" width="357.12" x="57.6" y="77.292356"/>
  </clipPath>
 </defs>
</svg>
