<?xml version="1.0" encoding="utf-8" standalone="no"?>
<!DOCTYPE svg PUBLIC "-//W3C//DTD SVG 1.1//EN"
  "http://www.w3.org/Graphics/SVG/1.1/DTD/svg11.dtd">
<!-- Created with matplotlib (http://matplotlib.org/) -->
<svg height="345.6pt" version="1.1" viewBox="0 0 460.8 345.6" width="460.8pt" xmlns="http://www.w3.org/2000/svg" xmlns:xlink="http://www.w3.org/1999/xlink">
 <defs>
  <style type="text/css">
*{stroke-linecap:butt;stroke-linejoin:round;}
  </style>
 </defs>
 <g id="figure_1">
  <g id="patch_1">
   <path d="M 0 345.6 
L 460.8 345.6 
L 460.8 0 
L 0 0 
z
" style="fill:#ffffff;"/>
  </g>
  <g id="axes_1">
   <g id="patch_2">
    <path d="M 57.6 271.763644 
L 414.72 271.763644 
L 414.72 77.292356 
L 57.6 77.292356 
z
" style="fill:#ffffff;"/>
   </g>
   <g id="patch_3">
    <path clip-path="url(#p83217ec86e)" d="M 57.6 271.763644 
L 236.106962 271.763644 
L 236.106962 254.084436 
L 57.6 254.084436 
z
" style="fill:#cccccc;stroke:#808080;stroke-linejoin:miter;"/>
   </g>
   <g id="patch_4">
    <path clip-path="url(#p83217ec86e)" d="M 236.213038 271.763644 
L 414.72 271.763644 
L 414.72 254.084436 
L 236.213038 254.084436 
z
" style="fill:#cccccc;stroke:#808080;stroke-linejoin:miter;"/>
   </g>
   <g id="patch_5">
    <path clip-path="url(#p83217ec86e)" d="M 236.106962 271.763644 
L 236.213038 271.763644 
L 236.213038 254.084436 
L 236.106962 254.084436 
z
" style="fill:#ff0000;stroke:#ff0000;stroke-linejoin:miter;"/>
   </g>
   <g id="matplotlib.axis_1">
    <g id="xtick_1">
     <g id="line2d_1">
      <defs>
       <path d="M 0 0 
L 0 3.5 
" id="m49280ce55e" style="stroke:#000000;stroke-width:0.8;"/>
      </defs>
      <g>
       <use style="stroke:#000000;stroke-width:0.8;" x="59.367921" xlink:href="#m49280ce55e" y="271.763644"/>
      </g>
     </g>
     <g id="text_1">
      <!-- −10.0 -->
      <defs>
       <path d="M 10.59375 35.5 
L 73.1875 35.5 
L 73.1875 27.203125 
L 10.59375 27.203125 
z
" id="DejaVuSans-2212"/>
       <path d="M 12.40625 8.296875 
L 28.515625 8.296875 
L 28.515625 63.921875 
L 10.984375 60.40625 
L 10.984375 69.390625 
L 28.421875 72.90625 
L 38.28125 72.90625 
L 38.28125 8.296875 
L 54.390625 8.296875 
L 54.390625 0 
L 12.40625 0 
z
" id="DejaVuSans-31"/>
       <path d="M 31.78125 66.40625 
Q 24.171875 66.40625 20.328125 58.90625 
Q 16.5 51.421875 16.5 36.375 
Q 16.5 21.390625 20.328125 13.890625 
Q 24.171875 6.390625 31.78125 6.390625 
Q 39.453125 6.390625 43.28125 13.890625 
Q 47.125 21.390625 47.125 36.375 
Q 47.125 51.421875 43.28125 58.90625 
Q 39.453125 66.40625 31.78125 66.40625 
z
M 31.78125 74.21875 
Q 44.046875 74.21875 50.515625 64.515625 
Q 56.984375 54.828125 56.984375 36.375 
Q 56.984375 17.96875 50.515625 8.265625 
Q 44.046875 -1.421875 31.78125 -1.421875 
Q 19.53125 -1.421875 13.0625 8.265625 
Q 6.59375 17.96875 6.59375 36.375 
Q 6.59375 54.828125 13.0625 64.515625 
Q 19.53125 74.21875 31.78125 74.21875 
z
" id="DejaVuSans-30"/>
       <path d="M 10.6875 12.40625 
L 21 12.40625 
L 21 0 
L 10.6875 0 
z
" id="DejaVuSans-2e"/>
      </defs>
      <g transform="translate(44.045265 286.362081)scale(0.1 -0.1)">
       <use xlink:href="#DejaVuSans-2212"/>
       <use x="83.789062" xlink:href="#DejaVuSans-31"/>
       <use x="147.412109" xlink:href="#DejaVuSans-30"/>
       <use x="211.035156" xlink:href="#DejaVuSans-2e"/>
       <use x="242.822266" xlink:href="#DejaVuSans-30"/>
      </g>
     </g>
    </g>
    <g id="xtick_2">
     <g id="line2d_2">
      <g>
       <use style="stroke:#000000;stroke-width:0.8;" x="103.565941" xlink:href="#m49280ce55e" y="271.763644"/>
      </g>
     </g>
     <g id="text_2">
      <!-- −7.5 -->
      <defs>
       <path d="M 8.203125 72.90625 
L 55.078125 72.90625 
L 55.078125 68.703125 
L 28.609375 0 
L 18.3125 0 
L 43.21875 64.59375 
L 8.203125 64.59375 
z
" id="DejaVuSans-37"/>
       <path d="M 10.796875 72.90625 
L 49.515625 72.90625 
L 49.515625 64.59375 
L 19.828125 64.59375 
L 19.828125 46.734375 
Q 21.96875 47.46875 24.109375 47.828125 
Q 26.265625 48.1875 28.421875 48.1875 
Q 40.625 48.1875 47.75 41.5 
Q 54.890625 34.8125 54.890625 23.390625 
Q 54.890625 11.625 47.5625 5.09375 
Q 40.234375 -1.421875 26.90625 -1.421875 
Q 22.3125 -1.421875 17.546875 -0.640625 
Q 12.796875 0.140625 7.71875 1.703125 
L 7.71875 11.625 
Q 12.109375 9.234375 16.796875 8.0625 
Q 21.484375 6.890625 26.703125 6.890625 
Q 35.15625 6.890625 40.078125 11.328125 
Q 45.015625 15.765625 45.015625 23.390625 
Q 45.015625 31 40.078125 35.4375 
Q 35.15625 39.890625 26.703125 39.890625 
Q 22.75 39.890625 18.8125 39.015625 
Q 14.890625 38.140625 10.796875 36.28125 
z
" id="DejaVuSans-35"/>
      </defs>
      <g transform="translate(91.424534 286.362081)scale(0.1 -0.1)">
       <use xlink:href="#DejaVuSans-2212"/>
       <use x="83.789062" xlink:href="#DejaVuSans-37"/>
       <use x="147.412109" xlink:href="#DejaVuSans-2e"/>
       <use x="179.199219" xlink:href="#DejaVuSans-35"/>
      </g>
     </g>
    </g>
    <g id="xtick_3">
     <g id="line2d_3">
      <g>
       <use style="stroke:#000000;stroke-width:0.8;" x="147.76396" xlink:href="#m49280ce55e" y="271.763644"/>
      </g>
     </g>
     <g id="text_3">
      <!-- −5.0 -->
      <g transform="translate(135.622554 286.362081)scale(0.1 -0.1)">
       <use xlink:href="#DejaVuSans-2212"/>
       <use x="83.789062" xlink:href="#DejaVuSans-35"/>
       <use x="147.412109" xlink:href="#DejaVuSans-2e"/>
       <use x="179.199219" xlink:href="#DejaVuSans-30"/>
      </g>
     </g>
    </g>
    <g id="xtick_4">
     <g id="line2d_4">
      <g>
       <use style="stroke:#000000;stroke-width:0.8;" x="191.96198" xlink:href="#m49280ce55e" y="271.763644"/>
      </g>
     </g>
     <g id="text_4">
      <!-- −2.5 -->
      <defs>
       <path d="M 19.1875 8.296875 
L 53.609375 8.296875 
L 53.609375 0 
L 7.328125 0 
L 7.328125 8.296875 
Q 12.9375 14.109375 22.625 23.890625 
Q 32.328125 33.6875 34.8125 36.53125 
Q 39.546875 41.84375 41.421875 45.53125 
Q 43.3125 49.21875 43.3125 52.78125 
Q 43.3125 58.59375 39.234375 62.25 
Q 35.15625 65.921875 28.609375 65.921875 
Q 23.96875 65.921875 18.8125 64.3125 
Q 13.671875 62.703125 7.8125 59.421875 
L 7.8125 69.390625 
Q 13.765625 71.78125 18.9375 73 
Q 24.125 74.21875 28.421875 74.21875 
Q 39.75 74.21875 46.484375 68.546875 
Q 53.21875 62.890625 53.21875 53.421875 
Q 53.21875 48.921875 51.53125 44.890625 
Q 49.859375 40.875 45.40625 35.40625 
Q 44.1875 33.984375 37.640625 27.21875 
Q 31.109375 20.453125 19.1875 8.296875 
z
" id="DejaVuSans-32"/>
      </defs>
      <g transform="translate(179.820574 286.362081)scale(0.1 -0.1)">
       <use xlink:href="#DejaVuSans-2212"/>
       <use x="83.789062" xlink:href="#DejaVuSans-32"/>
       <use x="147.412109" xlink:href="#DejaVuSans-2e"/>
       <use x="179.199219" xlink:href="#DejaVuSans-35"/>
      </g>
     </g>
    </g>
    <g id="xtick_5">
     <g id="line2d_5">
      <g>
       <use style="stroke:#000000;stroke-width:0.8;" x="236.16" xlink:href="#m49280ce55e" y="271.763644"/>
      </g>
     </g>
     <g id="text_5">
      <!-- 0.0 -->
      <g transform="translate(228.208438 286.362081)scale(0.1 -0.1)">
       <use xlink:href="#DejaVuSans-30"/>
       <use x="63.623047" xlink:href="#DejaVuSans-2e"/>
       <use x="95.410156" xlink:href="#DejaVuSans-30"/>
      </g>
     </g>
    </g>
    <g id="xtick_6">
     <g id="line2d_6">
      <g>
       <use style="stroke:#000000;stroke-width:0.8;" x="280.35802" xlink:href="#m49280ce55e" y="271.763644"/>
      </g>
     </g>
     <g id="text_6">
      <!-- 2.5 -->
      <g transform="translate(272.406457 286.362081)scale(0.1 -0.1)">
       <use xlink:href="#DejaVuSans-32"/>
       <use x="63.623047" xlink:href="#DejaVuSans-2e"/>
       <use x="95.410156" xlink:href="#DejaVuSans-35"/>
      </g>
     </g>
    </g>
    <g id="xtick_7">
     <g id="line2d_7">
      <g>
       <use style="stroke:#000000;stroke-width:0.8;" x="324.55604" xlink:href="#m49280ce55e" y="271.763644"/>
      </g>
     </g>
     <g id="text_7">
      <!-- 5.0 -->
      <g transform="translate(316.604477 286.362081)scale(0.1 -0.1)">
       <use xlink:href="#DejaVuSans-35"/>
       <use x="63.623047" xlink:href="#DejaVuSans-2e"/>
       <use x="95.410156" xlink:href="#DejaVuSans-30"/>
      </g>
     </g>
    </g>
    <g id="xtick_8">
     <g id="line2d_8">
      <g>
       <use style="stroke:#000000;stroke-width:0.8;" x="368.754059" xlink:href="#m49280ce55e" y="271.763644"/>
      </g>
     </g>
     <g id="text_8">
      <!-- 7.5 -->
      <g transform="translate(360.802497 286.362081)scale(0.1 -0.1)">
       <use xlink:href="#DejaVuSans-37"/>
       <use x="63.623047" xlink:href="#DejaVuSans-2e"/>
       <use x="95.410156" xlink:href="#DejaVuSans-35"/>
      </g>
     </g>
    </g>
    <g id="xtick_9">
     <g id="line2d_9">
      <g>
       <use style="stroke:#000000;stroke-width:0.8;" x="412.952079" xlink:href="#m49280ce55e" y="271.763644"/>
      </g>
     </g>
     <g id="text_9">
      <!-- 10.0 -->
      <g transform="translate(401.819267 286.362081)scale(0.1 -0.1)">
       <use xlink:href="#DejaVuSans-31"/>
       <use x="63.623047" xlink:href="#DejaVuSans-30"/>
       <use x="127.246094" xlink:href="#DejaVuSans-2e"/>
       <use x="159.033203" xlink:href="#DejaVuSans-30"/>
      </g>
     </g>
    </g>
    <g id="text_10">
     <!-- $x/l_{ee}$ -->
     <defs>
      <path d="M 60.015625 54.6875 
L 34.90625 27.875 
L 50.296875 0 
L 39.984375 0 
L 28.421875 21.6875 
L 8.296875 0 
L -2.59375 0 
L 24.3125 28.8125 
L 10.015625 54.6875 
L 20.3125 54.6875 
L 30.8125 34.90625 
L 49.125 54.6875 
z
" id="DejaVuSans-Oblique-78"/>
      <path d="M 25.390625 72.90625 
L 33.6875 72.90625 
L 8.296875 -9.28125 
L 0 -9.28125 
z
" id="DejaVuSans-2f"/>
      <path d="M 18.3125 75.984375 
L 27.296875 75.984375 
L 12.5 0 
L 3.515625 0 
z
" id="DejaVuSans-Oblique-6c"/>
      <path d="M 48.09375 32.234375 
Q 48.25 33.015625 48.3125 33.84375 
Q 48.390625 34.671875 48.390625 35.5 
Q 48.390625 41.453125 44.890625 44.921875 
Q 41.40625 48.390625 35.40625 48.390625 
Q 28.71875 48.390625 23.578125 44.15625 
Q 18.453125 39.9375 15.828125 32.171875 
z
M 55.90625 25.203125 
L 14.109375 25.203125 
Q 13.8125 23.34375 13.71875 22.265625 
Q 13.625 21.1875 13.625 20.40625 
Q 13.625 13.625 17.796875 9.90625 
Q 21.96875 6.203125 29.59375 6.203125 
Q 35.453125 6.203125 40.671875 7.515625 
Q 45.90625 8.84375 50.390625 11.375 
L 48.6875 2.484375 
Q 43.84375 0.53125 38.6875 -0.4375 
Q 33.546875 -1.421875 28.21875 -1.421875 
Q 16.84375 -1.421875 10.71875 4.015625 
Q 4.59375 9.46875 4.59375 19.484375 
Q 4.59375 28.03125 7.640625 35.375 
Q 10.6875 42.71875 16.609375 48.484375 
Q 20.40625 52.09375 25.65625 54.046875 
Q 30.90625 56 36.8125 56 
Q 46.09375 56 51.578125 50.4375 
Q 57.078125 44.875 57.078125 35.5 
Q 57.078125 33.25 56.78125 30.6875 
Q 56.5 28.125 55.90625 25.203125 
z
" id="DejaVuSans-Oblique-65"/>
     </defs>
     <g transform="translate(225.66 300.040206)scale(0.1 -0.1)">
      <use transform="translate(0 0.015625)" xlink:href="#DejaVuSans-Oblique-78"/>
      <use transform="translate(59.179688 0.015625)" xlink:href="#DejaVuSans-2f"/>
      <use transform="translate(92.871094 0.015625)" xlink:href="#DejaVuSans-Oblique-6c"/>
      <use transform="translate(120.654297 -16.390625)scale(0.7)" xlink:href="#DejaVuSans-Oblique-65"/>
      <use transform="translate(163.720703 -16.390625)scale(0.7)" xlink:href="#DejaVuSans-Oblique-65"/>
     </g>
    </g>
   </g>
   <g id="matplotlib.axis_2">
    <g id="ytick_1">
     <g id="line2d_10">
      <defs>
       <path d="M 0 0 
L -3.5 0 
" id="m8bf9a095b6" style="stroke:#000000;stroke-width:0.8;"/>
      </defs>
      <g>
       <use style="stroke:#000000;stroke-width:0.8;" x="57.6" xlink:href="#m8bf9a095b6" y="254.084436"/>
      </g>
     </g>
     <g id="text_11">
      <!-- 0 -->
      <g transform="translate(44.2375 257.883654)scale(0.1 -0.1)">
       <use xlink:href="#DejaVuSans-30"/>
      </g>
     </g>
    </g>
    <g id="ytick_2">
     <g id="line2d_11">
      <g>
       <use style="stroke:#000000;stroke-width:0.8;" x="57.6" xlink:href="#m8bf9a095b6" y="218.72602"/>
      </g>
     </g>
     <g id="text_12">
      <!-- 2 -->
      <g transform="translate(44.2375 222.525239)scale(0.1 -0.1)">
       <use xlink:href="#DejaVuSans-32"/>
      </g>
     </g>
    </g>
    <g id="ytick_3">
     <g id="line2d_12">
      <g>
       <use style="stroke:#000000;stroke-width:0.8;" x="57.6" xlink:href="#m8bf9a095b6" y="183.367604"/>
      </g>
     </g>
     <g id="text_13">
      <!-- 4 -->
      <defs>
       <path d="M 37.796875 64.3125 
L 12.890625 25.390625 
L 37.796875 25.390625 
z
M 35.203125 72.90625 
L 47.609375 72.90625 
L 47.609375 25.390625 
L 58.015625 25.390625 
L 58.015625 17.1875 
L 47.609375 17.1875 
L 47.609375 0 
L 37.796875 0 
L 37.796875 17.1875 
L 4.890625 17.1875 
L 4.890625 26.703125 
z
" id="DejaVuSans-34"/>
      </defs>
      <g transform="translate(44.2375 187.166823)scale(0.1 -0.1)">
       <use xlink:href="#DejaVuSans-34"/>
      </g>
     </g>
    </g>
    <g id="ytick_4">
     <g id="line2d_13">
      <g>
       <use style="stroke:#000000;stroke-width:0.8;" x="57.6" xlink:href="#m8bf9a095b6" y="148.009188"/>
      </g>
     </g>
     <g id="text_14">
      <!-- 6 -->
      <defs>
       <path d="M 33.015625 40.375 
Q 26.375 40.375 22.484375 35.828125 
Q 18.609375 31.296875 18.609375 23.390625 
Q 18.609375 15.53125 22.484375 10.953125 
Q 26.375 6.390625 33.015625 6.390625 
Q 39.65625 6.390625 43.53125 10.953125 
Q 47.40625 15.53125 47.40625 23.390625 
Q 47.40625 31.296875 43.53125 35.828125 
Q 39.65625 40.375 33.015625 40.375 
z
M 52.59375 71.296875 
L 52.59375 62.3125 
Q 48.875 64.0625 45.09375 64.984375 
Q 41.3125 65.921875 37.59375 65.921875 
Q 27.828125 65.921875 22.671875 59.328125 
Q 17.53125 52.734375 16.796875 39.40625 
Q 19.671875 43.65625 24.015625 45.921875 
Q 28.375 48.1875 33.59375 48.1875 
Q 44.578125 48.1875 50.953125 41.515625 
Q 57.328125 34.859375 57.328125 23.390625 
Q 57.328125 12.15625 50.6875 5.359375 
Q 44.046875 -1.421875 33.015625 -1.421875 
Q 20.359375 -1.421875 13.671875 8.265625 
Q 6.984375 17.96875 6.984375 36.375 
Q 6.984375 53.65625 15.1875 63.9375 
Q 23.390625 74.21875 37.203125 74.21875 
Q 40.921875 74.21875 44.703125 73.484375 
Q 48.484375 72.75 52.59375 71.296875 
z
" id="DejaVuSans-36"/>
      </defs>
      <g transform="translate(44.2375 151.808407)scale(0.1 -0.1)">
       <use xlink:href="#DejaVuSans-36"/>
      </g>
     </g>
    </g>
    <g id="ytick_5">
     <g id="line2d_14">
      <g>
       <use style="stroke:#000000;stroke-width:0.8;" x="57.6" xlink:href="#m8bf9a095b6" y="112.650772"/>
      </g>
     </g>
     <g id="text_15">
      <!-- 8 -->
      <defs>
       <path d="M 31.78125 34.625 
Q 24.75 34.625 20.71875 30.859375 
Q 16.703125 27.09375 16.703125 20.515625 
Q 16.703125 13.921875 20.71875 10.15625 
Q 24.75 6.390625 31.78125 6.390625 
Q 38.8125 6.390625 42.859375 10.171875 
Q 46.921875 13.96875 46.921875 20.515625 
Q 46.921875 27.09375 42.890625 30.859375 
Q 38.875 34.625 31.78125 34.625 
z
M 21.921875 38.8125 
Q 15.578125 40.375 12.03125 44.71875 
Q 8.5 49.078125 8.5 55.328125 
Q 8.5 64.0625 14.71875 69.140625 
Q 20.953125 74.21875 31.78125 74.21875 
Q 42.671875 74.21875 48.875 69.140625 
Q 55.078125 64.0625 55.078125 55.328125 
Q 55.078125 49.078125 51.53125 44.71875 
Q 48 40.375 41.703125 38.8125 
Q 48.828125 37.15625 52.796875 32.3125 
Q 56.78125 27.484375 56.78125 20.515625 
Q 56.78125 9.90625 50.3125 4.234375 
Q 43.84375 -1.421875 31.78125 -1.421875 
Q 19.734375 -1.421875 13.25 4.234375 
Q 6.78125 9.90625 6.78125 20.515625 
Q 6.78125 27.484375 10.78125 32.3125 
Q 14.796875 37.15625 21.921875 38.8125 
z
M 18.3125 54.390625 
Q 18.3125 48.734375 21.84375 45.5625 
Q 25.390625 42.390625 31.78125 42.390625 
Q 38.140625 42.390625 41.71875 45.5625 
Q 45.3125 48.734375 45.3125 54.390625 
Q 45.3125 60.0625 41.71875 63.234375 
Q 38.140625 66.40625 31.78125 66.40625 
Q 25.390625 66.40625 21.84375 63.234375 
Q 18.3125 60.0625 18.3125 54.390625 
z
" id="DejaVuSans-38"/>
      </defs>
      <g transform="translate(44.2375 116.449991)scale(0.1 -0.1)">
       <use xlink:href="#DejaVuSans-38"/>
      </g>
     </g>
    </g>
    <g id="ytick_6">
     <g id="line2d_15">
      <g>
       <use style="stroke:#000000;stroke-width:0.8;" x="57.6" xlink:href="#m8bf9a095b6" y="77.292356"/>
      </g>
     </g>
     <g id="text_16">
      <!-- 10 -->
      <g transform="translate(37.875 81.091575)scale(0.1 -0.1)">
       <use xlink:href="#DejaVuSans-31"/>
       <use x="63.623047" xlink:href="#DejaVuSans-30"/>
      </g>
     </g>
    </g>
    <g id="text_17">
     <!-- $y/l_{ee}$ -->
     <defs>
      <path d="M 24.8125 -5.078125 
Q 18.5625 -15.578125 14.625 -18.1875 
Q 10.6875 -20.796875 4.59375 -20.796875 
L -2.484375 -20.796875 
L -0.984375 -13.28125 
L 4.203125 -13.28125 
Q 7.953125 -13.28125 10.59375 -11.234375 
Q 13.234375 -9.1875 16.5 -3.21875 
L 19.28125 2 
L 7.171875 54.6875 
L 16.703125 54.6875 
L 25.78125 12.796875 
L 50.875 54.6875 
L 60.296875 54.6875 
z
" id="DejaVuSans-Oblique-79"/>
     </defs>
     <g transform="translate(31.775 185.028)rotate(-90)scale(0.1 -0.1)">
      <use transform="translate(0 0.015625)" xlink:href="#DejaVuSans-Oblique-79"/>
      <use transform="translate(59.179688 0.015625)" xlink:href="#DejaVuSans-2f"/>
      <use transform="translate(92.871094 0.015625)" xlink:href="#DejaVuSans-Oblique-6c"/>
      <use transform="translate(120.654297 -16.390625)scale(0.7)" xlink:href="#DejaVuSans-Oblique-65"/>
      <use transform="translate(163.720703 -16.390625)scale(0.7)" xlink:href="#DejaVuSans-Oblique-65"/>
     </g>
    </g>
   </g>
   <g id="LineCollection_1">
    <path clip-path="url(#p83217ec86e)" d="M 237.110086 254.084436 
L 237.23136 254.087579 
L 237.361448 254.084436 
L 237.23136 254.058629 
L 237.110086 254.084436 
" style="fill:none;stroke:#ff0000;stroke-width:1.5;"/>
    <path clip-path="url(#p83217ec86e)" d="M 240.766228 254.084436 
L 240.80256 254.084623 
L 240.884848 254.084436 
L 240.80256 254.079531 
L 240.766228 254.084436 
" style="fill:none;stroke:#ff0000;stroke-width:1.5;"/>
    <path clip-path="url(#p83217ec86e)" d="M 243.892396 254.084436 
L 244.01664 254.085487 
L 244.043247 254.084436 
L 244.01664 254.051619 
L 243.892396 254.084436 
" style="fill:none;stroke:#ff0000;stroke-width:1.5;"/>
    <path clip-path="url(#p83217ec86e)" d="M 247.513904 254.084436 
L 247.58784 254.085878 
L 247.613925 254.084436 
L 247.58784 254.046659 
L 247.513904 254.084436 
" style="fill:none;stroke:#ff0000;stroke-width:1.5;"/>
    <path clip-path="url(#p83217ec86e)" d="M 250.337574 254.084436 
L 250.4448 254.087534 
L 250.50366 254.084436 
L 250.4448 253.993722 
L 250.337574 254.084436 
" style="fill:none;stroke:#ff0000;stroke-width:1.5;"/>
    <path clip-path="url(#p83217ec86e)" d="M 253.765082 254.084436 
L 254.016 254.089273 
L 254.109232 254.084436 
L 254.016 253.984125 
L 253.765082 254.084436 
" style="fill:none;stroke:#ff0000;stroke-width:1.5;"/>
    <path clip-path="url(#p83217ec86e)" d="M 256.694602 254.084436 
L 256.87296 254.086634 
L 256.978004 254.084436 
L 256.87296 253.979544 
L 256.694602 254.084436 
" style="fill:none;stroke:#ff0000;stroke-width:1.5;"/>
    <path clip-path="url(#p83217ec86e)" d="M 265.815013 254.084436 
L 266.15808 254.087414 
L 266.368265 254.084436 
L 266.15808 253.989731 
L 265.815013 254.084436 
" style="fill:none;stroke:#ff0000;stroke-width:1.5;"/>
    <path clip-path="url(#p83217ec86e)" d="M 269.65696 254.084436 
L 269.72928 254.087108 
L 269.81933 254.084436 
L 269.72928 254.005629 
L 269.65696 254.084436 
" style="fill:none;stroke:#ff0000;stroke-width:1.5;"/>
    <path clip-path="url(#p83217ec86e)" d="M 270.377034 254.084436 
L 270.44352 254.086258 
L 270.504043 254.084436 
L 270.44352 254.0376 
L 270.377034 254.084436 
" style="fill:none;stroke:#ff0000;stroke-width:1.5;"/>
    <path clip-path="url(#p83217ec86e)" d="M 275.037397 254.084436 
L 275.08608 254.086648 
L 275.127769 254.084436 
L 275.08608 254.030685 
L 275.037397 254.084436 
" style="fill:none;stroke:#ff0000;stroke-width:1.5;"/>
    <path clip-path="url(#p83217ec86e)" d="M 276.798966 254.084436 
L 276.87168 254.088376 
L 277.017046 254.084436 
L 276.87168 253.967863 
L 276.798966 254.084436 
" style="fill:none;stroke:#ff0000;stroke-width:1.5;"/>
    <path clip-path="url(#p83217ec86e)" d="M 278.915405 254.084436 
L 279.0144 254.087806 
L 279.37152 254.087817 
L 279.473451 254.084436 
L 279.37152 253.955436 
L 279.0144 253.956299 
L 278.915405 254.084436 
" style="fill:none;stroke:#ff0000;stroke-width:1.5;"/>
    <path clip-path="url(#p83217ec86e)" d="M 280.718103 254.084436 
L 280.8 254.08619 
L 280.826723 254.084436 
L 280.8 254.039194 
L 280.718103 254.084436 
" style="fill:none;stroke:#ff0000;stroke-width:1.5;"/>
    <path clip-path="url(#p83217ec86e)" d="M 281.486369 254.084436 
L 281.51424 254.086271 
L 281.552802 254.084436 
L 281.51424 254.039425 
L 281.486369 254.084436 
" style="fill:none;stroke:#ff0000;stroke-width:1.5;"/>
    <path clip-path="url(#p83217ec86e)" d="M 282.150422 254.084436 
L 282.22848 254.088619 
L 282.317468 254.084436 
L 282.22848 253.991304 
L 282.150422 254.084436 
" style="fill:none;stroke:#ff0000;stroke-width:1.5;"/>
    <path clip-path="url(#p83217ec86e)" d="M 283.474209 254.084436 
L 283.65696 254.092453 
L 283.813899 254.084436 
L 283.65696 253.948588 
L 283.474209 254.084436 
" style="fill:none;stroke:#ff0000;stroke-width:1.5;"/>
    <path clip-path="url(#p83217ec86e)" d="M 287.149036 254.084436 
L 287.22816 254.088909 
L 287.349319 254.084436 
L 287.22816 253.981302 
L 287.149036 254.084436 
" style="fill:none;stroke:#ff0000;stroke-width:1.5;"/>
    <path clip-path="url(#p83217ec86e)" d="M 288.176059 254.084436 
L 288.29952 254.086934 
L 288.423214 254.084436 
L 288.29952 254.025452 
L 288.176059 254.084436 
" style="fill:none;stroke:#ff0000;stroke-width:1.5;"/>
    <path clip-path="url(#p83217ec86e)" d="M 291.865404 254.084436 
L 291.87072 254.084559 
L 292.22784 254.087637 
L 292.28537 254.084436 
L 292.22784 253.993285 
L 291.87072 254.078892 
L 291.865404 254.084436 
" style="fill:none;stroke:#ff0000;stroke-width:1.5;"/>
    <path clip-path="url(#p83217ec86e)" d="M 293.92352 254.084436 
L 294.01344 254.088953 
L 294.083267 254.084436 
L 294.01344 253.969484 
L 293.92352 254.084436 
" style="fill:none;stroke:#ff0000;stroke-width:1.5;"/>
    <path clip-path="url(#p83217ec86e)" d="M 294.975174 254.084436 
L 295.0848 254.088804 
L 295.141221 254.084436 
L 295.0848 253.99778 
L 294.975174 254.084436 
" style="fill:none;stroke:#ff0000;stroke-width:1.5;"/>
    <path clip-path="url(#p83217ec86e)" d="M 300.396252 254.084436 
L 300.4416 254.085992 
L 300.702147 254.084436 
L 300.4416 254.031915 
L 300.396252 254.084436 
" style="fill:none;stroke:#ff0000;stroke-width:1.5;"/>
    <path clip-path="url(#p83217ec86e)" d="M 303.561417 254.084436 
L 303.65568 254.088378 
L 303.788481 254.084436 
L 303.65568 253.961807 
L 303.561417 254.084436 
" style="fill:none;stroke:#ff0000;stroke-width:1.5;"/>
    <path clip-path="url(#p83217ec86e)" d="M 307.351034 254.084436 
L 307.584 254.093193 
L 307.676631 254.084436 
L 307.584 253.92028 
L 307.351034 254.084436 
" style="fill:none;stroke:#ff0000;stroke-width:1.5;"/>
    <path clip-path="url(#p83217ec86e)" d="M 310.206926 254.084436 
L 310.44096 254.093636 
L 310.785721 254.084436 
L 310.681312 253.907644 
L 310.44096 253.795298 
L 310.306999 253.907644 
L 310.206926 254.084436 
" style="fill:none;stroke:#ff0000;stroke-width:1.5;"/>
    <path clip-path="url(#p83217ec86e)" d="M 312.783163 254.084436 
L 312.9408 254.089201 
L 313.038101 254.084436 
L 312.9408 253.958887 
L 312.783163 254.084436 
" style="fill:none;stroke:#ff0000;stroke-width:1.5;"/>
    <path clip-path="url(#p83217ec86e)" d="M 313.574517 254.084436 
L 313.65504 254.088162 
L 313.76121 254.084436 
L 313.65504 253.989522 
L 313.574517 254.084436 
" style="fill:none;stroke:#ff0000;stroke-width:1.5;"/>
    <path clip-path="url(#p83217ec86e)" d="M 314.360651 254.084436 
L 314.36928 254.084658 
L 314.374698 254.084436 
L 314.36928 254.077174 
L 314.360651 254.084436 
" style="fill:none;stroke:#ff0000;stroke-width:1.5;"/>
    <path clip-path="url(#p83217ec86e)" d="M 316.866918 254.084436 
L 316.86912 254.084481 
L 317.22624 254.095943 
L 317.377714 254.084436 
L 317.270802 253.907644 
L 317.22624 253.846094 
L 317.01882 253.907644 
L 316.86912 254.076916 
L 316.866918 254.084436 
" style="fill:none;stroke:#ff0000;stroke-width:1.5;"/>
    <path clip-path="url(#p83217ec86e)" d="M 319.561055 254.084436 
L 319.72608 254.08885 
L 319.909107 254.084436 
L 319.72608 253.930596 
L 319.561055 254.084436 
" style="fill:none;stroke:#ff0000;stroke-width:1.5;"/>
    <path clip-path="url(#p83217ec86e)" d="M 320.944358 254.084436 
L 321.15456 254.092083 
L 321.274761 254.084436 
L 321.15456 253.932219 
L 320.944358 254.084436 
" style="fill:none;stroke:#ff0000;stroke-width:1.5;"/>
    <path clip-path="url(#p83217ec86e)" d="M 322.878549 254.084436 
L 322.94016 254.086375 
L 323.29728 254.08447 
L 323.298549 254.084436 
L 323.29728 254.081662 
L 322.94016 254.001357 
L 322.878549 254.084436 
" style="fill:none;stroke:#ff0000;stroke-width:1.5;"/>
    <path clip-path="url(#p83217ec86e)" d="M 326.005693 254.084436 
L 326.15424 254.091364 
L 326.301644 254.084436 
L 326.15424 253.933962 
L 326.005693 254.084436 
" style="fill:none;stroke:#ff0000;stroke-width:1.5;"/>
    <path clip-path="url(#p83217ec86e)" d="M 329.002193 254.084436 
L 329.0112 254.084767 
L 329.042849 254.084436 
L 329.0112 254.070966 
L 329.002193 254.084436 
" style="fill:none;stroke:#ff0000;stroke-width:1.5;"/>
    <path clip-path="url(#p83217ec86e)" d="M 330.664799 254.084436 
L 330.7968 254.090442 
L 330.996957 254.084436 
L 330.7968 253.937829 
L 330.664799 254.084436 
" style="fill:none;stroke:#ff0000;stroke-width:1.5;"/>
    <path clip-path="url(#p83217ec86e)" d="M 332.18022 254.084436 
L 332.22528 254.086744 
L 332.277497 254.084436 
L 332.22528 254.021433 
L 332.18022 254.084436 
" style="fill:none;stroke:#ff0000;stroke-width:1.5;"/>
    <path clip-path="url(#p83217ec86e)" d="M 333.200453 254.084436 
L 333.29664 254.08659 
L 333.417204 254.084436 
L 333.29664 253.985529 
L 333.200453 254.084436 
" style="fill:none;stroke:#ff0000;stroke-width:1.5;"/>
    <path clip-path="url(#p83217ec86e)" d="M 334.640586 254.084436 
L 334.72512 254.087903 
L 334.861525 254.084436 
L 334.72512 253.972267 
L 334.640586 254.084436 
" style="fill:none;stroke:#ff0000;stroke-width:1.5;"/>
    <path clip-path="url(#p83217ec86e)" d="M 335.681119 254.084436 
L 335.79648 254.087302 
L 335.839329 254.084436 
L 335.79648 254.011186 
L 335.681119 254.084436 
" style="fill:none;stroke:#ff0000;stroke-width:1.5;"/>
    <path clip-path="url(#p83217ec86e)" d="M 337.45141 254.084436 
L 337.58208 254.089938 
L 337.851363 254.084436 
L 337.58208 253.926946 
L 337.45141 254.084436 
" style="fill:none;stroke:#ff0000;stroke-width:1.5;"/>
    <path clip-path="url(#p83217ec86e)" d="M 341.336635 254.084436 
L 341.5104 254.092731 
L 341.86752 254.088857 
L 341.924826 254.084436 
L 341.86752 253.954463 
L 341.702933 253.907644 
L 341.5104 253.815757 
L 341.422777 253.907644 
L 341.336635 254.084436 
" style="fill:none;stroke:#ff0000;stroke-width:1.5;"/>
    <path clip-path="url(#p83217ec86e)" d="M 344.227378 254.084436 
L 344.36736 254.089863 
L 344.72448 254.0908 
L 344.851798 254.084436 
L 344.756678 253.907644 
L 344.72448 253.857321 
L 344.36736 253.831656 
L 344.307832 253.907644 
L 344.227378 254.084436 
" style="fill:none;stroke:#ff0000;stroke-width:1.5;"/>
    <path clip-path="url(#p83217ec86e)" d="M 347.119113 254.084436 
L 347.22432 254.085426 
L 347.564856 254.084436 
L 347.22432 254.020037 
L 347.119113 254.084436 
" style="fill:none;stroke:#ff0000;stroke-width:1.5;"/>
    <path clip-path="url(#p83217ec86e)" d="M 350.426643 254.084436 
L 350.4384 254.084806 
L 350.456962 254.084436 
L 350.4384 254.068236 
L 350.426643 254.084436 
" style="fill:none;stroke:#ff0000;stroke-width:1.5;"/>
    <path clip-path="url(#p83217ec86e)" d="M 351.395565 254.084436 
L 351.50976 254.089918 
L 351.86688 254.085811 
L 351.895445 254.084436 
L 351.86688 254.023798 
L 351.50976 253.923832 
L 351.395565 254.084436 
" style="fill:none;stroke:#ff0000;stroke-width:1.5;"/>
    <path clip-path="url(#p83217ec86e)" d="M 353.528222 254.084436 
L 353.65248 254.088606 
L 354.0096 254.092178 
L 354.15497 254.084436 
L 354.059371 253.907644 
L 354.0096 253.838528 
L 353.65248 253.886839 
L 353.636314 253.907644 
L 353.528222 254.084436 
" style="fill:none;stroke:#ff0000;stroke-width:1.5;"/>
    <path clip-path="url(#p83217ec86e)" d="M 355.337731 254.084436 
L 355.43808 254.087333 
L 355.620022 254.084436 
L 355.43808 253.977763 
L 355.337731 254.084436 
" style="fill:none;stroke:#ff0000;stroke-width:1.5;"/>
    <path clip-path="url(#p83217ec86e)" d="M 356.435623 254.084436 
L 356.50944 254.088169 
L 356.621104 254.084436 
L 356.50944 253.983335 
L 356.435623 254.084436 
" style="fill:none;stroke:#ff0000;stroke-width:1.5;"/>
    <path clip-path="url(#p83217ec86e)" d="M 362.32392 254.084436 
L 362.58048 254.092035 
L 362.711376 254.084436 
L 362.58048 253.912245 
L 362.32392 254.084436 
" style="fill:none;stroke:#ff0000;stroke-width:1.5;"/>
    <path clip-path="url(#p83217ec86e)" d="M 365.228508 254.084436 
L 365.43744 254.091949 
L 365.79456 254.091844 
L 365.998923 254.084436 
L 365.898488 253.907644 
L 365.79456 253.776126 
L 365.43744 253.763965 
L 365.309018 253.907644 
L 365.228508 254.084436 
" style="fill:none;stroke:#ff0000;stroke-width:1.5;"/>
    <path clip-path="url(#p83217ec86e)" d="M 367.770421 254.084436 
L 367.93728 254.087238 
L 368.068566 254.084436 
L 367.93728 253.968009 
L 367.770421 254.084436 
" style="fill:none;stroke:#ff0000;stroke-width:1.5;"/>
    <path clip-path="url(#p83217ec86e)" d="M 371.760377 254.084436 
L 371.8656 254.086694 
L 372.22272 254.087849 
L 372.380983 254.084436 
L 372.22272 253.920281 
L 371.8656 253.951148 
L 371.760377 254.084436 
" style="fill:none;stroke:#ff0000;stroke-width:1.5;"/>
    <path clip-path="url(#p83217ec86e)" d="M 374.562253 254.084436 
L 374.72256 254.089797 
L 374.916777 254.084436 
L 374.72256 253.912588 
L 374.562253 254.084436 
" style="fill:none;stroke:#ff0000;stroke-width:1.5;"/>
    <path clip-path="url(#p83217ec86e)" d="M 377.728644 254.084436 
L 377.93664 254.087051 
L 378.041554 254.084436 
L 377.93664 253.962637 
L 377.728644 254.084436 
" style="fill:none;stroke:#ff0000;stroke-width:1.5;"/>
    <path clip-path="url(#p83217ec86e)" d="M 379.278574 254.084436 
L 379.36512 254.08736 
L 379.72224 254.086943 
L 379.790294 254.084436 
L 379.72224 253.958657 
L 379.36512 253.946884 
L 379.278574 254.084436 
" style="fill:none;stroke:#ff0000;stroke-width:1.5;"/>
    <path clip-path="url(#p83217ec86e)" d="M 381.774268 254.084436 
L 381.86496 254.086888 
L 381.99309 254.084436 
L 381.86496 253.987738 
L 381.774268 254.084436 
" style="fill:none;stroke:#ff0000;stroke-width:1.5;"/>
    <path clip-path="url(#p83217ec86e)" d="M 383.283255 254.084436 
L 383.29344 254.084848 
L 383.65056 254.089487 
L 383.871603 254.084436 
L 383.65056 253.911666 
L 383.29344 254.059559 
L 383.283255 254.084436 
" style="fill:none;stroke:#ff0000;stroke-width:1.5;"/>
    <path clip-path="url(#p83217ec86e)" d="M 386.201409 254.084436 
L 386.50752 254.096652 
L 386.86464 254.085263 
L 386.882299 254.084436 
L 386.86464 254.029758 
L 386.752273 253.907644 
L 386.50752 253.73536 
L 386.276212 253.907644 
L 386.201409 254.084436 
" style="fill:none;stroke:#ff0000;stroke-width:1.5;"/>
    <path clip-path="url(#p83217ec86e)" d="M 389.500664 254.084436 
L 389.7216 254.085591 
L 389.876486 254.084436 
L 389.7216 253.991621 
L 389.500664 254.084436 
" style="fill:none;stroke:#ff0000;stroke-width:1.5;"/>
    <path clip-path="url(#p83217ec86e)" d="M 393.40796 254.084436 
L 393.64992 254.091615 
L 393.880618 254.084436 
L 393.676219 253.907644 
L 393.64992 253.883866 
L 393.614664 253.907644 
L 393.40796 254.084436 
" style="fill:none;stroke:#ff0000;stroke-width:1.5;"/>
    <path clip-path="url(#p83217ec86e)" d="M 395.494751 254.084436 
L 395.79264 254.091685 
L 396.096037 254.084436 
L 395.902091 253.907644 
L 395.79264 253.834277 
L 395.68795 253.907644 
L 395.494751 254.084436 
" style="fill:none;stroke:#ff0000;stroke-width:1.5;"/>
    <path clip-path="url(#p83217ec86e)" d="M 397.439745 254.084436 
L 397.57824 254.0877 
L 397.680158 254.084436 
L 397.57824 253.973562 
L 397.439745 254.084436 
" style="fill:none;stroke:#ff0000;stroke-width:1.5;"/>
    <path clip-path="url(#p83217ec86e)" d="M 400.632613 254.084436 
L 400.79232 254.0865 
L 400.945167 254.084436 
L 400.79232 253.966429 
L 400.632613 254.084436 
" style="fill:none;stroke:#ff0000;stroke-width:1.5;"/>
    <path clip-path="url(#p83217ec86e)" d="M 404.271501 254.084436 
L 404.36352 254.087265 
L 404.642858 254.084436 
L 404.36352 253.970936 
L 404.271501 254.084436 
" style="fill:none;stroke:#ff0000;stroke-width:1.5;"/>
    <path clip-path="url(#p83217ec86e)" d="M 407.202035 254.084436 
L 407.22048 254.084977 
L 407.5776 254.095302 
L 407.93472 254.087368 
L 408.003289 254.084436 
L 407.93472 253.908251 
L 407.933912 253.907644 
L 407.650985 253.730851 
L 407.5776 253.690061 
L 407.511646 253.730851 
L 407.289677 253.907644 
L 407.22048 254.025684 
L 407.202035 254.084436 
" style="fill:none;stroke:#ff0000;stroke-width:1.5;"/>
    <path clip-path="url(#p83217ec86e)" d="M 409.910024 254.084436 
L 410.07744 254.088843 
L 410.43456 254.087163 
L 410.524105 254.084436 
L 410.43456 253.939871 
L 410.232702 253.907644 
L 410.07744 253.872513 
L 410.045479 253.907644 
L 409.910024 254.084436 
" style="fill:none;stroke:#ff0000;stroke-width:1.5;"/>
    <path clip-path="url(#p83217ec86e)" d="M 413.160208 254.084436 
L 413.29152 254.087038 
L 413.49598 254.084436 
L 413.29152 253.963365 
L 413.160208 254.084436 
" style="fill:none;stroke:#ff0000;stroke-width:1.5;"/>
   </g>
   <g id="LineCollection_2">
    <path clip-path="url(#p83217ec86e)" d="M 414.72 187.435481 
L 400.79232 195.039068 
L 387.22176 202.199609 
L 374.72256 208.55551 
L 362.58048 214.49256 
L 350.4384 220.188055 
L 338.65344 225.481626 
L 327.198203 230.394297 
L 316.512 234.741644 
L 307.082161 238.349941 
L 298.29888 241.475619 
L 290.558248 244.007287 
L 282.22848 246.47106 
L 275.380038 248.250297 
L 270.084447 249.487842 
L 259.72992 251.49339 
L 250.80192 252.807749 
L 249.73056 252.865919 
L 247.94496 253.190283 
L 247.23072 253.093827 
L 246.15936 253.221714 
L 244.73088 253.517065 
L 243.3024 253.428031 
L 241.87392 253.847519 
L 241.79566 253.907644 
L 241.945495 254.084436 
L 247.857891 254.084436 
L 247.94496 253.911908 
L 248.09753 254.084436 
L 250.75749 254.084436 
L 250.80192 254.002363 
L 250.889792 254.084436 
L 254.364156 254.084436 
L 254.465138 254.084436 
L 260.967178 254.084436 
L 261.1584 253.947913 
L 261.51552 254.084936 
L 270.989794 254.084436 
L 271.15776 253.955396 
L 272.58624 254.092673 
L 273.524643 254.084436 
L 273.6576 253.950887 
L 273.823467 254.084436 
L 275.380809 254.084436 
L 275.528346 254.084436 
L 277.491504 254.084436 
L 277.58592 253.98879 
L 278.65728 254.089324 
L 281.031855 254.084436 
L 281.15712 253.944362 
L 281.28195 254.084436 
L 282.94272 254.088106 
L 284.109194 254.084436 
L 284.3712 253.912093 
L 284.72832 254.088647 
L 290.79936 254.086736 
L 295.312533 254.084436 
L 295.44192 253.923195 
L 295.604221 254.084436 
L 297.22752 254.094052 
L 304.36992 254.09313 
L 304.968242 254.084436 
L 305.08416 253.95322 
L 305.7984 254.09544 
L 307.813345 254.084436 
L 307.94112 253.911913 
L 308.29824 254.088613 
L 311.301447 254.084436 
L 311.558426 253.907644 
L 311.86944 254.086092 
L 317.54508 254.084436 
L 317.58336 254.003838 
L 318.00447 253.907644 
L 318.2976 254.087112 
L 329.971772 254.084436 
L 330.08256 253.950488 
L 330.43968 254.087623 
L 331.770786 254.084436 
L 331.86816 254.009356 
L 331.918272 254.084436 
L 334.01088 254.085242 
L 336.039348 254.084436 
L 336.1536 253.923352 
L 336.51072 254.088324 
L 338.60101 254.084436 
L 338.65344 253.995039 
L 339.01056 253.954727 
L 339.106977 254.084436 
L 342.096675 254.084436 
L 342.259875 253.907644 
L 342.58176 254.088466 
L 352.224 253.985971 
L 352.627874 253.907644 
L 352.93824 254.088051 
L 354.500039 254.084436 
L 354.72384 253.976076 
L 354.842833 254.084436 
L 359.00928 254.088991 
L 366.335536 254.084436 
L 366.5088 253.875325 
L 366.86592 253.943464 
L 366.981882 254.084436 
L 372.22272 254.101186 
L 377.57952 254.096259 
L 378.541348 254.084436 
L 378.65088 253.982267 
L 379.008 254.088978 
L 381.103484 254.084436 
L 381.205605 254.084436 
L 384.508071 254.084436 
L 384.72192 253.926998 
L 385.07904 254.08838 
L 394.240154 254.084436 
L 394.420049 253.907644 
L 394.772201 253.907644 
L 395.0784 254.087071 
L 399.36384 254.091576 
L 408.36873 254.084436 
L 408.64896 253.914926 
L 409.013269 254.084436 
L 413.982367 254.084436 
L 414.00576 254.050407 
L 414.72 254.097561 
L 414.72 254.097561 
" style="fill:none;stroke:#ff3500;stroke-width:1.5;"/>
    <path clip-path="url(#p83217ec86e)" d="M 236.496439 254.084436 
L 236.51712 254.094674 
L 236.87424 254.092081 
L 237.23136 254.100937 
L 237.58848 254.092711 
L 237.830261 254.084436 
L 237.58848 253.978507 
L 237.23136 253.948961 
L 236.87424 254.031479 
L 236.51712 254.050318 
L 236.496439 254.084436 
" style="fill:none;stroke:#ff3500;stroke-width:1.5;"/>
    <path clip-path="url(#p83217ec86e)" d="M 238.142349 254.084436 
L 238.30272 254.087748 
L 238.65984 254.090738 
L 239.01696 254.086049 
L 239.37408 254.091183 
L 239.7312 254.096359 
L 240.08832 254.088883 
L 240.44544 254.096493 
L 240.80256 254.098208 
L 241.15968 254.097455 
L 241.360975 254.084436 
L 241.381038 253.907644 
L 241.171617 253.730851 
L 241.15968 253.726203 
L 240.80256 253.667012 
L 240.44544 253.713198 
L 240.345469 253.730851 
L 240.08832 253.779518 
L 239.7312 253.807147 
L 239.37408 253.883426 
L 239.262736 253.907644 
L 239.01696 253.999855 
L 238.65984 253.950256 
L 238.30272 254.016794 
L 238.142349 254.084436 
" style="fill:none;stroke:#ff3500;stroke-width:1.5;"/>
   </g>
   <g id="LineCollection_3">
    <path clip-path="url(#p83217ec86e)" d="M 414.72 136.218847 
L 397.93536 150.098595 
L 382.21517 162.859723 
L 366.44469 175.41196 
L 350.994467 187.433822 
L 336.062392 198.748515 
L 322.94016 208.396188 
L 312.58368 215.770501 
L 303.140555 222.261861 
L 294.002048 228.272792 
L 286.350904 233.046178 
L 279.0144 237.345292 
L 272.94336 240.657009 
L 267.22944 243.535627 
L 261.87264 246.001918 
L 257.23008 247.929214 
L 251.581003 250.018218 
L 247.100802 251.432554 
L 240.80256 253.087671 
L 236.468402 254.084436 
L 236.51712 254.108553 
L 252.58752 254.108119 
L 266.5152 254.109821 
L 362.22336 254.108954 
L 366.15168 254.106579 
L 368.65152 254.111187 
L 374.36544 254.105661 
L 377.93664 254.113847 
L 382.93632 254.098686 
L 386.50752 254.121971 
L 391.15008 254.099328 
L 397.57824 254.114397 
L 401.50656 254.109381 
L 412.9344 254.107689 
L 414.72 254.1112 
L 414.72 254.1112 
" style="fill:none;stroke:#ff7000;stroke-width:1.5;"/>
   </g>
   <g id="LineCollection_4">
    <path clip-path="url(#p83217ec86e)" d="M 414.72 91.974171 
L 395.853398 112.297188 
L 374.00832 135.45833 
L 357.051075 153.136158 
L 339.431605 171.16895 
L 323.29728 187.299834 
L 312.09495 198.218139 
L 301.082233 208.648871 
L 291.990572 216.958099 
L 283.503271 224.383366 
L 276.253905 230.394297 
L 269.666794 235.521267 
L 264.303837 239.410693 
L 259.301946 242.769743 
L 254.400834 245.775208 
L 249.253628 248.603881 
L 244.826648 250.725386 
L 239.26785 253.023683 
L 236.440366 254.084436 
L 236.51712 254.122433 
L 253.65888 254.123595 
L 260.44416 254.122662 
L 266.5152 254.123585 
L 371.50848 254.120886 
L 377.93664 254.127245 
L 383.29344 254.125551 
L 394.00704 254.122004 
L 396.864 254.113004 
L 401.86368 254.120158 
L 406.86336 254.11711 
L 411.50592 254.124434 
L 414.72 254.124839 
L 414.72 254.124839 
" style="fill:none;stroke:#ffab00;stroke-width:1.5;"/>
   </g>
   <g id="LineCollection_5">
    <path clip-path="url(#p83217ec86e)" d="M 391.526863 77.292356 
L 367.22304 109.305261 
L 349.261608 132.628277 
L 331.98382 154.727287 
L 315.772599 175.058376 
L 304.36992 189.031416 
L 294.906647 200.339644 
L 285.739232 210.947168 
L 278.585395 218.902812 
L 272.22912 225.657824 
L 267.014244 230.924673 
L 261.428272 236.228436 
L 256.819619 240.294653 
L 252.58752 243.745444 
L 249.185114 246.305584 
L 245.037721 249.134257 
L 240.958189 251.609347 
L 236.412329 254.084436 
L 236.51712 254.136312 
L 256.51584 254.137269 
L 268.3008 254.137455 
L 274.37184 254.12812 
L 414.72 254.138478 
L 414.72 254.138478 
" style="fill:none;stroke:#ffe600;stroke-width:1.5;"/>
   </g>
   <g id="LineCollection_6">
    <path clip-path="url(#p83217ec86e)" d="M 363.899622 77.292356 
L 342.744162 110.882851 
L 323.541874 140.937505 
L 308.826461 163.566891 
L 296.252917 182.483644 
L 285.729716 197.864554 
L 278.090713 208.648871 
L 271.042543 218.195644 
L 265.417935 225.444119 
L 260.637666 231.278257 
L 256.006749 236.58202 
L 251.676734 241.178614 
L 247.487708 245.244832 
L 243.86408 248.427089 
L 240.04287 251.432554 
L 237.230386 253.377267 
L 236.384293 254.084436 
L 236.51712 254.150192 
L 259.72992 254.147318 
L 268.3008 254.151207 
L 274.72896 254.142935 
L 278.30016 254.149397 
L 291.87072 254.152509 
L 311.1552 254.146005 
L 316.512 254.147756 
L 324.72576 254.145174 
L 414.72 254.152117 
L 414.72 254.152117 
" style="fill:none;stroke:#ddff00;stroke-width:1.5;"/>
   </g>
   <g id="LineCollection_7">
    <path clip-path="url(#p83217ec86e)" d="M 341.503744 77.292356 
L 322.665782 113.357941 
L 304.85558 146.948436 
L 291.645714 171.345743 
L 281.419041 189.732119 
L 273.899423 202.814733 
L 267.559836 213.422257 
L 262.472984 221.554693 
L 257.809409 228.626376 
L 253.587995 234.637307 
L 249.855192 239.587485 
L 245.935599 244.360871 
L 242.230436 248.427089 
L 239.565358 251.07897 
L 236.356256 254.084436 
L 236.51712 254.164071 
L 262.944 254.159863 
L 271.15776 254.155465 
L 294.01344 254.168465 
L 296.8704 254.163859 
L 414.72 254.165756 
L 414.72 254.165756 
" style="fill:none;stroke:#a2ff00;stroke-width:1.5;"/>
   </g>
   <g id="LineCollection_8">
    <path clip-path="url(#p83217ec86e)" d="M 322.417093 77.292356 
L 303.574825 121.136792 
L 290.08512 152.010527 
L 280.593411 173.290455 
L 272.082949 191.853624 
L 265.522318 205.643406 
L 259.793186 217.134891 
L 254.932456 226.328079 
L 250.930511 233.399762 
L 247.23072 239.449225 
L 244.44351 243.653703 
L 240.826839 248.603881 
L 236.673789 253.554059 
L 236.400341 253.907644 
L 236.32822 254.084436 
L 236.51712 254.177951 
L 267.22944 254.175508 
L 290.79936 254.173982 
L 320.79744 254.176969 
L 327.2256 254.177667 
L 342.58176 254.174847 
L 414.72 254.179395 
L 414.72 254.179395 
" style="fill:none;stroke:#6cff00;stroke-width:1.5;"/>
   </g>
   <g id="LineCollection_9">
    <path clip-path="url(#p83217ec86e)" d="M 305.540263 77.292356 
L 288.184961 127.324515 
L 276.802346 159.500673 
L 268.585189 182.130059 
L 262.22976 199.040308 
L 257.493348 211.12396 
L 253.189488 221.554693 
L 249.537338 229.863921 
L 246.15936 236.99251 
L 243.555468 242.062574 
L 240.879862 246.83596 
L 237.777825 251.786139 
L 236.300183 254.084436 
L 236.51712 254.19183 
L 272.94336 254.191804 
L 307.584 254.196599 
L 310.08384 254.191209 
L 317.22624 254.197657 
L 320.79744 254.191012 
L 327.93984 254.192112 
L 336.51072 254.189184 
L 366.15168 254.190933 
L 371.50848 254.191057 
L 384.00768 254.191977 
L 396.50688 254.187806 
L 414.72 254.193033 
L 414.72 254.193033 
" style="fill:none;stroke:#31ff00;stroke-width:1.5;"/>
   </g>
   <g id="LineCollection_10">
    <path clip-path="url(#p83217ec86e)" d="M 290.182911 77.292356 
L 275.244347 132.451485 
L 265.636742 167.102733 
L 258.946248 190.439287 
L 254.016 206.890519 
L 250.157007 219.079604 
L 246.68001 229.333545 
L 243.74706 237.289188 
L 241.017978 244.007287 
L 238.65984 249.2121 
L 237.113047 252.316515 
L 236.272146 254.084436 
L 236.51712 254.20571 
L 281.87136 254.20167 
L 288.29952 254.207599 
L 305.7984 254.205965 
L 414.72 254.206672 
L 414.72 254.206672 
" style="fill:none;stroke:#02ff0c;stroke-width:1.5;"/>
   </g>
   <g id="LineCollection_11">
    <path clip-path="url(#p83217ec86e)" d="M 275.875616 77.292356 
L 263.451963 139.523168 
L 256.001534 175.765545 
L 250.953691 199.278891 
L 247.167475 215.897347 
L 244.213765 227.919208 
L 241.691898 237.289188 
L 239.467273 244.714455 
L 237.371975 250.902178 
L 236.24411 254.084436 
L 236.51712 254.219589 
L 297.94176 254.21843 
L 335.79648 254.221091 
L 342.22464 254.214106 
L 352.224 254.216384 
L 393.2928 254.219591 
L 408.64896 254.215969 
L 414.72 254.220311 
L 414.72 254.220311 
" style="fill:none;stroke:#00ff45;stroke-width:1.5;"/>
   </g>
   <g id="LineCollection_12">
    <path clip-path="url(#p83217ec86e)" d="M 262.27538 77.292356 
L 252.681386 150.130693 
L 247.418153 188.494574 
L 244.006098 211.831129 
L 241.5168 227.434317 
L 239.544289 238.526733 
L 237.78995 247.189545 
L 236.216073 254.084436 
L 236.51712 254.233469 
L 328.65408 254.231904 
L 347.22432 254.234181 
L 414.72 254.23395 
L 414.72 254.23395 
" style="fill:none;stroke:#00ff80;stroke-width:1.5;"/>
   </g>
   <g id="LineCollection_13">
    <path clip-path="url(#p83217ec86e)" d="M 249.112901 77.292356 
L 242.984668 170.461782 
L 240.166535 210.24 
L 238.407752 232.162218 
L 237.077323 246.128792 
L 236.188037 254.084436 
L 236.51712 254.247348 
L 414.72 254.247589 
L 414.72 254.247589 
" style="fill:none;stroke:#00ffbb;stroke-width:1.5;"/>
   </g>
   <g id="LineCollection_14">
    <path clip-path="url(#p83217ec86e)" d="M 236.16 77.292356 
L 236.16 254.084436 
L 235.80288 254.261228 
L 57.6 254.261228 
L 57.6 254.261228 
" style="fill:none;stroke:#00fff6;stroke-width:1.5;"/>
   </g>
   <g id="LineCollection_15">
    <path clip-path="url(#p83217ec86e)" d="M 223.207099 77.292356 
L 229.335332 170.461782 
L 232.153465 210.24 
L 233.912248 232.162218 
L 235.242677 246.128792 
L 236.131963 254.084436 
L 235.80288 254.247348 
L 57.6 254.247589 
L 57.6 254.247589 
" style="fill:none;stroke:#00d3ff;stroke-width:1.5;"/>
   </g>
   <g id="LineCollection_16">
    <path clip-path="url(#p83217ec86e)" d="M 210.04462 77.292356 
L 219.638614 150.130693 
L 224.901847 188.494574 
L 228.313902 211.831129 
L 230.8032 227.434317 
L 232.775711 238.526733 
L 234.53005 247.189545 
L 236.103927 254.084436 
L 235.80288 254.233469 
L 143.66592 254.231904 
L 125.09568 254.234181 
L 57.6 254.23395 
L 57.6 254.23395 
" style="fill:none;stroke:#0098ff;stroke-width:1.5;"/>
   </g>
   <g id="LineCollection_17">
    <path clip-path="url(#p83217ec86e)" d="M 196.444384 77.292356 
L 208.868037 139.523168 
L 216.318466 175.765545 
L 221.366309 199.278891 
L 225.152525 215.897347 
L 228.106235 227.919208 
L 230.628102 237.289188 
L 232.852727 244.714455 
L 234.948025 250.902178 
L 236.07589 254.084436 
L 235.80288 254.219589 
L 174.37824 254.21843 
L 136.52352 254.221091 
L 130.09536 254.214106 
L 120.096 254.216384 
L 79.0272 254.219591 
L 63.67104 254.215969 
L 57.6 254.220311 
L 57.6 254.220311 
" style="fill:none;stroke:#005dff;stroke-width:1.5;"/>
   </g>
   <g id="LineCollection_18">
    <path clip-path="url(#p83217ec86e)" d="M 182.137089 77.292356 
L 197.075653 132.451485 
L 206.683258 167.102733 
L 213.373752 190.439287 
L 218.304 206.890519 
L 222.162993 219.079604 
L 225.63999 229.333545 
L 228.57294 237.289188 
L 231.302022 244.007287 
L 233.66016 249.2121 
L 235.206953 252.316515 
L 236.047854 254.084436 
L 235.80288 254.20571 
L 190.44864 254.20167 
L 184.02048 254.207599 
L 166.5216 254.205965 
L 57.6 254.206672 
L 57.6 254.206672 
" style="fill:none;stroke:#0022ff;stroke-width:1.5;"/>
   </g>
   <g id="LineCollection_19">
    <path clip-path="url(#p83217ec86e)" d="M 166.779737 77.292356 
L 184.135039 127.324515 
L 195.517654 159.500673 
L 203.734811 182.130059 
L 210.09024 199.040308 
L 214.826652 211.12396 
L 219.130512 221.554693 
L 222.782662 229.863921 
L 226.16064 236.99251 
L 228.764532 242.062574 
L 231.440138 246.83596 
L 234.542175 251.786139 
L 236.019817 254.084436 
L 235.80288 254.19183 
L 199.37664 254.191804 
L 164.736 254.196599 
L 162.23616 254.191209 
L 155.09376 254.197657 
L 151.52256 254.191012 
L 144.38016 254.192112 
L 135.80928 254.189184 
L 106.16832 254.190933 
L 100.81152 254.191057 
L 88.31232 254.191977 
L 75.81312 254.187806 
L 57.6 254.193033 
L 57.6 254.193033 
" style="fill:none;stroke:#1900ff;stroke-width:1.5;"/>
   </g>
   <g id="LineCollection_20">
    <path clip-path="url(#p83217ec86e)" d="M 149.902907 77.292356 
L 168.745175 121.136792 
L 182.23488 152.010527 
L 191.726589 173.290455 
L 200.237051 191.853624 
L 206.797682 205.643406 
L 212.526814 217.134891 
L 217.387544 226.328079 
L 221.389489 233.399762 
L 225.08928 239.449225 
L 227.87649 243.653703 
L 231.493161 248.603881 
L 235.646211 253.554059 
L 235.919659 253.907644 
L 235.99178 254.084436 
L 235.80288 254.177951 
L 205.09056 254.175508 
L 181.52064 254.173982 
L 151.52256 254.176969 
L 145.0944 254.177667 
L 129.73824 254.174847 
L 57.6 254.179395 
L 57.6 254.179395 
" style="fill:none;stroke:#5400ff;stroke-width:1.5;"/>
   </g>
   <g id="LineCollection_21">
    <path clip-path="url(#p83217ec86e)" d="M 130.816256 77.292356 
L 149.654218 113.357941 
L 167.46442 146.948436 
L 180.674286 171.345743 
L 190.900959 189.732119 
L 198.420577 202.814733 
L 204.760164 213.422257 
L 209.847016 221.554693 
L 214.510591 228.626376 
L 218.732005 234.637307 
L 222.464808 239.587485 
L 226.384401 244.360871 
L 230.089564 248.427089 
L 232.754642 251.07897 
L 235.963744 254.084436 
L 235.80288 254.164071 
L 209.376 254.159863 
L 201.16224 254.155465 
L 178.30656 254.168465 
L 175.4496 254.163859 
L 57.6 254.165756 
L 57.6 254.165756 
" style="fill:none;stroke:#8a00ff;stroke-width:1.5;"/>
   </g>
   <g id="LineCollection_22">
    <path clip-path="url(#p83217ec86e)" d="M 108.420378 77.292356 
L 129.575838 110.882851 
L 148.778126 140.937505 
L 163.493539 163.566891 
L 176.067083 182.483644 
L 186.590284 197.864554 
L 194.229287 208.648871 
L 201.277457 218.195644 
L 206.902065 225.444119 
L 211.682334 231.278257 
L 216.313251 236.58202 
L 220.643266 241.178614 
L 224.832292 245.244832 
L 228.45592 248.427089 
L 232.27713 251.432554 
L 235.089614 253.377267 
L 235.935707 254.084436 
L 235.80288 254.150192 
L 212.59008 254.147318 
L 204.0192 254.151207 
L 197.59104 254.142935 
L 194.01984 254.149397 
L 180.44928 254.152509 
L 161.1648 254.146005 
L 155.808 254.147756 
L 147.59424 254.145174 
L 57.6 254.152117 
L 57.6 254.152117 
" style="fill:none;stroke:#c500ff;stroke-width:1.5;"/>
   </g>
   <g id="LineCollection_23">
    <path clip-path="url(#p83217ec86e)" d="M 80.793137 77.292356 
L 105.09696 109.305261 
L 123.058392 132.628277 
L 140.33618 154.727287 
L 156.547401 175.058376 
L 167.95008 189.031416 
L 177.413353 200.339644 
L 186.580768 210.947168 
L 193.734605 218.902812 
L 200.09088 225.657824 
L 205.305756 230.924673 
L 210.891728 236.228436 
L 215.500381 240.294653 
L 219.73248 243.745444 
L 223.134886 246.305584 
L 227.282279 249.134257 
L 231.361811 251.609347 
L 235.907671 254.084436 
L 235.80288 254.136312 
L 215.80416 254.137269 
L 204.0192 254.137455 
L 197.94816 254.12812 
L 57.6 254.138478 
L 57.6 254.138478 
" style="fill:none;stroke:#fa00f9;stroke-width:1.5;"/>
   </g>
   <g id="LineCollection_24">
    <path clip-path="url(#p83217ec86e)" d="M 57.6 91.974171 
L 76.466602 112.297188 
L 98.31168 135.45833 
L 115.268925 153.136158 
L 132.888395 171.16895 
L 149.02272 187.299834 
L 160.22505 198.218139 
L 171.237767 208.648871 
L 180.329428 216.958099 
L 188.816729 224.383366 
L 196.066095 230.394297 
L 202.653206 235.521267 
L 208.016163 239.410693 
L 213.018054 242.769743 
L 217.919166 245.775208 
L 223.066372 248.603881 
L 227.493352 250.725386 
L 233.05215 253.023683 
L 235.879634 254.084436 
L 235.80288 254.122433 
L 218.66112 254.123595 
L 211.87584 254.122662 
L 205.8048 254.123585 
L 100.81152 254.120886 
L 94.38336 254.127245 
L 89.02656 254.125551 
L 78.31296 254.122004 
L 75.456 254.113004 
L 70.45632 254.120158 
L 65.45664 254.11711 
L 60.81408 254.124434 
L 57.6 254.124839 
L 57.6 254.124839 
" style="fill:none;stroke:#ff00c3;stroke-width:1.5;"/>
   </g>
   <g id="LineCollection_25">
    <path clip-path="url(#p83217ec86e)" d="M 57.6 136.218847 
L 74.38464 150.098595 
L 90.10483 162.859723 
L 105.87531 175.41196 
L 121.325533 187.433822 
L 136.257608 198.748515 
L 149.37984 208.396188 
L 159.73632 215.770501 
L 169.179445 222.261861 
L 178.317952 228.272792 
L 185.969096 233.046178 
L 193.3056 237.345292 
L 199.37664 240.657009 
L 205.09056 243.535627 
L 210.44736 246.001918 
L 215.08992 247.929214 
L 220.738997 250.018218 
L 225.219198 251.432554 
L 231.51744 253.087671 
L 235.851598 254.084436 
L 235.80288 254.108553 
L 219.73248 254.108119 
L 205.8048 254.109821 
L 110.09664 254.108954 
L 106.16832 254.106579 
L 103.66848 254.111187 
L 97.95456 254.105661 
L 94.38336 254.113847 
L 89.38368 254.098686 
L 85.81248 254.121971 
L 81.16992 254.099328 
L 74.74176 254.114397 
L 70.81344 254.109381 
L 59.3856 254.107689 
L 57.6 254.1112 
L 57.6 254.1112 
" style="fill:none;stroke:#ff0088;stroke-width:1.5;"/>
   </g>
   <g id="LineCollection_26">
    <path clip-path="url(#p83217ec86e)" d="M 57.6 187.435481 
L 71.52768 195.039068 
L 85.09824 202.199609 
L 97.59744 208.55551 
L 109.73952 214.49256 
L 121.8816 220.188055 
L 133.66656 225.481626 
L 145.121797 230.394297 
L 155.808 234.741644 
L 165.237839 238.349941 
L 174.02112 241.475619 
L 181.761752 244.007287 
L 190.09152 246.47106 
L 196.939962 248.250297 
L 202.235553 249.487842 
L 212.59008 251.49339 
L 221.51808 252.807749 
L 222.58944 252.865919 
L 224.37504 253.190283 
L 225.08928 253.093827 
L 226.16064 253.221714 
L 227.58912 253.517065 
L 229.0176 253.428031 
L 230.44608 253.847519 
L 230.52434 253.907644 
L 230.374505 254.084436 
L 224.462109 254.084436 
L 224.37504 253.911908 
L 224.22247 254.084436 
L 221.56251 254.084436 
L 221.51808 254.002363 
L 221.430208 254.084436 
L 217.955844 254.084436 
L 217.854862 254.084436 
L 211.352822 254.084436 
L 211.1616 253.947913 
L 210.80448 254.084936 
L 201.330206 254.084436 
L 201.16224 253.955396 
L 199.73376 254.092673 
L 198.795357 254.084436 
L 198.6624 253.950887 
L 198.496533 254.084436 
L 196.939191 254.084436 
L 196.791654 254.084436 
L 194.828496 254.084436 
L 194.73408 253.98879 
L 193.66272 254.089324 
L 191.288145 254.084436 
L 191.16288 253.944362 
L 191.03805 254.084436 
L 189.37728 254.088106 
L 188.210806 254.084436 
L 187.9488 253.912093 
L 187.59168 254.088647 
L 181.52064 254.086736 
L 177.007467 254.084436 
L 176.87808 253.923195 
L 176.715779 254.084436 
L 175.09248 254.094052 
L 167.95008 254.09313 
L 167.351758 254.084436 
L 167.23584 253.95322 
L 166.5216 254.09544 
L 164.506655 254.084436 
L 164.37888 253.911913 
L 164.02176 254.088613 
L 161.018553 254.084436 
L 160.761574 253.907644 
L 160.45056 254.086092 
L 154.77492 254.084436 
L 154.73664 254.003838 
L 154.31553 253.907644 
L 154.0224 254.087112 
L 142.348228 254.084436 
L 142.23744 253.950488 
L 141.88032 254.087623 
L 140.549214 254.084436 
L 140.45184 254.009356 
L 140.401728 254.084436 
L 138.30912 254.085242 
L 136.280652 254.084436 
L 136.1664 253.923352 
L 135.80928 254.088324 
L 133.71899 254.084436 
L 133.66656 253.995039 
L 133.30944 253.954727 
L 133.213023 254.084436 
L 130.223325 254.084436 
L 130.060125 253.907644 
L 129.73824 254.088466 
L 120.096 253.985971 
L 119.692126 253.907644 
L 119.38176 254.088051 
L 117.819961 254.084436 
L 117.59616 253.976076 
L 117.477167 254.084436 
L 113.31072 254.088991 
L 105.984464 254.084436 
L 105.8112 253.875325 
L 105.45408 253.943464 
L 105.338118 254.084436 
L 100.09728 254.101186 
L 94.74048 254.096259 
L 93.778652 254.084436 
L 93.66912 253.982267 
L 93.312 254.088978 
L 91.216516 254.084436 
L 91.114395 254.084436 
L 87.811929 254.084436 
L 87.59808 253.926998 
L 87.24096 254.08838 
L 78.079846 254.084436 
L 77.899951 253.907644 
L 77.547799 253.907644 
L 77.2416 254.087071 
L 72.95616 254.091576 
L 63.95127 254.084436 
L 63.67104 253.914926 
L 63.306731 254.084436 
L 58.337633 254.084436 
L 58.31424 254.050407 
L 57.6 254.097561 
L 57.6 254.097561 
" style="fill:none;stroke:#ff004d;stroke-width:1.5;"/>
    <path clip-path="url(#p83217ec86e)" d="M 230.959025 254.084436 
L 230.938962 253.907644 
L 231.148383 253.730851 
L 231.16032 253.726203 
L 231.51744 253.667012 
L 231.87456 253.713198 
L 231.974531 253.730851 
L 232.23168 253.779518 
L 232.5888 253.807147 
L 232.94592 253.883426 
L 233.057264 253.907644 
L 233.30304 253.999855 
L 233.66016 253.950256 
L 234.01728 254.016794 
L 234.177651 254.084436 
L 234.01728 254.087748 
L 233.66016 254.090738 
L 233.30304 254.086049 
L 232.94592 254.091183 
L 232.5888 254.096359 
L 232.23168 254.088883 
L 231.87456 254.096493 
L 231.51744 254.098208 
L 231.16032 254.097455 
L 230.959025 254.084436 
" style="fill:none;stroke:#ff004d;stroke-width:1.5;"/>
    <path clip-path="url(#p83217ec86e)" d="M 234.489739 254.084436 
L 234.73152 253.978507 
L 235.08864 253.948961 
L 235.44576 254.031479 
L 235.80288 254.050318 
L 235.823561 254.084436 
L 235.80288 254.094674 
L 235.44576 254.092081 
L 235.08864 254.100937 
L 234.73152 254.092711 
L 234.489739 254.084436 
" style="fill:none;stroke:#ff004d;stroke-width:1.5;"/>
   </g>
   <g id="LineCollection_27">
    <path clip-path="url(#p83217ec86e)" d="M 58.82402 254.084436 
L 59.02848 253.963365 
L 59.159792 254.084436 
L 59.02848 254.087038 
L 58.82402 254.084436 
" style="fill:none;stroke:#ff0018;stroke-width:1.5;"/>
    <path clip-path="url(#p83217ec86e)" d="M 61.795895 254.084436 
L 61.88544 253.939871 
L 62.087298 253.907644 
L 62.24256 253.872513 
L 62.274521 253.907644 
L 62.409976 254.084436 
L 62.24256 254.088843 
L 61.88544 254.087163 
L 61.795895 254.084436 
" style="fill:none;stroke:#ff0018;stroke-width:1.5;"/>
    <path clip-path="url(#p83217ec86e)" d="M 64.316711 254.084436 
L 64.38528 253.908251 
L 64.386088 253.907644 
L 64.669015 253.730851 
L 64.7424 253.690061 
L 64.808354 253.730851 
L 65.030323 253.907644 
L 65.09952 254.025684 
L 65.117965 254.084436 
L 65.09952 254.084977 
L 64.7424 254.095302 
L 64.38528 254.087368 
L 64.316711 254.084436 
" style="fill:none;stroke:#ff0018;stroke-width:1.5;"/>
    <path clip-path="url(#p83217ec86e)" d="M 67.677142 254.084436 
L 67.95648 253.970936 
L 68.048499 254.084436 
L 67.95648 254.087265 
L 67.677142 254.084436 
" style="fill:none;stroke:#ff0018;stroke-width:1.5;"/>
    <path clip-path="url(#p83217ec86e)" d="M 71.374833 254.084436 
L 71.52768 253.966429 
L 71.687387 254.084436 
L 71.52768 254.0865 
L 71.374833 254.084436 
" style="fill:none;stroke:#ff0018;stroke-width:1.5;"/>
    <path clip-path="url(#p83217ec86e)" d="M 74.639842 254.084436 
L 74.74176 253.973562 
L 74.880255 254.084436 
L 74.74176 254.0877 
L 74.639842 254.084436 
" style="fill:none;stroke:#ff0018;stroke-width:1.5;"/>
    <path clip-path="url(#p83217ec86e)" d="M 76.223963 254.084436 
L 76.417909 253.907644 
L 76.52736 253.834277 
L 76.63205 253.907644 
L 76.825249 254.084436 
L 76.52736 254.091685 
L 76.223963 254.084436 
" style="fill:none;stroke:#ff0018;stroke-width:1.5;"/>
    <path clip-path="url(#p83217ec86e)" d="M 78.439382 254.084436 
L 78.643781 253.907644 
L 78.67008 253.883866 
L 78.705336 253.907644 
L 78.91204 254.084436 
L 78.67008 254.091615 
L 78.439382 254.084436 
" style="fill:none;stroke:#ff0018;stroke-width:1.5;"/>
    <path clip-path="url(#p83217ec86e)" d="M 82.443514 254.084436 
L 82.5984 253.991621 
L 82.819336 254.084436 
L 82.5984 254.085591 
L 82.443514 254.084436 
" style="fill:none;stroke:#ff0018;stroke-width:1.5;"/>
    <path clip-path="url(#p83217ec86e)" d="M 85.437701 254.084436 
L 85.45536 254.029758 
L 85.567727 253.907644 
L 85.81248 253.73536 
L 86.043788 253.907644 
L 86.118591 254.084436 
L 85.81248 254.096652 
L 85.45536 254.085263 
L 85.437701 254.084436 
" style="fill:none;stroke:#ff0018;stroke-width:1.5;"/>
    <path clip-path="url(#p83217ec86e)" d="M 88.448397 254.084436 
L 88.66944 253.911666 
L 89.02656 254.059559 
L 89.036745 254.084436 
L 89.02656 254.084848 
L 88.66944 254.089487 
L 88.448397 254.084436 
" style="fill:none;stroke:#ff0018;stroke-width:1.5;"/>
    <path clip-path="url(#p83217ec86e)" d="M 90.32691 254.084436 
L 90.45504 253.987738 
L 90.545732 254.084436 
L 90.45504 254.086888 
L 90.32691 254.084436 
" style="fill:none;stroke:#ff0018;stroke-width:1.5;"/>
    <path clip-path="url(#p83217ec86e)" d="M 92.529706 254.084436 
L 92.59776 253.958657 
L 92.95488 253.946884 
L 93.041426 254.084436 
L 92.95488 254.08736 
L 92.59776 254.086943 
L 92.529706 254.084436 
" style="fill:none;stroke:#ff0018;stroke-width:1.5;"/>
    <path clip-path="url(#p83217ec86e)" d="M 94.278446 254.084436 
L 94.38336 253.962637 
L 94.591356 254.084436 
L 94.38336 254.087051 
L 94.278446 254.084436 
" style="fill:none;stroke:#ff0018;stroke-width:1.5;"/>
    <path clip-path="url(#p83217ec86e)" d="M 97.403223 254.084436 
L 97.59744 253.912588 
L 97.757747 254.084436 
L 97.59744 254.089797 
L 97.403223 254.084436 
" style="fill:none;stroke:#ff0018;stroke-width:1.5;"/>
    <path clip-path="url(#p83217ec86e)" d="M 99.939017 254.084436 
L 100.09728 253.920281 
L 100.4544 253.951148 
L 100.559623 254.084436 
L 100.4544 254.086694 
L 100.09728 254.087849 
L 99.939017 254.084436 
" style="fill:none;stroke:#ff0018;stroke-width:1.5;"/>
    <path clip-path="url(#p83217ec86e)" d="M 104.251434 254.084436 
L 104.38272 253.968009 
L 104.549579 254.084436 
L 104.38272 254.087238 
L 104.251434 254.084436 
" style="fill:none;stroke:#ff0018;stroke-width:1.5;"/>
    <path clip-path="url(#p83217ec86e)" d="M 106.321077 254.084436 
L 106.421512 253.907644 
L 106.52544 253.776126 
L 106.88256 253.763965 
L 107.010982 253.907644 
L 107.091492 254.084436 
L 106.88256 254.091949 
L 106.52544 254.091844 
L 106.321077 254.084436 
" style="fill:none;stroke:#ff0018;stroke-width:1.5;"/>
    <path clip-path="url(#p83217ec86e)" d="M 109.608624 254.084436 
L 109.73952 253.912245 
L 109.99608 254.084436 
L 109.73952 254.092035 
L 109.608624 254.084436 
" style="fill:none;stroke:#ff0018;stroke-width:1.5;"/>
    <path clip-path="url(#p83217ec86e)" d="M 115.698896 254.084436 
L 115.81056 253.983335 
L 115.884377 254.084436 
L 115.81056 254.088169 
L 115.698896 254.084436 
" style="fill:none;stroke:#ff0018;stroke-width:1.5;"/>
    <path clip-path="url(#p83217ec86e)" d="M 116.699978 254.084436 
L 116.88192 253.977763 
L 116.982269 254.084436 
L 116.88192 254.087333 
L 116.699978 254.084436 
" style="fill:none;stroke:#ff0018;stroke-width:1.5;"/>
    <path clip-path="url(#p83217ec86e)" d="M 118.16503 254.084436 
L 118.260629 253.907644 
L 118.3104 253.838528 
L 118.66752 253.886839 
L 118.683686 253.907644 
L 118.791778 254.084436 
L 118.66752 254.088606 
L 118.3104 254.092178 
L 118.16503 254.084436 
" style="fill:none;stroke:#ff0018;stroke-width:1.5;"/>
    <path clip-path="url(#p83217ec86e)" d="M 120.424555 254.084436 
L 120.45312 254.023798 
L 120.81024 253.923832 
L 120.924435 254.084436 
L 120.81024 254.089918 
L 120.45312 254.085811 
L 120.424555 254.084436 
" style="fill:none;stroke:#ff0018;stroke-width:1.5;"/>
    <path clip-path="url(#p83217ec86e)" d="M 121.863038 254.084436 
L 121.8816 254.068236 
L 121.893357 254.084436 
L 121.8816 254.084806 
L 121.863038 254.084436 
" style="fill:none;stroke:#ff0018;stroke-width:1.5;"/>
    <path clip-path="url(#p83217ec86e)" d="M 124.755144 254.084436 
L 125.09568 254.020037 
L 125.200887 254.084436 
L 125.09568 254.085426 
L 124.755144 254.084436 
" style="fill:none;stroke:#ff0018;stroke-width:1.5;"/>
    <path clip-path="url(#p83217ec86e)" d="M 127.468202 254.084436 
L 127.563322 253.907644 
L 127.59552 253.857321 
L 127.95264 253.831656 
L 128.012168 253.907644 
L 128.092622 254.084436 
L 127.95264 254.089863 
L 127.59552 254.0908 
L 127.468202 254.084436 
" style="fill:none;stroke:#ff0018;stroke-width:1.5;"/>
    <path clip-path="url(#p83217ec86e)" d="M 130.395174 254.084436 
L 130.45248 253.954463 
L 130.617067 253.907644 
L 130.8096 253.815757 
L 130.897223 253.907644 
L 130.983365 254.084436 
L 130.8096 254.092731 
L 130.45248 254.088857 
L 130.395174 254.084436 
" style="fill:none;stroke:#ff0018;stroke-width:1.5;"/>
    <path clip-path="url(#p83217ec86e)" d="M 134.468637 254.084436 
L 134.73792 253.926946 
L 134.86859 254.084436 
L 134.73792 254.089938 
L 134.468637 254.084436 
" style="fill:none;stroke:#ff0018;stroke-width:1.5;"/>
    <path clip-path="url(#p83217ec86e)" d="M 136.480671 254.084436 
L 136.52352 254.011186 
L 136.638881 254.084436 
L 136.52352 254.087302 
L 136.480671 254.084436 
" style="fill:none;stroke:#ff0018;stroke-width:1.5;"/>
    <path clip-path="url(#p83217ec86e)" d="M 137.458475 254.084436 
L 137.59488 253.972267 
L 137.679414 254.084436 
L 137.59488 254.087903 
L 137.458475 254.084436 
" style="fill:none;stroke:#ff0018;stroke-width:1.5;"/>
    <path clip-path="url(#p83217ec86e)" d="M 138.902796 254.084436 
L 139.02336 253.985529 
L 139.119547 254.084436 
L 139.02336 254.08659 
L 138.902796 254.084436 
" style="fill:none;stroke:#ff0018;stroke-width:1.5;"/>
    <path clip-path="url(#p83217ec86e)" d="M 140.042503 254.084436 
L 140.09472 254.021433 
L 140.13978 254.084436 
L 140.09472 254.086744 
L 140.042503 254.084436 
" style="fill:none;stroke:#ff0018;stroke-width:1.5;"/>
    <path clip-path="url(#p83217ec86e)" d="M 141.323043 254.084436 
L 141.5232 253.937829 
L 141.655201 254.084436 
L 141.5232 254.090442 
L 141.323043 254.084436 
" style="fill:none;stroke:#ff0018;stroke-width:1.5;"/>
    <path clip-path="url(#p83217ec86e)" d="M 143.277151 254.084436 
L 143.3088 254.070966 
L 143.317807 254.084436 
L 143.3088 254.084767 
L 143.277151 254.084436 
" style="fill:none;stroke:#ff0018;stroke-width:1.5;"/>
    <path clip-path="url(#p83217ec86e)" d="M 146.018356 254.084436 
L 146.16576 253.933962 
L 146.314307 254.084436 
L 146.16576 254.091364 
L 146.018356 254.084436 
" style="fill:none;stroke:#ff0018;stroke-width:1.5;"/>
    <path clip-path="url(#p83217ec86e)" d="M 149.021451 254.084436 
L 149.02272 254.081662 
L 149.37984 254.001357 
L 149.441451 254.084436 
L 149.37984 254.086375 
L 149.02272 254.08447 
L 149.021451 254.084436 
" style="fill:none;stroke:#ff0018;stroke-width:1.5;"/>
    <path clip-path="url(#p83217ec86e)" d="M 151.045239 254.084436 
L 151.16544 253.932219 
L 151.375642 254.084436 
L 151.16544 254.092083 
L 151.045239 254.084436 
" style="fill:none;stroke:#ff0018;stroke-width:1.5;"/>
    <path clip-path="url(#p83217ec86e)" d="M 152.410893 254.084436 
L 152.59392 253.930596 
L 152.758945 254.084436 
L 152.59392 254.08885 
L 152.410893 254.084436 
" style="fill:none;stroke:#ff0018;stroke-width:1.5;"/>
    <path clip-path="url(#p83217ec86e)" d="M 154.942286 254.084436 
L 155.049198 253.907644 
L 155.09376 253.846094 
L 155.30118 253.907644 
L 155.45088 254.076916 
L 155.453082 254.084436 
L 155.45088 254.084481 
L 155.09376 254.095943 
L 154.942286 254.084436 
" style="fill:none;stroke:#ff0018;stroke-width:1.5;"/>
    <path clip-path="url(#p83217ec86e)" d="M 157.945302 254.084436 
L 157.95072 254.077174 
L 157.959349 254.084436 
L 157.95072 254.084658 
L 157.945302 254.084436 
" style="fill:none;stroke:#ff0018;stroke-width:1.5;"/>
    <path clip-path="url(#p83217ec86e)" d="M 158.55879 254.084436 
L 158.66496 253.989522 
L 158.745483 254.084436 
L 158.66496 254.088162 
L 158.55879 254.084436 
" style="fill:none;stroke:#ff0018;stroke-width:1.5;"/>
    <path clip-path="url(#p83217ec86e)" d="M 159.281899 254.084436 
L 159.3792 253.958887 
L 159.536837 254.084436 
L 159.3792 254.089201 
L 159.281899 254.084436 
" style="fill:none;stroke:#ff0018;stroke-width:1.5;"/>
    <path clip-path="url(#p83217ec86e)" d="M 161.534279 254.084436 
L 161.638688 253.907644 
L 161.87904 253.795298 
L 162.013001 253.907644 
L 162.113074 254.084436 
L 161.87904 254.093636 
L 161.534279 254.084436 
" style="fill:none;stroke:#ff0018;stroke-width:1.5;"/>
    <path clip-path="url(#p83217ec86e)" d="M 164.643369 254.084436 
L 164.736 253.92028 
L 164.968966 254.084436 
L 164.736 254.093193 
L 164.643369 254.084436 
" style="fill:none;stroke:#ff0018;stroke-width:1.5;"/>
    <path clip-path="url(#p83217ec86e)" d="M 168.531519 254.084436 
L 168.66432 253.961807 
L 168.758583 254.084436 
L 168.66432 254.088378 
L 168.531519 254.084436 
" style="fill:none;stroke:#ff0018;stroke-width:1.5;"/>
    <path clip-path="url(#p83217ec86e)" d="M 171.617853 254.084436 
L 171.8784 254.031915 
L 171.923748 254.084436 
L 171.8784 254.085992 
L 171.617853 254.084436 
" style="fill:none;stroke:#ff0018;stroke-width:1.5;"/>
    <path clip-path="url(#p83217ec86e)" d="M 177.178779 254.084436 
L 177.2352 253.99778 
L 177.344826 254.084436 
L 177.2352 254.088804 
L 177.178779 254.084436 
" style="fill:none;stroke:#ff0018;stroke-width:1.5;"/>
    <path clip-path="url(#p83217ec86e)" d="M 178.236733 254.084436 
L 178.30656 253.969484 
L 178.39648 254.084436 
L 178.30656 254.088953 
L 178.236733 254.084436 
" style="fill:none;stroke:#ff0018;stroke-width:1.5;"/>
    <path clip-path="url(#p83217ec86e)" d="M 180.03463 254.084436 
L 180.09216 253.993285 
L 180.44928 254.078892 
L 180.454596 254.084436 
L 180.44928 254.084559 
L 180.09216 254.087637 
L 180.03463 254.084436 
" style="fill:none;stroke:#ff0018;stroke-width:1.5;"/>
    <path clip-path="url(#p83217ec86e)" d="M 183.896786 254.084436 
L 184.02048 254.025452 
L 184.143941 254.084436 
L 184.02048 254.086934 
L 183.896786 254.084436 
" style="fill:none;stroke:#ff0018;stroke-width:1.5;"/>
    <path clip-path="url(#p83217ec86e)" d="M 184.970681 254.084436 
L 185.09184 253.981302 
L 185.170964 254.084436 
L 185.09184 254.088909 
L 184.970681 254.084436 
" style="fill:none;stroke:#ff0018;stroke-width:1.5;"/>
    <path clip-path="url(#p83217ec86e)" d="M 188.506101 254.084436 
L 188.66304 253.948588 
L 188.845791 254.084436 
L 188.66304 254.092453 
L 188.506101 254.084436 
" style="fill:none;stroke:#ff0018;stroke-width:1.5;"/>
    <path clip-path="url(#p83217ec86e)" d="M 190.002532 254.084436 
L 190.09152 253.991304 
L 190.169578 254.084436 
L 190.09152 254.088619 
L 190.002532 254.084436 
" style="fill:none;stroke:#ff0018;stroke-width:1.5;"/>
    <path clip-path="url(#p83217ec86e)" d="M 190.767198 254.084436 
L 190.80576 254.039425 
L 190.833631 254.084436 
L 190.80576 254.086271 
L 190.767198 254.084436 
" style="fill:none;stroke:#ff0018;stroke-width:1.5;"/>
    <path clip-path="url(#p83217ec86e)" d="M 191.493277 254.084436 
L 191.52 254.039194 
L 191.601897 254.084436 
L 191.52 254.08619 
L 191.493277 254.084436 
" style="fill:none;stroke:#ff0018;stroke-width:1.5;"/>
    <path clip-path="url(#p83217ec86e)" d="M 192.846549 254.084436 
L 192.94848 253.955436 
L 193.3056 253.956299 
L 193.404595 254.084436 
L 193.3056 254.087806 
L 192.94848 254.087817 
L 192.846549 254.084436 
" style="fill:none;stroke:#ff0018;stroke-width:1.5;"/>
    <path clip-path="url(#p83217ec86e)" d="M 195.302954 254.084436 
L 195.44832 253.967863 
L 195.521034 254.084436 
L 195.44832 254.088376 
L 195.302954 254.084436 
" style="fill:none;stroke:#ff0018;stroke-width:1.5;"/>
    <path clip-path="url(#p83217ec86e)" d="M 197.192231 254.084436 
L 197.23392 254.030685 
L 197.282603 254.084436 
L 197.23392 254.086648 
L 197.192231 254.084436 
" style="fill:none;stroke:#ff0018;stroke-width:1.5;"/>
    <path clip-path="url(#p83217ec86e)" d="M 201.815957 254.084436 
L 201.87648 254.0376 
L 201.942966 254.084436 
L 201.87648 254.086258 
L 201.815957 254.084436 
" style="fill:none;stroke:#ff0018;stroke-width:1.5;"/>
    <path clip-path="url(#p83217ec86e)" d="M 202.50067 254.084436 
L 202.59072 254.005629 
L 202.66304 254.084436 
L 202.59072 254.087108 
L 202.50067 254.084436 
" style="fill:none;stroke:#ff0018;stroke-width:1.5;"/>
    <path clip-path="url(#p83217ec86e)" d="M 205.951735 254.084436 
L 206.16192 253.989731 
L 206.504987 254.084436 
L 206.16192 254.087414 
L 205.951735 254.084436 
" style="fill:none;stroke:#ff0018;stroke-width:1.5;"/>
    <path clip-path="url(#p83217ec86e)" d="M 215.341996 254.084436 
L 215.44704 253.979544 
L 215.625398 254.084436 
L 215.44704 254.086634 
L 215.341996 254.084436 
" style="fill:none;stroke:#ff0018;stroke-width:1.5;"/>
    <path clip-path="url(#p83217ec86e)" d="M 218.210768 254.084436 
L 218.304 253.984125 
L 218.554918 254.084436 
L 218.304 254.089273 
L 218.210768 254.084436 
" style="fill:none;stroke:#ff0018;stroke-width:1.5;"/>
    <path clip-path="url(#p83217ec86e)" d="M 221.81634 254.084436 
L 221.8752 253.993722 
L 221.982426 254.084436 
L 221.8752 254.087534 
L 221.81634 254.084436 
" style="fill:none;stroke:#ff0018;stroke-width:1.5;"/>
    <path clip-path="url(#p83217ec86e)" d="M 224.706075 254.084436 
L 224.73216 254.046659 
L 224.806096 254.084436 
L 224.73216 254.085878 
L 224.706075 254.084436 
" style="fill:none;stroke:#ff0018;stroke-width:1.5;"/>
    <path clip-path="url(#p83217ec86e)" d="M 228.276753 254.084436 
L 228.30336 254.051619 
L 228.427604 254.084436 
L 228.30336 254.085487 
L 228.276753 254.084436 
" style="fill:none;stroke:#ff0018;stroke-width:1.5;"/>
    <path clip-path="url(#p83217ec86e)" d="M 231.435152 254.084436 
L 231.51744 254.079531 
L 231.553772 254.084436 
L 231.51744 254.084623 
L 231.435152 254.084436 
" style="fill:none;stroke:#ff0018;stroke-width:1.5;"/>
    <path clip-path="url(#p83217ec86e)" d="M 234.958552 254.084436 
L 235.08864 254.058629 
L 235.209914 254.084436 
L 235.08864 254.087579 
L 234.958552 254.084436 
" style="fill:none;stroke:#ff0018;stroke-width:1.5;"/>
   </g>
   <g id="patch_6">
    <path d="M 57.6 271.763644 
L 57.6 77.292356 
" style="fill:none;stroke:#000000;stroke-linecap:square;stroke-linejoin:miter;stroke-width:0.8;"/>
   </g>
   <g id="patch_7">
    <path d="M 414.72 271.763644 
L 414.72 77.292356 
" style="fill:none;stroke:#000000;stroke-linecap:square;stroke-linejoin:miter;stroke-width:0.8;"/>
   </g>
   <g id="patch_8">
    <path d="M 57.6 271.763644 
L 414.72 271.763644 
" style="fill:none;stroke:#000000;stroke-linecap:square;stroke-linejoin:miter;stroke-width:0.8;"/>
   </g>
   <g id="patch_9">
    <path d="M 57.6 77.292356 
L 414.72 77.292356 
" style="fill:none;stroke:#000000;stroke-linecap:square;stroke-linejoin:miter;stroke-width:0.8;"/>
   </g>
   <g id="text_18">
    <!-- Stream function $\psi(x,y)$, $h = 0 l_{ee}$ -->
    <defs>
     <path d="M 53.515625 70.515625 
L 53.515625 60.890625 
Q 47.90625 63.578125 42.921875 64.890625 
Q 37.9375 66.21875 33.296875 66.21875 
Q 25.25 66.21875 20.875 63.09375 
Q 16.5 59.96875 16.5 54.203125 
Q 16.5 49.359375 19.40625 46.890625 
Q 22.3125 44.4375 30.421875 42.921875 
L 36.375 41.703125 
Q 47.40625 39.59375 52.65625 34.296875 
Q 57.90625 29 57.90625 20.125 
Q 57.90625 9.515625 50.796875 4.046875 
Q 43.703125 -1.421875 29.984375 -1.421875 
Q 24.8125 -1.421875 18.96875 -0.25 
Q 13.140625 0.921875 6.890625 3.21875 
L 6.890625 13.375 
Q 12.890625 10.015625 18.65625 8.296875 
Q 24.421875 6.59375 29.984375 6.59375 
Q 38.421875 6.59375 43.015625 9.90625 
Q 47.609375 13.234375 47.609375 19.390625 
Q 47.609375 24.75 44.3125 27.78125 
Q 41.015625 30.8125 33.5 32.328125 
L 27.484375 33.5 
Q 16.453125 35.6875 11.515625 40.375 
Q 6.59375 45.0625 6.59375 53.421875 
Q 6.59375 63.09375 13.40625 68.65625 
Q 20.21875 74.21875 32.171875 74.21875 
Q 37.3125 74.21875 42.625 73.28125 
Q 47.953125 72.359375 53.515625 70.515625 
z
" id="DejaVuSans-53"/>
     <path d="M 18.3125 70.21875 
L 18.3125 54.6875 
L 36.8125 54.6875 
L 36.8125 47.703125 
L 18.3125 47.703125 
L 18.3125 18.015625 
Q 18.3125 11.328125 20.140625 9.421875 
Q 21.96875 7.515625 27.59375 7.515625 
L 36.8125 7.515625 
L 36.8125 0 
L 27.59375 0 
Q 17.1875 0 13.234375 3.875 
Q 9.28125 7.765625 9.28125 18.015625 
L 9.28125 47.703125 
L 2.6875 47.703125 
L 2.6875 54.6875 
L 9.28125 54.6875 
L 9.28125 70.21875 
z
" id="DejaVuSans-74"/>
     <path d="M 41.109375 46.296875 
Q 39.59375 47.171875 37.8125 47.578125 
Q 36.03125 48 33.890625 48 
Q 26.265625 48 22.1875 43.046875 
Q 18.109375 38.09375 18.109375 28.8125 
L 18.109375 0 
L 9.078125 0 
L 9.078125 54.6875 
L 18.109375 54.6875 
L 18.109375 46.1875 
Q 20.953125 51.171875 25.484375 53.578125 
Q 30.03125 56 36.53125 56 
Q 37.453125 56 38.578125 55.875 
Q 39.703125 55.765625 41.0625 55.515625 
z
" id="DejaVuSans-72"/>
     <path d="M 56.203125 29.59375 
L 56.203125 25.203125 
L 14.890625 25.203125 
Q 15.484375 15.921875 20.484375 11.0625 
Q 25.484375 6.203125 34.421875 6.203125 
Q 39.59375 6.203125 44.453125 7.46875 
Q 49.3125 8.734375 54.109375 11.28125 
L 54.109375 2.78125 
Q 49.265625 0.734375 44.1875 -0.34375 
Q 39.109375 -1.421875 33.890625 -1.421875 
Q 20.796875 -1.421875 13.15625 6.1875 
Q 5.515625 13.8125 5.515625 26.8125 
Q 5.515625 40.234375 12.765625 48.109375 
Q 20.015625 56 32.328125 56 
Q 43.359375 56 49.78125 48.890625 
Q 56.203125 41.796875 56.203125 29.59375 
z
M 47.21875 32.234375 
Q 47.125 39.59375 43.09375 43.984375 
Q 39.0625 48.390625 32.421875 48.390625 
Q 24.90625 48.390625 20.390625 44.140625 
Q 15.875 39.890625 15.1875 32.171875 
z
" id="DejaVuSans-65"/>
     <path d="M 34.28125 27.484375 
Q 23.390625 27.484375 19.1875 25 
Q 14.984375 22.515625 14.984375 16.5 
Q 14.984375 11.71875 18.140625 8.90625 
Q 21.296875 6.109375 26.703125 6.109375 
Q 34.1875 6.109375 38.703125 11.40625 
Q 43.21875 16.703125 43.21875 25.484375 
L 43.21875 27.484375 
z
M 52.203125 31.203125 
L 52.203125 0 
L 43.21875 0 
L 43.21875 8.296875 
Q 40.140625 3.328125 35.546875 0.953125 
Q 30.953125 -1.421875 24.3125 -1.421875 
Q 15.921875 -1.421875 10.953125 3.296875 
Q 6 8.015625 6 15.921875 
Q 6 25.140625 12.171875 29.828125 
Q 18.359375 34.515625 30.609375 34.515625 
L 43.21875 34.515625 
L 43.21875 35.40625 
Q 43.21875 41.609375 39.140625 45 
Q 35.0625 48.390625 27.6875 48.390625 
Q 23 48.390625 18.546875 47.265625 
Q 14.109375 46.140625 10.015625 43.890625 
L 10.015625 52.203125 
Q 14.9375 54.109375 19.578125 55.046875 
Q 24.21875 56 28.609375 56 
Q 40.484375 56 46.34375 49.84375 
Q 52.203125 43.703125 52.203125 31.203125 
z
" id="DejaVuSans-61"/>
     <path d="M 52 44.1875 
Q 55.375 50.25 60.0625 53.125 
Q 64.75 56 71.09375 56 
Q 79.640625 56 84.28125 50.015625 
Q 88.921875 44.046875 88.921875 33.015625 
L 88.921875 0 
L 79.890625 0 
L 79.890625 32.71875 
Q 79.890625 40.578125 77.09375 44.375 
Q 74.3125 48.1875 68.609375 48.1875 
Q 61.625 48.1875 57.5625 43.546875 
Q 53.515625 38.921875 53.515625 30.90625 
L 53.515625 0 
L 44.484375 0 
L 44.484375 32.71875 
Q 44.484375 40.625 41.703125 44.40625 
Q 38.921875 48.1875 33.109375 48.1875 
Q 26.21875 48.1875 22.15625 43.53125 
Q 18.109375 38.875 18.109375 30.90625 
L 18.109375 0 
L 9.078125 0 
L 9.078125 54.6875 
L 18.109375 54.6875 
L 18.109375 46.1875 
Q 21.1875 51.21875 25.484375 53.609375 
Q 29.78125 56 35.6875 56 
Q 41.65625 56 45.828125 52.96875 
Q 50 49.953125 52 44.1875 
z
" id="DejaVuSans-6d"/>
     <path id="DejaVuSans-20"/>
     <path d="M 37.109375 75.984375 
L 37.109375 68.5 
L 28.515625 68.5 
Q 23.6875 68.5 21.796875 66.546875 
Q 19.921875 64.59375 19.921875 59.515625 
L 19.921875 54.6875 
L 34.71875 54.6875 
L 34.71875 47.703125 
L 19.921875 47.703125 
L 19.921875 0 
L 10.890625 0 
L 10.890625 47.703125 
L 2.296875 47.703125 
L 2.296875 54.6875 
L 10.890625 54.6875 
L 10.890625 58.5 
Q 10.890625 67.625 15.140625 71.796875 
Q 19.390625 75.984375 28.609375 75.984375 
z
" id="DejaVuSans-66"/>
     <path d="M 8.5 21.578125 
L 8.5 54.6875 
L 17.484375 54.6875 
L 17.484375 21.921875 
Q 17.484375 14.15625 20.5 10.265625 
Q 23.53125 6.390625 29.59375 6.390625 
Q 36.859375 6.390625 41.078125 11.03125 
Q 45.3125 15.671875 45.3125 23.6875 
L 45.3125 54.6875 
L 54.296875 54.6875 
L 54.296875 0 
L 45.3125 0 
L 45.3125 8.40625 
Q 42.046875 3.421875 37.71875 1 
Q 33.40625 -1.421875 27.6875 -1.421875 
Q 18.265625 -1.421875 13.375 4.4375 
Q 8.5 10.296875 8.5 21.578125 
z
M 31.109375 56 
z
" id="DejaVuSans-75"/>
     <path d="M 54.890625 33.015625 
L 54.890625 0 
L 45.90625 0 
L 45.90625 32.71875 
Q 45.90625 40.484375 42.875 44.328125 
Q 39.84375 48.1875 33.796875 48.1875 
Q 26.515625 48.1875 22.3125 43.546875 
Q 18.109375 38.921875 18.109375 30.90625 
L 18.109375 0 
L 9.078125 0 
L 9.078125 54.6875 
L 18.109375 54.6875 
L 18.109375 46.1875 
Q 21.34375 51.125 25.703125 53.5625 
Q 30.078125 56 35.796875 56 
Q 45.21875 56 50.046875 50.171875 
Q 54.890625 44.34375 54.890625 33.015625 
z
" id="DejaVuSans-6e"/>
     <path d="M 48.78125 52.59375 
L 48.78125 44.1875 
Q 44.96875 46.296875 41.140625 47.34375 
Q 37.3125 48.390625 33.40625 48.390625 
Q 24.65625 48.390625 19.8125 42.84375 
Q 14.984375 37.3125 14.984375 27.296875 
Q 14.984375 17.28125 19.8125 11.734375 
Q 24.65625 6.203125 33.40625 6.203125 
Q 37.3125 6.203125 41.140625 7.25 
Q 44.96875 8.296875 48.78125 10.40625 
L 48.78125 2.09375 
Q 45.015625 0.34375 40.984375 -0.53125 
Q 36.96875 -1.421875 32.421875 -1.421875 
Q 20.0625 -1.421875 12.78125 6.34375 
Q 5.515625 14.109375 5.515625 27.296875 
Q 5.515625 40.671875 12.859375 48.328125 
Q 20.21875 56 33.015625 56 
Q 37.15625 56 41.109375 55.140625 
Q 45.0625 54.296875 48.78125 52.59375 
z
" id="DejaVuSans-63"/>
     <path d="M 9.421875 54.6875 
L 18.40625 54.6875 
L 18.40625 0 
L 9.421875 0 
z
M 9.421875 75.984375 
L 18.40625 75.984375 
L 18.40625 64.59375 
L 9.421875 64.59375 
z
" id="DejaVuSans-69"/>
     <path d="M 30.609375 48.390625 
Q 23.390625 48.390625 19.1875 42.75 
Q 14.984375 37.109375 14.984375 27.296875 
Q 14.984375 17.484375 19.15625 11.84375 
Q 23.34375 6.203125 30.609375 6.203125 
Q 37.796875 6.203125 41.984375 11.859375 
Q 46.1875 17.53125 46.1875 27.296875 
Q 46.1875 37.015625 41.984375 42.703125 
Q 37.796875 48.390625 30.609375 48.390625 
z
M 30.609375 56 
Q 42.328125 56 49.015625 48.375 
Q 55.71875 40.765625 55.71875 27.296875 
Q 55.71875 13.875 49.015625 6.21875 
Q 42.328125 -1.421875 30.609375 -1.421875 
Q 18.84375 -1.421875 12.171875 6.21875 
Q 5.515625 13.875 5.515625 27.296875 
Q 5.515625 40.765625 12.171875 48.375 
Q 18.84375 56 30.609375 56 
z
" id="DejaVuSans-6f"/>
     <path d="M 24.859375 -1.21875 
Q 13.921875 0.59375 9.625 5.328125 
Q 4.34375 11.140625 6.640625 23 
L 12.796875 54.6875 
L 21.875 54.6875 
L 15.765625 23.34375 
Q 14.0625 14.40625 17.484375 10.6875 
Q 20.515625 7.46875 26.421875 6.78125 
L 35.6875 54.6875 
L 44.625 54.6875 
L 35.359375 6.84375 
Q 41.890625 7.515625 45.75 10.75 
Q 50.734375 14.84375 52.390625 23.390625 
L 58.453125 54.6875 
L 67.53125 54.6875 
L 61.375 23.046875 
Q 58.984375 10.75 51.5625 5.375 
Q 44.875 0.53125 33.796875 -1.171875 
L 29.984375 -20.796875 
L 21.046875 -20.796875 
z
" id="DejaVuSans-Oblique-3c8"/>
     <path d="M 31 75.875 
Q 24.46875 64.65625 21.28125 53.65625 
Q 18.109375 42.671875 18.109375 31.390625 
Q 18.109375 20.125 21.3125 9.0625 
Q 24.515625 -2 31 -13.1875 
L 23.1875 -13.1875 
Q 15.875 -1.703125 12.234375 9.375 
Q 8.59375 20.453125 8.59375 31.390625 
Q 8.59375 42.28125 12.203125 53.3125 
Q 15.828125 64.359375 23.1875 75.875 
z
" id="DejaVuSans-28"/>
     <path d="M 11.71875 12.40625 
L 22.015625 12.40625 
L 22.015625 4 
L 14.015625 -11.625 
L 7.71875 -11.625 
L 11.71875 4 
z
" id="DejaVuSans-2c"/>
     <path d="M 8.015625 75.875 
L 15.828125 75.875 
Q 23.140625 64.359375 26.78125 53.3125 
Q 30.421875 42.28125 30.421875 31.390625 
Q 30.421875 20.453125 26.78125 9.375 
Q 23.140625 -1.703125 15.828125 -13.1875 
L 8.015625 -13.1875 
Q 14.5 -2 17.703125 9.0625 
Q 20.90625 20.125 20.90625 31.390625 
Q 20.90625 42.671875 17.703125 53.65625 
Q 14.5 64.65625 8.015625 75.875 
z
" id="DejaVuSans-29"/>
     <path d="M 55.71875 33.015625 
L 49.3125 0 
L 40.28125 0 
L 46.6875 32.671875 
Q 47.125 34.96875 47.359375 36.71875 
Q 47.609375 38.484375 47.609375 39.5 
Q 47.609375 43.609375 45.015625 45.890625 
Q 42.4375 48.1875 37.796875 48.1875 
Q 30.5625 48.1875 25.265625 43.296875 
Q 19.96875 38.421875 18.40625 30.328125 
L 12.5 0 
L 3.515625 0 
L 18.3125 75.984375 
L 27.296875 75.984375 
L 21.484375 46.09375 
Q 24.90625 50.6875 30.21875 53.34375 
Q 35.546875 56 41.40625 56 
Q 48.640625 56 52.609375 52.09375 
Q 56.59375 48.1875 56.59375 41.109375 
Q 56.59375 39.359375 56.375 37.359375 
Q 56.15625 35.359375 55.71875 33.015625 
z
" id="DejaVuSans-Oblique-68"/>
     <path d="M 10.59375 45.40625 
L 73.1875 45.40625 
L 73.1875 37.203125 
L 10.59375 37.203125 
z
M 10.59375 25.484375 
L 73.1875 25.484375 
L 73.1875 17.1875 
L 10.59375 17.1875 
z
" id="DejaVuSans-3d"/>
    </defs>
    <g transform="translate(141.36 71.292356)scale(0.12 -0.12)">
     <use transform="translate(0 0.015625)" xlink:href="#DejaVuSans-53"/>
     <use transform="translate(63.476562 0.015625)" xlink:href="#DejaVuSans-74"/>
     <use transform="translate(102.685547 0.015625)" xlink:href="#DejaVuSans-72"/>
     <use transform="translate(143.798828 0.015625)" xlink:href="#DejaVuSans-65"/>
     <use transform="translate(205.322266 0.015625)" xlink:href="#DejaVuSans-61"/>
     <use transform="translate(266.601562 0.015625)" xlink:href="#DejaVuSans-6d"/>
     <use transform="translate(364.013672 0.015625)" xlink:href="#DejaVuSans-20"/>
     <use transform="translate(395.800781 0.015625)" xlink:href="#DejaVuSans-66"/>
     <use transform="translate(431.005859 0.015625)" xlink:href="#DejaVuSans-75"/>
     <use transform="translate(494.384766 0.015625)" xlink:href="#DejaVuSans-6e"/>
     <use transform="translate(557.763672 0.015625)" xlink:href="#DejaVuSans-63"/>
     <use transform="translate(612.744141 0.015625)" xlink:href="#DejaVuSans-74"/>
     <use transform="translate(651.953125 0.015625)" xlink:href="#DejaVuSans-69"/>
     <use transform="translate(679.736328 0.015625)" xlink:href="#DejaVuSans-6f"/>
     <use transform="translate(740.917969 0.015625)" xlink:href="#DejaVuSans-6e"/>
     <use transform="translate(804.296875 0.015625)" xlink:href="#DejaVuSans-20"/>
     <use transform="translate(836.083984 0.015625)" xlink:href="#DejaVuSans-Oblique-3c8"/>
     <use transform="translate(902.050781 0.015625)" xlink:href="#DejaVuSans-28"/>
     <use transform="translate(941.064453 0.015625)" xlink:href="#DejaVuSans-Oblique-78"/>
     <use transform="translate(1000.244141 0.015625)" xlink:href="#DejaVuSans-2c"/>
     <use transform="translate(1051.513672 0.015625)" xlink:href="#DejaVuSans-Oblique-79"/>
     <use transform="translate(1110.693359 0.015625)" xlink:href="#DejaVuSans-29"/>
     <use transform="translate(1149.707031 0.015625)" xlink:href="#DejaVuSans-2c"/>
     <use transform="translate(1181.494141 0.015625)" xlink:href="#DejaVuSans-20"/>
     <use transform="translate(1213.28125 0.015625)" xlink:href="#DejaVuSans-Oblique-68"/>
     <use transform="translate(1296.142578 0.015625)" xlink:href="#DejaVuSans-3d"/>
     <use transform="translate(1399.414062 0.015625)" xlink:href="#DejaVuSans-30"/>
     <use transform="translate(1463.037109 0.015625)" xlink:href="#DejaVuSans-Oblique-6c"/>
     <use transform="translate(1490.820312 -16.390625)scale(0.7)" xlink:href="#DejaVuSans-Oblique-65"/>
     <use transform="translate(1533.886719 -16.390625)scale(0.7)" xlink:href="#DejaVuSans-Oblique-65"/>
    </g>
   </g>
  </g>
 </g>
 <defs>
  <clipPath id="p83217ec86e">
   <rect height="194.471287" width="357.12" x="57.6" y="77.292356"/>
  </clipPath>
 </defs>
</svg>
