<?xml version="1.0" encoding="utf-8" standalone="no"?>
<!DOCTYPE svg PUBLIC "-//W3C//DTD SVG 1.1//EN"
  "http://www.w3.org/Graphics/SVG/1.1/DTD/svg11.dtd">
<!-- Created with matplotlib (http://matplotlib.org/) -->
<svg height="345.6pt" version="1.1" viewBox="0 0 460.8 345.6" width="460.8pt" xmlns="http://www.w3.org/2000/svg" xmlns:xlink="http://www.w3.org/1999/xlink">
 <defs>
  <style type="text/css">
*{stroke-linecap:butt;stroke-linejoin:round;}
  </style>
 </defs>
 <g id="figure_1">
  <g id="patch_1">
   <path d="M 0 345.6 
L 460.8 345.6 
L 460.8 0 
L 0 0 
z
" style="fill:#ffffff;"/>
  </g>
  <g id="axes_1">
   <g id="patch_2">
    <path d="M 57.6 271.763644 
L 414.72 271.763644 
L 414.72 77.292356 
L 57.6 77.292356 
z
" style="fill:#ffffff;"/>
   </g>
   <g id="patch_3">
    <path clip-path="url(#p7a9cdb64f9)" d="M 57.6 271.763644 
L 414.72 271.763644 
L 414.72 254.084436 
L 57.6 254.084436 
z
" style="fill:#cccccc;stroke:#808080;stroke-linejoin:miter;"/>
   </g>
   <g id="matplotlib.axis_1">
    <g id="xtick_1">
     <g id="line2d_1">
      <defs>
       <path d="M 0 0 
L 0 3.5 
" id="mc9ab166873" style="stroke:#000000;stroke-width:0.8;"/>
      </defs>
      <g>
       <use style="stroke:#000000;stroke-width:0.8;" x="59.367921" xlink:href="#mc9ab166873" y="271.763644"/>
      </g>
     </g>
     <g id="text_1">
      <!-- −10.0 -->
      <defs>
       <path d="M 10.59375 35.5 
L 73.1875 35.5 
L 73.1875 27.203125 
L 10.59375 27.203125 
z
" id="DejaVuSans-2212"/>
       <path d="M 12.40625 8.296875 
L 28.515625 8.296875 
L 28.515625 63.921875 
L 10.984375 60.40625 
L 10.984375 69.390625 
L 28.421875 72.90625 
L 38.28125 72.90625 
L 38.28125 8.296875 
L 54.390625 8.296875 
L 54.390625 0 
L 12.40625 0 
z
" id="DejaVuSans-31"/>
       <path d="M 31.78125 66.40625 
Q 24.171875 66.40625 20.328125 58.90625 
Q 16.5 51.421875 16.5 36.375 
Q 16.5 21.390625 20.328125 13.890625 
Q 24.171875 6.390625 31.78125 6.390625 
Q 39.453125 6.390625 43.28125 13.890625 
Q 47.125 21.390625 47.125 36.375 
Q 47.125 51.421875 43.28125 58.90625 
Q 39.453125 66.40625 31.78125 66.40625 
z
M 31.78125 74.21875 
Q 44.046875 74.21875 50.515625 64.515625 
Q 56.984375 54.828125 56.984375 36.375 
Q 56.984375 17.96875 50.515625 8.265625 
Q 44.046875 -1.421875 31.78125 -1.421875 
Q 19.53125 -1.421875 13.0625 8.265625 
Q 6.59375 17.96875 6.59375 36.375 
Q 6.59375 54.828125 13.0625 64.515625 
Q 19.53125 74.21875 31.78125 74.21875 
z
" id="DejaVuSans-30"/>
       <path d="M 10.6875 12.40625 
L 21 12.40625 
L 21 0 
L 10.6875 0 
z
" id="DejaVuSans-2e"/>
      </defs>
      <g transform="translate(44.045265 286.362081)scale(0.1 -0.1)">
       <use xlink:href="#DejaVuSans-2212"/>
       <use x="83.789062" xlink:href="#DejaVuSans-31"/>
       <use x="147.412109" xlink:href="#DejaVuSans-30"/>
       <use x="211.035156" xlink:href="#DejaVuSans-2e"/>
       <use x="242.822266" xlink:href="#DejaVuSans-30"/>
      </g>
     </g>
    </g>
    <g id="xtick_2">
     <g id="line2d_2">
      <g>
       <use style="stroke:#000000;stroke-width:0.8;" x="103.565941" xlink:href="#mc9ab166873" y="271.763644"/>
      </g>
     </g>
     <g id="text_2">
      <!-- −7.5 -->
      <defs>
       <path d="M 8.203125 72.90625 
L 55.078125 72.90625 
L 55.078125 68.703125 
L 28.609375 0 
L 18.3125 0 
L 43.21875 64.59375 
L 8.203125 64.59375 
z
" id="DejaVuSans-37"/>
       <path d="M 10.796875 72.90625 
L 49.515625 72.90625 
L 49.515625 64.59375 
L 19.828125 64.59375 
L 19.828125 46.734375 
Q 21.96875 47.46875 24.109375 47.828125 
Q 26.265625 48.1875 28.421875 48.1875 
Q 40.625 48.1875 47.75 41.5 
Q 54.890625 34.8125 54.890625 23.390625 
Q 54.890625 11.625 47.5625 5.09375 
Q 40.234375 -1.421875 26.90625 -1.421875 
Q 22.3125 -1.421875 17.546875 -0.640625 
Q 12.796875 0.140625 7.71875 1.703125 
L 7.71875 11.625 
Q 12.109375 9.234375 16.796875 8.0625 
Q 21.484375 6.890625 26.703125 6.890625 
Q 35.15625 6.890625 40.078125 11.328125 
Q 45.015625 15.765625 45.015625 23.390625 
Q 45.015625 31 40.078125 35.4375 
Q 35.15625 39.890625 26.703125 39.890625 
Q 22.75 39.890625 18.8125 39.015625 
Q 14.890625 38.140625 10.796875 36.28125 
z
" id="DejaVuSans-35"/>
      </defs>
      <g transform="translate(91.424534 286.362081)scale(0.1 -0.1)">
       <use xlink:href="#DejaVuSans-2212"/>
       <use x="83.789062" xlink:href="#DejaVuSans-37"/>
       <use x="147.412109" xlink:href="#DejaVuSans-2e"/>
       <use x="179.199219" xlink:href="#DejaVuSans-35"/>
      </g>
     </g>
    </g>
    <g id="xtick_3">
     <g id="line2d_3">
      <g>
       <use style="stroke:#000000;stroke-width:0.8;" x="147.76396" xlink:href="#mc9ab166873" y="271.763644"/>
      </g>
     </g>
     <g id="text_3">
      <!-- −5.0 -->
      <g transform="translate(135.622554 286.362081)scale(0.1 -0.1)">
       <use xlink:href="#DejaVuSans-2212"/>
       <use x="83.789062" xlink:href="#DejaVuSans-35"/>
       <use x="147.412109" xlink:href="#DejaVuSans-2e"/>
       <use x="179.199219" xlink:href="#DejaVuSans-30"/>
      </g>
     </g>
    </g>
    <g id="xtick_4">
     <g id="line2d_4">
      <g>
       <use style="stroke:#000000;stroke-width:0.8;" x="191.96198" xlink:href="#mc9ab166873" y="271.763644"/>
      </g>
     </g>
     <g id="text_4">
      <!-- −2.5 -->
      <defs>
       <path d="M 19.1875 8.296875 
L 53.609375 8.296875 
L 53.609375 0 
L 7.328125 0 
L 7.328125 8.296875 
Q 12.9375 14.109375 22.625 23.890625 
Q 32.328125 33.6875 34.8125 36.53125 
Q 39.546875 41.84375 41.421875 45.53125 
Q 43.3125 49.21875 43.3125 52.78125 
Q 43.3125 58.59375 39.234375 62.25 
Q 35.15625 65.921875 28.609375 65.921875 
Q 23.96875 65.921875 18.8125 64.3125 
Q 13.671875 62.703125 7.8125 59.421875 
L 7.8125 69.390625 
Q 13.765625 71.78125 18.9375 73 
Q 24.125 74.21875 28.421875 74.21875 
Q 39.75 74.21875 46.484375 68.546875 
Q 53.21875 62.890625 53.21875 53.421875 
Q 53.21875 48.921875 51.53125 44.890625 
Q 49.859375 40.875 45.40625 35.40625 
Q 44.1875 33.984375 37.640625 27.21875 
Q 31.109375 20.453125 19.1875 8.296875 
z
" id="DejaVuSans-32"/>
      </defs>
      <g transform="translate(179.820574 286.362081)scale(0.1 -0.1)">
       <use xlink:href="#DejaVuSans-2212"/>
       <use x="83.789062" xlink:href="#DejaVuSans-32"/>
       <use x="147.412109" xlink:href="#DejaVuSans-2e"/>
       <use x="179.199219" xlink:href="#DejaVuSans-35"/>
      </g>
     </g>
    </g>
    <g id="xtick_5">
     <g id="line2d_5">
      <g>
       <use style="stroke:#000000;stroke-width:0.8;" x="236.16" xlink:href="#mc9ab166873" y="271.763644"/>
      </g>
     </g>
     <g id="text_5">
      <!-- 0.0 -->
      <g transform="translate(228.208438 286.362081)scale(0.1 -0.1)">
       <use xlink:href="#DejaVuSans-30"/>
       <use x="63.623047" xlink:href="#DejaVuSans-2e"/>
       <use x="95.410156" xlink:href="#DejaVuSans-30"/>
      </g>
     </g>
    </g>
    <g id="xtick_6">
     <g id="line2d_6">
      <g>
       <use style="stroke:#000000;stroke-width:0.8;" x="280.35802" xlink:href="#mc9ab166873" y="271.763644"/>
      </g>
     </g>
     <g id="text_6">
      <!-- 2.5 -->
      <g transform="translate(272.406457 286.362081)scale(0.1 -0.1)">
       <use xlink:href="#DejaVuSans-32"/>
       <use x="63.623047" xlink:href="#DejaVuSans-2e"/>
       <use x="95.410156" xlink:href="#DejaVuSans-35"/>
      </g>
     </g>
    </g>
    <g id="xtick_7">
     <g id="line2d_7">
      <g>
       <use style="stroke:#000000;stroke-width:0.8;" x="324.55604" xlink:href="#mc9ab166873" y="271.763644"/>
      </g>
     </g>
     <g id="text_7">
      <!-- 5.0 -->
      <g transform="translate(316.604477 286.362081)scale(0.1 -0.1)">
       <use xlink:href="#DejaVuSans-35"/>
       <use x="63.623047" xlink:href="#DejaVuSans-2e"/>
       <use x="95.410156" xlink:href="#DejaVuSans-30"/>
      </g>
     </g>
    </g>
    <g id="xtick_8">
     <g id="line2d_8">
      <g>
       <use style="stroke:#000000;stroke-width:0.8;" x="368.754059" xlink:href="#mc9ab166873" y="271.763644"/>
      </g>
     </g>
     <g id="text_8">
      <!-- 7.5 -->
      <g transform="translate(360.802497 286.362081)scale(0.1 -0.1)">
       <use xlink:href="#DejaVuSans-37"/>
       <use x="63.623047" xlink:href="#DejaVuSans-2e"/>
       <use x="95.410156" xlink:href="#DejaVuSans-35"/>
      </g>
     </g>
    </g>
    <g id="xtick_9">
     <g id="line2d_9">
      <g>
       <use style="stroke:#000000;stroke-width:0.8;" x="412.952079" xlink:href="#mc9ab166873" y="271.763644"/>
      </g>
     </g>
     <g id="text_9">
      <!-- 10.0 -->
      <g transform="translate(401.819267 286.362081)scale(0.1 -0.1)">
       <use xlink:href="#DejaVuSans-31"/>
       <use x="63.623047" xlink:href="#DejaVuSans-30"/>
       <use x="127.246094" xlink:href="#DejaVuSans-2e"/>
       <use x="159.033203" xlink:href="#DejaVuSans-30"/>
      </g>
     </g>
    </g>
    <g id="text_10">
     <!-- $x/l_{ee}$ -->
     <defs>
      <path d="M 60.015625 54.6875 
L 34.90625 27.875 
L 50.296875 0 
L 39.984375 0 
L 28.421875 21.6875 
L 8.296875 0 
L -2.59375 0 
L 24.3125 28.8125 
L 10.015625 54.6875 
L 20.3125 54.6875 
L 30.8125 34.90625 
L 49.125 54.6875 
z
" id="DejaVuSans-Oblique-78"/>
      <path d="M 25.390625 72.90625 
L 33.6875 72.90625 
L 8.296875 -9.28125 
L 0 -9.28125 
z
" id="DejaVuSans-2f"/>
      <path d="M 18.3125 75.984375 
L 27.296875 75.984375 
L 12.5 0 
L 3.515625 0 
z
" id="DejaVuSans-Oblique-6c"/>
      <path d="M 48.09375 32.234375 
Q 48.25 33.015625 48.3125 33.84375 
Q 48.390625 34.671875 48.390625 35.5 
Q 48.390625 41.453125 44.890625 44.921875 
Q 41.40625 48.390625 35.40625 48.390625 
Q 28.71875 48.390625 23.578125 44.15625 
Q 18.453125 39.9375 15.828125 32.171875 
z
M 55.90625 25.203125 
L 14.109375 25.203125 
Q 13.8125 23.34375 13.71875 22.265625 
Q 13.625 21.1875 13.625 20.40625 
Q 13.625 13.625 17.796875 9.90625 
Q 21.96875 6.203125 29.59375 6.203125 
Q 35.453125 6.203125 40.671875 7.515625 
Q 45.90625 8.84375 50.390625 11.375 
L 48.6875 2.484375 
Q 43.84375 0.53125 38.6875 -0.4375 
Q 33.546875 -1.421875 28.21875 -1.421875 
Q 16.84375 -1.421875 10.71875 4.015625 
Q 4.59375 9.46875 4.59375 19.484375 
Q 4.59375 28.03125 7.640625 35.375 
Q 10.6875 42.71875 16.609375 48.484375 
Q 20.40625 52.09375 25.65625 54.046875 
Q 30.90625 56 36.8125 56 
Q 46.09375 56 51.578125 50.4375 
Q 57.078125 44.875 57.078125 35.5 
Q 57.078125 33.25 56.78125 30.6875 
Q 56.5 28.125 55.90625 25.203125 
z
" id="DejaVuSans-Oblique-65"/>
     </defs>
     <g transform="translate(225.66 300.040206)scale(0.1 -0.1)">
      <use transform="translate(0 0.015625)" xlink:href="#DejaVuSans-Oblique-78"/>
      <use transform="translate(59.179688 0.015625)" xlink:href="#DejaVuSans-2f"/>
      <use transform="translate(92.871094 0.015625)" xlink:href="#DejaVuSans-Oblique-6c"/>
      <use transform="translate(120.654297 -16.390625)scale(0.7)" xlink:href="#DejaVuSans-Oblique-65"/>
      <use transform="translate(163.720703 -16.390625)scale(0.7)" xlink:href="#DejaVuSans-Oblique-65"/>
     </g>
    </g>
   </g>
   <g id="matplotlib.axis_2">
    <g id="ytick_1">
     <g id="line2d_10">
      <defs>
       <path d="M 0 0 
L -3.5 0 
" id="mac218e97fe" style="stroke:#000000;stroke-width:0.8;"/>
      </defs>
      <g>
       <use style="stroke:#000000;stroke-width:0.8;" x="57.6" xlink:href="#mac218e97fe" y="254.084436"/>
      </g>
     </g>
     <g id="text_11">
      <!-- 0 -->
      <g transform="translate(44.2375 257.883654)scale(0.1 -0.1)">
       <use xlink:href="#DejaVuSans-30"/>
      </g>
     </g>
    </g>
    <g id="ytick_2">
     <g id="line2d_11">
      <g>
       <use style="stroke:#000000;stroke-width:0.8;" x="57.6" xlink:href="#mac218e97fe" y="218.72602"/>
      </g>
     </g>
     <g id="text_12">
      <!-- 2 -->
      <g transform="translate(44.2375 222.525239)scale(0.1 -0.1)">
       <use xlink:href="#DejaVuSans-32"/>
      </g>
     </g>
    </g>
    <g id="ytick_3">
     <g id="line2d_12">
      <g>
       <use style="stroke:#000000;stroke-width:0.8;" x="57.6" xlink:href="#mac218e97fe" y="183.367604"/>
      </g>
     </g>
     <g id="text_13">
      <!-- 4 -->
      <defs>
       <path d="M 37.796875 64.3125 
L 12.890625 25.390625 
L 37.796875 25.390625 
z
M 35.203125 72.90625 
L 47.609375 72.90625 
L 47.609375 25.390625 
L 58.015625 25.390625 
L 58.015625 17.1875 
L 47.609375 17.1875 
L 47.609375 0 
L 37.796875 0 
L 37.796875 17.1875 
L 4.890625 17.1875 
L 4.890625 26.703125 
z
" id="DejaVuSans-34"/>
      </defs>
      <g transform="translate(44.2375 187.166823)scale(0.1 -0.1)">
       <use xlink:href="#DejaVuSans-34"/>
      </g>
     </g>
    </g>
    <g id="ytick_4">
     <g id="line2d_13">
      <g>
       <use style="stroke:#000000;stroke-width:0.8;" x="57.6" xlink:href="#mac218e97fe" y="148.009188"/>
      </g>
     </g>
     <g id="text_14">
      <!-- 6 -->
      <defs>
       <path d="M 33.015625 40.375 
Q 26.375 40.375 22.484375 35.828125 
Q 18.609375 31.296875 18.609375 23.390625 
Q 18.609375 15.53125 22.484375 10.953125 
Q 26.375 6.390625 33.015625 6.390625 
Q 39.65625 6.390625 43.53125 10.953125 
Q 47.40625 15.53125 47.40625 23.390625 
Q 47.40625 31.296875 43.53125 35.828125 
Q 39.65625 40.375 33.015625 40.375 
z
M 52.59375 71.296875 
L 52.59375 62.3125 
Q 48.875 64.0625 45.09375 64.984375 
Q 41.3125 65.921875 37.59375 65.921875 
Q 27.828125 65.921875 22.671875 59.328125 
Q 17.53125 52.734375 16.796875 39.40625 
Q 19.671875 43.65625 24.015625 45.921875 
Q 28.375 48.1875 33.59375 48.1875 
Q 44.578125 48.1875 50.953125 41.515625 
Q 57.328125 34.859375 57.328125 23.390625 
Q 57.328125 12.15625 50.6875 5.359375 
Q 44.046875 -1.421875 33.015625 -1.421875 
Q 20.359375 -1.421875 13.671875 8.265625 
Q 6.984375 17.96875 6.984375 36.375 
Q 6.984375 53.65625 15.1875 63.9375 
Q 23.390625 74.21875 37.203125 74.21875 
Q 40.921875 74.21875 44.703125 73.484375 
Q 48.484375 72.75 52.59375 71.296875 
z
" id="DejaVuSans-36"/>
      </defs>
      <g transform="translate(44.2375 151.808407)scale(0.1 -0.1)">
       <use xlink:href="#DejaVuSans-36"/>
      </g>
     </g>
    </g>
    <g id="ytick_5">
     <g id="line2d_14">
      <g>
       <use style="stroke:#000000;stroke-width:0.8;" x="57.6" xlink:href="#mac218e97fe" y="112.650772"/>
      </g>
     </g>
     <g id="text_15">
      <!-- 8 -->
      <defs>
       <path d="M 31.78125 34.625 
Q 24.75 34.625 20.71875 30.859375 
Q 16.703125 27.09375 16.703125 20.515625 
Q 16.703125 13.921875 20.71875 10.15625 
Q 24.75 6.390625 31.78125 6.390625 
Q 38.8125 6.390625 42.859375 10.171875 
Q 46.921875 13.96875 46.921875 20.515625 
Q 46.921875 27.09375 42.890625 30.859375 
Q 38.875 34.625 31.78125 34.625 
z
M 21.921875 38.8125 
Q 15.578125 40.375 12.03125 44.71875 
Q 8.5 49.078125 8.5 55.328125 
Q 8.5 64.0625 14.71875 69.140625 
Q 20.953125 74.21875 31.78125 74.21875 
Q 42.671875 74.21875 48.875 69.140625 
Q 55.078125 64.0625 55.078125 55.328125 
Q 55.078125 49.078125 51.53125 44.71875 
Q 48 40.375 41.703125 38.8125 
Q 48.828125 37.15625 52.796875 32.3125 
Q 56.78125 27.484375 56.78125 20.515625 
Q 56.78125 9.90625 50.3125 4.234375 
Q 43.84375 -1.421875 31.78125 -1.421875 
Q 19.734375 -1.421875 13.25 4.234375 
Q 6.78125 9.90625 6.78125 20.515625 
Q 6.78125 27.484375 10.78125 32.3125 
Q 14.796875 37.15625 21.921875 38.8125 
z
M 18.3125 54.390625 
Q 18.3125 48.734375 21.84375 45.5625 
Q 25.390625 42.390625 31.78125 42.390625 
Q 38.140625 42.390625 41.71875 45.5625 
Q 45.3125 48.734375 45.3125 54.390625 
Q 45.3125 60.0625 41.71875 63.234375 
Q 38.140625 66.40625 31.78125 66.40625 
Q 25.390625 66.40625 21.84375 63.234375 
Q 18.3125 60.0625 18.3125 54.390625 
z
" id="DejaVuSans-38"/>
      </defs>
      <g transform="translate(44.2375 116.449991)scale(0.1 -0.1)">
       <use xlink:href="#DejaVuSans-38"/>
      </g>
     </g>
    </g>
    <g id="ytick_6">
     <g id="line2d_15">
      <g>
       <use style="stroke:#000000;stroke-width:0.8;" x="57.6" xlink:href="#mac218e97fe" y="77.292356"/>
      </g>
     </g>
     <g id="text_16">
      <!-- 10 -->
      <g transform="translate(37.875 81.091575)scale(0.1 -0.1)">
       <use xlink:href="#DejaVuSans-31"/>
       <use x="63.623047" xlink:href="#DejaVuSans-30"/>
      </g>
     </g>
    </g>
    <g id="text_17">
     <!-- $y/l_{ee}$ -->
     <defs>
      <path d="M 24.8125 -5.078125 
Q 18.5625 -15.578125 14.625 -18.1875 
Q 10.6875 -20.796875 4.59375 -20.796875 
L -2.484375 -20.796875 
L -0.984375 -13.28125 
L 4.203125 -13.28125 
Q 7.953125 -13.28125 10.59375 -11.234375 
Q 13.234375 -9.1875 16.5 -3.21875 
L 19.28125 2 
L 7.171875 54.6875 
L 16.703125 54.6875 
L 25.78125 12.796875 
L 50.875 54.6875 
L 60.296875 54.6875 
z
" id="DejaVuSans-Oblique-79"/>
     </defs>
     <g transform="translate(31.775 185.028)rotate(-90)scale(0.1 -0.1)">
      <use transform="translate(0 0.015625)" xlink:href="#DejaVuSans-Oblique-79"/>
      <use transform="translate(59.179688 0.015625)" xlink:href="#DejaVuSans-2f"/>
      <use transform="translate(92.871094 0.015625)" xlink:href="#DejaVuSans-Oblique-6c"/>
      <use transform="translate(120.654297 -16.390625)scale(0.7)" xlink:href="#DejaVuSans-Oblique-65"/>
      <use transform="translate(163.720703 -16.390625)scale(0.7)" xlink:href="#DejaVuSans-Oblique-65"/>
     </g>
    </g>
   </g>
   <g id="LineCollection_1">
    <path clip-path="url(#p7a9cdb64f9)" d="M 414.72 254.08423 
L 57.6 254.08423 
L 57.6 254.08423 
" style="fill:none;stroke:#ff0000;stroke-width:1.5;"/>
   </g>
   <g id="LineCollection_2">
    <path clip-path="url(#p7a9cdb64f9)" d="M 414.72 226.994302 
L 377.57952 231.737698 
L 355.08096 234.38302 
L 337.526575 236.228436 
L 323.6544 237.4739 
L 312.22656 238.28766 
L 302.58432 238.758085 
L 294.37056 238.939299 
L 287.22816 238.871782 
L 281.15712 238.596183 
L 275.80032 238.139559 
L 270.80064 237.491668 
L 266.15808 236.665126 
L 261.51552 235.598664 
L 256.849722 234.283723 
L 251.443396 232.515802 
L 243.65952 229.965258 
L 240.80256 229.270388 
L 238.30272 228.892873 
L 236.16 228.785536 
L 234.01728 228.892873 
L 231.51744 229.270388 
L 228.66048 229.965258 
L 224.73216 231.196756 
L 213.66144 234.820951 
L 208.959759 236.051644 
L 204.73344 236.944085 
L 200.09088 237.701014 
L 195.0912 238.283561 
L 189.7344 238.682039 
L 183.66336 238.905319 
L 176.87808 238.929678 
L 169.02144 238.731699 
L 159.73632 238.265977 
L 148.6656 237.4739 
L 135.45216 236.292646 
L 119.38176 234.620543 
L 99.74016 232.345893 
L 74.02752 229.129114 
L 57.6 226.994302 
L 57.6 226.994302 
" style="fill:none;stroke:#ff4100;stroke-width:1.5;"/>
   </g>
   <g id="LineCollection_3">
    <path clip-path="url(#p7a9cdb64f9)" d="M 414.72 211.518146 
L 378.65088 218.319316 
L 357.93792 221.998359 
L 341.86752 224.632738 
L 329.0112 226.526501 
L 318.078392 227.919208 
L 309.01248 228.863226 
L 301.15584 229.47372 
L 294.01344 229.81104 
L 287.58528 229.88916 
L 281.87136 229.736364 
L 276.51456 229.363881 
L 271.51488 228.78226 
L 266.87232 228.013835 
L 262.22976 227.006731 
L 257.5872 225.754721 
L 252.752415 224.206574 
L 246.370506 221.908277 
L 241.685774 220.317149 
L 239.37408 219.738154 
L 237.23136 219.441682 
L 235.44576 219.420174 
L 233.656185 219.60998 
L 231.51744 220.070484 
L 228.66048 220.945629 
L 222.58944 223.138363 
L 216.87552 225.097016 
L 212.060305 226.504871 
L 207.653385 227.565624 
L 203.66208 228.336828 
L 199.01952 229.017941 
L 194.01984 229.515011 
L 188.66304 229.809244 
L 182.94912 229.891839 
L 176.52096 229.749178 
L 169.37856 229.354811 
L 161.52192 228.695514 
L 152.2368 227.682368 
L 141.5232 226.278001 
L 128.861487 224.383366 
L 113.856079 221.908277 
L 95.45472 218.645668 
L 70.0992 213.905408 
L 57.6 211.518146 
L 57.6 211.518146 
" style="fill:none;stroke:#ff8200;stroke-width:1.5;"/>
   </g>
   <g id="LineCollection_4">
    <path clip-path="url(#p7a9cdb64f9)" d="M 414.72 198.842281 
L 410.312669 199.986059 
L 409.836583 200.516436 
L 409.72032 200.739281 
L 409.00608 200.45702 
L 408.64896 200.147619 
L 408.29184 200.055862 
L 407.903585 200.162851 
L 407.614138 200.516436 
L 407.510085 200.87002 
L 407.22048 200.978354 
L 406.14912 200.859903 
L 405.792 200.754432 
L 404.889539 201.577188 
L 404.657736 201.577188 
L 404.36352 201.173344 
L 403.996813 201.223604 
L 403.64928 201.542907 
L 403.233652 201.400396 
L 402.93504 201.210161 
L 402.57792 201.305782 
L 402.410998 201.75398 
L 402.2208 201.940095 
L 401.50656 202.186328 
L 399.72096 202.324472 
L 397.837824 202.814733 
L 394.919172 203.521901 
L 392.055412 204.229069 
L 378.29376 207.414376 
L 352.58112 213.143813 
L 338.293149 216.074139 
L 326.51136 218.270896 
L 316.512 219.915439 
L 307.94112 221.108314 
L 300.4416 221.938628 
L 293.65632 222.47333 
L 287.58528 222.737537 
L 281.87136 222.764367 
L 276.51456 222.560665 
L 271.51488 222.141872 
L 266.87232 221.532753 
L 262.22976 220.693531 
L 257.584794 219.60998 
L 253.250644 218.372436 
L 248.6592 216.827389 
L 242.23104 214.372995 
L 239.37408 213.381533 
L 237.58848 212.972912 
L 236.16 212.860403 
L 234.73152 212.972912 
L 232.94592 213.381533 
L 230.265512 214.306218 
L 220.0896 218.049586 
L 215.44704 219.421863 
L 210.80448 220.543117 
L 206.16192 221.419053 
L 201.51936 222.06243 
L 196.51968 222.515009 
L 191.52 222.74244 
L 186.1632 222.765848 
L 180.44928 222.573872 
L 174.02112 222.131944 
L 166.87872 221.409755 
L 159.02208 220.389429 
L 150.09408 219.004459 
L 139.557545 217.134891 
L 127.59552 214.7854 
L 112.843351 211.654337 
L 94.38336 207.49548 
L 77.59872 203.578383 
L 74.74176 202.868879 
L 72.455641 202.284356 
L 71.8848 202.153805 
L 70.435904 202.107564 
L 69.909002 201.75398 
L 69.555843 201.223604 
L 69.325145 201.223604 
L 69.02784 201.443729 
L 68.67072 201.542907 
L 67.95648 201.173344 
L 67.430461 201.577188 
L 67.118155 201.400396 
L 66.88512 201.061034 
L 66.799776 201.046812 
L 66.528 200.754432 
L 65.45664 200.96635 
L 65.09952 200.978354 
L 64.809915 200.87002 
L 64.602368 200.339644 
L 64.38528 200.138954 
L 64.02816 200.055862 
L 63.640486 200.162851 
L 62.753094 200.693228 
L 62.555368 200.693228 
L 62.221854 200.162851 
L 61.625562 199.809267 
L 60.81408 199.578375 
L 57.6 198.842281 
L 57.6 198.842281 
" style="fill:none;stroke:#ffc300;stroke-width:1.5;"/>
    <path clip-path="url(#p7a9cdb64f9)" d="M 64.006111 201.223604 
L 64.02816 201.210816 
L 64.38528 201.164439 
L 64.477448 201.223604 
L 64.399355 201.400396 
L 64.38528 201.416612 
L 64.283277 201.400396 
L 64.02816 201.28473 
L 64.006111 201.223604 
" style="fill:none;stroke:#ffc300;stroke-width:1.5;"/>
    <path clip-path="url(#p7a9cdb64f9)" d="M 66.513953 201.223604 
L 66.528 201.196507 
L 66.545144 201.223604 
L 66.528 201.233251 
L 66.513953 201.223604 
" style="fill:none;stroke:#ffc300;stroke-width:1.5;"/>
    <path clip-path="url(#p7a9cdb64f9)" d="M 67.175291 200.87002 
L 67.24224 200.936087 
L 67.59936 200.962729 
L 67.685374 200.87002 
L 67.59936 200.702756 
L 67.24224 200.780118 
L 67.175291 200.87002 
" style="fill:none;stroke:#ffc300;stroke-width:1.5;"/>
    <path clip-path="url(#p7a9cdb64f9)" d="M 404.634626 200.87002 
L 404.72064 200.962729 
L 405.07776 200.936087 
L 405.144709 200.87002 
L 405.07776 200.780118 
L 404.72064 200.702756 
L 404.634626 200.87002 
" style="fill:none;stroke:#ffc300;stroke-width:1.5;"/>
    <path clip-path="url(#p7a9cdb64f9)" d="M 405.774856 201.223604 
L 405.792 201.196507 
L 405.806047 201.223604 
L 405.792 201.233251 
L 405.774856 201.223604 
" style="fill:none;stroke:#ffc300;stroke-width:1.5;"/>
    <path clip-path="url(#p7a9cdb64f9)" d="M 407.920645 201.400396 
L 407.842552 201.223604 
L 407.93472 201.164439 
L 408.29184 201.210816 
L 408.313889 201.223604 
L 408.29184 201.28473 
L 408.036723 201.400396 
L 407.93472 201.416612 
L 407.920645 201.400396 
" style="fill:none;stroke:#ffc300;stroke-width:1.5;"/>
   </g>
   <g id="LineCollection_5">
    <path clip-path="url(#p7a9cdb64f9)" d="M 414.72 187.374864 
L 386.86464 195.255173 
L 372.93696 199.03442 
L 371.632404 199.455683 
L 371.125299 199.632475 
L 368.65152 200.132486 
L 367.922783 200.516436 
L 367.58016 200.889739 
L 366.75945 200.87002 
L 366.5088 200.465341 
L 366.15168 200.362671 
L 365.731446 200.693228 
L 365.493855 201.046812 
L 364.543495 201.223604 
L 364.36608 201.431148 
L 363.638177 201.400396 
L 362.9376 201.889227 
L 362.58048 201.906106 
L 362.22336 201.803111 
L 360.731698 202.284356 
L 358.898266 202.814733 
L 349.72416 205.119271 
L 341.5104 207.137888 
L 329.72544 209.88074 
L 319.672885 212.007921 
L 310.79808 213.669534 
L 302.94144 214.921133 
L 295.79904 215.834198 
L 289.37088 216.432456 
L 283.65696 216.75262 
L 278.30016 216.842868 
L 273.30048 216.719265 
L 268.3008 216.372398 
L 263.65824 215.831429 
L 259.01568 215.062427 
L 254.712586 214.129426 
L 250.4448 212.975783 
L 246.426306 211.654337 
L 242.803294 210.24 
L 237.1182 207.941703 
L 236.16 207.831774 
L 235.08864 207.964419 
L 233.585474 208.472079 
L 223.835221 212.361505 
L 220.0896 213.487798 
L 215.80416 214.547469 
L 211.51872 215.386239 
L 206.803545 216.074139 
L 202.2336 216.523312 
L 197.23392 216.787818 
L 191.87712 216.832967 
L 186.52032 216.657995 
L 180.44928 216.227654 
L 174.02112 215.541843 
L 166.87872 214.548391 
L 159.02208 213.225739 
L 150.032924 211.477545 
L 140.09472 209.319238 
L 128.66688 206.618921 
L 115.81056 203.399924 
L 110.81088 202.032006 
L 110.09664 201.803111 
L 109.73952 201.906106 
L 109.3824 201.889227 
L 108.641986 201.400396 
L 107.919195 201.400396 
L 107.5968 201.116101 
L 106.826145 201.046812 
L 106.588554 200.693228 
L 106.44071 200.516436 
L 106.16832 200.362671 
L 105.751491 200.516436 
L 105.45408 200.926959 
L 104.698142 200.87002 
L 104.38272 200.503349 
L 103.66848 200.132486 
L 102.24 199.734413 
L 101.16864 199.62809 
L 98.6688 198.895254 
L 96.52608 198.309885 
L 57.6 187.374864 
L 57.6 187.374864 
" style="fill:none;stroke:#f8fd00;stroke-width:1.5;"/>
    <path clip-path="url(#p7a9cdb64f9)" d="M 105.958911 201.400396 
L 105.877097 201.223604 
L 106.16832 201.087611 
L 106.52544 201.110344 
L 106.600401 201.223604 
L 106.52544 201.391752 
L 106.518296 201.400396 
L 106.16832 201.562975 
L 105.958911 201.400396 
" style="fill:none;stroke:#f8fd00;stroke-width:1.5;"/>
    <path clip-path="url(#p7a9cdb64f9)" d="M 365.719599 201.223604 
L 365.79456 201.110344 
L 366.15168 201.087611 
L 366.442903 201.223604 
L 366.361089 201.400396 
L 366.15168 201.562975 
L 365.801704 201.400396 
L 365.79456 201.391752 
L 365.719599 201.223604 
" style="fill:none;stroke:#f8fd00;stroke-width:1.5;"/>
   </g>
   <g id="LineCollection_6">
    <path clip-path="url(#p7a9cdb64f9)" d="M 414.72 176.457682 
L 389.345548 184.781941 
L 368.65152 191.353439 
L 351.898061 196.450218 
L 339.01056 200.117364 
L 338.29632 200.137201 
L 337.888335 200.339644 
L 337.22496 200.860784 
L 336.1536 200.757489 
L 336.070005 200.693228 
L 335.728791 200.693228 
L 335.650231 201.046812 
L 335.79648 201.066545 
L 336.01042 201.223604 
L 335.765389 201.400396 
L 335.43936 201.073911 
L 335.077213 201.400396 
L 334.72512 201.164897 
L 334.240168 201.223604 
L 334.01088 201.58099 
L 333.65376 201.717509 
L 332.938506 201.577188 
L 332.5824 201.832094 
L 318.220915 205.466614 
L 310.79808 207.134025 
L 302.2272 208.826374 
L 295.0848 210.000452 
L 288.65664 210.839057 
L 282.5856 211.406314 
L 276.87168 211.71026 
L 271.51488 211.768338 
L 266.5152 211.602842 
L 261.51552 211.206394 
L 256.748506 210.593584 
L 252.58752 209.850366 
L 248.6592 208.943768 
L 245.088 207.900695 
L 242.23104 206.858838 
L 239.7312 205.723991 
L 237.404503 204.405861 
L 236.51712 203.947846 
L 236.16 203.887175 
L 235.44576 204.100655 
L 231.277485 206.350574 
L 229.0176 207.275972 
L 225.80352 208.347381 
L 221.988752 209.35604 
L 218.304 210.129042 
L 214.01856 210.820218 
L 209.376 211.344186 
L 204.37632 211.672983 
L 199.37664 211.775582 
L 193.963725 211.654337 
L 188.30592 211.293987 
L 182.23488 210.673048 
L 175.80672 209.783915 
L 168.66432 208.564439 
L 160.80768 206.982911 
L 153.30816 205.276964 
L 142.59456 202.600489 
L 139.02336 201.63045 
L 138.66624 201.717509 
L 138.304779 201.577188 
L 137.952 201.14923 
L 137.484019 201.223604 
L 137.234139 201.400396 
L 136.88064 201.073911 
L 136.486369 201.400396 
L 136.30958 201.223604 
L 136.694378 200.87002 
L 136.52352 200.630072 
L 136.1664 200.757489 
L 136.064188 200.87002 
L 135.80928 200.940015 
L 134.712701 200.693228 
L 134.3808 200.301678 
L 133.66656 200.08487 
L 132.95232 200.109345 
L 113.31072 194.3118 
L 97.921847 189.555327 
L 77.2416 182.922413 
L 57.6 176.457682 
L 57.6 176.457682 
" style="fill:none;stroke:#b9ff00;stroke-width:1.5;"/>
   </g>
   <g id="LineCollection_7">
    <path clip-path="url(#p7a9cdb64f9)" d="M 414.72 165.891318 
L 388.588436 175.588752 
L 368.2944 182.890914 
L 352.088195 188.494574 
L 338.629133 192.914376 
L 327.129478 196.450218 
L 315.44064 199.747161 
L 314.01216 200.043676 
L 312.770784 200.516436 
L 312.58368 200.705986 
L 311.492372 200.87002 
L 311.447875 200.693228 
L 311.1552 200.485995 
L 310.714727 200.693228 
L 310.640289 200.87002 
L 310.376982 201.046812 
L 309.514305 201.223604 
L 309.3696 201.349641 
L 309.005377 201.223604 
L 308.901753 201.400396 
L 308.65536 201.517424 
L 308.285293 201.223604 
L 308.236142 201.400396 
L 308.175861 201.577188 
L 307.94112 201.766959 
L 307.584 201.840677 
L 307.22688 201.769682 
L 303.65568 202.660209 
L 297.22752 204.007114 
L 290.08512 205.327861 
L 283.29984 206.311895 
L 277.58592 206.922925 
L 271.872 207.310077 
L 266.87232 207.444811 
L 261.51552 207.361605 
L 256.51584 207.05581 
L 251.725395 206.527366 
L 247.58784 205.862863 
L 244.01664 205.070129 
L 241.15968 204.22129 
L 238.978196 203.345109 
L 237.58848 202.594459 
L 236.749272 201.930772 
L 236.323253 201.400396 
L 236.16 201.185968 
L 236.039951 201.223604 
L 235.904019 201.577188 
L 235.08864 202.346304 
L 233.706161 203.168317 
L 232.541926 203.698693 
L 230.44608 204.456845 
L 227.415406 205.289822 
L 224.37504 205.929665 
L 220.0896 206.594603 
L 215.44704 207.085915 
L 210.80448 207.361605 
L 205.44768 207.444811 
L 200.448 207.310077 
L 194.73408 206.922925 
L 189.02016 206.311895 
L 182.23488 205.327861 
L 176.52096 204.291713 
L 167.23584 202.341267 
L 166.16448 202.008028 
L 164.144139 201.577188 
L 164.02176 201.214969 
L 164.003464 201.223604 
L 163.887879 201.400396 
L 163.66464 201.517424 
L 163.418247 201.400396 
L 163.293006 201.223604 
L 162.9504 201.349641 
L 162.59328 201.103126 
L 161.87904 201.03998 
L 161.1648 200.485995 
L 160.872125 200.693228 
L 160.80768 200.891302 
L 160.375446 200.87002 
L 157.95072 199.944094 
L 153.30816 198.811582 
L 138.30912 194.365556 
L 125.80992 190.35666 
L 111.88224 185.638869 
L 94.944218 179.65497 
L 73.642074 171.876119 
L 57.6 165.891318 
L 57.6 165.891318 
" style="fill:none;stroke:#78ff00;stroke-width:1.5;"/>
    <path clip-path="url(#p7a9cdb64f9)" d="M 161.055483 201.223604 
L 161.1648 201.121266 
L 161.52192 201.135436 
L 161.591869 201.223604 
L 161.52192 201.331706 
L 161.1648 201.395879 
L 161.055483 201.223604 
" style="fill:none;stroke:#78ff00;stroke-width:1.5;"/>
    <path clip-path="url(#p7a9cdb64f9)" d="M 310.728131 201.223604 
L 310.79808 201.135436 
L 311.1552 201.121266 
L 311.264517 201.223604 
L 311.1552 201.395879 
L 310.79808 201.331706 
L 310.728131 201.223604 
" style="fill:none;stroke:#78ff00;stroke-width:1.5;"/>
   </g>
   <g id="LineCollection_8">
    <path clip-path="url(#p7a9cdb64f9)" d="M 414.72 155.500672 
L 389.00736 166.129948 
L 369.36576 174.02853 
L 352.93824 180.405354 
L 339.36768 185.440111 
L 328.15175 189.378535 
L 317.923075 192.737584 
L 308.560986 195.566257 
L 301.15584 197.582468 
L 294.72768 199.16777 
L 288.330859 200.693228 
L 288.231122 200.693228 
L 287.58528 200.626131 
L 286.87104 200.92259 
L 286.51392 200.985092 
L 286.096971 200.693228 
L 285.831211 200.87002 
L 285.804503 201.046812 
L 286.1568 201.084958 
L 286.270402 201.223604 
L 286.1568 201.355855 
L 285.844101 201.223604 
L 285.79968 201.051379 
L 284.549324 201.223604 
L 284.3712 201.255335 
L 284.01408 201.544171 
L 283.642107 201.577188 
L 282.918541 201.223604 
L 282.914789 201.400396 
L 282.5856 201.670636 
L 281.87136 201.71819 
L 279.946542 202.107564 
L 279.37152 202.172131 
L 278.30016 202.244606 
L 276.87168 202.512066 
L 271.872 203.083998 
L 268.3008 203.421948 
L 263.65824 203.702722 
L 257.5872 203.855747 
L 252.58752 203.737232 
L 247.23072 203.405622 
L 242.94528 202.878055 
L 239.7312 202.283424 
L 237.58848 201.717237 
L 236.16 201.120569 
L 235.063915 201.577188 
L 233.983981 201.930772 
L 231.16032 202.596284 
L 226.87488 203.21529 
L 222.23232 203.617662 
L 217.58976 203.812142 
L 211.87584 203.8217 
L 205.8048 203.548513 
L 201.51936 203.215165 
L 194.01984 202.244606 
L 192.94848 202.172131 
L 192.23424 202.078937 
L 190.09152 201.638741 
L 189.536733 201.577188 
L 189.284629 201.223604 
L 188.61399 201.577188 
L 188.30592 201.544171 
L 187.770676 201.223604 
L 186.52032 201.051379 
L 186.475899 201.223604 
L 186.1632 201.355855 
L 186.049598 201.223604 
L 186.1632 201.084958 
L 186.515497 201.046812 
L 186.488789 200.87002 
L 186.10892 200.693228 
L 185.80608 200.985092 
L 185.09184 200.783083 
L 184.73472 200.626131 
L 184.088878 200.693228 
L 183.989141 200.693228 
L 183.66336 200.468306 
L 174.02112 198.323817 
L 166.16448 196.243776 
L 158.66496 194.055309 
L 149.457322 191.146455 
L 139.02336 187.601133 
L 127.2384 183.351323 
L 113.66784 178.217006 
L 97.097125 171.699327 
L 76.52736 163.351123 
L 57.6 155.500672 
L 57.6 155.500672 
" style="fill:none;stroke:#37ff00;stroke-width:1.5;"/>
   </g>
   <g id="LineCollection_9">
    <path clip-path="url(#p7a9cdb64f9)" d="M 414.72 145.151997 
L 389.805433 156.495208 
L 368.689247 165.865188 
L 351.782733 173.113663 
L 338.29632 178.656873 
L 326.691171 183.190812 
L 316.512 186.930689 
L 307.584 189.981123 
L 299.353329 192.560792 
L 292.22784 194.578336 
L 284.788748 196.450218 
L 277.94304 197.916793 
L 271.872 199.011365 
L 261.51552 200.406907 
L 260.44416 200.385416 
L 258.907725 200.693228 
L 258.30144 200.630575 
L 257.5872 200.642054 
L 257.23008 200.574699 
L 256.51584 200.81589 
L 256.15872 200.760654 
L 255.8016 200.945047 
L 255.345741 200.87002 
L 255.08736 200.964951 
L 254.558479 200.87002 
L 254.37312 200.740146 
L 253.815085 200.87002 
L 253.620867 200.87002 
L 253.30176 200.998277 
L 251.15904 201.07085 
L 250.43585 201.223604 
L 250.08768 201.095203 
L 249.37344 201.112604 
L 248.156772 201.223604 
L 247.94496 201.301135 
L 245.44512 201.203174 
L 244.37376 201.281168 
L 244.01664 201.333268 
L 243.65952 201.163693 
L 240.966949 201.223604 
L 240.44544 201.175128 
L 237.58848 201.139237 
L 236.16 201.05517 
L 230.08896 201.213441 
L 228.504373 201.223604 
L 228.30336 201.333268 
L 226.51776 201.17637 
L 224.876356 201.223604 
L 224.37504 201.301135 
L 224.01792 201.157241 
L 223.6608 201.207483 
L 222.94656 201.112604 
L 221.51808 201.146006 
L 220.630384 201.046812 
L 218.245853 200.87002 
L 217.94688 200.740146 
L 217.58976 200.957669 
L 216.974259 200.87002 
L 216.758477 200.87002 
L 216.5184 200.945047 
L 216.16128 200.760654 
L 215.80416 200.81589 
L 215.08992 200.574699 
L 214.37568 200.684755 
L 213.66144 200.635571 
L 213.214918 200.693228 
L 212.23296 200.459063 
L 211.514356 200.339644 
L 210.036257 200.339644 
L 207.23328 200.011213 
L 206.013487 199.809267 
L 204.73344 199.618182 
L 202.59072 199.320674 
L 190.09152 197.021494 
L 183.8849 195.566257 
L 176.52096 193.595794 
L 168.923543 191.323248 
L 160.80768 188.668335 
L 151.52256 185.386968 
L 141.480781 181.599683 
L 129.73824 176.923476 
L 116.351168 171.345743 
L 99.99694 164.274059 
L 80.160348 155.434455 
L 57.6 145.151997 
L 57.6 145.151997 
" style="fill:none;stroke:#00ff10;stroke-width:1.5;"/>
   </g>
   <g id="LineCollection_10">
    <path clip-path="url(#p7a9cdb64f9)" d="M 414.72 134.735046 
L 389.7216 147.156754 
L 369.36576 157.042095 
L 352.897324 164.804436 
L 338.883273 171.16895 
L 326.86848 176.381776 
L 316.512 180.637466 
L 307.584 184.084083 
L 299.01312 187.158117 
L 291.15648 189.738197 
L 284.01408 191.859133 
L 276.87168 193.742883 
L 270.44352 195.218696 
L 263.283546 196.62701 
L 256.15872 197.778667 
L 248.6592 198.801925 
L 242.94528 199.580645 
L 238.30272 200.38497 
L 236.87424 200.77853 
L 236.16 200.989772 
L 232.5888 200.097804 
L 229.714794 199.632475 
L 222.94656 198.712808 
L 212.9472 197.281029 
L 206.16192 196.091938 
L 199.01952 194.59047 
L 192.59136 193.017665 
L 185.44896 191.038425 
L 178.30656 188.828525 
L 170.44992 186.161473 
L 161.87904 183.006242 
L 152.489502 179.301386 
L 141.930298 174.881584 
L 129.876855 169.577822 
L 115.81056 163.12461 
L 99.97215 155.611248 
L 80.020275 145.887683 
L 57.6 134.735046 
L 57.6 134.735046 
" style="fill:none;stroke:#00ff51;stroke-width:1.5;"/>
   </g>
   <g id="LineCollection_11">
    <path clip-path="url(#p7a9cdb64f9)" d="M 414.72 124.152052 
L 387.809802 138.639208 
L 366.98183 149.600317 
L 350.030216 158.263129 
L 336.1536 165.103797 
L 324.72576 170.506101 
L 314.36928 175.168024 
L 305.08416 179.112827 
L 296.8704 182.380788 
L 288.92655 185.312317 
L 281.51424 187.820512 
L 274.01472 190.11882 
L 266.5152 192.172322 
L 259.01568 194.003193 
L 241.87392 198.070793 
L 239.37408 198.9421 
L 237.548023 199.809267 
L 236.51712 200.56822 
L 236.16 200.924373 
L 235.98664 200.87002 
L 235.72233 200.516436 
L 234.771977 199.809267 
L 234.01728 199.409942 
L 231.87456 198.535675 
L 229.0176 197.656001 
L 224.73216 196.578108 
L 203.253519 191.50004 
L 195.800177 189.378535 
L 188.30592 187.000359 
L 180.8064 184.384063 
L 172.94976 181.410276 
L 164.287392 177.88705 
L 154.73664 173.748302 
L 144.38016 169.011437 
L 132.5952 163.369528 
L 119.02464 156.617414 
L 103.297261 148.539564 
L 84.02688 138.381672 
L 60.81408 125.895831 
L 57.6 124.152052 
L 57.6 124.152052 
" style="fill:none;stroke:#00ff92;stroke-width:1.5;"/>
   </g>
   <g id="LineCollection_12">
    <path clip-path="url(#p7a9cdb64f9)" d="M 414.72 113.310556 
L 388.65024 128.453382 
L 368.284602 140.053545 
L 351.410396 149.423525 
L 336.947846 157.202376 
L 324.36864 163.709109 
L 313.92926 168.870653 
L 304.13699 173.467248 
L 295.0848 177.464209 
L 286.87104 180.849954 
L 279.37152 183.721328 
L 271.355092 186.549861 
L 262.944 189.267528 
L 242.94528 195.570494 
L 240.08832 196.810597 
L 238.168529 197.864554 
L 236.16 199.077344 
L 235.46088 198.748515 
L 234.3744 198.005417 
L 232.571952 196.980594 
L 230.08896 195.855722 
L 226.441493 194.505505 
L 221.45551 192.914376 
L 200.80512 186.495774 
L 192.948099 183.721188 
L 185.09184 180.707887 
L 176.87808 177.311599 
L 168.18301 173.467248 
L 158.66496 169.002776 
L 148.30848 163.889575 
L 136.714495 157.909545 
L 123.177855 150.661069 
L 107.499748 141.998257 
L 88.476658 131.213941 
L 64.02816 117.066496 
L 57.6 113.310556 
L 57.6 113.310556 
" style="fill:none;stroke:#00ffd3;stroke-width:1.5;"/>
   </g>
   <g id="LineCollection_13">
    <path clip-path="url(#p7a9cdb64f9)" d="M 414.72 102.118242 
L 387.57888 119.045307 
L 366.835263 131.744317 
L 349.676093 141.998257 
L 335.350323 150.307485 
L 322.94016 157.253877 
L 312.172247 163.036515 
L 302.154955 168.163485 
L 292.94208 172.623886 
L 284.3712 176.524907 
L 276.15744 180.022308 
L 267.58656 183.424051 
L 257.5872 187.141829 
L 245.952497 191.50004 
L 241.82874 193.26796 
L 236.979815 195.389465 
L 236.16 195.496629 
L 235.08864 195.324653 
L 233.500669 194.682297 
L 226.16064 191.416229 
L 219.73248 188.966172 
L 201.16224 182.035726 
L 192.94848 178.682199 
L 184.73472 175.091556 
L 176.52096 171.268972 
L 167.59296 166.872853 
L 157.95072 161.877747 
L 147.359003 156.141624 
L 135.09504 149.236066 
L 121.444594 141.291089 
L 105.09696 131.50955 
L 86.123167 119.899248 
L 61.142532 104.341545 
L 57.6 102.118242 
L 57.6 102.118242 
" style="fill:none;stroke:#00eaff;stroke-width:1.5;"/>
   </g>
   <g id="LineCollection_14">
    <path clip-path="url(#p7a9cdb64f9)" d="M 414.72 90.478632 
L 387.065214 108.938139 
L 364.95823 123.435089 
L 347.569115 134.57299 
L 333.29664 143.460097 
L 321.050878 150.837861 
L 310.073129 157.202376 
L 300.08448 162.742229 
L 291.156423 167.456317 
L 282.22848 171.919332 
L 273.6576 175.955633 
L 264.513109 180.008554 
L 250.4448 185.934288 
L 239.01696 190.660695 
L 237.23136 191.085447 
L 235.80288 191.155102 
L 234.3744 190.953089 
L 232.5888 190.42064 
L 229.539794 189.201743 
L 200.580674 176.826297 
L 191.834737 172.760079 
L 183.239173 168.517069 
L 174.37824 163.895247 
L 165.068467 158.793505 
L 154.576274 152.782574 
L 142.95168 145.854852 
L 130.095176 137.93204 
L 115.035245 128.385267 
L 96.8832 116.601574 
L 75.673095 102.573624 
L 57.6 90.478632 
L 57.6 90.478632 
" style="fill:none;stroke:#00aaff;stroke-width:1.5;"/>
   </g>
   <g id="LineCollection_15">
    <path clip-path="url(#p7a9cdb64f9)" d="M 414.72 78.287126 
L 386.335551 98.507406 
L 363.879239 114.241901 
L 346.15296 126.389467 
L 332.03772 135.810535 
L 319.193698 144.119762 
L 307.848252 151.191446 
L 297.58464 157.322393 
L 288.492795 162.506139 
L 279.688429 167.279525 
L 270.80064 171.840793 
L 261.988385 176.119129 
L 251.618017 180.892515 
L 244.655402 183.89798 
L 241.15968 185.189266 
L 239.01696 185.773375 
L 237.23136 186.048824 
L 235.44576 186.075007 
L 233.642197 185.842693 
L 231.51744 185.301515 
L 228.66048 184.293004 
L 224.01792 182.358491 
L 215.255707 178.417426 
L 205.176089 173.64404 
L 196.016956 169.047446 
L 187.23456 164.383149 
L 178.30656 159.387928 
L 169.02144 153.943188 
L 159.02208 147.829787 
L 147.606196 140.583921 
L 134.3808 131.903948 
L 119.73888 122.019376 
L 102.339831 109.998891 
L 79.74144 94.084858 
L 57.6 78.287126 
L 57.6 78.287126 
" style="fill:none;stroke:#0069ff;stroke-width:1.5;"/>
   </g>
   <g id="LineCollection_16">
    <path clip-path="url(#p7a9cdb64f9)" d="M 399.122406 77.292356 
L 372.116405 97.623446 
L 352.490398 112.120396 
L 336.51072 123.651691 
L 323.2193 132.981861 
L 311.253266 141.114297 
L 300.4416 148.188897 
L 290.79936 154.235319 
L 281.87136 159.579667 
L 273.30048 164.456846 
L 265.08672 168.882642 
L 257.097368 172.936871 
L 250.4448 176.071698 
L 245.708654 178.063842 
L 242.58816 179.158521 
L 240.016353 179.831762 
L 237.9456 180.159016 
L 235.80288 180.248197 
L 233.66016 180.071328 
L 231.51744 179.654165 
L 229.0176 178.93025 
L 225.713655 177.710257 
L 221.51808 175.911242 
L 215.44704 173.046765 
L 207.88738 169.224238 
L 199.648387 164.804436 
L 191.16288 159.995865 
L 182.324963 154.727287 
L 172.94976 148.87372 
L 162.927394 142.351842 
L 151.87968 134.895476 
L 139.491779 126.263762 
L 124.73856 115.693459 
L 108.66816 103.912686 
L 88.875922 89.137426 
L 73.197594 77.292356 
L 73.197594 77.292356 
" style="fill:none;stroke:#0028ff;stroke-width:1.5;"/>
   </g>
   <g id="LineCollection_17">
    <path clip-path="url(#p7a9cdb64f9)" d="M 383.03771 77.292356 
L 359.859954 95.678733 
L 342.115117 109.468515 
L 327.42184 120.606416 
L 314.7264 129.950516 
L 304.010226 137.578455 
L 293.949332 144.473347 
L 284.72832 150.522734 
L 276.30316 155.78804 
L 268.541306 160.384634 
L 261.51552 164.298211 
L 255.407951 167.456317 
L 250.4448 169.781191 
L 246.51648 171.381123 
L 243.3024 172.447104 
L 240.543371 173.113663 
L 238.30272 173.440927 
L 236.16 173.546498 
L 234.01728 173.440927 
L 231.776629 173.113663 
L 229.37472 172.547918 
L 226.51776 171.640237 
L 222.94656 170.243137 
L 218.66112 168.305756 
L 213.30432 165.622701 
L 206.87616 162.141946 
L 199.544527 157.909545 
L 191.52 153.011046 
L 183.168132 147.655604 
L 173.934049 141.467881 
L 163.79335 134.396198 
L 152.535737 126.263762 
L 139.955336 116.893782 
L 125.386663 105.755881 
L 108.191964 92.319683 
L 89.28229 77.292356 
L 89.28229 77.292356 
" style="fill:none;stroke:#1f00ff;stroke-width:1.5;"/>
   </g>
   <g id="LineCollection_18">
    <path clip-path="url(#p7a9cdb64f9)" d="M 367.589653 77.292356 
L 347.58144 93.95757 
L 332.22528 106.467805 
L 319.01184 116.956156 
L 307.584 125.754491 
L 297.385077 133.335446 
L 288.223818 139.876752 
L 279.930383 145.534099 
L 272.562549 150.307485 
L 265.80096 154.43311 
L 259.988726 157.732752 
L 255.08736 160.280351 
L 250.80192 162.265763 
L 247.061128 163.743683 
L 244.01664 164.712825 
L 241.15968 165.379715 
L 238.65984 165.735912 
L 236.16 165.857332 
L 233.66016 165.735912 
L 231.16032 165.379715 
L 228.639808 164.804436 
L 225.762894 163.920475 
L 222.507429 162.682931 
L 218.66112 160.971147 
L 213.978837 158.616713 
L 208.542948 155.611248 
L 202.59072 152.06916 
L 195.44832 147.547266 
L 187.675282 142.351842 
L 179.342859 136.517703 
L 169.892198 129.622812 
L 159.3792 121.666149 
L 147.59424 112.457333 
L 134.18611 101.689663 
L 118.268978 88.60705 
L 104.730347 77.292356 
L 104.730347 77.292356 
" style="fill:none;stroke:#6000ff;stroke-width:1.5;"/>
   </g>
   <g id="LineCollection_19">
    <path clip-path="url(#p7a9cdb64f9)" d="M 352.518463 77.292356 
L 336.076774 91.612515 
L 322.22592 103.387686 
L 310.587023 113.004356 
L 300.191839 121.313584 
L 290.996827 128.385267 
L 282.826915 134.396198 
L 275.491705 139.523168 
L 269.32384 143.589386 
L 263.576548 147.125228 
L 258.564956 149.953901 
L 254.37312 152.08506 
L 250.416948 153.843327 
L 247.094931 155.080871 
L 244.116451 155.964832 
L 241.5168 156.533427 
L 239.01696 156.880539 
L 236.51712 157.018568 
L 234.01728 156.941694 
L 231.51744 156.653293 
L 228.66048 156.079496 
L 225.762928 155.257663 
L 222.58944 154.118676 
L 219.01824 152.588066 
L 215.08992 150.658741 
L 210.44736 148.116949 
L 205.09056 144.909414 
L 199.01952 140.996118 
L 192.228187 136.340911 
L 184.64081 130.860356 
L 176.16384 124.453168 
L 166.773442 117.070574 
L 156.125541 108.407762 
L 144.02304 98.26507 
L 130.09536 86.295092 
L 119.801537 77.292356 
L 119.801537 77.292356 
" style="fill:none;stroke:#a100ff;stroke-width:1.5;"/>
   </g>
   <g id="LineCollection_20">
    <path clip-path="url(#p7a9cdb64f9)" d="M 337.534221 77.292356 
L 323.646673 89.844594 
L 311.779719 100.275327 
L 301.51296 109.007961 
L 292.528892 116.363406 
L 284.630098 122.551129 
L 277.58592 127.793266 
L 271.444812 132.097901 
L 266.035858 135.633743 
L 261.1584 138.56632 
L 256.787396 140.937505 
L 252.94464 142.775974 
L 249.37344 144.234425 
L 246.15936 145.304462 
L 243.16407 146.064475 
L 240.44544 146.536301 
L 237.58848 146.79143 
L 235.08864 146.80546 
L 232.342068 146.594851 
L 229.73184 146.182716 
L 226.87488 145.507575 
L 223.6608 144.493363 
L 220.434909 143.235802 
L 216.87552 141.608807 
L 212.866806 139.523168 
L 208.580468 137.048079 
L 203.528604 133.865822 
L 197.94816 130.080776 
L 191.52 125.437695 
L 184.3776 119.992266 
L 176.291986 113.534733 
L 167.358291 106.109465 
L 157.23648 97.403797 
L 145.51173 87.015921 
L 134.785779 77.292356 
L 134.785779 77.292356 
" style="fill:none;stroke:#e200ff;stroke-width:1.5;"/>
   </g>
   <g id="LineCollection_21">
    <path clip-path="url(#p7a9cdb64f9)" d="M 322.257096 77.292356 
L 310.993493 87.723089 
L 301.32255 96.385901 
L 292.91286 103.634376 
L 285.404407 109.822099 
L 278.617567 115.125861 
L 272.58624 119.551824 
L 267.22944 123.201745 
L 262.58688 126.103292 
L 258.22334 128.562059 
L 254.37312 130.475106 
L 250.80192 131.997542 
L 247.499301 133.158653 
L 244.37376 134.01422 
L 241.498225 134.57299 
L 238.65984 134.897125 
L 235.80288 134.986948 
L 232.94592 134.837372 
L 230.08896 134.45221 
L 227.232 133.840871 
L 224.267549 132.981861 
L 221.16096 131.857223 
L 217.58976 130.308937 
L 213.764821 128.385267 
L 210.003908 126.263762 
L 205.722346 123.611881 
L 200.730828 120.252832 
L 195.348827 116.363406 
L 189.359237 111.766812 
L 182.367411 106.109465 
L 174.73536 99.644499 
L 166.020162 91.966099 
L 156.128751 82.949703 
L 150.062904 77.292356 
L 150.062904 77.292356 
" style="fill:none;stroke:#ff00db;stroke-width:1.5;"/>
   </g>
   <g id="LineCollection_22">
    <path clip-path="url(#p7a9cdb64f9)" d="M 306.077633 77.292356 
L 297.461464 85.248 
L 289.86753 91.966099 
L 283.29984 97.498524 
L 277.140837 102.396832 
L 271.872 106.316322 
L 266.87232 109.756458 
L 262.544189 112.47398 
L 258.471662 114.772277 
L 254.923117 116.540198 
L 251.51616 118.005506 
L 248.188625 119.192079 
L 245.088 120.061577 
L 242.23104 120.645977 
L 239.37408 121.012477 
L 236.51712 121.154458 
L 233.66016 121.06919 
L 230.8032 120.758365 
L 227.94624 120.227607 
L 225.08928 119.486138 
L 221.8752 118.415079 
L 218.567428 117.070574 
L 215.08992 115.417536 
L 211.1616 113.286257 
L 206.87616 110.682207 
L 202.155016 107.523802 
L 197.23392 103.958003 
L 191.52 99.523904 
L 185.139826 94.264396 
L 178.412212 88.430257 
L 170.79498 81.535366 
L 166.242367 77.292356 
L 166.242367 77.292356 
" style="fill:none;stroke:#ff009a;stroke-width:1.5;"/>
   </g>
   <g id="LineCollection_23">
    <path clip-path="url(#p7a9cdb64f9)" d="M 287.700369 77.292356 
L 281.712063 82.419327 
L 276.224123 86.839129 
L 271.51488 90.37963 
L 266.87232 93.602637 
L 262.58688 96.305574 
L 258.65856 98.521072 
L 255.08736 100.290598 
L 251.51616 101.802323 
L 248.288162 102.927208 
L 245.037112 103.811168 
L 242.23104 104.36274 
L 239.37408 104.714866 
L 236.51712 104.851019 
L 233.66016 104.769257 
L 230.8032 104.470786 
L 227.94624 103.95974 
L 224.73216 103.139319 
L 221.441959 102.043248 
L 218.304 100.772276 
L 214.655262 99.037782 
L 211.076872 97.093069 
L 207.23328 94.762802 
L 202.785925 91.789307 
L 198.171117 88.430257 
L 193.197092 84.540832 
L 187.59168 79.873311 
L 184.619631 77.292356 
L 184.619631 77.292356 
" style="fill:none;stroke:#ff0059;stroke-width:1.5;"/>
   </g>
   <g id="LineCollection_24">
    <path clip-path="url(#p7a9cdb64f9)" d="M 262.188254 77.292356 
L 258.30144 79.442798 
L 254.689432 81.181782 
L 251.221903 82.596119 
L 248.30208 83.580182 
L 245.088 84.432139 
L 242.23104 84.97775 
L 239.37408 85.318127 
L 236.51712 85.449601 
L 233.66016 85.370678 
L 230.725024 85.071208 
L 227.727154 84.540832 
L 224.73216 83.790822 
L 221.51808 82.749781 
L 218.304 81.47674 
L 214.7328 79.807214 
L 211.046164 77.822733 
L 210.131746 77.292356 
L 210.131746 77.292356 
" style="fill:none;stroke:#ff0018;stroke-width:1.5;"/>
   </g>
   <g id="patch_4">
    <path d="M 57.6 271.763644 
L 57.6 77.292356 
" style="fill:none;stroke:#000000;stroke-linecap:square;stroke-linejoin:miter;stroke-width:0.8;"/>
   </g>
   <g id="patch_5">
    <path d="M 414.72 271.763644 
L 414.72 77.292356 
" style="fill:none;stroke:#000000;stroke-linecap:square;stroke-linejoin:miter;stroke-width:0.8;"/>
   </g>
   <g id="patch_6">
    <path d="M 57.6 271.763644 
L 414.72 271.763644 
" style="fill:none;stroke:#000000;stroke-linecap:square;stroke-linejoin:miter;stroke-width:0.8;"/>
   </g>
   <g id="patch_7">
    <path d="M 57.6 77.292356 
L 414.72 77.292356 
" style="fill:none;stroke:#000000;stroke-linecap:square;stroke-linejoin:miter;stroke-width:0.8;"/>
   </g>
   <g id="text_18">
    <!-- Stream function $\psi(x,y)$, $h = 3 l_{ee}$ -->
    <defs>
     <path d="M 53.515625 70.515625 
L 53.515625 60.890625 
Q 47.90625 63.578125 42.921875 64.890625 
Q 37.9375 66.21875 33.296875 66.21875 
Q 25.25 66.21875 20.875 63.09375 
Q 16.5 59.96875 16.5 54.203125 
Q 16.5 49.359375 19.40625 46.890625 
Q 22.3125 44.4375 30.421875 42.921875 
L 36.375 41.703125 
Q 47.40625 39.59375 52.65625 34.296875 
Q 57.90625 29 57.90625 20.125 
Q 57.90625 9.515625 50.796875 4.046875 
Q 43.703125 -1.421875 29.984375 -1.421875 
Q 24.8125 -1.421875 18.96875 -0.25 
Q 13.140625 0.921875 6.890625 3.21875 
L 6.890625 13.375 
Q 12.890625 10.015625 18.65625 8.296875 
Q 24.421875 6.59375 29.984375 6.59375 
Q 38.421875 6.59375 43.015625 9.90625 
Q 47.609375 13.234375 47.609375 19.390625 
Q 47.609375 24.75 44.3125 27.78125 
Q 41.015625 30.8125 33.5 32.328125 
L 27.484375 33.5 
Q 16.453125 35.6875 11.515625 40.375 
Q 6.59375 45.0625 6.59375 53.421875 
Q 6.59375 63.09375 13.40625 68.65625 
Q 20.21875 74.21875 32.171875 74.21875 
Q 37.3125 74.21875 42.625 73.28125 
Q 47.953125 72.359375 53.515625 70.515625 
z
" id="DejaVuSans-53"/>
     <path d="M 18.3125 70.21875 
L 18.3125 54.6875 
L 36.8125 54.6875 
L 36.8125 47.703125 
L 18.3125 47.703125 
L 18.3125 18.015625 
Q 18.3125 11.328125 20.140625 9.421875 
Q 21.96875 7.515625 27.59375 7.515625 
L 36.8125 7.515625 
L 36.8125 0 
L 27.59375 0 
Q 17.1875 0 13.234375 3.875 
Q 9.28125 7.765625 9.28125 18.015625 
L 9.28125 47.703125 
L 2.6875 47.703125 
L 2.6875 54.6875 
L 9.28125 54.6875 
L 9.28125 70.21875 
z
" id="DejaVuSans-74"/>
     <path d="M 41.109375 46.296875 
Q 39.59375 47.171875 37.8125 47.578125 
Q 36.03125 48 33.890625 48 
Q 26.265625 48 22.1875 43.046875 
Q 18.109375 38.09375 18.109375 28.8125 
L 18.109375 0 
L 9.078125 0 
L 9.078125 54.6875 
L 18.109375 54.6875 
L 18.109375 46.1875 
Q 20.953125 51.171875 25.484375 53.578125 
Q 30.03125 56 36.53125 56 
Q 37.453125 56 38.578125 55.875 
Q 39.703125 55.765625 41.0625 55.515625 
z
" id="DejaVuSans-72"/>
     <path d="M 56.203125 29.59375 
L 56.203125 25.203125 
L 14.890625 25.203125 
Q 15.484375 15.921875 20.484375 11.0625 
Q 25.484375 6.203125 34.421875 6.203125 
Q 39.59375 6.203125 44.453125 7.46875 
Q 49.3125 8.734375 54.109375 11.28125 
L 54.109375 2.78125 
Q 49.265625 0.734375 44.1875 -0.34375 
Q 39.109375 -1.421875 33.890625 -1.421875 
Q 20.796875 -1.421875 13.15625 6.1875 
Q 5.515625 13.8125 5.515625 26.8125 
Q 5.515625 40.234375 12.765625 48.109375 
Q 20.015625 56 32.328125 56 
Q 43.359375 56 49.78125 48.890625 
Q 56.203125 41.796875 56.203125 29.59375 
z
M 47.21875 32.234375 
Q 47.125 39.59375 43.09375 43.984375 
Q 39.0625 48.390625 32.421875 48.390625 
Q 24.90625 48.390625 20.390625 44.140625 
Q 15.875 39.890625 15.1875 32.171875 
z
" id="DejaVuSans-65"/>
     <path d="M 34.28125 27.484375 
Q 23.390625 27.484375 19.1875 25 
Q 14.984375 22.515625 14.984375 16.5 
Q 14.984375 11.71875 18.140625 8.90625 
Q 21.296875 6.109375 26.703125 6.109375 
Q 34.1875 6.109375 38.703125 11.40625 
Q 43.21875 16.703125 43.21875 25.484375 
L 43.21875 27.484375 
z
M 52.203125 31.203125 
L 52.203125 0 
L 43.21875 0 
L 43.21875 8.296875 
Q 40.140625 3.328125 35.546875 0.953125 
Q 30.953125 -1.421875 24.3125 -1.421875 
Q 15.921875 -1.421875 10.953125 3.296875 
Q 6 8.015625 6 15.921875 
Q 6 25.140625 12.171875 29.828125 
Q 18.359375 34.515625 30.609375 34.515625 
L 43.21875 34.515625 
L 43.21875 35.40625 
Q 43.21875 41.609375 39.140625 45 
Q 35.0625 48.390625 27.6875 48.390625 
Q 23 48.390625 18.546875 47.265625 
Q 14.109375 46.140625 10.015625 43.890625 
L 10.015625 52.203125 
Q 14.9375 54.109375 19.578125 55.046875 
Q 24.21875 56 28.609375 56 
Q 40.484375 56 46.34375 49.84375 
Q 52.203125 43.703125 52.203125 31.203125 
z
" id="DejaVuSans-61"/>
     <path d="M 52 44.1875 
Q 55.375 50.25 60.0625 53.125 
Q 64.75 56 71.09375 56 
Q 79.640625 56 84.28125 50.015625 
Q 88.921875 44.046875 88.921875 33.015625 
L 88.921875 0 
L 79.890625 0 
L 79.890625 32.71875 
Q 79.890625 40.578125 77.09375 44.375 
Q 74.3125 48.1875 68.609375 48.1875 
Q 61.625 48.1875 57.5625 43.546875 
Q 53.515625 38.921875 53.515625 30.90625 
L 53.515625 0 
L 44.484375 0 
L 44.484375 32.71875 
Q 44.484375 40.625 41.703125 44.40625 
Q 38.921875 48.1875 33.109375 48.1875 
Q 26.21875 48.1875 22.15625 43.53125 
Q 18.109375 38.875 18.109375 30.90625 
L 18.109375 0 
L 9.078125 0 
L 9.078125 54.6875 
L 18.109375 54.6875 
L 18.109375 46.1875 
Q 21.1875 51.21875 25.484375 53.609375 
Q 29.78125 56 35.6875 56 
Q 41.65625 56 45.828125 52.96875 
Q 50 49.953125 52 44.1875 
z
" id="DejaVuSans-6d"/>
     <path id="DejaVuSans-20"/>
     <path d="M 37.109375 75.984375 
L 37.109375 68.5 
L 28.515625 68.5 
Q 23.6875 68.5 21.796875 66.546875 
Q 19.921875 64.59375 19.921875 59.515625 
L 19.921875 54.6875 
L 34.71875 54.6875 
L 34.71875 47.703125 
L 19.921875 47.703125 
L 19.921875 0 
L 10.890625 0 
L 10.890625 47.703125 
L 2.296875 47.703125 
L 2.296875 54.6875 
L 10.890625 54.6875 
L 10.890625 58.5 
Q 10.890625 67.625 15.140625 71.796875 
Q 19.390625 75.984375 28.609375 75.984375 
z
" id="DejaVuSans-66"/>
     <path d="M 8.5 21.578125 
L 8.5 54.6875 
L 17.484375 54.6875 
L 17.484375 21.921875 
Q 17.484375 14.15625 20.5 10.265625 
Q 23.53125 6.390625 29.59375 6.390625 
Q 36.859375 6.390625 41.078125 11.03125 
Q 45.3125 15.671875 45.3125 23.6875 
L 45.3125 54.6875 
L 54.296875 54.6875 
L 54.296875 0 
L 45.3125 0 
L 45.3125 8.40625 
Q 42.046875 3.421875 37.71875 1 
Q 33.40625 -1.421875 27.6875 -1.421875 
Q 18.265625 -1.421875 13.375 4.4375 
Q 8.5 10.296875 8.5 21.578125 
z
M 31.109375 56 
z
" id="DejaVuSans-75"/>
     <path d="M 54.890625 33.015625 
L 54.890625 0 
L 45.90625 0 
L 45.90625 32.71875 
Q 45.90625 40.484375 42.875 44.328125 
Q 39.84375 48.1875 33.796875 48.1875 
Q 26.515625 48.1875 22.3125 43.546875 
Q 18.109375 38.921875 18.109375 30.90625 
L 18.109375 0 
L 9.078125 0 
L 9.078125 54.6875 
L 18.109375 54.6875 
L 18.109375 46.1875 
Q 21.34375 51.125 25.703125 53.5625 
Q 30.078125 56 35.796875 56 
Q 45.21875 56 50.046875 50.171875 
Q 54.890625 44.34375 54.890625 33.015625 
z
" id="DejaVuSans-6e"/>
     <path d="M 48.78125 52.59375 
L 48.78125 44.1875 
Q 44.96875 46.296875 41.140625 47.34375 
Q 37.3125 48.390625 33.40625 48.390625 
Q 24.65625 48.390625 19.8125 42.84375 
Q 14.984375 37.3125 14.984375 27.296875 
Q 14.984375 17.28125 19.8125 11.734375 
Q 24.65625 6.203125 33.40625 6.203125 
Q 37.3125 6.203125 41.140625 7.25 
Q 44.96875 8.296875 48.78125 10.40625 
L 48.78125 2.09375 
Q 45.015625 0.34375 40.984375 -0.53125 
Q 36.96875 -1.421875 32.421875 -1.421875 
Q 20.0625 -1.421875 12.78125 6.34375 
Q 5.515625 14.109375 5.515625 27.296875 
Q 5.515625 40.671875 12.859375 48.328125 
Q 20.21875 56 33.015625 56 
Q 37.15625 56 41.109375 55.140625 
Q 45.0625 54.296875 48.78125 52.59375 
z
" id="DejaVuSans-63"/>
     <path d="M 9.421875 54.6875 
L 18.40625 54.6875 
L 18.40625 0 
L 9.421875 0 
z
M 9.421875 75.984375 
L 18.40625 75.984375 
L 18.40625 64.59375 
L 9.421875 64.59375 
z
" id="DejaVuSans-69"/>
     <path d="M 30.609375 48.390625 
Q 23.390625 48.390625 19.1875 42.75 
Q 14.984375 37.109375 14.984375 27.296875 
Q 14.984375 17.484375 19.15625 11.84375 
Q 23.34375 6.203125 30.609375 6.203125 
Q 37.796875 6.203125 41.984375 11.859375 
Q 46.1875 17.53125 46.1875 27.296875 
Q 46.1875 37.015625 41.984375 42.703125 
Q 37.796875 48.390625 30.609375 48.390625 
z
M 30.609375 56 
Q 42.328125 56 49.015625 48.375 
Q 55.71875 40.765625 55.71875 27.296875 
Q 55.71875 13.875 49.015625 6.21875 
Q 42.328125 -1.421875 30.609375 -1.421875 
Q 18.84375 -1.421875 12.171875 6.21875 
Q 5.515625 13.875 5.515625 27.296875 
Q 5.515625 40.765625 12.171875 48.375 
Q 18.84375 56 30.609375 56 
z
" id="DejaVuSans-6f"/>
     <path d="M 24.859375 -1.21875 
Q 13.921875 0.59375 9.625 5.328125 
Q 4.34375 11.140625 6.640625 23 
L 12.796875 54.6875 
L 21.875 54.6875 
L 15.765625 23.34375 
Q 14.0625 14.40625 17.484375 10.6875 
Q 20.515625 7.46875 26.421875 6.78125 
L 35.6875 54.6875 
L 44.625 54.6875 
L 35.359375 6.84375 
Q 41.890625 7.515625 45.75 10.75 
Q 50.734375 14.84375 52.390625 23.390625 
L 58.453125 54.6875 
L 67.53125 54.6875 
L 61.375 23.046875 
Q 58.984375 10.75 51.5625 5.375 
Q 44.875 0.53125 33.796875 -1.171875 
L 29.984375 -20.796875 
L 21.046875 -20.796875 
z
" id="DejaVuSans-Oblique-3c8"/>
     <path d="M 31 75.875 
Q 24.46875 64.65625 21.28125 53.65625 
Q 18.109375 42.671875 18.109375 31.390625 
Q 18.109375 20.125 21.3125 9.0625 
Q 24.515625 -2 31 -13.1875 
L 23.1875 -13.1875 
Q 15.875 -1.703125 12.234375 9.375 
Q 8.59375 20.453125 8.59375 31.390625 
Q 8.59375 42.28125 12.203125 53.3125 
Q 15.828125 64.359375 23.1875 75.875 
z
" id="DejaVuSans-28"/>
     <path d="M 11.71875 12.40625 
L 22.015625 12.40625 
L 22.015625 4 
L 14.015625 -11.625 
L 7.71875 -11.625 
L 11.71875 4 
z
" id="DejaVuSans-2c"/>
     <path d="M 8.015625 75.875 
L 15.828125 75.875 
Q 23.140625 64.359375 26.78125 53.3125 
Q 30.421875 42.28125 30.421875 31.390625 
Q 30.421875 20.453125 26.78125 9.375 
Q 23.140625 -1.703125 15.828125 -13.1875 
L 8.015625 -13.1875 
Q 14.5 -2 17.703125 9.0625 
Q 20.90625 20.125 20.90625 31.390625 
Q 20.90625 42.671875 17.703125 53.65625 
Q 14.5 64.65625 8.015625 75.875 
z
" id="DejaVuSans-29"/>
     <path d="M 55.71875 33.015625 
L 49.3125 0 
L 40.28125 0 
L 46.6875 32.671875 
Q 47.125 34.96875 47.359375 36.71875 
Q 47.609375 38.484375 47.609375 39.5 
Q 47.609375 43.609375 45.015625 45.890625 
Q 42.4375 48.1875 37.796875 48.1875 
Q 30.5625 48.1875 25.265625 43.296875 
Q 19.96875 38.421875 18.40625 30.328125 
L 12.5 0 
L 3.515625 0 
L 18.3125 75.984375 
L 27.296875 75.984375 
L 21.484375 46.09375 
Q 24.90625 50.6875 30.21875 53.34375 
Q 35.546875 56 41.40625 56 
Q 48.640625 56 52.609375 52.09375 
Q 56.59375 48.1875 56.59375 41.109375 
Q 56.59375 39.359375 56.375 37.359375 
Q 56.15625 35.359375 55.71875 33.015625 
z
" id="DejaVuSans-Oblique-68"/>
     <path d="M 10.59375 45.40625 
L 73.1875 45.40625 
L 73.1875 37.203125 
L 10.59375 37.203125 
z
M 10.59375 25.484375 
L 73.1875 25.484375 
L 73.1875 17.1875 
L 10.59375 17.1875 
z
" id="DejaVuSans-3d"/>
     <path d="M 40.578125 39.3125 
Q 47.65625 37.796875 51.625 33 
Q 55.609375 28.21875 55.609375 21.1875 
Q 55.609375 10.40625 48.1875 4.484375 
Q 40.765625 -1.421875 27.09375 -1.421875 
Q 22.515625 -1.421875 17.65625 -0.515625 
Q 12.796875 0.390625 7.625 2.203125 
L 7.625 11.71875 
Q 11.71875 9.328125 16.59375 8.109375 
Q 21.484375 6.890625 26.8125 6.890625 
Q 36.078125 6.890625 40.9375 10.546875 
Q 45.796875 14.203125 45.796875 21.1875 
Q 45.796875 27.640625 41.28125 31.265625 
Q 36.765625 34.90625 28.71875 34.90625 
L 20.21875 34.90625 
L 20.21875 43.015625 
L 29.109375 43.015625 
Q 36.375 43.015625 40.234375 45.921875 
Q 44.09375 48.828125 44.09375 54.296875 
Q 44.09375 59.90625 40.109375 62.90625 
Q 36.140625 65.921875 28.71875 65.921875 
Q 24.65625 65.921875 20.015625 65.03125 
Q 15.375 64.15625 9.8125 62.3125 
L 9.8125 71.09375 
Q 15.4375 72.65625 20.34375 73.4375 
Q 25.25 74.21875 29.59375 74.21875 
Q 40.828125 74.21875 47.359375 69.109375 
Q 53.90625 64.015625 53.90625 55.328125 
Q 53.90625 49.265625 50.4375 45.09375 
Q 46.96875 40.921875 40.578125 39.3125 
z
" id="DejaVuSans-33"/>
    </defs>
    <g transform="translate(141.36 71.292356)scale(0.12 -0.12)">
     <use transform="translate(0 0.015625)" xlink:href="#DejaVuSans-53"/>
     <use transform="translate(63.476562 0.015625)" xlink:href="#DejaVuSans-74"/>
     <use transform="translate(102.685547 0.015625)" xlink:href="#DejaVuSans-72"/>
     <use transform="translate(143.798828 0.015625)" xlink:href="#DejaVuSans-65"/>
     <use transform="translate(205.322266 0.015625)" xlink:href="#DejaVuSans-61"/>
     <use transform="translate(266.601562 0.015625)" xlink:href="#DejaVuSans-6d"/>
     <use transform="translate(364.013672 0.015625)" xlink:href="#DejaVuSans-20"/>
     <use transform="translate(395.800781 0.015625)" xlink:href="#DejaVuSans-66"/>
     <use transform="translate(431.005859 0.015625)" xlink:href="#DejaVuSans-75"/>
     <use transform="translate(494.384766 0.015625)" xlink:href="#DejaVuSans-6e"/>
     <use transform="translate(557.763672 0.015625)" xlink:href="#DejaVuSans-63"/>
     <use transform="translate(612.744141 0.015625)" xlink:href="#DejaVuSans-74"/>
     <use transform="translate(651.953125 0.015625)" xlink:href="#DejaVuSans-69"/>
     <use transform="translate(679.736328 0.015625)" xlink:href="#DejaVuSans-6f"/>
     <use transform="translate(740.917969 0.015625)" xlink:href="#DejaVuSans-6e"/>
     <use transform="translate(804.296875 0.015625)" xlink:href="#DejaVuSans-20"/>
     <use transform="translate(836.083984 0.015625)" xlink:href="#DejaVuSans-Oblique-3c8"/>
     <use transform="translate(902.050781 0.015625)" xlink:href="#DejaVuSans-28"/>
     <use transform="translate(941.064453 0.015625)" xlink:href="#DejaVuSans-Oblique-78"/>
     <use transform="translate(1000.244141 0.015625)" xlink:href="#DejaVuSans-2c"/>
     <use transform="translate(1051.513672 0.015625)" xlink:href="#DejaVuSans-Oblique-79"/>
     <use transform="translate(1110.693359 0.015625)" xlink:href="#DejaVuSans-29"/>
     <use transform="translate(1149.707031 0.015625)" xlink:href="#DejaVuSans-2c"/>
     <use transform="translate(1181.494141 0.015625)" xlink:href="#DejaVuSans-20"/>
     <use transform="translate(1213.28125 0.015625)" xlink:href="#DejaVuSans-Oblique-68"/>
     <use transform="translate(1296.142578 0.015625)" xlink:href="#DejaVuSans-3d"/>
     <use transform="translate(1399.414062 0.015625)" xlink:href="#DejaVuSans-33"/>
     <use transform="translate(1463.037109 0.015625)" xlink:href="#DejaVuSans-Oblique-6c"/>
     <use transform="translate(1490.820312 -16.390625)scale(0.7)" xlink:href="#DejaVuSans-Oblique-65"/>
     <use transform="translate(1533.886719 -16.390625)scale(0.7)" xlink:href="#DejaVuSans-Oblique-65"/>
    </g>
   </g>
  </g>
 </g>
 <defs>
  <clipPath id="p7a9cdb64f9">
   <rect height="194.471287" width="357.12" x="57.6" y="77.292356"/>
  </clipPath>
 </defs>
</svg>
